<svg width="133" height="120" viewBox="0 0 133 120" fill="none" xmlns="http://www.w3.org/2000/svg">
<g id="Group">
<path id="Vector" d="M35.1501 79.2798C35.1283 79.2196 35.1066 79.1595 35.0853 79.0993C32.0025 70.3797 38.6591 61.2851 48.0528 61.2851H56.9544C56.9544 53.6642 63.2414 47.4863 70.997 47.4863H82.2353" stroke="#C98B27" stroke-width="3" stroke-miterlimit="10"/>
<path id="Vector_2" d="M103.088 59.8913C103.229 60.5652 103.302 61.2627 103.302 61.9774C103.302 67.694 98.5861 72.3281 92.7686 72.3281C87.6783 72.3281 83.4312 68.7802 82.449 64.0634" stroke="#C98B27" stroke-width="3" stroke-miterlimit="10"/>
<path id="Vector_3" d="M118.569 76.3799C118.569 83.7794 113.343 90.1882 105.994 91.8015L101.155 92.8638" stroke="#C98B27" stroke-width="3" stroke-miterlimit="10"/>
<path id="Vector_4" d="M114.754 110.25L114.758 118.084H103.114V112.125C103.114 106.785 98.7091 102.457 93.2749 102.457H87.9994C83.4613 102.457 79.7825 98.8416 79.7825 94.3823V87.2086" stroke="#C98B27" stroke-width="3" stroke-miterlimit="10"/>
<path id="Vector_5" d="M108.937 90.8633C112.545 94.4725 114.619 99.2881 114.752 104.333L114.753 106.428" stroke="#C98B27" stroke-width="3" stroke-miterlimit="10"/>
<path id="Vector_6" d="M36.0711 68.1879H35.887C28.9059 68.1879 23.2466 62.6268 23.2466 55.7668" stroke="#C98B27" stroke-width="3" stroke-miterlimit="10"/>
<path id="Vector_7" d="M7.63406 71.4262C13.8005 78.8921 24.2741 82.9256 35.1504 79.2798C40.0887 92.3492 59.2072 95.0602 67.6771 83.7985C78.6568 91.2367 94.8852 84.9691 96.7176 72.1102L97.3513 71.8339C113.067 89.3112 140.818 68.8263 127.089 48.9877C130.339 42.8118 128.31 35.0426 121.603 32.4942C124.233 24.6008 117.625 16.0667 109.148 16.545C106.674 7.00931 93.7598 2.77883 85.9454 9.12723C81.8075 -1.62548 69.5497 1.54783 65.9072 7.17319C56.8945 -1.86989 40.1618 1.49075 35.3773 13.0911C26.5807 5.84866 12.845 13.7997 15.145 24.9499C6.8321 25.9059 1.75581 35.7875 5.96167 42.978C0.473248 51.6895 1.11414 61.0091 5.36617 68.1981" stroke="#C98B27" stroke-width="3" stroke-miterlimit="10"/>
<path id="Vector_8" d="M27.2366 22.3223V26.1453" stroke="#C98B27" stroke-width="3" stroke-miterlimit="10"/>
<path id="Vector_9" d="M35.0173 22.3223V26.1453" stroke="#C98B27" stroke-width="3" stroke-miterlimit="10"/>
</g>
</svg>
