<svg width="110" height="120" viewBox="0 0 110 120" fill="none" xmlns="http://www.w3.org/2000/svg">
<g id="Group">
<g id="Group_2">
<g id="Group_3">
<path id="Vector" d="M62.4446 105.014C60.3402 106.766 57.6331 107.819 54.6808 107.819C48.0707 107.819 42.6986 102.538 42.5421 95.9653C39.9448 97.1799 36.8173 97.1518 34.1453 95.6103C31.4732 94.0687 29.885 91.3733 29.6397 88.5167C23.8705 91.6676 16.6088 89.6542 13.3038 83.9294C9.99878 78.207 11.886 70.9126 17.5011 67.4908C15.149 65.8511 13.6098 63.1277 13.6098 60.0422C13.6098 56.9567 15.149 54.2333 17.5011 52.5936C15.824 51.5706 14.481 50.2042 13.5093 48.637" stroke="#C98B27" stroke-width="3" stroke-miterlimit="10" stroke-linecap="round" stroke-linejoin="round"/>
<path id="Vector_2" d="M97.674 78.3915C97.8585 74.1055 95.7564 69.8662 91.8604 67.4908C94.2125 65.8511 95.7517 63.1277 95.7517 60.0422C95.7517 56.9568 94.2125 54.2333 91.8604 52.5937C97.4755 49.1719 99.3627 41.8775 96.0577 36.155C92.7527 30.4302 85.4933 28.4168 79.7241 31.5677H79.7218C79.4765 28.7111 77.8883 26.0157 75.2162 24.4741C72.5442 22.9326 69.4167 22.9046 66.8194 24.1191C66.7797 22.4631 66.4106 20.8888 65.7706 19.4617" stroke="#C98B27" stroke-width="3" stroke-miterlimit="10" stroke-linecap="round" stroke-linejoin="round"/>
<path id="Vector_3" d="M60.0971 13.536C58.4668 12.7232 56.6263 12.2654 54.6806 12.2654C48.0706 12.2654 42.6985 17.5464 42.542 24.1191C39.9447 22.9045 36.8172 22.9325 34.1451 24.4741C31.4731 26.0157 29.8848 28.7111 29.6396 31.5676C23.8704 28.4168 16.6087 30.4301 13.3037 36.1549C12.4792 37.5821 11.9793 39.1073 11.7761 40.6442" stroke="#C98B27" stroke-width="3" stroke-miterlimit="10" stroke-linecap="round" stroke-linejoin="round"/>
<path id="Vector_4" d="M43.9362 30.0812C43.0412 28.3887 42.5345 26.4592 42.5345 24.4115C42.5345 24.3136 42.5357 24.2162 42.538 24.1191" stroke="#C98B27" stroke-width="3" stroke-miterlimit="10" stroke-linecap="round" stroke-linejoin="round"/>
<path id="Vector_5" d="M29.8966 31.708C31.8131 32.8144 33.314 34.3644 34.3443 36.1531" stroke="#C98B27" stroke-width="3" stroke-miterlimit="10" stroke-linecap="round" stroke-linejoin="round"/>
<path id="Vector_6" d="M17.7507 67.3387C19.7251 66.1989 21.8863 65.6762 24.0113 65.711" stroke="#C98B27" stroke-width="3" stroke-miterlimit="10" stroke-linecap="round" stroke-linejoin="round"/>
<path id="Vector_7" d="M42.538 95.9653C42.5357 95.8681 42.5345 95.7707 42.5345 95.6729C42.5345 93.1218 43.321 90.7543 44.6647 88.8" stroke="#C98B27" stroke-width="3" stroke-miterlimit="10" stroke-linecap="round" stroke-linejoin="round"/>
<path id="Vector_8" d="M85.8091 51.0026C86.0929 50.9759 86.3802 50.9622 86.671 50.9622C88.5514 50.9622 90.2985 51.5339 91.7476 52.5128" stroke="#C98B27" stroke-width="3" stroke-miterlimit="10" stroke-linecap="round" stroke-linejoin="round"/>
<path id="Vector_9" d="M79.7239 31.5681C79.8776 33.3556 79.5044 35.2062 78.5392 36.8779C78.24 37.3962 77.8972 37.874 77.5183 38.309" stroke="#C98B27" stroke-width="3" stroke-miterlimit="10" stroke-linecap="round" stroke-linejoin="round"/>
<g id="Group_4">
<path id="Vector_10" d="M54.6807 4.94183V12.2654" stroke="#C98B27" stroke-width="3" stroke-miterlimit="10" stroke-linecap="round" stroke-linejoin="round"/>
<path id="Vector_11" d="M59.9307 2C56.9085 4.58632 52.4532 4.58632 49.431 2" stroke="#C98B27" stroke-width="3" stroke-miterlimit="10" stroke-linecap="round" stroke-linejoin="round"/>
<path id="Vector_12" d="M30.3669 17.8248L33.5029 23.2563" stroke="#C98B27" stroke-width="3" stroke-miterlimit="10" stroke-linecap="round" stroke-linejoin="round"/>
<path id="Vector_13" d="M32.8631 14.4329C31.8804 17.2164 29.0171 18.8696 26.1152 18.3289" stroke="#C98B27" stroke-width="3" stroke-miterlimit="10" stroke-linecap="round" stroke-linejoin="round"/>
<path id="Vector_14" d="M5.96277 59.9899H12.2344" stroke="#C98B27" stroke-width="3" stroke-miterlimit="10" stroke-linecap="round" stroke-linejoin="round"/>
<path id="Vector_15" d="M4.27319 56.132C6.19244 58.3748 6.19244 61.6812 4.27319 63.9239" stroke="#C98B27" stroke-width="3" stroke-miterlimit="10" stroke-linecap="round" stroke-linejoin="round"/>
<path id="Vector_16" d="M30.2764 102.207L33.4123 96.7756" stroke="#C98B27" stroke-width="3" stroke-miterlimit="10" stroke-linecap="round" stroke-linejoin="round"/>
<path id="Vector_17" d="M26.0906 101.741C28.9925 101.2 31.856 102.854 32.8384 105.637" stroke="#C98B27" stroke-width="3" stroke-miterlimit="10" stroke-linecap="round" stroke-linejoin="round"/>
<path id="Vector_18" d="M103.399 60.0945H97.1272" stroke="#C98B27" stroke-width="3" stroke-miterlimit="10" stroke-linecap="round" stroke-linejoin="round"/>
<path id="Vector_19" d="M105.088 63.9524C103.169 61.7097 103.169 58.4033 105.088 56.1605" stroke="#C98B27" stroke-width="3" stroke-miterlimit="10" stroke-linecap="round" stroke-linejoin="round"/>
<path id="Vector_20" d="M79.085 17.8772L75.9491 23.3089" stroke="#C98B27" stroke-width="3" stroke-miterlimit="10" stroke-linecap="round" stroke-linejoin="round"/>
<path id="Vector_21" d="M83.2709 18.3432C80.369 18.8841 77.5055 17.2309 76.5231 14.4472" stroke="#C98B27" stroke-width="3" stroke-miterlimit="10" stroke-linecap="round" stroke-linejoin="round"/>
<path id="Vector_22" d="M6.96228 32.4919L13.3049 36.1538" stroke="#C98B27" stroke-width="3" stroke-miterlimit="10" stroke-linecap="round" stroke-linejoin="round"/>
<path id="Vector_23" d="M7.03963 26.4747C7.76837 30.3851 5.54058 34.2437 1.78967 35.5678" stroke="#C98B27" stroke-width="3" stroke-miterlimit="10" stroke-linecap="round" stroke-linejoin="round"/>
<path id="Vector_24" d="M6.96228 87.5925L13.3049 83.9306" stroke="#C98B27" stroke-width="3" stroke-miterlimit="10" stroke-linecap="round" stroke-linejoin="round"/>
<path id="Vector_25" d="M1.78967 84.5168C5.54058 85.841 7.76837 89.6995 7.03963 93.61" stroke="#C98B27" stroke-width="3" stroke-miterlimit="10" stroke-linecap="round" stroke-linejoin="round"/>
<path id="Vector_26" d="M54.6807 115.143V107.819" stroke="#C98B27" stroke-width="3" stroke-miterlimit="10" stroke-linecap="round" stroke-linejoin="round"/>
<path id="Vector_27" d="M49.4307 118.084C52.4528 115.498 56.9082 115.498 59.9304 118.084" stroke="#C98B27" stroke-width="3" stroke-miterlimit="10" stroke-linecap="round" stroke-linejoin="round"/>
<path id="Vector_28" d="M102.399 32.4919L96.0565 36.1538" stroke="#C98B27" stroke-width="3" stroke-miterlimit="10" stroke-linecap="round" stroke-linejoin="round"/>
<path id="Vector_29" d="M107.572 35.5675C103.821 34.2434 101.593 30.3849 102.322 26.4744" stroke="#C98B27" stroke-width="3" stroke-miterlimit="10" stroke-linecap="round" stroke-linejoin="round"/>
</g>
</g>
<path id="Vector_30" d="M37.9424 61.6763C42.6245 61.6763 46.4201 57.8807 46.4201 53.1986C46.4201 48.5165 42.6245 44.7209 37.9424 44.7209C33.2603 44.7209 29.4647 48.5165 29.4647 53.1986C29.4647 57.8807 33.2603 61.6763 37.9424 61.6763Z" stroke="#C98B27" stroke-width="3" stroke-miterlimit="10" stroke-linecap="round" stroke-linejoin="round"/>
<path id="Vector_31" d="M59.5745 93.802C59.5086 93.844 59.4413 93.8849 59.3729 93.9244C56.8735 95.3673 53.6775 94.5111 52.2343 92.0116C50.7913 89.5122 51.6476 86.3163 54.147 84.873C56.4351 83.552 59.307 84.1581 60.8834 86.1876" stroke="#C98B27" stroke-width="3" stroke-miterlimit="10" stroke-linecap="round" stroke-linejoin="round"/>
<path id="Vector_32" d="M36.7796 80.5431C39.6657 80.5431 42.0053 78.2035 42.0053 75.3175C42.0053 72.4314 39.6657 70.0918 36.7796 70.0918C33.8936 70.0918 31.554 72.4314 31.554 75.3175C31.554 78.2035 33.8936 80.5431 36.7796 80.5431Z" stroke="#C98B27" stroke-width="3" stroke-miterlimit="10" stroke-linecap="round" stroke-linejoin="round"/>
<path id="Vector_33" d="M55.9112 40.1642C58.7973 40.1642 61.1369 37.8246 61.1369 34.9386C61.1369 32.0525 58.7973 29.7129 55.9112 29.7129C53.0252 29.7129 50.6855 32.0525 50.6855 34.9386C50.6855 37.8246 53.0252 40.1642 55.9112 40.1642Z" stroke="#C98B27" stroke-width="3" stroke-miterlimit="10" stroke-linecap="round" stroke-linejoin="round"/>
<path id="Vector_34" d="M62.6315 51.0194C69.1271 47.8312 77.0708 50.1832 80.7425 56.541C83.5944 61.4833 83.0619 67.4534 79.8596 71.7581" stroke="#C98B27" stroke-width="3" stroke-miterlimit="10" stroke-linecap="round" stroke-linejoin="round"/>
<path id="Vector_35" d="M56.6731 56.6227C54.3257 60.7593 54.1715 65.9936 56.7198 70.4104C58.9808 74.3227 62.858 76.7168 67.0202 77.2377" stroke="#C98B27" stroke-width="3" stroke-miterlimit="10" stroke-linecap="round" stroke-linejoin="round"/>
</g>
<g id="Group_5">
<path id="Vector_36" d="M100.145 105.974C102.441 102.498 103.777 98.336 103.777 93.8608C103.777 81.7082 93.9228 71.8539 81.7702 71.8539C69.6175 71.8539 59.7655 81.7082 59.7655 93.8608C59.7655 106.013 69.6175 115.865 81.7702 115.865C86.4953 115.865 90.8701 114.378 94.4554 111.843" stroke="#C98B27" stroke-width="3" stroke-miterlimit="10" stroke-linecap="round" stroke-linejoin="round"/>
<path id="Vector_37" d="M69.9253 89.8364H77.7469V82.0149H85.7948V89.8364H93.6163V97.8843H85.7948V105.706H77.7469V97.8843H69.9253V89.8364Z" stroke="#C98B27" stroke-width="3" stroke-miterlimit="10" stroke-linecap="round" stroke-linejoin="round"/>
</g>
</g>
</svg>
