<svg width="105" height="117" viewBox="0 0 105 117" fill="none" xmlns="http://www.w3.org/2000/svg">
<path d="M56.2923 4.46289C57.1626 4.46289 57.8682 3.75783 57.8682 2.88809C57.8682 2.01835 57.1626 1.31329 56.2923 1.31329C55.4219 1.31329 54.7163 2.01835 54.7163 2.88809C54.7163 3.75783 55.4219 4.46289 56.2923 4.46289Z" fill="#C98B27"/>
<path d="M4.70975 87.5597C5.58013 87.5597 6.28571 86.8546 6.28571 85.9849C6.28571 85.1152 5.58013 84.4101 4.70975 84.4101C3.83937 84.4101 3.13379 85.1152 3.13379 85.9849C3.13379 86.8546 3.83937 87.5597 4.70975 87.5597Z" fill="#C98B27"/>
<path d="M87.8042 61.5916V54.6988C89.8134 54.0975 91.2828 52.2352 91.2828 50.0345C91.2828 47.3493 89.0964 45.1646 86.4091 45.1646C83.7217 45.1646 81.5354 47.3493 81.5354 50.0345C81.5354 52.2352 83.0048 54.0975 85.014 54.6988V61.5914C83.0048 62.1927 81.5354 64.0549 81.5354 66.2557C81.5354 68.9409 83.7217 71.1256 86.4091 71.1256C89.0964 71.1256 91.2828 68.9409 91.2828 66.2557C91.2828 64.0549 89.8136 62.1927 87.8042 61.5916ZM84.3256 50.0345C84.3256 48.8864 85.2603 47.9524 86.4093 47.9524C87.5583 47.9524 88.493 48.8864 88.493 50.0345C88.493 51.1826 87.5583 52.1166 86.4093 52.1166C85.2603 52.1166 84.3256 51.1826 84.3256 50.0345ZM86.4093 68.338C85.2605 68.338 84.3256 67.404 84.3256 66.2559C84.3256 65.1078 85.2603 64.1738 86.4093 64.1738C87.5583 64.1738 88.493 65.1078 88.493 66.2559C88.493 67.404 87.5581 68.338 86.4093 68.338Z" fill="#C98B27"/>
<path d="M36.097 46.4524C35.4688 46.0064 34.5979 46.1529 34.1517 46.7805C30.3439 52.1315 21.1142 48.4484 21.0216 48.4103C20.3095 48.1189 19.4953 48.4586 19.2028 49.1706C18.9098 49.8827 19.2502 50.6971 19.9629 50.9897C20.2188 51.0946 23.6834 52.4851 27.5892 52.4851C28.763 52.4851 29.9766 52.3592 31.1548 52.0354C30.0054 56.2736 26.1964 56.4668 25.6993 56.473C24.9323 56.4772 24.3119 57.0997 24.3119 57.867C24.3119 58.6368 24.9364 59.2609 25.707 59.2609C28.4626 59.2609 33.6469 57.4272 34.2211 50.6073C35.0281 50.0366 35.7745 49.3111 36.4255 48.3964C36.8717 47.7688 36.7248 46.8986 36.097 46.4524Z" fill="#C98B27"/>
<path d="M18.6331 78.9007C19.6603 78.9007 20.493 78.0686 20.493 77.0422C20.493 76.0158 19.6603 75.1837 18.6331 75.1837C17.6059 75.1837 16.7732 76.0158 16.7732 77.0422C16.7732 78.0686 17.6059 78.9007 18.6331 78.9007Z" fill="#C98B27"/>
<path d="M36.0203 37.8081C37.0475 37.8081 37.8802 36.976 37.8802 35.9496C37.8802 34.9231 37.0475 34.0911 36.0203 34.0911C34.9931 34.0911 34.1604 34.9231 34.1604 35.9496C34.1604 36.976 34.9931 37.8081 36.0203 37.8081Z" fill="#C98B27"/>
<path d="M33.8758 72.9897C32.8055 72.9897 32.132 71.7843 32.6841 70.8732C32.8345 70.6248 36.4471 64.7974 42.7224 65.2773C43.4906 65.3363 44.0655 66.0065 44.0063 66.7741C43.9473 67.5419 43.2703 68.1128 42.5083 68.057C37.9207 67.703 35.0984 72.2714 35.0701 72.3176C34.8082 72.7503 34.3476 72.9897 33.8758 72.9897Z" fill="#C98B27"/>
<path d="M103.549 46.3396C102.178 38.9401 98.0101 32.8817 92.7798 30.5454C92.878 29.0551 92.7896 27.5564 92.5154 26.0766C91.0683 18.2646 84.7993 12.3436 77.1361 11.4416C74.2577 6.7365 70.4243 3.28276 65.7331 1.17049C65.0308 0.853348 64.2045 1.16654 63.8881 1.86862C63.5716 2.57047 63.8844 3.39582 64.5869 3.71227C68.9394 5.672 72.4739 8.95208 75.0923 13.4608C75.3233 13.8585 75.7356 14.1167 76.1946 14.1513C82.9259 14.6555 88.5091 19.7681 89.7719 26.5841C90.0602 28.1401 90.1059 29.7198 89.9072 31.2795C89.8239 31.9349 90.2123 32.559 90.8377 32.7735C95.5391 34.3882 99.5448 40.0441 100.805 46.8471C101.981 53.1934 100.56 59.4104 97.1845 62.6854C96.6617 63.1927 96.6178 64.0166 97.0838 64.5766C98.9748 66.8491 100.271 69.6537 100.834 72.6874C102.101 79.5276 99.3409 86.192 94.1213 88.8944C93.6286 89.1496 93.3338 89.6724 93.3714 90.2259C93.8069 96.6767 88.292 102.581 80.5432 103.96C80.0837 104.042 79.6953 104.348 79.5089 104.775C77.6831 108.962 73.2842 112.11 68.0284 112.992C62.2931 113.954 56.5075 111.982 53.4653 108.07V108.067V92.2402H64.1987V97.4336C62.1895 98.0349 60.7201 99.8971 60.7201 102.098C60.7201 104.783 62.9065 106.968 65.5938 106.968C68.2812 106.968 70.4675 104.783 70.4675 102.098C70.4675 99.8971 68.9981 98.0349 66.9889 97.4336V90.8463C66.9889 90.0764 66.3644 89.4523 65.5938 89.4523H60.2133V82.7893H72.6733C73.2751 84.7971 75.1387 86.2653 77.3411 86.2653C80.0284 86.2653 82.2148 84.0806 82.2148 81.3954C82.2148 78.7101 80.0284 76.5254 77.3411 76.5254C75.1387 76.5254 73.2751 77.9936 72.6733 80.0014H58.8185C58.0481 80.0014 57.4234 80.6255 57.4234 81.3954V89.4523H53.4656V66.5189H56.4733V70.3755C56.4733 71.1454 57.0979 71.7694 57.8684 71.7694C58.6388 71.7694 59.2635 71.1454 59.2635 70.3755V66.5189H63.6942C64.4646 66.5189 65.0893 65.8949 65.0893 65.125V62.7834H69.0868C69.8571 62.7834 70.4819 62.1593 70.4819 61.3894C70.4819 60.6195 69.8574 59.9955 69.0868 59.9955H65.0893V56.2949H69.0868C69.8571 56.2949 70.4819 55.6709 70.4819 54.901C70.4819 54.1311 69.8574 53.5071 69.0868 53.5071H65.0893V51.1654C65.0893 50.3955 64.4648 49.7715 63.6942 49.7715H59.2635V45.5846C59.2635 44.8147 58.639 44.1906 57.8684 44.1906C57.0981 44.1906 56.4733 44.8147 56.4733 45.5846V49.7715H53.4656V26.8381H57.4234V34.8951C57.4234 35.6649 58.0479 36.289 58.8185 36.289H72.6733C73.2751 38.2968 75.1387 39.765 77.3411 39.765C80.0284 39.765 82.2148 37.5803 82.2148 34.8951C82.2148 32.2098 80.0284 30.0251 77.3411 30.0251C75.1387 30.0251 73.2751 31.4933 72.6733 33.5011H60.2133V26.8381H65.5938C66.3642 26.8381 66.9889 26.214 66.9889 25.4442V18.8569C68.9981 18.2555 70.4675 16.3933 70.4675 14.1926C70.4675 11.5073 68.2812 9.32262 65.5938 9.32262C62.9065 9.32262 60.7201 11.5073 60.7201 14.1926C60.7201 16.3933 62.1895 18.2555 64.1987 18.8569V24.0502H53.4653V10.2107C53.4653 2.59647 45.1403 -2.10819 38.3742 0.939018C33.6709 3.05686 29.8283 6.51942 26.9427 11.2366C19.2609 12.1398 12.9761 18.0751 11.5255 25.906C11.2504 27.3907 11.1617 28.8937 11.2606 30.3877C6.01709 32.7291 1.83852 38.8027 0.46385 46.2207C-0.801468 53.0495 0.565075 59.6031 4.03599 63.6911C2.24528 66.144 1.00829 69.0357 0.435758 72.127C-0.0791918 74.906 -0.0387949 77.6602 0.555789 80.3135C0.724111 81.065 1.471 81.5384 2.22183 81.3689C2.97359 81.2008 3.44652 80.4556 3.27796 79.704C2.76626 77.4202 2.73283 75.0416 3.17883 72.6343C3.70631 69.7865 4.87993 67.14 6.58381 64.9439C8.42073 64.8385 14.4655 65.0261 15.5936 71.8916C15.888 73.6809 18.6422 73.2372 18.3469 71.44C17.4323 65.8733 13.9918 63.6549 11.2669 62.7738C9.28346 62.1326 7.40963 62.1124 6.41154 62.1651C3.3367 58.7838 2.07928 52.8161 3.20715 46.7282C3.62784 44.4581 4.35453 42.317 5.30921 40.4086C6.6393 41.2103 8.57465 42.9578 7.73281 46.0693C7.2571 47.8268 9.95513 48.5382 10.426 46.7972C11.6363 42.3242 9.05315 39.4142 6.71893 38.001C8.50199 35.3866 10.758 33.4554 13.2029 32.6156C13.8284 32.4011 14.217 31.7768 14.1335 31.1214C13.9343 29.5584 13.98 27.9743 14.269 26.4132C15.5123 19.7029 20.933 14.6421 27.5184 13.9815C28.7858 14.6065 33.1286 17.24 32.3986 23.701C32.1938 25.511 34.9671 25.8191 35.1709 24.0138C35.8944 17.6115 32.5231 13.7503 29.7493 12.019C31.7256 8.98876 34.1561 6.57839 37.0058 4.81855C36.9835 6.40125 37.3524 8.6152 39.1487 10.5053C40.3803 11.8013 42.426 9.90536 41.1718 8.58549C39.1624 6.47113 39.9216 3.64007 39.959 3.5075C39.9805 3.43251 39.994 3.35728 40.0028 3.28206C42.3965 2.38241 45.0639 2.66264 47.2353 4.06517C49.4221 5.47698 50.6763 7.71718 50.6763 10.2109V31.9344C48.3033 30.3673 44.5622 29.1563 40.0326 32.0528C39.3836 32.4677 39.1942 33.33 39.6095 33.9784C40.0249 34.6264 40.8869 34.8159 41.5365 34.4012C45.8941 31.6147 49.1981 34.0119 50.6763 35.5275V87.5704C44.6434 87.8004 43.321 83.3535 43.2592 83.1332C43.061 82.3935 42.3025 81.951 41.5595 82.1448C40.814 82.3391 40.3673 83.1006 40.5619 83.8454C41.189 86.2475 43.9894 90.3668 50.2278 90.3668C50.375 90.3668 50.5249 90.3638 50.6761 90.3592V108.067V108.109C48.0547 111.482 43.3997 113.414 38.493 113.279C38.8016 111.758 39.7574 109.463 42.7199 109.243C43.4881 109.185 44.0644 108.517 44.0073 107.749C43.9502 106.981 43.2769 106.405 42.5123 106.462C37.9876 106.8 36.2018 110.29 35.7096 112.98C30.7395 112.041 26.5814 109.075 24.712 105.139C24.9346 103.585 26.2524 97.2861 33.0485 96.422C33.8128 96.3247 34.3532 95.6268 34.2562 94.8632C34.1587 94.0994 33.4589 93.5594 32.6963 93.6564C25.8394 94.5287 22.9584 99.9387 22.1321 103.686C15.4529 101.952 10.6003 96.6344 10.6377 90.8548C10.6428 90.0847 10.0222 89.4567 9.25189 89.4519H9.2426C8.47645 89.4519 7.85284 90.0701 7.84773 90.8367C7.79991 98.2661 13.843 104.796 22.3181 106.596C24.6776 111.308 29.6987 114.804 35.6097 115.795C36.768 115.99 37.9212 116.084 39.0572 116.084C44.1895 116.084 48.9573 114.151 52.0893 110.751C55.2145 114.117 59.9526 116.03 65.0517 116.03C66.1847 116.03 67.3363 115.935 68.4911 115.741C74.3879 114.752 79.3969 111.265 81.7509 106.565C90.1807 104.771 96.1888 98.2422 96.186 90.9331C101.981 87.4424 105.004 79.8779 103.578 72.1801C103.006 69.0972 101.773 66.213 99.9877 63.7666C103.448 59.6879 104.811 53.1507 103.549 46.3396ZM67.6773 102.098C67.6773 103.246 66.7426 104.18 65.5936 104.18C64.4448 104.18 63.5099 103.246 63.5099 102.098C63.5099 100.95 64.4446 100.016 65.5936 100.016C66.7426 100.016 67.6773 100.95 67.6773 102.098ZM77.3406 79.3133C78.4894 79.3133 79.4243 80.2473 79.4243 81.3954C79.4243 82.5434 78.4896 83.4775 77.3406 83.4775C76.1918 83.4775 75.2569 82.5434 75.2569 81.3954C75.2571 80.2473 76.1918 79.3133 77.3406 79.3133ZM77.3406 32.813C78.4894 32.813 79.4243 33.747 79.4243 34.8951C79.4243 36.0431 78.4896 36.9771 77.3406 36.9771C76.1918 36.9771 75.2569 36.0431 75.2569 34.8951C75.2571 33.747 76.1918 32.813 77.3406 32.813ZM63.5099 14.1926C63.5099 13.0445 64.4446 12.1105 65.5936 12.1105C66.7424 12.1105 67.6773 13.0445 67.6773 14.1926C67.6773 15.3407 66.7426 16.2747 65.5936 16.2747C64.4448 16.2747 63.5099 15.3404 63.5099 14.1926ZM53.4653 52.5594H62.2987V63.7311H53.4653V52.5594Z" fill="#C98B27"/>
</svg>
