<svg width="29" height="30" viewBox="0 0 29 30" fill="none" xmlns="http://www.w3.org/2000/svg">
<g id="Layer_1" clip-path="url(#clip0_201_1080)">
<path id="Vector" d="M12.82 17.2464V16.4051C12.82 11.5727 12.82 6.74377 12.82 1.9183C12.82 0.873726 13.3377 0.169578 14.1772 0.0271951C15.2528 -0.154019 16.1224 0.579898 16.1689 1.7099C16.1777 1.94677 16.1689 2.18494 16.1689 2.42181C16.1689 7.12043 16.1689 11.8195 16.1689 16.519C16.1689 16.7455 16.0973 16.9888 16.248 17.2154C16.5547 17.1248 16.7205 16.8698 16.9216 16.6601C17.8339 15.71 18.7349 14.7495 19.6623 13.8124C20.3509 13.1186 21.414 13.0953 22.0498 13.7205C22.2167 13.8788 22.3507 14.0703 22.4437 14.2834C22.5367 14.4965 22.5868 14.7269 22.5909 14.9606C22.595 15.1942 22.5531 15.4263 22.4677 15.6427C22.3822 15.8592 22.255 16.0556 22.0938 16.22C19.9425 18.4843 17.7694 20.7279 15.5745 22.9508C15.4345 23.1 15.2669 23.2189 15.0815 23.3002C14.8962 23.3816 14.6969 23.4239 14.4954 23.4247C14.2939 23.4254 14.0944 23.3845 13.9085 23.3045C13.7226 23.2244 13.5542 23.1068 13.4131 22.9586C11.2233 20.7348 9.04978 18.4912 6.8926 16.2277C6.73094 16.0642 6.60305 15.8687 6.51664 15.653C6.43022 15.4372 6.38707 15.2057 6.38977 14.9723C6.39247 14.7389 6.44097 14.5085 6.53235 14.295C6.62373 14.0814 6.7561 13.8891 6.92151 13.7296C7.57117 13.0824 8.63678 13.1186 9.35304 13.8487C10.2905 14.8026 11.2053 15.7799 12.1327 16.7455C12.3136 16.9319 12.4669 17.1416 12.82 17.2464Z" fill="#023761"/>
<path id="Vector_2" d="M14.4899 29.9987C11.8092 29.9987 9.12839 29.9987 6.44762 29.9987C2.82105 29.9922 0.0125318 27.0889 0.00373552 23.3417C0.00373552 22.7812 -0.00631735 22.2207 0.00373552 21.659C0.0250979 20.6571 0.673508 19.9413 1.58078 19.9025C2.02575 19.8915 2.45718 20.0606 2.78253 20.3735C3.10788 20.6864 3.30126 21.1181 3.32118 21.5761C3.35888 22.156 3.32998 22.7411 3.34003 23.3223C3.3727 25.1072 4.7223 26.5362 6.46144 26.5427C11.823 26.5617 17.1845 26.5617 22.546 26.5427C24.2827 26.5362 25.6197 25.1008 25.6511 23.3067C25.6599 22.7683 25.6398 22.2285 25.6624 21.69C25.7051 20.6545 26.4403 19.8921 27.3639 19.9012C28.3101 19.9103 28.9975 20.6584 28.9836 21.7405C28.9761 22.7087 29.0641 23.6821 28.8806 24.6438C28.6037 26.1509 27.8242 27.511 26.6769 28.4888C25.5296 29.4666 24.0866 30.0007 22.5975 29.9987C19.8942 30.003 17.1916 30.003 14.4899 29.9987Z" fill="#023761"/>
</g>
<defs>
<clipPath id="clip0_201_1080">
<rect width="29" height="30" fill="white"/>
</clipPath>
</defs>
</svg>
