<svg width="104" height="96" viewBox="0 0 104 96" fill="none" xmlns="http://www.w3.org/2000/svg">
<g id="Layer_1" clip-path="url(#clip0_1300_587)">
<path id="Vector" d="M0 95.1472V84.9148C0.247574 84.6167 0.565492 84.3832 0.925811 84.2348C1.28613 84.0865 1.67782 84.0279 2.06646 84.0641C2.87896 84.0882 3.69146 84.0641 4.50396 84.0641C6.01521 84.0641 6.01792 84.0641 6.01792 82.5473V38.4342C6.01792 36.9816 5.97729 36.9469 4.45792 36.9388L1.92021 36.9174C1.56406 36.9305 1.20913 36.8691 0.878685 36.7373C0.548236 36.6054 0.249724 36.4061 0.00270891 36.1523V25.3261C1.45438 21.3134 3.77 19.6735 8.06542 19.6735C15.0006 19.6735 21.9366 19.6735 28.8735 19.6735C30.141 19.6735 30.1871 19.62 30.1871 18.3627C30.1871 12.9518 30.1871 7.53818 30.1871 2.12191C30.1871 0.532882 30.6908 0.0139056 32.305 0.0112305C45.4332 0.0112305 58.5605 0.0112305 71.6869 0.0112305C73.3119 0.0112305 73.8075 0.546259 73.8075 2.11924C73.8075 7.50162 73.8075 12.8822 73.8075 18.261C73.8075 19.6494 73.8292 19.6735 75.224 19.6762H95.8262C100.23 19.6762 102.513 21.2625 103.995 25.3314V36.1657C103.748 36.4204 103.449 36.6202 103.118 36.7517C102.787 36.8832 102.431 36.9433 102.074 36.9281C101.229 36.9281 100.382 36.9495 99.5394 36.9014C98.0173 36.8131 97.9794 36.8265 97.9794 38.3139V82.5446C97.9794 82.7452 97.9794 82.9459 97.9794 83.1465C97.9442 83.7778 98.2367 84.0694 98.8812 84.0587C99.8969 84.0587 100.915 84.0801 101.928 84.0587C102.317 84.0246 102.709 84.0851 103.069 84.2347C103.429 84.3844 103.747 84.6188 103.995 84.9174V95.1472C103.328 96.0005 102.386 96.0005 101.419 96.0005C79.2612 96.0005 57.1025 96.0005 34.9429 96.0005C24.0843 96.0005 13.2257 96.0005 2.36708 96.0005C1.45708 96.0032 0.609375 95.9203 0 95.1472ZM52.1029 36.8506H10.4731C9.01875 36.8506 9.01604 36.8506 9.01604 38.3165V82.6489C9.01604 84.048 9.01604 84.0587 10.4325 84.0587H33.7865C35.5415 84.0587 35.5442 84.0587 35.5442 82.3573C35.5442 72.7607 35.5442 63.165 35.5442 53.5702C35.5442 51.4301 36.0127 50.9833 38.1821 50.9833C47.4229 50.9833 56.6628 50.9833 65.9019 50.9833C67.9467 50.9833 68.4125 51.4515 68.445 53.4658C68.445 53.7655 68.445 54.0677 68.445 54.3674C68.445 63.7624 68.445 73.1566 68.445 82.5499C68.445 84.0266 68.4802 84.0587 69.9914 84.0587H93.4483C94.9677 84.0587 94.9704 84.0587 94.9704 82.5526V38.4342C94.9704 36.8639 94.9704 36.8639 93.4185 36.8639L52.1029 36.8506ZM51.981 33.8812C57.8365 33.8812 63.6892 33.8624 69.5446 33.8972C70.5223 33.8972 70.8337 33.6003 70.8283 32.6319C70.7994 23.2047 70.7994 13.7784 70.8283 4.35298C70.8283 3.37121 70.4898 3.09032 69.531 3.09299C57.8545 3.11618 46.1789 3.12152 34.5042 3.10904C33.2231 3.10904 33.1879 3.14917 33.1879 4.41184C33.1879 13.8069 33.1879 23.2002 33.1879 32.5917C33.1879 33.8464 33.2204 33.8785 34.515 33.8785L51.981 33.8812ZM51.9512 92.8947H98.9706C99.3092 92.8947 99.6504 92.8733 99.9862 92.8947C100.747 92.9455 101.113 92.6646 101.086 91.8594C101.045 90.6235 101.059 89.3849 101.086 88.149C101.086 87.4776 100.845 87.1351 100.138 87.1726C99.8346 87.1886 99.5285 87.1726 99.2252 87.1726H4.77479C4.50396 87.1726 4.23313 87.1913 3.96229 87.1726C3.14979 87.1084 2.87896 87.4963 2.91417 88.2426C2.95208 89.1121 2.91417 89.9815 2.91417 90.8509C2.91417 92.884 2.91417 92.884 4.92104 92.884L51.9512 92.8947ZM50.4996 69.1662C50.4996 64.5516 50.4752 59.9397 50.5185 55.3251C50.5185 54.3486 50.1962 54.049 49.2267 54.0624C46.1121 54.1106 42.9984 54.1106 39.8856 54.0624C38.9567 54.049 38.6479 54.354 38.6506 55.2769C38.6759 64.4705 38.6759 73.664 38.6506 82.8576C38.6506 83.7859 38.9675 84.0828 39.891 84.0721C43.0029 84.032 46.1202 84.0266 49.2321 84.0721C50.2044 84.0721 50.5267 83.7698 50.5185 82.7987C50.4752 78.259 50.4996 73.7113 50.4996 69.1662ZM65.3358 69.1422C65.3358 64.4954 65.3223 59.8487 65.3358 55.202C65.3358 54.3995 65.084 54.0597 64.2281 54.0677C61.0124 54.0998 57.7976 54.0998 54.5837 54.0677C53.7279 54.0677 53.476 54.3968 53.4787 55.202C53.4986 64.4294 53.4986 73.6569 53.4787 82.8843C53.4787 83.834 53.8417 84.0855 54.7408 84.0748C57.8554 84.0373 60.97 84.0293 64.0819 84.0748C65.0812 84.0908 65.3548 83.7243 65.3467 82.78C65.3142 78.2376 65.3385 73.6899 65.3385 69.1422H65.3358ZM16.4992 33.8865C20.6619 33.8865 24.8246 33.8651 28.9846 33.9052C29.9298 33.9052 30.2169 33.5842 30.2033 32.6773C30.1573 29.8363 30.1898 26.9953 30.1871 24.1544C30.1871 22.8168 30.1546 22.7847 28.8329 22.7847C21.7299 22.7847 14.625 22.7847 7.51833 22.7847C4.68271 22.7847 2.97104 24.4486 2.91417 27.2522C2.88708 28.991 2.91417 30.7298 2.91417 32.466C2.91417 33.8785 2.91417 33.8838 4.31167 33.8838L16.4992 33.8865ZM87.3437 33.8865C91.5399 33.8865 95.7351 33.8865 99.9294 33.8865C100.552 33.8865 101.089 33.8624 101.08 33.0198C101.059 30.9813 101.143 28.9402 101.048 26.9071C100.934 24.4272 99.2387 22.7981 96.8337 22.79C89.5212 22.7686 82.2087 22.79 74.9125 22.7686C74.0621 22.7686 73.7912 23.087 73.8021 23.8975C73.8319 26.8054 73.8454 29.7106 73.8021 32.6185C73.7858 33.5708 74.0729 33.9133 75.0723 33.8999C79.151 33.8544 83.2514 33.8865 87.3437 33.8865Z" fill="#004567"/>
<path id="Vector_2" d="M12.5263 60.7363C12.5263 58.1307 12.5263 55.5225 12.5263 52.9169C12.5263 51.5793 13.0679 51.0042 14.4221 50.9961C19.4289 50.973 24.4366 50.973 29.4452 50.9961C30.859 50.9961 31.4683 51.5686 31.4738 52.9436C31.5045 58.1905 31.5045 63.4373 31.4738 68.6842C31.4738 70.0619 30.8969 70.5568 29.5238 70.5568C24.4808 70.5675 19.4397 70.5675 14.4004 70.5568C13.0056 70.5568 12.5317 70.0645 12.5263 68.6628C12.51 66.017 12.5263 63.3767 12.5263 60.7363ZM15.5271 60.8246C15.5271 62.7293 15.5515 64.634 15.5271 66.536C15.5136 67.3198 15.8169 67.6061 16.6104 67.5927C20.1945 67.5695 23.7794 67.5695 27.3652 67.5927C28.1777 67.5927 28.4106 67.253 28.4079 66.5039C28.3863 62.7284 28.3863 58.9538 28.4079 55.1801C28.4079 54.3535 28.11 54.0619 27.2786 54.0672C23.727 54.0975 20.1755 54.0975 16.624 54.0672C15.76 54.0672 15.5163 54.4177 15.5406 55.2122C15.5406 57.0821 15.5054 58.9547 15.5054 60.8246H15.5271Z" fill="#004567"/>
<path id="Vector_3" d="M91.4819 60.7711C91.4819 63.4115 91.4819 66.0518 91.4819 68.6922C91.4819 70.0699 90.9917 70.5487 89.5861 70.5514C84.5432 70.5621 79.5012 70.5621 74.4601 70.5514C73.1384 70.5514 72.5642 70.0645 72.548 68.7511C72.5101 63.4382 72.5101 58.1245 72.548 52.8099C72.548 51.5954 73.1682 51.0122 74.3978 51.0069C79.5057 50.9748 84.6145 50.9748 89.7242 51.0069C90.9646 51.0069 91.4819 51.6168 91.4901 52.85C91.4928 55.4904 91.4819 58.1308 91.4819 60.7711ZM75.6328 60.8112C75.6328 62.748 75.6463 64.6848 75.6328 66.6216C75.6328 67.2958 75.8846 67.5927 76.5861 67.59C80.2405 67.574 83.8932 67.574 87.544 67.59C88.2482 67.59 88.4973 67.2904 88.4946 66.619C88.4802 62.7775 88.4802 58.936 88.4946 55.0945C88.4946 54.3749 88.2373 54.0699 87.4871 54.0726C83.876 54.0904 80.2577 54.0904 76.6321 54.0726C75.8792 54.0726 75.6165 54.3802 75.6273 55.0972C75.649 57.0019 75.6301 58.9065 75.6301 60.8112H75.6328Z" fill="#004567"/>
<path id="Vector_4" d="M39.3384 18.4638C39.3384 17.5596 39.3384 16.6581 39.3384 15.7566C39.36 14.3013 39.88 13.7529 41.3534 13.7074C42.908 13.6619 44.4653 13.6566 46.0198 13.7074C46.938 13.7315 47.2928 13.3944 47.2575 12.4742C47.2034 10.9386 47.2332 9.40043 47.2575 7.86491C47.2575 6.54071 47.7721 6.01906 49.0775 6.00569C51.0384 5.98785 53.0001 5.98785 54.9628 6.00569C56.2167 6.01906 56.7313 6.54071 56.7475 7.79803C56.7638 9.36833 56.7855 10.9386 56.7475 12.5089C56.7232 13.3677 57.0346 13.7235 57.9202 13.7021C59.4396 13.6646 60.9644 13.6726 62.4865 13.7021C64.1548 13.7368 64.6532 14.2585 64.6667 15.8957C64.6667 17.6006 64.6667 19.3047 64.6667 21.0079C64.6667 22.7092 64.1657 23.1827 62.408 23.1908C60.9184 23.1908 59.4288 23.2255 57.9419 23.1908C57.078 23.1613 56.7178 23.4422 56.7475 24.3357C56.799 25.9408 56.7719 27.5459 56.7475 29.151C56.7475 30.3708 56.2059 30.9647 54.9763 30.9915C52.9803 31.0343 50.9842 31.037 48.9882 30.9915C47.8155 30.9647 47.2738 30.3708 47.2603 29.2179C47.2386 27.5807 47.2223 25.9408 47.2603 24.3063C47.2846 23.4717 46.9623 23.1774 46.1309 23.1988C44.5411 23.2389 42.9513 23.2202 41.3615 23.1988C39.8936 23.1854 39.3655 22.6504 39.3438 21.1817C39.3384 20.2668 39.3384 19.3653 39.3384 18.4638ZM53.7413 24.408C53.7413 23.6402 53.7413 22.8698 53.7413 22.102C53.7413 20.7189 54.2071 20.2026 55.5965 20.1384C56.845 20.0796 58.099 20.1117 59.353 20.109C61.5819 20.109 61.5575 20.109 61.5196 17.8833C61.5196 17.0808 61.2325 16.733 60.3875 16.7571C58.8655 16.7999 57.3407 16.7758 55.8186 16.7571C54.2234 16.7571 53.7467 16.2809 53.7359 14.7373C53.7359 13.6031 53.7359 12.4635 53.7359 11.3292C53.7115 8.98846 54.1475 9.04197 51.3417 9.04464C50.5048 9.04464 50.2096 9.38973 50.2286 10.1976C50.2665 11.8027 50.253 13.4078 50.2286 15.0129C50.2123 16.1873 49.6869 16.725 48.4844 16.749C47.1303 16.7785 45.7761 16.749 44.4219 16.749C42.4367 16.749 42.4367 16.749 42.4638 18.7447C42.48 19.9753 42.5721 20.0823 43.7882 20.0823C45.3103 20.0983 46.835 20.0582 48.3571 20.117C49.7546 20.1679 50.2205 20.6895 50.234 22.0565C50.234 23.1934 50.234 24.3304 50.234 25.4673C50.2773 28.0997 49.6923 27.8749 52.8828 27.8616C53.4813 27.8616 53.7386 27.5753 53.7305 26.9948C53.7359 26.1468 53.7467 25.2774 53.7467 24.408H53.7413Z" fill="#004567"/>
</g>
<defs>
<clipPath id="clip0_1300_587">
<rect width="104" height="96" fill="white"/>
</clipPath>
</defs>
</svg>
