<svg xmlns="http://www.w3.org/2000/svg" width="222" height="78" viewBox="0 0 222 78" fill="none">
  <path d="M103.243 50.471L104.729 48.251C105.561 48.7808 106.453 49.2118 107.385 49.535C109.11 50.1465 110.971 50.2673 112.76 49.884C113.818 49.7322 114.784 49.1974 115.475 48.3809C116.165 47.5644 116.532 46.523 116.506 45.454C116.559 44.293 116.651 44.501 115.617 44.488C113.759 44.465 111.898 44.535 110.042 44.444C108.585 44.3936 107.144 44.124 105.768 43.644C104.935 43.3782 104.164 42.9481 103.5 42.379C102.837 41.81 102.294 41.1135 101.904 40.331C101.487 39.4462 101.251 38.4865 101.212 37.509C101.151 36.361 101.178 35.209 101.174 34.064C101.174 31.556 101.174 29.0474 101.174 26.538C101.174 26.422 101.174 26.308 101.174 26.193C101.188 25.793 101.188 25.777 101.596 25.776C103.052 25.776 104.509 25.776 105.965 25.776C106.023 25.776 106.081 25.776 106.138 25.776C106.327 25.77 106.421 25.852 106.413 26.048C106.407 26.182 106.413 26.317 106.413 26.448C106.413 29.7813 106.413 33.1127 106.413 36.442C106.41 36.9973 106.444 37.552 106.513 38.103C106.582 38.9811 106.943 39.8108 107.539 40.4597C108.134 41.1086 108.93 41.5393 109.799 41.683C110.457 41.8191 111.127 41.8861 111.799 41.883C113.199 41.891 114.599 41.883 115.999 41.883C116.53 41.883 116.533 41.883 116.533 41.347C116.533 36.3877 116.533 31.4283 116.533 26.469C116.533 25.71 116.411 25.769 117.241 25.769C118.602 25.769 119.963 25.769 121.322 25.769C121.788 25.769 121.794 25.778 121.795 26.252C121.795 32.418 121.795 38.5847 121.795 44.752C121.828 45.6831 121.677 46.6116 121.349 47.4839C121.022 48.3562 120.525 49.1549 119.887 49.834C118.977 50.7746 117.854 51.4814 116.612 51.894C114.388 52.6345 112.03 52.8902 109.699 52.644C107.981 52.4881 106.302 52.0429 104.732 51.327C104.205 51.0981 103.706 50.811 103.243 50.471Z" fill="#C1771B"/>
  <path d="M180.228 50.446C180.666 49.791 181.117 49.1289 181.552 48.4569C181.724 48.1909 181.866 48.3569 182.022 48.4489C183.001 49.052 184.067 49.5019 185.182 49.783C186.707 50.1858 188.307 50.2132 189.845 49.8629C190.838 49.692 191.741 49.1814 192.399 48.4184C193.058 47.6555 193.431 46.6875 193.455 45.68C193.478 45.38 193.472 45.067 193.483 44.761C193.489 44.57 193.399 44.481 193.207 44.489C193.073 44.489 192.94 44.489 192.807 44.489C190.89 44.473 188.974 44.537 187.058 44.45C185.582 44.4039 184.121 44.1321 182.728 43.644C181.895 43.3781 181.124 42.9478 180.461 42.3786C179.798 41.8093 179.256 41.1127 178.867 40.33C178.419 39.4147 178.183 38.4107 178.175 37.3919C178.153 33.8119 178.158 30.2319 178.151 26.6519C178.151 26.4609 178.159 26.2689 178.151 26.0789C178.14 25.8539 178.24 25.779 178.457 25.779C179.99 25.7836 181.523 25.7836 183.057 25.779C183.316 25.779 183.393 25.8949 183.377 26.1289C183.368 26.2629 183.377 26.398 183.377 26.529C183.377 29.8416 183.377 33.154 183.377 36.466C183.364 37.1171 183.418 37.7679 183.538 38.408C183.653 39.2426 184.037 40.0167 184.633 40.6125C185.229 41.2082 186.003 41.5929 186.838 41.708C187.515 41.8398 188.203 41.9042 188.893 41.9C190.215 41.9 191.537 41.9 192.86 41.9C193.518 41.9 193.487 41.969 193.487 41.289V30.489C193.487 29.0716 193.487 27.655 193.487 26.239C193.487 25.795 193.496 25.784 193.929 25.783C195.385 25.7783 196.841 25.7783 198.298 25.783C198.745 25.783 198.749 25.796 198.749 26.283C198.749 28.925 198.749 31.5673 198.749 34.21C198.749 37.6947 198.749 41.1786 198.749 44.662C198.785 45.911 198.514 47.1498 197.961 48.27C197.075 49.9237 195.599 51.184 193.828 51.801C192.263 52.3804 190.611 52.6904 188.943 52.718C186.465 52.8363 183.995 52.3651 181.735 51.343C181.371 51.176 181.021 50.9759 180.671 50.7799C180.499 50.7054 180.347 50.5909 180.228 50.446Z" fill="#C1771B"/>
  <path d="M61.4629 32.158C61.4629 28.0027 61.4629 23.8476 61.4629 19.693C61.4629 18.974 61.3909 19.06 62.1179 19.058C63.4769 19.058 64.8379 19.058 66.1989 19.058C66.7739 19.058 66.7179 19.047 66.7179 19.595C66.7179 21.4137 66.7179 23.2326 66.7179 25.052C66.7179 25.168 66.7259 25.283 66.7179 25.397C66.6929 25.656 66.7789 25.797 67.0669 25.775C67.2199 25.761 67.3729 25.775 67.5259 25.775C69.4809 25.784 71.4369 25.73 73.3889 25.845C74.904 25.9017 76.3987 26.2137 77.8099 26.768C79.0377 27.2123 80.1002 28.0214 80.8549 29.087C81.6095 30.1525 82.0203 31.4233 82.0319 32.729C82.1649 35.118 82.0659 37.514 82.0839 39.906C82.0949 41.495 82.0839 43.086 82.0839 44.675C82.0839 45.348 82.0839 45.25 81.4839 45.252C80.1232 45.252 78.7622 45.252 77.4009 45.252C76.8009 45.252 76.8319 45.315 76.8319 44.705V39.075C76.8319 37.256 76.8319 35.437 76.8319 33.619C76.8407 32.9298 76.7658 32.2421 76.6089 31.571C76.4577 30.8835 76.1175 30.2519 75.6267 29.7473C75.1359 29.2427 74.514 28.8852 73.8309 28.715C73.0921 28.5053 72.3268 28.4042 71.5589 28.415C70.1229 28.4103 68.6859 28.4103 67.2479 28.415C66.7249 28.415 66.7199 28.421 66.7199 28.959C66.7199 34.147 66.7199 39.336 66.7199 44.526C66.7199 45.364 66.8309 45.249 65.9869 45.253C64.6462 45.259 63.3049 45.259 61.9629 45.253C61.4719 45.253 61.4629 45.247 61.4629 44.744C61.4616 40.546 61.4616 36.3507 61.4629 32.158Z" fill="#C1771B"/>
  <path d="M57.7238 24.859C57.022 24.2024 56.2596 23.6138 55.4468 23.101C52.8742 21.4882 49.8177 20.828 46.8088 21.235C45.4266 21.353 44.0969 21.8195 42.9439 22.5909C41.7909 23.3623 40.8523 24.4134 40.2158 25.646C39.7381 26.5208 39.393 27.4618 39.1918 28.438C38.5751 31.2374 38.6742 34.147 39.4798 36.898C39.8149 38.1242 40.4292 39.2563 41.2748 40.2055C42.1204 41.1546 43.1742 41.8951 44.3538 42.369C46.109 43.0605 48.0036 43.3241 49.8808 43.1379C52.83 42.9226 55.6195 41.7159 57.7958 39.714C58.0958 39.445 58.1068 39.451 58.3678 39.759C58.8238 40.301 59.2765 40.8463 59.7258 41.395C59.9708 41.695 59.9698 41.703 59.6598 41.971C57.978 43.4016 56.0266 44.4809 53.9208 45.145C51.2937 45.9511 48.5262 46.1943 45.7988 45.859C43.8293 45.6939 41.9046 45.1813 40.1138 44.345C38.4023 43.5735 36.9002 42.4038 35.7329 40.9335C34.5656 39.4631 33.767 37.7348 33.4038 35.893C32.7876 33.2114 32.8402 30.4194 33.5568 27.7629C34.0105 25.8475 34.946 24.0798 36.2745 22.6272C37.6029 21.1747 39.2804 20.0855 41.1478 19.463C43.4868 18.5846 45.977 18.1795 48.4739 18.2711C50.9707 18.3628 53.4245 18.9494 55.6928 19.997C57.0025 20.5907 58.2159 21.377 59.2928 22.33C59.5928 22.596 59.5928 22.602 59.3428 22.91C58.8228 23.544 58.2948 24.176 57.7238 24.859Z" fill="#C1771B"/>
  <path d="M164.097 40.9489C164.57 41.6569 165.027 42.3369 165.48 43.0179C165.629 43.2379 165.43 43.3269 165.305 43.4269C164.51 44.0581 163.624 44.5639 162.677 44.9269C160.654 45.7107 158.49 46.0642 156.323 45.9649C154.501 45.9258 152.703 45.5321 151.032 44.8059C149.521 44.1724 148.21 43.1429 147.235 41.8261C146.261 40.5092 145.661 38.9538 145.497 37.3239C145.235 35.5766 145.345 33.7937 145.82 32.0919C146.203 30.6087 146.958 29.2477 148.014 28.1374C149.069 27.027 150.39 26.204 151.852 25.7459C154.84 24.6651 158.124 24.7393 161.06 25.9539C162.716 26.5657 164.16 27.6416 165.22 29.053C166.28 30.4643 166.911 32.1513 167.038 33.9119C167.161 35.0199 167.079 36.131 167.11 37.239C167.118 37.494 167.01 37.5829 166.771 37.5639C166.638 37.5549 166.504 37.5639 166.371 37.5639H151.223C151.185 37.6279 151.149 37.664 151.153 37.687C151.257 38.9714 151.721 40.2006 152.491 41.2339C152.986 41.8348 153.598 42.328 154.291 42.6833C154.983 43.0386 155.741 43.2484 156.518 43.2999C158.982 43.5578 161.454 42.882 163.445 41.4059C163.647 41.2649 163.847 41.1249 164.097 40.9489ZM156.232 34.9489H158.187C159.165 34.9489 160.142 34.9409 161.12 34.9489C161.393 34.9489 161.504 34.8599 161.478 34.5819C161.436 34.1439 161.426 33.7039 161.378 33.2659C161.249 32.0437 160.857 30.8639 160.228 29.8079C159.732 28.9443 158.974 28.2621 158.062 27.8613C157.151 27.4605 156.135 27.3622 155.164 27.5809C154.448 27.7353 153.78 28.0618 153.219 28.5323C152.657 29.0028 152.219 29.603 151.942 30.2809C151.343 31.6111 151.03 33.0522 151.023 34.5109C151.012 34.9389 151.023 34.9469 151.465 34.9479C153.051 34.9479 154.641 34.9449 156.232 34.9469V34.9489Z" fill="#C1771B"/>
  <path d="M220.244 27.892C219.827 28.52 219.388 29.147 218.986 29.792C218.816 30.067 218.675 30.034 218.441 29.892C217.377 29.247 216.245 28.7198 215.067 28.32C213.13 27.6892 211.076 27.5033 209.057 27.776C208.523 27.8401 208.011 28.0225 207.557 28.31C207.316 28.442 207.107 28.6266 206.947 28.8502C206.787 29.0739 206.679 29.3307 206.632 29.6017C206.585 29.8727 206.599 30.1508 206.674 30.4154C206.75 30.68 206.883 30.9243 207.066 31.13C207.434 31.5744 207.904 31.9233 208.436 32.147C209.084 32.4302 209.753 32.6642 210.436 32.847C212.291 33.383 214.149 33.911 215.999 34.463C217.333 34.8249 218.581 35.4495 219.67 36.3C220.32 36.8148 220.819 37.4949 221.115 38.2691C221.412 39.0433 221.494 39.8829 221.354 40.7C221.268 41.5438 220.961 42.3502 220.464 43.0377C219.967 43.7252 219.298 44.2695 218.524 44.616C217.157 45.2694 215.686 45.6756 214.178 45.816C212.541 46.0139 210.888 46.0528 209.243 45.932C206.597 45.7846 204.014 45.0712 201.668 43.84C201.434 43.712 201.202 43.574 200.979 43.427C200.616 43.193 200.616 43.185 200.859 42.816C201.159 42.352 201.47 41.889 201.786 41.432C202.155 40.896 202.044 40.909 202.608 41.226C203.885 41.9637 205.257 42.5242 206.686 42.892C208.937 43.4764 211.292 43.5379 213.571 43.072C214.215 42.9431 214.799 42.6075 215.235 42.116C215.588 41.7551 215.783 41.2691 215.778 40.7644C215.773 40.2598 215.568 39.7777 215.208 39.424C214.788 39.002 214.282 38.6759 213.724 38.468C212.542 38.0258 211.338 37.6476 210.116 37.335C208.797 36.935 207.469 36.576 206.153 36.174C204.887 35.7856 203.701 35.1718 202.653 34.362C202.113 33.896 201.684 33.3157 201.396 32.6634C201.108 32.0111 200.968 31.303 200.987 30.5901C201.007 29.8773 201.184 29.1776 201.506 28.5417C201.829 27.9057 202.289 27.3494 202.853 26.913C204.155 26.0265 205.65 25.4627 207.213 25.268C209.052 24.9803 210.921 24.9412 212.77 25.152C215.291 25.4198 217.72 26.2491 219.878 27.579C219.975 27.6402 220.069 27.707 220.158 27.779C220.191 27.8128 220.22 27.8508 220.244 27.892Z" fill="#C1771B"/>
  <path d="M143.3 27.856C142.85 28.533 142.417 29.164 142.006 29.808C141.856 30.041 141.722 30.05 141.497 29.914C140.436 29.2633 139.306 28.7333 138.127 28.334C136.173 27.6924 134.098 27.5047 132.061 27.785C131.546 27.8484 131.051 28.0234 130.611 28.298C130.368 28.4269 130.157 28.6089 129.994 28.8305C129.831 29.052 129.72 29.3075 129.669 29.5778C129.619 29.8482 129.63 30.1265 129.701 30.3921C129.773 30.6577 129.903 30.9038 130.083 31.112C130.392 31.5045 130.787 31.8209 131.238 32.037C131.821 32.3261 132.43 32.5575 133.058 32.728C135.15 33.34 137.246 33.936 139.333 34.566C140.588 34.9255 141.757 35.535 142.771 36.358C143.339 36.8186 143.786 37.4101 144.075 38.0817C144.364 38.7534 144.485 39.4851 144.429 40.214C144.421 41.151 144.143 42.0658 143.629 42.8491C143.114 43.6324 142.385 44.251 141.529 44.631C140.178 45.2721 138.726 45.6728 137.237 45.815C135.6 46.0157 133.947 46.0559 132.302 45.935C129.52 45.7924 126.808 45.012 124.375 43.654C124.116 43.5221 123.878 43.3537 123.667 43.154C124.114 42.485 124.567 41.812 125.019 41.132C125.139 40.951 125.26 41.006 125.405 41.091C126.02 41.4416 126.652 41.7606 127.299 42.047C129.874 43.1725 132.7 43.5995 135.493 43.285C135.971 43.2467 136.441 43.1459 136.893 42.985C137.11 42.9115 137.32 42.8208 137.523 42.714C137.891 42.5611 138.208 42.3055 138.435 41.9777C138.662 41.65 138.791 41.2638 138.805 40.8652C138.819 40.4666 138.718 40.0724 138.514 39.7295C138.311 39.3866 138.013 39.1094 137.656 38.931C136.985 38.5231 136.258 38.2159 135.498 38.019C133.517 37.438 131.531 36.87 129.549 36.291C128.164 35.9035 126.865 35.2567 125.721 34.385C124.818 33.6157 124.228 32.5426 124.062 31.3681C123.897 30.1937 124.166 28.9991 124.821 28.01C125.402 27.2189 126.181 26.5945 127.08 26.199C128.337 25.6285 129.682 25.2752 131.058 25.154C133.136 24.9136 135.238 24.9894 137.293 25.379C139.288 25.7687 141.196 26.5168 142.925 27.587C143.039 27.657 143.144 27.742 143.3 27.856Z" fill="#C1771B"/>
  <path d="M174.764 32.15C174.764 36.3033 174.764 40.4557 174.764 44.607C174.764 45.343 174.825 45.248 174.119 45.249C172.739 45.2536 171.359 45.2536 169.981 45.249C169.545 45.249 169.537 45.243 169.537 44.811C169.537 42.7643 169.537 40.717 169.537 38.669V19.554C169.537 19.037 169.498 19.054 170.037 19.054C171.437 19.054 172.835 19.054 174.231 19.054C174.787 19.054 174.767 19.005 174.767 19.576V32.147L174.764 32.15Z" fill="#C1771B"/>
  <path d="M85.0586 38.432C85.0916 36.932 85.0246 35.071 85.0976 33.215C85.1078 31.5608 85.6863 29.9604 86.736 28.682C87.7858 27.4036 89.2431 26.5248 90.8636 26.193C92.0372 25.9088 93.2412 25.7697 94.4486 25.779C96.1486 25.765 97.8586 25.773 99.5626 25.779C100.057 25.779 100.063 25.785 100.063 26.287C100.063 26.8203 100.063 27.3564 100.063 27.895C100.063 28.362 100.169 28.415 99.5176 28.414C98.3696 28.414 97.2176 28.414 96.0686 28.414C95.3024 28.389 94.5359 28.4562 93.7856 28.614C92.8827 28.8225 92.0694 29.3127 91.4632 30.0137C90.8571 30.7148 90.4895 31.5904 90.4136 32.514C90.3444 33.0642 90.3111 33.6184 90.3137 34.173C90.3183 37.6563 90.3183 41.14 90.3137 44.624C90.3137 45.324 90.3726 45.249 89.7136 45.251C88.3543 45.251 86.9943 45.251 85.6336 45.251C85.0676 45.251 85.0646 45.251 85.0646 44.7C85.0576 42.724 85.0586 40.754 85.0586 38.432Z" fill="#C1771B"/>
  <path d="M4.72177 55.386C4.71721 54.8041 4.88571 54.234 5.20587 53.7481C5.52603 53.2622 5.9834 52.8825 6.51987 52.6571C7.05633 52.4317 7.64769 52.3709 8.21881 52.4824C8.78993 52.5938 9.31501 52.8725 9.72739 53.283C10.1398 53.6936 10.4208 54.2174 10.5348 54.788C10.6488 55.3587 10.5906 55.9503 10.3676 56.4878C10.1446 57.0252 9.7669 57.4843 9.28244 57.8066C8.79798 58.1289 8.22864 58.3 7.64676 58.298C6.87333 58.2977 6.13146 57.9913 5.58334 57.4456C5.03523 56.8999 4.72547 56.1594 4.72177 55.386Z" fill="#003756"/>
  <path d="M16.6018 63.658C16.6069 64.2113 16.448 64.7537 16.145 65.2168C15.842 65.6798 15.4087 66.0427 14.8996 66.2596C14.3905 66.4765 13.8286 66.5378 13.2848 66.4356C12.741 66.3334 12.2396 66.0723 11.8441 65.6854C11.4485 65.2985 11.1764 64.803 11.0622 64.2616C10.948 63.7201 10.9968 63.157 11.2024 62.6433C11.408 62.1295 11.7613 61.6883 12.2175 61.3751C12.6737 61.062 13.2125 60.8911 13.7658 60.8839C14.1344 60.8792 14.5002 60.9473 14.8424 61.0842C15.1846 61.2212 15.4963 61.4244 15.7598 61.6821C16.0233 61.9398 16.2333 62.247 16.3778 62.5861C16.5223 62.9251 16.5985 63.2894 16.6018 63.658Z" fill="#003756"/>
  <path d="M5.305 48.1169C4.78488 48.4488 4.16855 48.5969 3.55442 48.5374C2.9403 48.478 2.36381 48.2144 1.917 47.7889C1.58688 47.4755 1.33818 47.0863 1.19239 46.6551C1.04661 46.2238 1.00816 45.7635 1.08039 45.3141C1.15263 44.8646 1.33335 44.4396 1.60691 44.0757C1.88048 43.7119 2.23863 43.4202 2.65034 43.226C3.06205 43.0318 3.51491 42.9409 3.96968 42.9612C4.42444 42.9815 4.86739 43.1123 5.26017 43.3424C5.65296 43.5725 5.98374 43.8949 6.22383 44.2816C6.46391 44.6684 6.60608 45.1079 6.63801 45.562C6.68815 45.9038 6.65496 46.2528 6.54127 46.579C6.42758 46.9053 6.23676 47.1993 5.98503 47.436C5.96904 47.4407 5.95419 47.4486 5.94145 47.4594C5.9287 47.4701 5.91833 47.4833 5.91099 47.4983C5.90365 47.5133 5.8995 47.5296 5.89881 47.5462C5.89813 47.5629 5.90094 47.5795 5.90702 47.595C5.9095 47.61 5.90626 47.6254 5.89793 47.6382C5.8896 47.651 5.87678 47.6601 5.86201 47.6639C5.83638 47.6666 5.81245 47.678 5.79423 47.6962C5.77602 47.7144 5.76463 47.7384 5.762 47.764L5.75102 47.773C5.72488 47.7758 5.70041 47.7872 5.68128 47.8052C5.66216 47.8233 5.64943 47.8471 5.64503 47.873L5.62901 47.885C5.60547 47.8845 5.58254 47.8924 5.56425 47.9072C5.54596 47.922 5.53347 47.9428 5.529 47.9659L5.49501 47.991C5.45397 47.9886 5.41327 47.9996 5.37901 48.0223C5.34475 48.045 5.31878 48.0782 5.305 48.1169Z" fill="#0D4764"/>
  <path d="M14.544 52.604C14.014 52.6012 13.4966 52.4417 13.0571 52.1455C12.6175 51.8493 12.2754 51.4296 12.0738 50.9394C11.8723 50.4492 11.8203 49.9103 11.9244 49.3906C12.0285 48.8708 12.284 48.3935 12.6588 48.0187C13.0336 47.6439 13.5109 47.3884 14.0306 47.2843C14.5503 47.1802 15.0892 47.2322 15.5795 47.4338C16.0697 47.6353 16.4893 47.9774 16.7855 48.417C17.0817 48.8565 17.2412 49.3739 17.244 49.904C17.2457 50.259 17.1771 50.6109 17.042 50.9393C16.9069 51.2676 16.7081 51.5659 16.4571 51.817C16.206 52.0681 15.9077 52.2669 15.5793 52.402C15.251 52.537 14.8991 52.6057 14.544 52.604Z" fill="#4C615B"/>
  <path d="M21.9169 72.805C21.3867 72.8036 20.8689 72.6447 20.4291 72.3486C19.9892 72.0525 19.6472 71.6325 19.4464 71.1418C19.2456 70.651 19.1951 70.1117 19.3012 69.5922C19.4074 69.0727 19.6654 68.5964 20.0425 68.2237C20.4197 67.8511 20.899 67.5988 21.4197 67.499C21.9405 67.3991 22.4792 67.4561 22.9674 67.6627C23.4557 67.8694 23.8717 68.2164 24.1625 68.6597C24.4533 69.1031 24.6059 69.6228 24.601 70.153C24.5884 70.858 24.3006 71.5301 23.7991 72.0256C23.2975 72.5212 22.622 72.8009 21.9169 72.805Z" fill="#003756"/>
  <path d="M5.3049 35.469C5.30388 36.1648 5.03181 36.833 4.54642 37.3316C4.06103 37.8303 3.4005 38.1202 2.70489 38.14C1.99411 38.1448 1.31054 37.867 0.804565 37.3678C0.298592 36.8685 0.0116704 36.1888 0.00689647 35.478C0.00212257 34.7672 0.279891 34.0836 0.779113 33.5777C1.27834 33.0717 1.9581 32.7848 2.66888 32.78C3.01894 32.7821 3.36513 32.8534 3.68747 32.99C4.00981 33.1265 4.30191 33.3254 4.54697 33.5754C4.79202 33.8254 4.98515 34.1215 5.11523 34.4464C5.24532 34.7714 5.30979 35.1189 5.3049 35.469Z" fill="#33647D"/>
  <path d="M22.2304 57.399C22.2277 57.9007 22.0765 58.3903 21.796 58.8063C21.5155 59.2222 21.1182 59.5458 20.6541 59.7364C20.19 59.927 19.6799 59.976 19.188 59.8772C18.6961 59.7784 18.2445 59.5363 17.89 59.1814C17.5354 58.8264 17.2938 58.3745 17.1956 57.8825C17.0975 57.3905 17.147 56.8804 17.3382 56.4166C17.5293 55.9527 17.8534 55.5558 18.2697 55.2758C18.6859 54.9958 19.1758 54.8452 19.6775 54.843C20.0133 54.8417 20.3462 54.9069 20.6567 55.0349C20.9672 55.163 21.2494 55.3512 21.4867 55.5889C21.7241 55.8265 21.912 56.1088 22.0397 56.4195C22.1673 56.7302 22.2322 57.0631 22.2304 57.399Z" fill="#344B45"/>
  <path d="M11.6597 43.861C11.1525 43.8564 10.6581 43.7012 10.2393 43.4151C9.82044 43.1291 9.49601 42.7251 9.30715 42.2544C9.11828 41.7836 9.07351 41.2675 9.17849 40.7713C9.28347 40.275 9.53346 39.8212 9.89678 39.4673C10.2601 39.1134 10.7204 38.8754 11.2192 38.7835C11.718 38.6916 12.2328 38.7499 12.6984 38.9511C13.164 39.1522 13.5593 39.4872 13.8343 39.9134C14.1092 40.3396 14.2514 40.8379 14.2427 41.345C14.221 42.017 13.9398 42.6544 13.4582 43.1235C12.9766 43.5926 12.332 43.8569 11.6597 43.861Z" fill="#5A6F6A"/>
  <path d="M33.9557 74.243C33.9559 74.7453 33.8068 75.2363 33.5273 75.6536C33.2479 76.071 32.8507 76.3959 32.3862 76.5871C31.9218 76.7783 31.411 76.8271 30.9187 76.7274C30.4264 76.6277 29.9748 76.384 29.6214 76.0271C29.2679 75.6702 29.0285 75.2164 28.9334 74.7232C28.8384 74.23 28.8921 73.7196 29.0877 73.257C29.2833 72.7944 29.612 72.4003 30.032 72.1249C30.452 71.8494 30.9444 71.705 31.4467 71.71C32.1152 71.7134 32.755 71.9822 33.2255 72.4572C33.696 72.9321 33.9586 73.5744 33.9557 74.243Z" fill="#003756"/>
  <path d="M4.18238 27.778C3.50489 27.7687 2.85863 27.4916 2.38489 27.0072C1.91116 26.5228 1.64851 25.8705 1.65439 25.193C1.65439 24.5167 1.92303 23.868 2.40125 23.3898C2.87947 22.9116 3.52808 22.6429 4.20438 22.6429C4.88068 22.6429 5.52929 22.9116 6.00751 23.3898C6.48573 23.868 6.75437 24.5167 6.75437 25.193C6.76295 25.5337 6.70241 25.8726 6.57636 26.1892C6.45031 26.5059 6.26139 26.7937 6.021 27.0353C5.78062 27.2769 5.49375 27.4673 5.17774 27.5949C4.86173 27.7226 4.52312 27.7848 4.18238 27.778Z" fill="#557F94"/>
  <path d="M8.96609 32.221C8.96128 31.9 9.02067 31.5813 9.14077 31.2836C9.26088 30.9859 9.43927 30.7153 9.66546 30.4875C9.89166 30.2597 10.1611 30.0794 10.458 29.9572C10.7548 29.835 11.0731 29.7734 11.3941 29.776C12.0339 29.7889 12.643 30.0522 13.0909 30.5092C13.5388 30.9662 13.7896 31.5806 13.7896 32.2205C13.7896 32.8604 13.5388 33.4748 13.0909 33.9318C12.643 34.3888 12.0339 34.6521 11.3941 34.665C11.0733 34.6672 10.7553 34.6053 10.4587 34.483C10.1621 34.3608 9.89284 34.1806 9.66674 33.953C9.44064 33.7254 9.26221 33.455 9.1419 33.1576C9.02159 32.8602 8.96183 32.5418 8.96609 32.221Z" fill="#738581"/>
  <path d="M26.7189 60.733C27.0351 60.7305 27.3486 60.7908 27.6413 60.9104C27.9339 61.0301 28.1999 61.2067 28.4237 61.4299C28.6476 61.6532 28.8248 61.9188 28.9452 62.2111C29.0656 62.5035 29.1267 62.8168 29.1249 63.133C29.1281 63.6119 28.9889 64.081 28.7249 64.4806C28.4609 64.8802 28.0841 65.1924 27.6423 65.3774C27.2006 65.5624 26.7137 65.6119 26.2438 65.5197C25.7738 65.4275 25.3418 65.1977 25.0027 64.8595C24.6637 64.5212 24.4327 64.0898 24.3393 63.6201C24.246 63.1503 24.2943 62.6634 24.4782 62.2212C24.6621 61.779 24.9733 61.4014 25.3723 61.1364C25.7713 60.8714 26.24 60.731 26.7189 60.733Z" fill="#344B45"/>
  <path d="M22.7405 50.551C22.4389 50.5529 22.14 50.4939 21.8618 50.3776C21.5835 50.2613 21.3316 50.09 21.1211 49.8741C20.9105 49.6581 20.7457 49.4019 20.6365 49.1208C20.5273 48.8397 20.4759 48.5394 20.4855 48.238C20.4912 47.6389 20.7312 47.0659 21.1542 46.6416C21.5772 46.2173 22.1495 45.9755 22.7485 45.968C23.3668 45.9695 23.9592 46.2164 24.3957 46.6544C24.8322 47.0924 25.077 47.6856 25.0765 48.304C25.0717 48.6052 25.0073 48.9025 24.8871 49.1788C24.7669 49.455 24.5933 49.7048 24.3762 49.9136C24.159 50.1225 23.9027 50.2864 23.622 50.3958C23.3413 50.5051 23.0417 50.5579 22.7405 50.551Z" fill="#847853"/>
  <path d="M19.6864 38.233C19.9878 38.2295 20.2868 38.2862 20.566 38.3998C20.8452 38.5134 21.099 38.6816 21.3123 38.8945C21.5257 39.1074 21.6944 39.3607 21.8086 39.6397C21.9228 39.9186 21.9802 40.2176 21.9774 40.519C21.9947 40.8319 21.9478 41.1451 21.8396 41.4393C21.7315 41.7335 21.5644 42.0025 21.3485 42.2298C21.1327 42.457 20.8726 42.6378 20.5844 42.7609C20.2962 42.884 19.9858 42.9469 19.6723 42.9458C19.3589 42.9446 19.049 42.8794 18.7617 42.7541C18.4744 42.6289 18.2157 42.4462 18.0015 42.2174C17.7874 41.9885 17.6222 41.7183 17.5163 41.4233C17.4103 41.1283 17.3658 40.8148 17.3854 40.502C17.3842 40.201 17.4433 39.9028 17.5589 39.6249C17.6746 39.347 17.8445 39.0951 18.0588 38.8837C18.2731 38.6724 18.5275 38.506 18.807 38.3942C19.0864 38.2825 19.3854 38.2276 19.6864 38.233Z" fill="#958A69"/>
  <path d="M39.5317 75.801C39.5316 75.3784 39.6564 74.9651 39.8906 74.6133C40.1248 74.2615 40.4578 73.9868 40.8477 73.8238C41.2376 73.6608 41.667 73.6168 42.0819 73.6974C42.4968 73.7779 42.8786 73.9794 43.1792 74.2764C43.4798 74.5734 43.6859 74.9527 43.7714 75.3666C43.857 75.7805 43.8181 76.2104 43.6599 76.6023C43.5016 76.9941 43.231 77.3304 42.882 77.5688C42.533 77.8072 42.1214 77.9371 41.6988 77.942C41.4157 77.9445 41.1349 77.891 40.8725 77.7846C40.6102 77.6782 40.3715 77.521 40.1701 77.3221C39.9687 77.1231 39.8086 76.8863 39.6991 76.6253C39.5895 76.3642 39.5326 76.0841 39.5317 75.801Z" fill="#003756"/>
  <path d="M8.27436 13.5459C8.84423 13.5407 9.39331 13.7596 9.80323 14.1555C10.2132 14.5515 10.4511 15.0926 10.4656 15.6623C10.4802 16.232 10.2702 16.7847 9.88108 17.201C9.49193 17.6174 8.95475 17.8641 8.38535 17.888C7.81548 17.8932 7.26637 17.6743 6.85645 17.2784C6.44653 16.8824 6.20863 16.3412 6.19407 15.7715C6.17951 15.2018 6.38945 14.6492 6.7786 14.2329C7.16776 13.8165 7.70497 13.5698 8.27436 13.5459Z" fill="#96A4A1"/>
  <path d="M13.5953 25.488C13.0547 25.4795 12.5382 25.2627 12.1533 24.8829C11.7685 24.5031 11.545 23.9895 11.5293 23.449C11.5281 23.1789 11.58 22.9113 11.6822 22.6613C11.7844 22.4113 11.9348 22.1839 12.1249 21.992C12.315 21.8002 12.541 21.6477 12.7901 21.5432C13.0391 21.4387 13.3063 21.3843 13.5763 21.383C13.8464 21.3818 14.1141 21.4337 14.364 21.5359C14.614 21.6381 14.8414 21.7885 15.0333 21.9786C15.2251 22.1687 15.3776 22.3947 15.4821 22.6438C15.5866 22.8928 15.6411 23.16 15.6423 23.43C15.6317 23.9706 15.4129 24.4862 15.0316 24.8696C14.6503 25.2529 14.1359 25.4745 13.5953 25.488Z" fill="#96A4A1"/>
  <path d="M21.4285 32.145C21.4361 32.4132 21.3901 32.6801 21.2932 32.9303C21.1963 33.1804 21.0504 33.4087 20.8641 33.6018C20.6779 33.7948 20.455 33.9488 20.2084 34.0546C19.9619 34.1604 19.6968 34.216 19.4285 34.218C18.8816 34.2209 18.356 34.0064 17.9672 33.6218C17.5785 33.2372 17.3584 32.7138 17.3555 32.167C17.3526 31.6201 17.567 31.0945 17.9517 30.7057C18.3363 30.317 18.8596 30.0969 19.4065 30.094C19.6744 30.0942 19.9396 30.1477 20.1867 30.2512C20.4338 30.3547 20.6579 30.5062 20.846 30.697C21.0341 30.8878 21.1825 31.114 21.2824 31.3626C21.3824 31.6111 21.4321 31.8771 21.4285 32.145Z" fill="#96A4A1"/>
  <path d="M30.3031 54.562C30.3026 54.8257 30.2496 55.0866 30.1471 55.3296C30.0446 55.5725 29.8947 55.7926 29.7061 55.977C29.5176 56.1613 29.2942 56.3062 29.049 56.4033C28.8038 56.5003 28.5417 56.5474 28.2781 56.542C28.0108 56.5416 27.7462 56.4882 27.4998 56.3846C27.2533 56.2811 27.03 56.1296 26.8426 55.9389C26.6553 55.7482 26.5077 55.5222 26.4085 55.274C26.3094 55.0257 26.2605 54.7602 26.2649 54.493C26.2693 54.2257 26.3268 53.962 26.434 53.7172C26.5413 53.4723 26.6962 53.2512 26.8896 53.0668C27.0831 52.8823 27.3113 52.7382 27.561 52.6428C27.8107 52.5474 28.0769 52.5026 28.3441 52.511C28.6076 52.5163 28.8675 52.5736 29.1088 52.6797C29.35 52.7858 29.568 52.9386 29.75 53.1292C29.9321 53.3198 30.0747 53.5445 30.1696 53.7904C30.2645 54.0363 30.3099 54.2985 30.3031 54.562Z" fill="#6D5F36"/>
  <path d="M37.0817 66.689C37.0857 66.9524 37.0373 67.214 36.9393 67.4586C36.8413 67.7032 36.6957 67.9259 36.5109 68.1138C36.3261 68.3016 36.1059 68.4508 35.8629 68.5528C35.62 68.6548 35.3592 68.7076 35.0957 68.7079C34.6964 68.7135 34.3045 68.6002 33.9698 68.3826C33.635 68.1649 33.3725 67.8526 33.2157 67.4854C33.0588 67.1182 33.0146 66.7127 33.0887 66.3203C33.1628 65.9279 33.3519 65.5665 33.6319 65.2818C33.9119 64.9972 34.2703 64.8022 34.6613 64.7216C35.0524 64.641 35.4586 64.6785 35.8284 64.8293C36.1981 64.9801 36.5147 65.2374 36.7378 65.5685C36.961 65.8996 37.0807 66.2897 37.0817 66.689Z" fill="#344B45"/>
  <path d="M51.9697 72.874C52.4337 72.8782 52.8771 73.0661 53.2028 73.3966C53.5286 73.727 53.7101 74.173 53.7077 74.637C53.6942 75.0999 53.5005 75.5393 53.1678 75.8615C52.8351 76.1837 52.3899 76.3633 51.9267 76.362C51.4642 76.3562 51.0229 76.1668 50.7 75.8356C50.377 75.5045 50.1989 75.0586 50.2047 74.596C50.2106 74.1335 50.3999 73.6922 50.7311 73.3692C51.0623 73.0463 51.5072 72.8681 51.9697 72.874Z" fill="#003756"/>
  <path d="M16.4711 7.61897C16.4902 7.85397 16.4584 8.09032 16.3778 8.3119C16.2973 8.53349 16.1699 8.73513 16.0044 8.90303C15.8388 9.07092 15.6391 9.20111 15.4187 9.2848C15.1982 9.36849 14.9624 9.40368 14.7271 9.38795C14.4956 9.39335 14.2654 9.35089 14.0511 9.26326C13.8367 9.17562 13.6427 9.04472 13.4813 8.87867C13.3198 8.71263 13.1943 8.51504 13.1128 8.29829C13.0312 8.08154 12.9952 7.85026 13.0071 7.61897C13.0012 7.38939 13.0413 7.16095 13.1248 6.94703C13.2084 6.73311 13.3338 6.53802 13.4937 6.37318C13.6536 6.20834 13.8448 6.07708 14.0561 5.98707C14.2673 5.89706 14.4945 5.85007 14.7241 5.84895C14.959 5.83576 15.1939 5.87274 15.4134 5.95735C15.6329 6.04195 15.8319 6.17226 15.9971 6.33967C16.1623 6.50708 16.2901 6.70773 16.3718 6.9283C16.4535 7.14886 16.4874 7.38431 16.4711 7.61897Z" fill="#B6C0BD"/>
  <path d="M29.942 41.3379C29.9464 41.5676 29.9042 41.7958 29.8179 42.0087C29.7317 42.2216 29.6032 42.4149 29.4402 42.5768C29.2772 42.7386 29.0831 42.8658 28.8696 42.9505C28.6561 43.0353 28.4276 43.0759 28.198 43.0699C27.9684 43.0693 27.7413 43.023 27.5299 42.9337C27.3185 42.8444 27.1269 42.7139 26.9665 42.5498C26.806 42.3857 26.6798 42.1913 26.5952 41.9779C26.5107 41.7645 26.4695 41.5364 26.474 41.3069C26.4774 40.8433 26.6645 40.4 26.9942 40.074C27.3239 39.7481 27.7693 39.5661 28.233 39.568C28.463 39.5666 28.6909 39.6118 28.9029 39.701C29.1149 39.7903 29.3066 39.9216 29.4664 40.0871C29.6261 40.2525 29.7507 40.4487 29.8324 40.6637C29.9142 40.8787 29.9514 41.1081 29.942 41.3379Z" fill="#D7A25A"/>
  <path d="M19.8063 15.577C19.8061 15.7972 19.7618 16.0151 19.676 16.218C19.5902 16.4208 19.4647 16.6044 19.3068 16.7579C19.1489 16.9114 18.9619 17.0318 18.7567 17.1118C18.5516 17.1919 18.3324 17.23 18.1123 17.224C17.9009 17.2262 17.6911 17.1867 17.4949 17.1078C17.2988 17.0289 17.1201 16.912 16.9692 16.764C16.8183 16.6159 16.698 16.4396 16.6153 16.245C16.5326 16.0504 16.4891 15.8414 16.4873 15.6299C16.4901 15.1739 16.6714 14.7371 16.9923 14.413C17.3132 14.0889 17.7482 13.9033 18.2043 13.896C18.42 13.9008 18.6326 13.9481 18.83 14.0353C19.0273 14.1224 19.2055 14.2476 19.3543 14.4038C19.5032 14.56 19.6197 14.7441 19.6973 14.9454C19.7748 15.1467 19.8119 15.3613 19.8063 15.577Z" fill="#B6C0BD"/>
  <path d="M37.26 58.544C37.2478 58.9702 37.0708 59.3751 36.7663 59.6735C36.4617 59.9719 36.0533 60.1406 35.6269 60.144C35.4139 60.1406 35.2037 60.0953 35.0082 60.0106C34.8128 59.9259 34.6358 59.8036 34.4876 59.6505C34.3394 59.4975 34.2228 59.3168 34.1445 59.1187C34.0661 58.9206 34.0276 58.709 34.031 58.496C34.0344 58.283 34.0797 58.0728 34.1644 57.8773C34.249 57.6818 34.3714 57.5049 34.5244 57.3567C34.6774 57.2085 34.8582 57.0919 35.0563 57.0135C35.2544 56.9352 35.4659 56.8966 35.6789 56.9C36.1043 56.9153 36.507 57.0953 36.8021 57.4021C37.0971 57.7089 37.2613 58.1184 37.26 58.544Z" fill="#6D5F36"/>
  <path d="M44.0677 69.394C43.6426 69.3921 43.2355 69.2218 42.9356 68.9205C42.6357 68.6191 42.4675 68.2111 42.4678 67.7859C42.4703 67.5744 42.5144 67.3655 42.5976 67.1711C42.6809 66.9766 42.8016 66.8005 42.9529 66.6527C43.1042 66.5049 43.2831 66.3884 43.4795 66.3098C43.6758 66.2312 43.8858 66.192 44.0973 66.1944C44.3088 66.1969 44.5177 66.2411 44.7121 66.3243C44.9066 66.4076 45.0827 66.5283 45.2305 66.6796C45.3783 66.8309 45.4948 67.0099 45.5734 67.2062C45.6521 67.4026 45.6912 67.6125 45.6888 67.824C45.6872 68.034 45.6439 68.2417 45.5612 68.4348C45.4786 68.6279 45.3583 68.8027 45.2074 68.9488C45.0565 69.095 44.878 69.2096 44.6824 69.286C44.4867 69.3624 44.2778 69.3992 44.0677 69.394Z" fill="#344B45"/>
  <path d="M23.6092 24.26C23.6136 24.4703 23.5753 24.6793 23.4967 24.8744C23.4181 25.0695 23.3007 25.2466 23.1518 25.3951C23.0028 25.5436 22.8253 25.6604 22.6299 25.7384C22.4346 25.8165 22.2254 25.854 22.0152 25.849C21.5826 25.8439 21.1689 25.671 20.8615 25.3667C20.554 25.0624 20.3768 24.6505 20.3672 24.218C20.3743 23.7927 20.5488 23.3874 20.8528 23.0899C21.1568 22.7924 21.5658 22.6268 21.9912 22.629C22.2072 22.62 22.4227 22.6561 22.6239 22.735C22.8252 22.814 23.0078 22.934 23.16 23.0875C23.3123 23.241 23.4309 23.4245 23.5082 23.6264C23.5855 23.8283 23.6199 24.0441 23.6092 24.26Z" fill="#B6C0BD"/>
  <path d="M28.749 33.8C28.7452 34.0916 28.6548 34.3756 28.4893 34.6158C28.3238 34.856 28.0906 35.0416 27.8194 35.1491C27.5482 35.2565 27.2512 35.281 26.9661 35.2193C26.681 35.1577 26.4206 35.0127 26.218 34.8028C26.0154 34.5929 25.8798 34.3276 25.8283 34.0404C25.7768 33.7533 25.8118 33.4574 25.9288 33.1902C26.0458 32.9229 26.2396 32.6965 26.4855 32.5396C26.7314 32.3828 27.0184 32.3025 27.31 32.309C27.6956 32.3247 28.0604 32.4884 28.3284 32.7661C28.5964 33.0438 28.747 33.414 28.749 33.8Z" fill="#D7A25A"/>
  <path d="M32.502 46.146C32.8829 46.1525 33.2461 46.3076 33.5142 46.5782C33.7823 46.8488 33.9341 47.2134 33.9371 47.5943C33.9401 47.9752 33.7941 48.3422 33.5303 48.617C33.2665 48.8917 32.9057 49.0525 32.525 49.065C32.3303 49.0714 32.1363 49.0388 31.9545 48.9691C31.7726 48.8994 31.6065 48.7939 31.466 48.659C31.3254 48.5241 31.2133 48.3624 31.1362 48.1835C31.0592 48.0046 31.0187 47.8121 31.0171 47.6173C31.0156 47.4225 31.0531 47.2294 31.1273 47.0493C31.2016 46.8692 31.3111 46.7058 31.4495 46.5687C31.5879 46.4316 31.7523 46.3235 31.933 46.2509C32.1138 46.1784 32.3073 46.1427 32.502 46.146Z" fill="#D7A25A"/>
  <path d="M21.7622 1.44196C21.7638 1.06731 21.9105 0.707862 22.1716 0.439148C22.4327 0.170434 22.7877 0.0133925 23.1622 0.000976562C23.5223 0.0535867 23.8532 0.228874 24.0989 0.497253C24.3447 0.765633 24.4904 1.11067 24.5112 1.474C24.4874 1.83804 24.3292 2.18021 24.0674 2.43427C23.8056 2.68832 23.4588 2.83615 23.0942 2.849C22.9126 2.85001 22.7327 2.8137 22.5656 2.74237C22.3986 2.67104 22.248 2.56622 22.1231 2.43433C21.9982 2.30243 21.9017 2.14627 21.8397 1.97559C21.7776 1.8049 21.7512 1.62325 21.7622 1.44196Z" fill="#B6C0BD"/>
  <path d="M62.939 70.79C62.9416 70.9668 62.909 71.1423 62.8431 71.3064C62.7773 71.4705 62.6796 71.6199 62.5556 71.7459C62.4316 71.8719 62.2838 71.9721 62.1208 72.0406C61.9578 72.1091 61.7828 72.1446 61.606 72.145C61.431 72.1476 61.2571 72.1156 61.0944 72.051C60.9317 71.9863 60.7834 71.8903 60.6578 71.7684C60.5322 71.6464 60.4318 71.5009 60.3625 71.3401C60.2931 71.1794 60.2561 71.0065 60.2536 70.8315C60.251 70.6564 60.2829 70.4826 60.3476 70.3199C60.4122 70.1572 60.5082 70.0088 60.6302 69.8832C60.7521 69.7576 60.8977 69.6573 61.0584 69.5879C61.2192 69.5186 61.392 69.4816 61.567 69.479C61.7438 69.4724 61.9202 69.5014 62.0856 69.5642C62.251 69.627 62.4022 69.7223 62.5301 69.8445C62.658 69.9668 62.7601 70.1134 62.8304 70.2758C62.9006 70.4382 62.9376 70.613 62.939 70.79Z" fill="#003756"/>
  <path d="M27.151 18.835C26.9838 18.8358 26.8181 18.8028 26.6638 18.7381C26.5096 18.6734 26.37 18.5783 26.2533 18.4585C26.1366 18.3386 26.0453 18.1965 25.9848 18.0406C25.9242 17.8847 25.8958 17.7182 25.901 17.551C25.9357 17.2322 26.0902 16.9385 26.3331 16.7292C26.576 16.5199 26.8892 16.4105 27.2097 16.4232C27.5301 16.4359 27.8337 16.5697 28.0593 16.7976C28.2849 17.0255 28.4156 17.3305 28.425 17.651C28.4252 17.8143 28.3916 17.9758 28.3265 18.1255C28.2613 18.2752 28.166 18.4099 28.0464 18.521C27.9268 18.6322 27.7855 18.7174 27.6315 18.7714C27.4774 18.8255 27.3138 18.8472 27.151 18.835Z" fill="#B6C0BD"/>
  <path d="M53.0401 65.122C53.2023 65.1205 53.3632 65.1513 53.5134 65.2125C53.6636 65.2738 53.8002 65.3642 53.9152 65.4786C54.0302 65.593 54.1213 65.7292 54.1832 65.8791C54.2452 66.029 54.2767 66.1898 54.2761 66.352C54.2717 66.5099 54.236 66.6653 54.1711 66.8093C54.1062 66.9533 54.0133 67.0831 53.8978 67.1909C53.7824 67.2987 53.6467 67.3825 53.4986 67.4375C53.3505 67.4924 53.1929 67.5174 53.0351 67.511C52.8773 67.5147 52.7205 67.4864 52.5739 67.4281C52.4273 67.3697 52.294 67.2823 52.182 67.1712C52.0699 67.0601 51.9815 66.9275 51.9219 66.7815C51.8623 66.6354 51.8328 66.4788 51.8351 66.321C51.8352 66.1631 51.8665 66.0067 51.9272 65.8609C51.9879 65.7151 52.0767 65.5827 52.1887 65.4713C52.3006 65.3599 52.4335 65.2718 52.5796 65.2118C52.7257 65.1519 52.8822 65.1213 53.0401 65.122Z" fill="#344B45"/>
  <path d="M45.1181 59.826C45.109 60.1426 44.9768 60.4432 44.7497 60.6639C44.5226 60.8847 44.2183 61.0081 43.9016 61.0081C43.5848 61.0081 43.2806 60.8847 43.0534 60.6639C42.8263 60.4432 42.6941 60.1426 42.6851 59.826C42.6847 59.663 42.7171 59.5017 42.7805 59.3516C42.8438 59.2015 42.9367 59.0657 43.0536 58.9522C43.1705 58.8387 43.3091 58.7499 43.461 58.6911C43.613 58.6324 43.7752 58.6048 43.9381 58.61C44.0958 58.6109 44.2518 58.6432 44.3969 58.7051C44.5421 58.7669 44.6734 58.8572 44.7833 58.9704C44.8931 59.0836 44.9793 59.2176 45.0368 59.3645C45.0943 59.5114 45.1219 59.6683 45.1181 59.826Z" fill="#6D5F36"/>
  <path d="M40.0958 51.25C40.0966 51.3694 40.0736 51.4878 40.0282 51.5983C39.9828 51.7088 39.9158 51.8091 39.8312 51.8935C39.7466 51.9778 39.646 52.0444 39.5354 52.0895C39.4248 52.1346 39.3063 52.1572 39.1868 52.156C39.0671 52.1601 38.9477 52.1405 38.8355 52.0985C38.7234 52.0564 38.6206 51.9927 38.5331 51.9109C38.4456 51.829 38.3751 51.7307 38.3256 51.6216C38.2762 51.5125 38.2487 51.3947 38.2448 51.2749C38.2424 51.1503 38.2651 51.0264 38.3117 50.9107C38.3582 50.795 38.4277 50.6899 38.5158 50.6017C38.6039 50.5134 38.709 50.4439 38.8246 50.3972C38.9403 50.3505 39.0641 50.3276 39.1888 50.3299C39.4308 50.3326 39.6619 50.4308 39.8318 50.6031C40.0017 50.7755 40.0966 51.008 40.0958 51.25Z" fill="#C1771B"/>
  <path d="M29.8358 27.558C29.7118 27.5638 29.5879 27.5443 29.4716 27.5009C29.3553 27.4574 29.249 27.3908 29.1592 27.3051C29.0694 27.2193 28.9979 27.1163 28.949 27.0021C28.9002 26.888 28.875 26.7652 28.875 26.641C28.875 26.5168 28.9002 26.3939 28.949 26.2798C28.9979 26.1656 29.0694 26.0626 29.1592 25.9769C29.249 25.8912 29.3553 25.8245 29.4716 25.7811C29.5879 25.7376 29.7118 25.7182 29.8358 25.7239C29.9644 25.7074 30.0949 25.7196 30.2182 25.7595C30.3415 25.7994 30.4544 25.8661 30.5488 25.9548C30.6432 26.0435 30.7169 26.1521 30.7644 26.2726C30.812 26.3931 30.8323 26.5227 30.8239 26.652C30.8062 26.9007 30.694 27.1332 30.5103 27.3017C30.3265 27.4702 30.0851 27.5619 29.8358 27.558Z" fill="#B6C0BD"/>
</svg>