<svg xmlns="http://www.w3.org/2000/svg" width="94" height="106" viewBox="0 0 94 106" fill="none">
<path d="M64.8927 47.2245L64.6291 47.9069C69.0227 49.8441 78.8862 57.5267 78.8862 73.0021C78.8862 87.5749 66.6282 102.258 47.3625 102.258C23.3957 102.258 15.1358 88.2133 15.1358 75.3135C15.1358 58.7815 26.6688 47.7748 26.6688 32.7177C26.606 27.3924 24.7424 22.2459 21.3826 18.1194C18.0228 13.993 13.3655 11.1305 8.172 10L7.77658 10.6824C9.66002 12.5137 11.1544 14.7078 12.1699 17.1327C13.1855 19.5576 13.7011 22.1632 13.6859 24.7929C13.6859 41.0608 0 52.6177 0 71.285C0 88.4774 11.9944 106 46.7254 106C77.678 106 94 90.8108 94 74.6531C93.978 60.7847 84.0706 49.0516 64.8927 47.2245Z" fill="url(#paint0_linear_215_1101)"/>
<path d="M47.3253 83L56 0H38L46.6747 83H47.3253Z" fill="#0460A9"/>
<defs>
<linearGradient id="paint0_linear_215_1101" x1="-0.0219677" y1="57.989" x2="93.978" y2="57.989" gradientUnits="userSpaceOnUse">
<stop offset="0.3" stop-color="#E74A21"/>
<stop offset="0.7" stop-color="#EC9A1E"/>
</linearGradient>
</defs>
</svg>