<svg xmlns="http://www.w3.org/2000/svg" width="82" height="114" viewBox="0 0 82 114" fill="none">
<g clip-path="url(#clip0_587_1090)">
<path d="M40.9593 114H2.72325C0.493437 114 0.00585938 113.497 0.00585938 111.211C0.00585938 102.403 0.00585938 93.5947 0.00585938 84.7868C0.0307041 73.1167 9.1953 62.5294 20.5462 60.9749C21.7752 60.819 23.0128 60.745 24.2512 60.7533C25.2729 60.7533 25.9779 61.1902 26.1922 62.2413C26.4065 63.2925 26.1114 64.1821 25.0897 64.5684C24.4251 64.8153 24.3319 65.2016 24.3351 65.8158C24.3351 70.2008 24.3599 74.5826 24.3351 78.9676C24.3351 79.7686 24.6673 80.1454 25.3009 80.519C26.383 81.1578 27.2261 82.1451 27.6978 83.3257C28.1694 84.5063 28.2428 85.8132 27.9065 87.041C27.5755 88.2697 26.8516 89.3505 25.8496 90.1122C24.8477 90.8738 23.625 91.2727 22.3754 91.2455C21.1248 91.2614 19.9051 90.8492 18.9114 90.0749C17.9176 89.3006 17.2073 88.209 16.8941 86.9745C16.5695 85.763 16.6465 84.4762 17.1132 83.3139C17.5799 82.1517 18.4101 81.1791 19.4748 80.5474C19.8025 80.3963 20.0754 80.1443 20.2554 79.8269C20.4353 79.5094 20.5131 79.1425 20.4779 78.7776C20.4406 74.6702 20.4406 70.5628 20.4779 66.4553C20.4779 65.5055 20.3568 65.1161 19.2574 65.3852C10.9748 67.4147 4.54933 75.1208 4.08349 83.7895C3.63318 92.1922 4.00586 100.608 3.88474 109.017C3.88474 109.786 4.15803 110.058 4.90958 110.049C7.26983 110.02 9.63629 110.011 11.9965 110.049C12.8475 110.049 13.0431 109.688 13.0369 108.909C13.0059 106.262 13.0183 103.618 13.0369 100.972C13.0369 99.3886 13.7046 98.6003 14.9903 98.6098C16.276 98.6193 16.9065 99.3981 16.9127 101.003C16.9127 103.647 16.9375 106.294 16.9127 108.941C16.9127 109.751 17.1673 110.052 17.981 110.049C24.6456 110.025 31.3092 110.025 37.9717 110.049C38.8692 110.049 39.0245 109.685 39.0928 108.858C39.4034 104.869 38.2077 101.124 37.3723 97.3243C34.9293 86.2896 32.4655 75.257 29.981 64.2265C29.8031 63.2976 29.7281 62.3514 29.7574 61.4055C29.7574 60.1391 29.6736 58.8727 29.776 57.6062C30.0121 54.7283 29.7512 52.1005 27.3816 50.0362C26.4872 49.2605 25.9686 48.0511 25.5711 46.8923C25.276 46.0343 24.7481 45.6924 23.9158 45.4929C19.4096 44.407 16.7108 40.8642 16.745 36.1626C16.7553 35.3508 16.9289 34.5499 17.2549 33.8093C17.5809 33.0686 18.0525 32.404 18.6405 31.8565C19.2284 31.3091 19.9203 30.8903 20.6733 30.6263C21.4263 30.3622 22.2244 30.2584 23.0183 30.3212C23.8847 30.3972 24.1984 30.2611 24.2015 29.3239C24.2015 27.1077 24.7698 26.5346 26.9624 26.4998C30.1394 26.4523 33.3195 26.3985 36.4934 26.4998C39.5214 26.6043 41.5028 25.2144 42.7046 22.4884C43.0959 21.6082 43.6114 20.9402 44.6736 20.9244C45.7885 20.9054 46.3071 21.5956 46.7295 22.5074C47.9313 25.151 49.835 26.6644 52.8475 26.4713C53.7791 26.416 54.7136 26.434 55.6425 26.5251C57.2698 26.6771 57.7791 27.3103 57.8413 28.963C57.8413 29.4189 57.5307 30.2009 58.2015 30.2579C58.8723 30.3149 58.7108 29.4822 58.7978 29.0358C59.7574 24.1062 59.9127 19.221 57.5555 14.5954C54.4003 8.38048 49.4096 4.83134 42.5152 4.18546C37.8735 3.75802 33.2467 5.15203 29.5787 8.08312C25.9106 11.0142 23.4776 15.2616 22.776 19.9587C22.5773 21.2663 22.3257 22.6119 22.6114 23.9606C22.6549 24.2343 22.6549 24.5133 22.6114 24.787C22.4593 26.0344 21.6798 26.7721 20.5338 26.7372C19.3878 26.7024 18.6891 25.9331 18.6083 24.6508C17.9158 13.6583 24.3475 4.14114 34.627 0.940258C47.5431 -3.08063 61.245 5.80015 63.1673 19.4332C63.6184 22.8119 63.4775 26.2455 62.7512 29.574C62.5338 30.6252 62.5866 31.3723 63.4872 32.1354C65.3319 33.6962 65.5493 35.8808 65.127 38.1034C64.3972 41.9628 62.0555 44.4165 58.3661 45.4296C57.2698 45.7462 56.6767 46.2211 56.2574 47.2786C55.5184 49.0721 54.4217 50.6893 53.0369 52.0277C52.758 52.2677 52.5395 52.5723 52.3996 52.916C52.2597 53.2596 52.2024 53.6324 52.2326 54.0033C52.7139 60.538 51.5711 66.8606 50.0586 73.1832C47.6549 83.3146 45.4934 93.4776 43.2077 103.625C42.7823 105.505 42.9934 107.399 42.9375 109.286C42.9158 109.947 43.3226 110.052 43.8506 110.049C45.4034 110.049 46.9562 110.049 48.509 110.049C53.6208 110.049 58.7357 110.027 63.8506 110.068C64.804 110.068 65.1394 109.783 65.1146 108.801C65.0587 106.395 65.0959 103.986 65.0959 101.576C65.0959 99.4329 65.6456 98.6161 67.0649 98.6351C68.4841 98.6541 68.9748 99.4519 68.9748 101.633C68.9748 104.043 69.0121 106.452 68.9748 108.861C68.9531 109.811 69.2854 110.099 70.1798 110.077C72.4624 110.027 74.7512 110.039 77.0369 110.077C77.8195 110.077 78.1425 109.849 78.1394 109.001C78.1146 101.222 78.2512 93.4364 78.0866 85.6606C77.9003 77.0711 74.0245 70.6852 66.4313 66.7719C65.1655 66.1542 63.8379 65.6776 62.4717 65.3504C61.8319 65.1826 61.54 65.2776 61.54 66.0279C61.54 69.7385 61.5618 73.4523 61.54 77.1629C61.54 77.9988 62.1146 78.0811 62.6518 78.2805C65.9779 79.509 68.0245 81.9057 68.835 85.3947C69.1456 86.7909 69.0214 88.2283 68.9406 89.6403C68.8847 90.6282 67.9841 91.274 66.9624 91.2234C66.4921 91.2296 66.0379 91.049 65.6959 90.7199C65.354 90.3908 65.151 89.9389 65.1301 89.4599C65.068 88.3961 65.1083 87.3355 64.9127 86.2748C64.6796 85.0199 64.0251 83.887 63.0617 83.0706C62.0982 82.2542 60.886 81.8054 59.6332 81.8012C58.4012 81.7964 57.2042 82.2187 56.2386 82.9988C55.2731 83.7789 54.5963 84.8705 54.3195 86.0944C54.1417 87.1448 54.0658 88.2106 54.0928 89.2762C54.0587 90.5427 53.3288 91.3025 52.158 91.3025C50.9872 91.3025 50.3133 90.5617 50.217 89.2762C49.9282 85.477 50.7947 82.1368 53.9065 79.7021C54.7675 79.0258 55.7435 78.5171 56.7854 78.2014C57.3909 78.0178 57.6704 77.7075 57.6673 77.0268C57.6425 73.2275 57.6487 69.4283 57.6673 65.6543C57.699 65.423 57.6497 65.1877 57.5282 64.9897C57.4067 64.7917 57.2206 64.6437 57.0028 64.5716C56.0152 64.141 55.6363 63.2798 55.8723 62.2382C56.1083 61.1965 56.8692 60.7596 57.9437 60.7343C68.9593 60.4715 79.1332 68.89 81.5183 80.2783C81.8417 81.7811 82.0062 83.3148 82.009 84.8533C81.9945 93.6992 81.9945 102.546 82.009 111.394C82.009 113.424 81.45 113.99 79.4468 113.99L40.9593 114ZM33.776 30.4985V30.5808C32.1891 30.5808 30.599 30.5998 29.0121 30.5808C28.3102 30.5808 28.0431 30.8499 28.0555 31.5591C28.0866 32.9427 28.0555 34.3231 28.0555 35.7067C28.0555 38.0337 27.95 40.3734 28.4034 42.672C29.0314 45.8181 30.7808 48.6154 33.3137 50.5234C35.8466 52.4314 38.9832 53.3147 42.1177 53.0028C48.3941 52.4234 53.2264 47.5414 53.7698 41.2093C54.0307 38.1698 53.8102 35.1336 53.9531 32.1005C54.009 30.9133 53.6798 30.4668 52.4717 30.5618C49.6239 30.7866 47.2357 29.7007 45.2885 27.6237C44.7978 27.0982 44.5493 27.1773 44.1083 27.6554C42.717 29.1624 41.0245 30.2516 38.9965 30.4637C37.2729 30.6441 35.5183 30.4985 33.776 30.4985ZM40.8723 94.6237H41.1332C42.9531 86.4363 44.776 78.2499 46.6021 70.0647C46.8164 69.1148 46.3444 69.3934 45.8816 69.5612C42.7282 70.75 39.2618 70.75 36.1083 69.5612C35.3816 69.2921 35.2357 69.3966 35.422 70.1945C36.1798 73.4555 36.8723 76.7292 37.5959 80.0092C38.6849 84.8765 39.7771 89.748 40.8723 94.6237ZM48.3568 58.9423V57.7519C48.3568 55.6053 48.3568 55.6053 46.4096 56.2765C46.3009 56.3145 46.1891 56.3493 46.0773 56.381C42.2388 57.5334 38.4344 57.4479 34.7108 55.9124C33.8009 55.5356 33.5804 55.7288 33.6208 56.6944C33.686 58.192 33.6642 59.6958 33.6208 61.1934C33.5983 61.9083 33.825 62.6082 34.2605 63.169C35.7295 65.1636 37.7108 66.1166 40.1301 66.2812C42.3195 66.4269 44.3444 66.0659 46.1922 64.7678C48.2667 63.3241 48.686 61.2884 48.3568 58.9423ZM24.1798 38.1224C24.1798 37.4512 24.1363 36.7736 24.1798 36.1088C24.2543 35.1589 23.9096 34.5795 22.9686 34.4276C22.0959 34.2851 21.0804 34.912 20.8475 35.7162C20.3195 37.5525 21.686 40.3386 23.4469 41.0668C23.95 41.2726 24.1767 41.1839 24.1736 40.6077C24.1767 39.7719 24.1798 38.9424 24.1798 38.1224ZM57.8164 38.0559C57.8164 38.9234 57.8164 39.7909 57.8164 40.6584C57.8164 41.1586 58.0214 41.2568 58.4779 41.0953C60.2264 40.4621 61.7077 37.448 61.1208 35.6655C60.8599 34.874 59.8071 34.2756 58.9468 34.4371C57.9903 34.6144 57.7232 35.2444 57.7947 36.1626C57.8568 36.7831 57.8164 37.4163 57.8164 38.0495V38.0559ZM22.4127 83.7135C21.9683 83.736 21.5478 83.9249 21.2315 84.2438C20.9152 84.5628 20.7254 84.9894 20.6984 85.4422C20.6953 85.6672 20.7372 85.8905 20.8215 86.0984C20.9059 86.3064 21.0309 86.4946 21.189 86.6517C21.3471 86.8087 21.535 86.9313 21.7411 87.0118C21.9472 87.0924 22.1673 87.1292 22.3878 87.1202C22.6085 87.1308 22.829 87.0961 23.0363 87.0182C23.2436 86.9403 23.4334 86.8207 23.5944 86.6665C23.7555 86.5124 23.8845 86.3268 23.9739 86.1208C24.0632 85.9148 24.1111 85.6927 24.1146 85.4675C24.0865 85.0149 23.8987 84.5879 23.5859 84.2655C23.2731 83.9431 22.8563 83.747 22.4127 83.7135Z" fill="#004567"/>
</g>
<defs>
<clipPath id="clip0_587_1090">
<rect width="82" height="114" fill="white"/>
</clipPath>
</defs>
</svg>