<svg xmlns="http://www.w3.org/2000/svg" width="23" height="23" viewBox="0 0 23 23" fill="none">
  <g clip-path="url(#clip0_1300_738)">
    <path d="M11.5 14.375C13.0878 14.375 14.375 13.0878 14.375 11.5C14.375 9.91218 13.0878 8.625 11.5 8.625C9.91218 8.625 8.625 9.91218 8.625 11.5C8.625 13.0878 9.91218 14.375 11.5 14.375Z" stroke="#fff" stroke-width="2" stroke-linecap="round" stroke-linejoin="round"/>
    <path d="M18.5916 14.375C18.464 14.664 18.426 14.9847 18.4823 15.2956C18.5387 15.6064 18.6869 15.8933 18.9078 16.1192L18.9653 16.1767C19.1435 16.3547 19.2849 16.5661 19.3814 16.7987C19.4778 17.0314 19.5275 17.2808 19.5275 17.5327C19.5275 17.7846 19.4778 18.034 19.3814 18.2667C19.2849 18.4994 19.1435 18.7107 18.9653 18.8887C18.7873 19.0669 18.5759 19.2083 18.3433 19.3048C18.1106 19.4012 17.8612 19.4509 17.6093 19.4509C17.3574 19.4509 17.108 19.4012 16.8753 19.3048C16.6426 19.2083 16.4313 19.0669 16.2532 18.8887L16.1958 18.8312C15.9699 18.6103 15.683 18.4621 15.3721 18.4057C15.0613 18.3494 14.7406 18.3874 14.4516 18.515C14.1681 18.6365 13.9264 18.8382 13.7561 19.0953C13.5859 19.3524 13.4945 19.6537 13.4933 19.9621V20.125C13.4933 20.6333 13.2913 21.1208 12.9319 21.4803C12.5724 21.8397 12.0849 22.0417 11.5766 22.0417C11.0683 22.0417 10.5807 21.8397 10.2213 21.4803C9.86185 21.1208 9.65992 20.6333 9.65992 20.125V20.0387C9.6525 19.7215 9.54982 19.4139 9.36524 19.1558C9.18066 18.8978 8.92271 18.7012 8.62492 18.5917C8.33587 18.4641 8.01523 18.426 7.70435 18.4824C7.39348 18.5388 7.10661 18.687 6.88075 18.9079L6.82325 18.9654C6.64524 19.1436 6.43386 19.285 6.20118 19.3814C5.9685 19.4779 5.71909 19.5275 5.46721 19.5275C5.21533 19.5275 4.96592 19.4779 4.73324 19.3814C4.50056 19.285 4.28918 19.1436 4.11117 18.9654C3.93296 18.7874 3.79159 18.576 3.69514 18.3433C3.59868 18.1107 3.54904 17.8612 3.54904 17.6094C3.54904 17.3575 3.59868 17.1081 3.69514 16.8754C3.79159 16.6427 3.93296 16.4313 4.11117 16.2533L4.16867 16.1958C4.3896 15.97 4.5378 15.6831 4.59417 15.3722C4.65054 15.0613 4.61249 14.7407 4.48492 14.4517C4.36344 14.1682 4.16173 13.9265 3.90461 13.7562C3.6475 13.5859 3.34621 13.4946 3.03784 13.4933H2.87492C2.36659 13.4933 1.87908 13.2914 1.51963 12.9319C1.16019 12.5725 0.958252 12.085 0.958252 11.5767C0.958252 11.0683 1.16019 10.5808 1.51963 10.2214C1.87908 9.86193 2.36659 9.65999 2.87492 9.65999H2.96117C3.27837 9.65257 3.58601 9.5499 3.84408 9.36532C4.10215 9.18073 4.29873 8.92278 4.40825 8.62499C4.53582 8.33595 4.57387 8.01531 4.51751 7.70443C4.46114 7.39355 4.31293 7.10669 4.092 6.88083L4.0345 6.82333C3.8563 6.64532 3.71493 6.43393 3.61847 6.20125C3.52202 5.96858 3.47237 5.71917 3.47237 5.46729C3.47237 5.21541 3.52202 4.966 3.61847 4.73332C3.71493 4.50064 3.8563 4.28925 4.0345 4.11124C4.21251 3.93304 4.42389 3.79167 4.65657 3.69521C4.88925 3.59876 5.13866 3.54911 5.39054 3.54911C5.64242 3.54911 5.89183 3.59876 6.12451 3.69521C6.35719 3.79167 6.56858 3.93304 6.74658 4.11124L6.80408 4.16874C7.02994 4.38968 7.31681 4.53788 7.62769 4.59425C7.93857 4.65062 8.2592 4.61256 8.54825 4.48499H8.62492C8.90836 4.36351 9.1501 4.1618 9.32037 3.90469C9.49065 3.64758 9.58202 3.34629 9.58325 3.03791V2.87499C9.58325 2.36666 9.78519 1.87915 10.1446 1.51971C10.5041 1.16026 10.9916 0.958328 11.4999 0.958328C12.0082 0.958328 12.4958 1.16026 12.8552 1.51971C13.2146 1.87915 13.4166 2.36666 13.4166 2.87499V2.96124C13.4178 3.26962 13.5092 3.57091 13.6795 3.82802C13.8497 4.08514 14.0915 4.28685 14.3749 4.40833C14.664 4.5359 14.9846 4.57395 15.2955 4.51758C15.6064 4.46121 15.8932 4.31301 16.1191 4.09208L16.1766 4.03458C16.3546 3.85637 16.566 3.715 16.7987 3.61855C17.0313 3.52209 17.2807 3.47245 17.5326 3.47245C17.7845 3.47245 18.0339 3.52209 18.2666 3.61855C18.4993 3.715 18.7107 3.85637 18.8887 4.03458C19.0669 4.21258 19.2082 4.42397 19.3047 4.65665C19.4012 4.88933 19.4508 5.13874 19.4508 5.39062C19.4508 5.6425 19.4012 5.89191 19.3047 6.12459C19.2082 6.35727 19.0669 6.56865 18.8887 6.74666L18.8312 6.80416C18.6102 7.03002 18.462 7.31688 18.4057 7.62776C18.3493 7.93864 18.3873 8.25928 18.5149 8.54833V8.62499C18.6364 8.90844 18.8381 9.15018 19.0952 9.32045C19.3523 9.49072 19.6536 9.5821 19.962 9.58333H20.1249C20.6332 9.58333 21.1208 9.78526 21.4802 10.1447C21.8396 10.5042 22.0416 10.9917 22.0416 11.5C22.0416 12.0083 21.8396 12.4958 21.4802 12.8553C21.1208 13.2147 20.6332 13.4167 20.1249 13.4167H20.0387C19.7303 13.4179 19.429 13.5093 19.1719 13.6795C18.9148 13.8498 18.7131 14.0915 18.5916 14.375V14.375Z" stroke="#fff" stroke-width="2" stroke-linecap="round" stroke-linejoin="round"/>
  </g>
  <defs>
    <clipPath id="clip0_1300_738">
      <rect width="23" height="23" fill="white"/>
    </clipPath>
  </defs>
</svg>