<svg width="28" height="28" viewBox="0 0 28 28" fill="none" xmlns="http://www.w3.org/2000/svg">
<circle cx="14" cy="14" r="14" fill="#FCB13B"/>
<g clip-path="url(#clip0_146_93)">
<path d="M18.749 20.2222H14.4047C14.2555 20.2078 14.1066 20.1921 13.9574 20.1794C12.9144 20.0855 11.8859 19.8706 10.8926 19.5391C10.7619 19.496 10.7164 19.431 10.7164 19.2955C10.7195 16.9155 10.7195 14.5354 10.7164 12.1553C10.7136 12.1014 10.7248 12.0477 10.7488 11.9994C10.7727 11.951 10.8087 11.9097 10.8532 11.8792C11.3748 11.4807 11.8716 11.0538 12.3134 10.5663C12.6899 10.1527 13.0163 9.71108 13.2121 9.17744C13.4348 8.57093 13.6713 7.96955 13.9023 7.36646C13.9587 7.20315 14.0273 7.04431 14.1076 6.89131C14.3786 6.41514 14.8588 6.16165 15.357 6.23452C15.9138 6.31593 16.2406 6.62928 16.3782 7.20945C16.4983 7.71641 16.488 8.23056 16.4466 8.743C16.3877 9.48257 16.2621 10.2139 16.1088 10.9385C16.065 11.1461 16.0674 11.1468 16.2892 11.1471C17.2179 11.1471 18.1467 11.1403 19.0754 11.1492C20.2013 11.1601 20.8891 12.3123 20.3669 13.3043C20.3187 13.3963 20.3327 13.4411 20.4138 13.5054C21.1954 14.1116 21.1916 15.2271 20.4066 15.8316C20.33 15.8904 20.3166 15.9342 20.3635 16.0214C20.7372 16.7179 20.5233 17.5396 19.8587 17.9563C19.767 18.0134 19.7588 18.0565 19.8047 18.1502C19.9573 18.4632 20.0031 18.7933 19.9073 19.132C19.7414 19.7255 19.3423 20.0785 18.749 20.2222Z" fill="white"/>
<path d="M7 12.6837C7.0835 12.4668 7.23954 12.3679 7.47361 12.3697C8.23354 12.374 8.99358 12.374 9.75373 12.3697C9.89062 12.3697 9.93373 12.4138 9.93339 12.5496C9.9302 14.7426 9.9302 16.9355 9.93339 19.1285C9.93339 19.2551 9.89643 19.306 9.76229 19.3053C8.9978 19.3006 8.23297 19.3019 7.46951 19.3036C7.24194 19.3036 7.09068 19.1972 7.00103 18.9958L7 12.6837Z" fill="white"/>
</g>
<defs>
<clipPath id="clip0_146_93">
<rect width="14" height="14" fill="white" transform="translate(7 6.22217)"/>
</clipPath>
</defs>
</svg>
