<svg width="28" height="28" viewBox="0 0 28 28" fill="none" xmlns="http://www.w3.org/2000/svg">
<circle cx="14" cy="14" r="14" transform="rotate(-180 14 14)" fill="#DD636E"/>
<g clip-path="url(#clip0_146_98)">
<path d="M9.25104 7.7778L13.5953 7.7778C13.7446 7.79217 13.8934 7.8079 14.0426 7.82056C15.0856 7.9145 16.1141 8.1294 17.1074 8.46094C17.2381 8.50404 17.2836 8.56903 17.2836 8.7045C17.2805 11.0845 17.2805 13.4646 17.2836 15.8447C17.2864 15.8986 17.2752 15.9523 17.2512 16.0006C17.2273 16.049 17.1913 16.0903 17.1468 16.1208C16.6252 16.5193 16.1284 16.9462 15.6866 17.4337C15.3101 17.8473 14.9837 18.2889 14.7879 18.8226C14.5652 19.4291 14.3287 20.0304 14.0977 20.6335C14.0413 20.7969 13.9727 20.9557 13.8924 21.1087C13.6214 21.5849 13.1412 21.8383 12.643 21.7655C12.0862 21.6841 11.7594 21.3707 11.6218 20.7906C11.5017 20.2836 11.512 19.7694 11.5534 19.257C11.6123 18.5174 11.7379 17.7861 11.8912 17.0615C11.935 16.8539 11.9326 16.8532 11.7108 16.8529C10.7821 16.8529 9.85332 16.8597 8.92457 16.8508C7.79872 16.8399 7.11088 15.6877 7.63309 14.6957C7.68134 14.6037 7.66731 14.5589 7.58621 14.4946C6.80461 13.8884 6.80837 12.7729 7.59339 12.1684C7.67005 12.1096 7.68339 12.0658 7.63651 11.9786C7.26282 11.2821 7.4767 10.4604 8.14126 10.0437C8.23298 9.98662 8.24119 9.94351 8.19533 9.84978C8.04271 9.53678 7.99685 9.20667 8.09267 8.86801C8.25864 8.2745 8.65766 7.92147 9.25104 7.7778Z" fill="white"/>
<path d="M21 15.3163C20.9165 15.5332 20.7605 15.6321 20.5264 15.6303C19.7665 15.626 19.0064 15.626 18.2463 15.6303C18.1094 15.6303 18.0663 15.5862 18.0666 15.4504C18.0698 13.2574 18.0698 11.0645 18.0666 8.87152C18.0666 8.74495 18.1036 8.69398 18.2377 8.69466C19.0022 8.69945 19.767 8.69808 20.5305 8.69637C20.7581 8.69637 20.9093 8.80276 20.999 9.00424L21 15.3163Z" fill="white"/>
</g>
<defs>
<clipPath id="clip0_146_98">
<rect width="14" height="14" fill="white" transform="translate(21 21.7778) rotate(-180)"/>
</clipPath>
</defs>
</svg>
