<svg width="54" height="54" viewBox="0 0 54 54" fill="none" xmlns="http://www.w3.org/2000/svg">
<g id="Group 66">
<circle id="Ellipse 5" cx="27" cy="27" r="26" stroke="#F2F2F7" stroke-width="2"/>
<g id="Group 63">
<g id="Group 40">
<path id="Path 80" d="M27.0034 48.3144L36.5129 45.9173C40.0511 42.9835 42.6957 39.1162 44.1462 34.7546C45.5966 30.3931 45.7948 25.7123 44.7183 21.2437C43.6418 16.7752 41.3336 12.6982 38.0561 9.4757C34.7785 6.25324 30.6629 4.01455 26.1768 3.01392C21.4935 3.1748 16.9598 4.70312 13.135 7.41034C9.31013 10.1176 6.36144 13.8853 4.6527 18.2486C2.94395 22.6119 2.5499 27.3801 3.51915 31.9647C4.48841 36.5494 6.77857 40.75 10.1071 44.0484L27.0034 48.3144Z" fill="#CBE2FF"/>
</g>
<g id="Group 41">
<path id="Path 81" d="M44.9003 27.0003C44.903 30.7343 44.0331 34.4172 42.36 37.7554C40.6869 41.0936 38.2569 43.9946 35.2638 46.2271L43.8917 44.0484C47.2703 40.701 49.5782 36.4252 50.5223 31.7638C51.4665 27.1024 51.0044 22.2655 49.1946 17.8672C47.3849 13.4689 44.3092 9.7075 40.3578 7.0604C36.4065 4.41331 31.7577 2.99992 27.0017 2.99964C25.9815 2.99928 24.9623 3.06333 23.9502 3.19141C29.7405 3.93369 35.0618 6.7605 38.9184 11.1428C42.7751 15.5251 44.9026 21.1626 44.9029 27.0003H44.9003Z" fill="#BED8FB"/>
</g>
<g id="Group 53">
<g id="Group 52">
<g id="Group 51">
<path id="Path 82" d="M32.9658 12.0893C32.9658 11.5007 32.7319 10.9361 32.3157 10.5198C31.8994 10.1036 31.3349 9.86975 30.7462 9.86975H23.0976C22.4267 9.86975 21.7624 10.0019 21.1426 10.2586C20.5228 10.5153 19.9596 10.8916 19.4853 11.366C19.0109 11.8404 18.6346 12.4036 18.3779 13.0234C18.1211 13.6432 17.989 14.3074 17.989 14.9783V20.6498H36.0119V15.0564C36.0119 14.4678 35.7781 13.9032 35.3618 13.487C34.9456 13.0707 34.381 12.8369 33.7923 12.8369H33.7178C33.6193 12.8372 33.5217 12.8182 33.4306 12.7808C33.3395 12.7434 33.2567 12.6884 33.1868 12.619C33.117 12.5495 33.0615 12.467 33.0236 12.3761C32.9857 12.2853 32.966 12.1878 32.9658 12.0893Z" fill="#365E7D"/>
<path id="Path 83" d="M33.7898 12.8384H33.7152C33.5165 12.8384 33.326 12.7595 33.1854 12.6189C33.0449 12.4784 32.966 12.2879 32.966 12.0891C32.966 11.5005 32.7321 10.936 32.3159 10.5198C31.8997 10.1036 31.3352 9.86975 30.7466 9.86975H29.9059V20.6489H36.0074V15.056C36.007 14.468 35.7732 13.9042 35.3574 13.4885C34.9416 13.0727 34.3778 12.8389 33.7898 12.8384Z" fill="#2B4D66"/>
<path id="Path 84" d="M42.8492 37.9092C42.2491 37.3165 41.5166 36.8749 40.7122 36.621L34.16 34.5461L27.0024 34.2949L19.8412 34.5461L13.289 36.621C12.2088 36.9629 11.2656 37.64 10.5961 38.5541C9.92659 39.4681 9.56559 40.5716 9.56543 41.7047V43.4945C13.8978 48.0849 19.8682 50.7778 26.1767 50.9869C29.7541 50.186 33.1075 48.5963 35.992 46.3337C38.8765 44.0711 41.2193 41.1929 42.8492 37.9092Z" fill="#4A80AA"/>
<path id="Path 85" d="M44.4363 43.4944V41.7045C44.4362 40.9098 44.2585 40.1251 43.9161 39.4078C43.5737 38.6906 43.0753 38.059 42.4573 37.5593C40.7088 41.1251 38.1035 44.2017 34.8746 46.5139C31.6457 48.826 27.8939 50.3015 23.955 50.8083C24.9509 50.9347 25.9537 50.9991 26.9576 51.001C27.9232 50.9998 28.8881 50.944 29.8475 50.8341C35.4204 50.1731 40.584 47.5753 44.4363 43.4944Z" fill="#407093"/>
<path id="Path 86" d="M27.545 50.6422C28.9975 47.7594 32.7787 39.5727 31.7 34.4597L27.0025 32.6317L22.297 34.4597C21.1855 39.7308 25.2384 48.2673 26.5799 50.8934C26.9054 50.8171 27.2271 50.7334 27.545 50.6422Z" fill="#E4F6FF"/>
<path id="Path 87" d="M30.0188 48.3566L28.1145 40.8649H25.8862L23.9865 48.3362L26.3354 50.9516C26.932 50.8148 27.5197 50.6568 28.0985 50.4775L30.0188 48.3566Z" fill="#E28086"/>
<path id="Path 88" d="M26.373 50.993C26.5675 50.9984 26.7628 51.0019 26.9581 51.0019C27.1848 51.0019 27.4105 50.9984 27.6354 50.9913L28.8454 49.6543C27.8857 49.991 26.9054 50.2659 25.9105 50.4772L26.373 50.993Z" fill="#DD636E"/>
<g id="Group 49">
<g id="Group 48">
<g id="Group 47">
<g id="Group 46">
<g id="Group 45">
<g id="Group 44">
<g id="Group 43">
<g id="Group 42">
<path id="Path 89" d="M31.0101 33.7682V29.5433H22.9874V33.7682C22.9874 35.9876 26.9992 38.4031 26.9992 38.4031C26.9992 38.4031 31.0101 35.9831 31.0101 33.7682Z" fill="#FFDDCE"/>
</g>
</g>
</g>
</g>
</g>
</g>
</g>
<path id="Path 90" d="M36.0093 19.9059H34.476C34.2731 19.9061 34.0721 19.8662 33.8847 19.7886C33.6972 19.711 33.5268 19.5972 33.3834 19.4537C33.2399 19.3103 33.1261 19.1399 33.0485 18.9524C32.9709 18.765 32.931 18.564 32.9312 18.3611V17.5159C32.9313 17.2578 32.8702 17.0034 32.7528 16.7736C32.6354 16.5437 32.4651 16.3451 32.2559 16.1939C32.0468 16.0427 31.8047 15.9434 31.5496 15.904C31.2946 15.8647 31.0338 15.8864 30.7888 15.9675C28.3284 16.7807 25.6716 16.7807 23.2112 15.9675C22.9663 15.8866 22.7056 15.865 22.4507 15.9044C22.1957 15.9438 21.9538 16.0432 21.7447 16.1944C21.5357 16.3455 21.3655 16.5441 21.2481 16.7739C21.1308 17.0036 21.0697 17.2579 21.0698 17.5159V18.3611C21.0699 18.564 21.03 18.765 20.9524 18.9524C20.8748 19.1399 20.761 19.3103 20.6176 19.4537C20.4741 19.5972 20.3038 19.711 20.1163 19.7886C19.9288 19.8662 19.7279 19.9061 19.525 19.9059H17.989V22.4327C17.989 22.7426 18.1121 23.0398 18.3312 23.2589C18.5503 23.478 18.8475 23.6011 19.1574 23.6011C19.2553 23.6016 19.3493 23.6395 19.4203 23.707C19.4912 23.7744 19.5337 23.8664 19.5392 23.9642C19.6664 25.8554 20.5075 27.6277 21.8921 28.9222C23.2767 30.2168 25.1014 30.9369 26.9969 30.9369C28.8924 30.9369 30.7171 30.2168 32.1017 28.9222C33.4863 27.6277 34.3274 25.8554 34.4547 23.9642C34.4601 23.8664 34.5026 23.7744 34.5736 23.707C34.6445 23.6395 34.7385 23.6016 34.8364 23.6011C35.1463 23.6011 35.4435 23.478 35.6626 23.2589C35.8817 23.0398 36.0048 22.7426 36.0048 22.4327V19.9068L36.0093 19.9059Z" fill="#FFDDCE"/>
<path id="Path 91" d="M34.4755 19.906C34.0658 19.906 33.6728 19.7433 33.3831 19.4535C33.0934 19.1638 32.9306 18.7709 32.9306 18.3612V17.516C32.9308 17.2579 32.8696 17.0035 32.7523 16.7736C32.6349 16.5438 32.4646 16.3451 32.2554 16.1939C32.0463 16.0428 31.8042 15.9434 31.5491 15.9041C31.2941 15.8647 31.0333 15.8865 30.7883 15.9676C30.4971 16.0641 30.2032 16.1487 29.9067 16.2215V24.5671C29.8872 25.8574 29.5339 27.1207 28.8812 28.2339C28.2286 29.3471 27.2987 30.2724 26.1823 30.9195C27.1867 31.031 28.2033 30.9374 29.1705 30.6444C30.1377 30.3514 31.0353 29.8651 31.8091 29.2149C32.5828 28.5648 33.2165 27.7644 33.6718 26.8622C34.127 25.9599 34.3944 24.9747 34.4577 23.966C34.4631 23.8683 34.5056 23.7763 34.5766 23.7088C34.6475 23.6413 34.7416 23.6034 34.8395 23.6029C35.1494 23.6029 35.4465 23.4798 35.6656 23.2607C35.8848 23.0416 36.0078 22.7444 36.0078 22.4345V19.9087H34.4746L34.4755 19.906Z" fill="#FFCBBE"/>
</g>
<g id="Group 50">
<path id="Path 92" d="M22.9871 32.6317L19.8409 35.1876L23.1398 39.2668C23.3332 39.4559 23.5899 39.5665 23.8601 39.5773C24.1303 39.5882 24.395 39.4984 24.6029 39.3254L27.0841 37.2534L22.9871 32.6317Z" fill="#F4FBFF"/>
<path id="Path 93" d="M31.0123 32.6317L27.0848 37.2481L29.417 39.242C29.6232 39.4183 29.8877 39.5116 30.1589 39.5038C30.4301 39.4959 30.6888 39.3874 30.8844 39.1993L34.1603 35.1858L31.0123 32.6317Z" fill="#F4FBFF"/>
</g>
</g>
<path id="Path 94" d="M22.9876 32.6317L18.3709 34.9001C18.2875 34.9411 18.213 34.9984 18.152 35.0685C18.0909 35.1386 18.0444 35.2202 18.0152 35.3084C17.986 35.3967 17.9748 35.4899 17.982 35.5826C17.9893 35.6753 18.0149 35.7657 18.0575 35.8483L18.9622 37.6027C19.0765 37.8242 19.1174 38.0763 19.0789 38.3226C19.0405 38.5688 18.9247 38.7965 18.7482 38.9726L18.1854 39.5346C18.0316 39.6875 17.9233 39.8801 17.8726 40.0909C17.8218 40.3017 17.8305 40.5225 17.8977 40.7287C18.9897 44.0589 24.2475 49.1506 26.2371 50.9929C26.3708 50.9964 26.5049 50.9988 26.6393 51C25.1948 48.1936 20.08 37.5325 22.9876 32.6317Z" fill="#365E7D"/>
<path id="Path 95" d="M35.2523 38.9709C35.0759 38.7948 34.9602 38.5672 34.9217 38.3209C34.8832 38.0746 34.9241 37.8225 35.0384 37.601L35.9431 35.8467C35.9857 35.764 36.0113 35.6737 36.0186 35.581C36.0258 35.4883 36.0146 35.3951 35.9854 35.3068C35.9562 35.2185 35.9097 35.1369 35.8486 35.0668C35.7876 34.9967 35.7131 34.9395 35.6297 34.8985L31.013 32.6301C33.9171 37.5291 28.8085 48.1866 27.364 50.9965C27.4996 50.9965 27.6351 50.993 27.7706 50.9859C29.7647 49.1392 35.0126 44.0537 36.1038 40.7271C36.171 40.5209 36.1797 40.3001 36.1289 40.0893C36.0781 39.8785 35.9699 39.6859 35.8161 39.5329L35.2523 38.9709Z" fill="#365E7D"/>
<path id="Path 96" d="M27.0847 37.2504L24.6416 39.2922L25.8845 40.8653H28.1127L29.3556 39.199L27.0847 37.2504Z" fill="#DD636E"/>
</g>
</g>
</g>
</g>
</svg>
