<svg width="20" height="20" viewBox="0 0 20 20" fill="none" xmlns="http://www.w3.org/2000/svg">
<path id="Vector" d="M9.51552 0.862299L9.51198 0.871656C9.14977 1.82836 8.776 2.78614 8.40335 3.74103C8.14203 4.41065 7.88127 5.07886 7.62543 5.74428C7.52936 6.02605 7.35401 6.27523 7.11787 6.45722L6.81265 6.06119L7.11787 6.45722C6.8823 6.63878 6.59775 6.74435 6.30042 6.75706C5.84126 6.79865 5.38118 6.84549 4.91866 6.89258C4.81035 6.90361 4.7019 6.91465 4.5933 6.92564L9.51552 0.862299ZM9.51552 0.862299L9.51869 0.852808M9.51552 0.862299L9.51869 0.852808M9.51869 0.852808C9.54649 0.769452 9.592 0.696572 9.64943 0.639193C9.70675 0.581928 9.77417 0.541794 9.84517 0.519839C9.91606 0.497921 9.99022 0.494169 10.0622 0.50856C10.1287 0.52186 10.1934 0.550675 10.2512 0.59458C10.3382 0.682177 10.406 0.792315 10.4469 0.916982L10.4511 0.929806M9.51869 0.852808L10.4511 0.929806M10.4511 0.929806L10.456 0.942384M10.4511 0.929806L10.456 0.942384M10.456 0.942384C10.6545 1.45247 10.8551 1.95832 11.0551 2.46245C11.4571 3.47564 11.8563 4.48186 12.2293 5.50145L12.2295 5.50194M10.456 0.942384L12.2295 5.50194M12.2295 5.50194C12.3732 5.8934 12.5828 6.21857 12.8944 6.44781C13.2053 6.67655 13.5687 6.77362 13.954 6.79841L13.9541 6.79841M12.2295 5.50194L13.9541 6.79841M13.9541 6.79841C14.6 6.83989 15.2389 6.90879 15.8898 6.97898C16.1724 7.00946 16.4572 7.04017 16.7459 7.069L16.7465 7.06906M13.9541 6.79841L16.7465 7.06906M16.7465 7.06906C16.8372 7.07802 16.9281 7.08702 17.019 7.09603C17.6641 7.15992 18.3144 7.22432 18.9662 7.27748L18.9838 7.27892M16.7465 7.06906L18.9838 7.27892M18.9838 7.27892L19.0014 7.27911M18.9838 7.27892L19.0014 7.27911M19.0014 7.27911C19.0942 7.28011 19.1871 7.31065 19.2676 7.37035L19.5653 6.96867M19.0014 7.27911L19.5653 6.96867M19.5653 6.96867L19.2676 7.37035C19.3485 7.43033 19.4139 7.51769 19.451 7.6236L19.4558 7.63714M19.5653 6.96867L19.4558 7.63714M19.4558 7.63714L19.4613 7.65038C19.5023 7.74881 19.5112 7.86042 19.4857 7.96614C19.4601 8.07169 19.4029 8.16048 19.3285 8.22118L19.3153 8.23191L19.303 8.2435C18.5472 8.95043 17.7877 9.65252 17.0273 10.3554C16.748 10.6135 16.4687 10.8717 16.1893 11.1303L16.1892 11.1305C16.0761 11.2353 15.9659 11.3384 15.8568 11.4405C15.6738 11.6119 15.4937 11.7805 15.3075 11.9496M19.4558 7.63714L15.3075 11.9496M15.3075 11.9496C15.0652 12.151 14.8899 12.4218 14.8008 12.7242C14.712 13.0253 14.7117 13.3469 14.7997 13.648C14.9296 14.2073 15.0574 14.7699 15.1855 15.3339C15.443 16.4677 15.7019 17.6074 15.9825 18.7384L15.9856 18.7507L15.9893 18.7629C16.0139 18.8442 16.0214 18.9309 16.011 19.0164C16.0005 19.1018 15.9726 19.1826 15.9302 19.253C15.8879 19.3234 15.8328 19.381 15.7701 19.4233C15.712 19.4625 15.6485 19.488 15.5834 19.4994C15.4793 19.5044 15.3743 19.4762 15.2819 19.4153L15.282 19.4151L15.2702 19.4078C14.7642 19.0942 14.2585 18.7823 13.7532 18.4706C12.7998 17.8824 11.8479 17.2952 10.8988 16.7001C10.6321 16.5141 10.3164 16.4132 9.99106 16.4132C9.66576 16.4132 9.35003 16.5141 9.08336 16.7001C7.77271 17.5219 6.45559 18.332 5.13571 19.1438C4.99428 19.2308 4.85282 19.3178 4.71132 19.4049L4.71126 19.4048L4.70188 19.4109C4.63415 19.4546 4.55914 19.479 4.48352 19.4836C4.40793 19.4883 4.33151 19.4734 4.26061 19.4389C4.18952 19.4042 4.12489 19.3503 4.07423 19.2794C4.02507 19.2107 3.99108 19.1288 3.9768 19.0402C3.96788 18.9481 3.97761 18.8553 4.00505 18.7681L4.01059 18.7505L4.01482 18.7325C4.1896 17.9899 4.35866 17.2529 4.52734 16.5175C4.74172 15.583 4.95547 14.6511 5.17955 13.7138C5.27804 13.387 5.2787 13.0368 5.18129 12.7094C5.08377 12.3817 4.89157 12.0894 4.6267 11.8747C3.78492 11.1118 2.95328 10.3418 2.11866 9.56904C1.64649 9.13186 1.17337 8.69379 0.696922 8.25565C0.620638 8.18102 0.555994 8.09257 0.506291 7.99371L0.501299 7.66303C0.55606 7.52509 0.621635 7.44842 0.685325 7.40057C0.7623 7.34274 0.880929 7.29384 1.07805 7.27741C1.89391 7.2094 2.71137 7.12299 3.52244 7.03726C3.88086 6.99938 4.23803 6.96162 4.59327 6.92565L15.3075 11.9496Z" stroke="#004567" stroke-opacity="0.5"/>
</svg>
