
                                                <svg xmlns="http://www.w3.org/2000/svg" height="18" viewBox="0 0 26 32" class="c-p"
                                                fill="none">
                                                <g clip-path="url(#clip0_644_3908)">
                                                    <path
                                                        d="M4.82446 32C3.89785 31.7497 3.16957 31.2491 2.7171 30.3773C2.51915 29.9976 2.40545 29.5795 2.38379 29.1517C2.32712 28.1247 2.29546 27.0961 2.24546 26.0649C2.17213 24.5632 2.0888 23.0548 2.01381 21.5497C1.96381 20.5427 1.92381 19.5357 1.87548 18.5287C1.77716 16.4708 1.67689 14.4154 1.57467 12.3625C1.52967 11.474 1.6055 11.4882 2.37712 11.489C9.50722 11.494 16.6373 11.494 23.7674 11.489C24.3865 11.489 24.4482 11.5457 24.419 12.1731C24.3174 14.4057 24.2121 16.638 24.1032 18.87C24.0432 20.1364 23.9827 21.4029 23.9216 22.6693C23.8182 24.8184 23.7216 26.9676 23.6074 29.1159C23.5366 30.4549 22.6841 31.5195 21.4009 31.9157C21.3176 31.9399 21.2442 31.9683 21.1651 31.9942L4.82446 32ZM8.9817 20.5244C8.9817 18.4537 8.9817 16.3832 8.9817 14.3131C8.98617 14.1161 8.96289 13.9195 8.91253 13.7291C8.84187 13.5105 8.69486 13.3248 8.49848 13.2061C8.3021 13.0873 8.06952 13.0434 7.84344 13.0825C7.29597 13.1901 7.02932 13.5731 7.02932 14.2705C7.02932 18.4325 7.02932 22.5942 7.02932 26.7557C7.02752 26.9221 7.04684 27.088 7.08682 27.2496C7.1279 27.4086 7.20949 27.5543 7.32363 27.6723C7.43776 27.7903 7.58053 27.8766 7.73797 27.9229C7.89541 27.9691 8.06214 27.9737 8.22186 27.9361C8.38159 27.8985 8.52883 27.82 8.64922 27.7084C8.92753 27.4523 8.98253 27.1244 8.98253 26.7707L8.9817 20.5244ZM12.019 20.4927C12.019 22.5622 12.019 24.6327 12.019 26.7039C12.0139 26.9009 12.0369 27.0975 12.0873 27.2879C12.1574 27.5073 12.3042 27.6939 12.5009 27.8133C12.6975 27.9327 12.9306 27.977 13.1573 27.9379C13.7039 27.8302 13.973 27.444 13.973 26.7498C13.973 22.5873 13.973 18.4256 13.973 14.2647C13.975 14.0876 13.9531 13.9111 13.908 13.7399C13.8408 13.5143 13.6919 13.3219 13.4905 13.2003C13.2891 13.0787 13.0496 13.0367 12.8189 13.0825C12.299 13.1893 12.0207 13.5772 12.0198 14.2205C12.0176 16.3112 12.0173 18.4019 12.019 20.4927ZM17.0087 20.5093C17.0087 22.5673 17.0087 24.6274 17.0087 26.6898C17.0038 26.8865 17.0257 27.0829 17.0737 27.2738C17.1406 27.4941 17.2846 27.6829 17.4793 27.8055C17.674 27.928 17.9063 27.9762 18.1336 27.9412C18.6852 27.8377 18.9627 27.4506 18.9627 26.764C18.9627 22.5926 18.9627 18.4211 18.9627 14.2497C18.9619 14.094 18.9435 13.939 18.9077 13.7875C18.8683 13.6229 18.7856 13.472 18.6681 13.3503C18.5507 13.2286 18.4028 13.1407 18.2399 13.0956C18.077 13.0505 17.905 13.05 17.7418 13.0941C17.5786 13.1381 17.4302 13.2252 17.312 13.3461C17.0512 13.6014 17.012 13.9301 17.012 14.2638L17.0087 20.5093Z"
                                                        fill="#004567" />
                                                    <path
                                                        d="M12.9797 9.53929H1.19716C0.363884 9.53929 0.00473953 9.18305 0.00390625 8.34542C0.00390625 7.73139 0.00390625 7.11735 0.00390625 6.50331C0.00807265 5.08502 1.098 4.00044 2.51958 4.00044C4.19336 4.00044 5.86686 4.00044 7.54009 4.00044C7.98673 4.00044 7.99256 4.00044 7.98589 3.56244C7.97506 2.91503 7.96923 2.2718 8.28921 1.67695C8.865 0.604885 9.74661 0.0183801 10.9715 0.00836861C12.3331 -0.00498002 13.6947 0.00252858 15.0546 0.00836861C15.8377 0.0134192 16.5872 0.327695 17.1402 0.882898C17.6931 1.4381 18.0049 2.18937 18.0078 2.97343C18.0078 3.21287 18.0227 3.45398 18.0078 3.69176C17.9878 3.94705 18.0961 4.00962 18.3344 4.00879C20.0285 4.00044 21.7233 4.03965 23.4174 3.99377C24.8206 3.95539 26.0781 5.16928 26.0006 6.60092C25.9672 7.2233 26.0006 7.85236 25.9947 8.4739C25.9947 9.14133 25.5939 9.54179 24.9273 9.54179C20.9398 9.54124 16.9573 9.5404 12.9797 9.53929ZM12.9956 4.00044C13.8897 4.00044 14.783 4.00044 15.6771 4.00044C15.8879 4.00044 15.9854 3.93871 15.9704 3.71595C15.9571 3.50821 15.9762 3.29881 15.9637 3.0919C15.9271 2.46535 15.5637 2.06322 14.9438 2.05238C13.6444 2.02957 12.3453 2.02957 11.0465 2.05238C10.4274 2.06322 10.0624 2.46952 10.0266 3.09274C10.0149 3.28963 10.0374 3.48902 10.0191 3.68508C9.99577 3.94037 10.1074 4.00462 10.3457 4.00211C11.229 3.9946 12.1131 4.00128 12.9956 4.00044Z"
                                                        fill="#004567" />
                                                </g>
                                                <defs>
                                                    <clipPath id="clip0_644_3908">
                                                        <rect width="26" height="32" fill="white" />
                                                    </clipPath>
                                                </defs>
                                            </svg>