
<svg xmlns="http://www.w3.org/2000/svg" width="30" height="28" viewBox="0 0 30 28" fill="none" >
<path d="M14.9892 27.4509C11.2604 27.4509 7.5317 27.4509 3.80297 27.4509C1.6329 27.4509 0.00352418 25.8267 0.000404773 23.6692C0.000404773 22.0096 0.000404773 20.3498 0.000404773 18.6895C-0.00716358 18.3946 0.0916159 18.1068 0.278703 17.8787C0.46579 17.6505 0.7287 17.4973 1.01941 17.447C1.68385 17.343 2.26718 17.6695 2.48346 18.2726C2.53663 18.4462 2.55777 18.628 2.54584 18.8091C2.54584 20.3258 2.54584 21.8429 2.54584 23.3603C2.54584 24.4345 3.01895 24.9065 4.09307 24.9065H25.8853C26.9875 24.9065 27.445 24.4438 27.4502 23.3395C27.4502 21.8225 27.4502 20.3054 27.4502 18.7883C27.4502 17.9617 27.9514 17.4366 28.7239 17.4366C29.4965 17.4366 29.9966 17.9658 29.9977 18.7883C29.9977 20.4603 30.0029 22.1334 29.9977 23.8064C29.9894 25.782 28.3184 27.4457 26.3313 27.4457C22.5506 27.454 18.7699 27.4558 14.9892 27.4509Z" fill="#004567"/>
<path d="M13.7251 18.5055V17.969C13.7251 12.4324 13.7251 6.89613 13.7251 1.36022C13.7251 0.486785 14.2668 -0.0393569 15.1091 0.00223519C15.4104 0.0183864 15.6953 0.144462 15.91 0.356591C16.1246 0.56872 16.254 0.852178 16.2736 1.1533C16.282 1.29471 16.2736 1.4382 16.2736 1.58066V18.5097C16.5856 18.2695 16.8341 18.0782 17.0805 17.8858C18.1973 16.9957 19.313 16.105 20.4276 15.2135C20.8082 14.9089 21.2252 14.781 21.6993 14.9286C22.1735 15.0763 22.4844 15.3934 22.5717 15.8821C22.6653 16.402 22.5249 16.8502 22.0903 17.1954C20.3933 18.5437 18.6991 19.8954 17.0077 21.2506C16.6428 21.5418 16.2799 21.8381 15.9128 22.1251C15.2952 22.6055 14.7046 22.6138 14.0984 22.1324C12.1075 20.5491 10.1201 18.9613 8.13613 17.369C7.4769 16.8398 7.37188 16.036 7.85851 15.4548C8.33058 14.8912 9.12291 14.8579 9.77174 15.3747L13.3622 18.2373C13.4537 18.3101 13.5493 18.3756 13.7251 18.5055Z" fill="#004567"/>
</svg>