
                                                <svg xmlns="http://www.w3.org/2000/svg" height="18" viewBox="0 0 32 32" class="c-p"
                                                fill="none">
                                                <g clip-path="url(#clip0_644_3904)">
                                                    <path
                                                        d="M0 8.66561C0.217555 7.76289 0.618282 6.96527 1.32846 6.34656C2.05302 5.71597 2.89136 5.3425 3.85348 5.33812C7.44064 5.32311 11.0284 5.32999 14.6162 5.33312C15.307 5.33312 15.9047 5.83734 15.9866 6.46543C16.0822 7.19424 15.689 7.82608 15.0257 8.02064C14.8635 8.05789 14.6967 8.07137 14.5306 8.06067C11.1405 8.06067 7.75051 8.06067 4.36048 8.06067C4.16318 8.05632 3.96593 8.07141 3.77158 8.10571C3.13329 8.23083 2.70881 8.72505 2.70381 9.38003C2.69756 10.6106 2.70381 11.8405 2.70381 13.071C2.70381 18.0023 2.70381 22.9338 2.70381 27.8655C2.70381 28.8427 3.20956 29.3531 4.17981 29.3531C10.2213 29.3531 16.2629 29.34 22.3044 29.3656C23.3772 29.37 23.9548 28.7932 23.948 27.6953C23.9261 24.2546 23.9411 20.8139 23.9386 17.3732C23.9386 16.8433 24.1655 16.4423 24.6181 16.1908C25.0707 15.9393 25.5602 15.9406 26.0122 16.2214C26.4536 16.4948 26.663 16.9096 26.6624 17.4288C26.6624 18.909 26.6624 20.3895 26.6624 21.8705C26.6624 23.8936 26.6624 25.9164 26.6624 27.9387C26.6624 29.8699 25.5446 31.3832 23.7029 31.955C23.6635 31.9675 23.6254 31.9844 23.5866 31.9994H2.99513C2.61191 31.8405 2.21431 31.7166 1.86172 31.487C0.858343 30.8326 0.257565 29.908 0 28.7463V8.66561Z"
                                                        fill="#004567" />
                                                    <path
                                                        d="M12.0359 20.7188C11.5745 20.7188 11.2482 20.3547 11.3313 19.8849C11.4926 18.9728 11.6814 18.0657 11.8602 17.1573C11.9765 16.5649 12.1015 15.9744 12.2122 15.3813C12.2592 15.1033 12.3926 14.8471 12.5935 14.6494C15.979 11.262 19.3604 7.87031 22.738 4.4742C22.9568 4.254 23.0831 4.2784 23.2875 4.48609C24.6841 5.90117 26.0886 7.30874 27.5011 8.7088C27.7299 8.93464 27.7161 9.06413 27.4973 9.28246C24.1239 12.6531 20.7558 16.0288 17.3929 19.4095C17.1994 19.6145 16.9475 19.755 16.6714 19.8117C15.2256 20.0991 13.7801 20.3875 12.3347 20.6769C12.2328 20.6982 12.129 20.7063 12.0359 20.7188Z"
                                                        fill="#004567" />
                                                    <path
                                                        d="M28.6414 1.86238e-05C30.0518 0.0625773 31.1139 0.701301 31.6828 2.00565C32.2417 3.2881 32.0642 4.52363 31.1327 5.58651C30.5644 6.23461 29.9261 6.82016 29.3279 7.442C29.1703 7.6059 29.0659 7.57462 28.9203 7.42761C27.4699 5.96791 26.016 4.51008 24.5585 3.05413C24.4222 2.91775 24.3916 2.81641 24.5442 2.66815C25.1481 2.08135 25.732 1.47953 26.344 0.895859C26.9823 0.287163 27.7525 -0.00561165 28.6414 1.86238e-05Z"
                                                        fill="#004567" />
                                                </g>
                                                <defs>
                                                    <clipPath id="clip0_644_3904">
                                                        <rect width="32" height="32" fill="white" />
                                                    </clipPath>
                                                </defs>
                                            </svg>