<svg xmlns="http://www.w3.org/2000/svg" width="70" height="74" viewBox="0 0 70 74" fill="none">
  <g opacity="0.8">
    <path fill-rule="evenodd" clip-rule="evenodd" d="M32.8741 49.0555C32.4075 49.0555 32.0257 48.6737 32.0257 48.2072V29.2891C32.0257 26.9986 28.5475 26.9986 28.5475 29.2891V48.2072C28.5475 49.3524 26.8508 49.3524 26.8508 48.2072V29.2891C26.8508 24.7505 33.7224 24.7505 33.7224 29.2891V48.2072C33.7224 48.6737 33.3831 49.0555 32.8741 49.0555Z" fill="white" stroke="white" stroke-width="0.5"/>
    <path fill-rule="evenodd" clip-rule="evenodd" d="M38.0915 49.0555C37.6249 49.0555 37.2432 48.6737 37.2432 48.2072V29.2891C37.2432 26.9986 33.7226 26.9986 33.7226 29.2891V48.2072C33.7226 49.3524 32.0259 49.3524 32.0259 48.2072V29.2891C32.0259 24.7505 38.9399 24.7505 38.9399 29.2891V48.2072C38.9399 48.6737 38.5581 49.0555 38.0915 49.0555Z" fill="white" stroke="white" stroke-width="0.5"/>
    <path fill-rule="evenodd" clip-rule="evenodd" d="M43.2664 49.0555C42.7998 49.0555 42.4181 48.6737 42.4181 48.2071V33.4035C42.4181 31.113 38.9399 31.113 38.9399 33.4035V48.2071C38.9399 49.3524 37.2432 49.3524 37.2432 48.2071V33.4035C37.2432 28.8649 44.1147 28.8649 44.1147 33.4035V48.2071C44.1147 48.6737 43.733 49.0555 43.2664 49.0555Z" fill="white" stroke="white" stroke-width="0.5"/>
    <path fill-rule="evenodd" clip-rule="evenodd" d="M48.4412 49.0555C47.9746 49.0555 47.5929 48.6738 47.5929 48.2072V36.1607C47.5929 33.8702 44.1147 33.8702 44.1147 36.1607V48.2072C44.1147 49.3524 42.418 49.3524 42.418 48.2072V36.1607C42.418 31.6221 49.2895 31.6221 49.2895 36.1607V48.2072C49.2895 48.6738 48.9078 49.0555 48.4412 49.0555Z" fill="white" stroke="white" stroke-width="0.5"/>
    <path fill-rule="evenodd" clip-rule="evenodd" d="M28.4628 67.4645C27.9538 67.4645 27.6144 67.0828 27.6144 66.6162V60.593L20.8277 54.697C20.658 54.5273 20.5308 54.2728 20.5308 54.0183V40.7842C20.5308 40.1055 20.5308 38.027 21.9729 37.4756C23.8817 36.7545 26.2995 39.6389 28.3355 41.8446C29.099 42.6505 27.8265 43.7958 27.063 42.9898C22.9485 38.536 22.2274 37.9422 22.2274 40.7842V53.6366L29.0142 59.575C29.1839 59.7446 29.3111 59.9567 29.3111 60.2112V66.6162C29.2687 67.0828 28.9294 67.4645 28.4628 67.4645Z" fill="white" stroke="white" stroke-width="0.5"/>
    <path fill-rule="evenodd" clip-rule="evenodd" d="M42.7573 60.2113C42.0786 60.2113 41.6545 59.3629 42.121 58.8115L47.5929 52.3217V48.2072C47.5929 47.1044 49.2895 47.1044 49.2895 48.2072C49.2895 49.31 49.5016 52.7034 49.1199 53.17L43.436 59.9143C43.2663 60.1264 43.0118 60.2113 42.7573 60.2113Z" fill="white" stroke="white" stroke-width="0.5"/>
    <path fill-rule="evenodd" clip-rule="evenodd" d="M42.7573 67.4646C42.2907 67.4646 41.9089 67.0828 41.9089 66.6162V59.3629C41.9089 58.2601 43.6056 58.2601 43.6056 59.3629V66.6162C43.6056 67.0828 43.2663 67.4646 42.7573 67.4646Z" fill="white" stroke="white" stroke-width="0.5"/>
    <path fill-rule="evenodd" clip-rule="evenodd" d="M45.7265 73.403H25.4935C24.5179 73.403 23.7544 72.597 23.7544 71.6639V67.507C23.7544 66.5314 24.5179 65.7679 25.4935 65.7679H45.7265C46.7021 65.7679 47.4656 66.5314 47.4656 67.507V71.6639C47.4656 72.597 46.7021 73.403 45.7265 73.403ZM25.4935 67.4646L25.4511 71.6639H45.7689V67.507L25.4935 67.4646Z" fill="white" stroke="white" stroke-width="0.5"/>
    <path fill-rule="evenodd" clip-rule="evenodd" d="M48.4412 41.5901C47.805 41.5901 47.3808 40.869 47.7201 40.3176L52.7254 31.6221C53.2768 30.6465 54.7614 31.4949 54.21 32.4704L49.2047 41.166C49.0351 41.4205 48.7381 41.5901 48.4412 41.5901Z" fill="white" stroke="white" stroke-width="0.5"/>
    <path fill-rule="evenodd" clip-rule="evenodd" d="M53.3617 44.22C51.0712 44.22 50.3925 40.1479 49.7563 37.2636C49.5018 36.1607 51.156 35.779 51.4105 36.8818C52.7255 42.8202 53.0648 43.6686 54.507 41.2084L60.912 30.0527L58.0276 21.5692C57.9428 21.3571 57.9852 21.1026 58.1124 20.8905L61.2937 15.3339C61.8452 14.3583 63.3298 15.2066 62.7783 16.1822L59.7667 21.3996L62.6511 29.883C62.7359 30.0951 62.6935 30.3496 62.5662 30.5617L55.9492 42.0567C55.6522 42.6081 54.7191 44.22 53.3617 44.22Z" fill="white" stroke="white" stroke-width="0.5"/>
    <path fill-rule="evenodd" clip-rule="evenodd" d="M32.1531 28.3135C31.5169 28.3135 31.0927 27.6349 31.432 27.041L36.9887 17.4548C37.0735 17.2427 37.2432 17.1154 37.4129 17.073L45.7266 14.0614C46.7446 13.6796 47.3385 15.2491 46.2781 15.6308L38.3036 18.5576L32.9166 27.8894C32.747 28.1439 32.4501 28.3135 32.1531 28.3135Z" fill="white" stroke="white" stroke-width="0.5"/>
    <path fill-rule="evenodd" clip-rule="evenodd" d="M45.981 15.7156C45.3448 15.7156 44.9206 14.9945 45.2599 14.4431L48.8654 8.16538C49.4592 7.18979 50.9014 8.03813 50.35 9.01372L46.7445 15.2915C46.5749 15.546 46.2779 15.7156 45.981 15.7156Z" fill="white" stroke="white" stroke-width="0.5"/>
    <path fill-rule="evenodd" clip-rule="evenodd" d="M65.0263 18.1758C64.7294 18.1758 64.4325 18.091 64.178 17.9637L46.6173 7.82604C45.8113 7.35945 45.5144 6.29903 45.981 5.45068L48.0595 1.84522C48.5685 1.0393 49.6289 0.742379 50.4348 1.25138L67.9955 11.3467C68.8014 11.8557 69.0984 12.9161 68.6318 13.722L66.5533 17.3275C66.214 17.8789 65.6626 18.1758 65.0263 18.1758ZM49.5865 2.69357L47.4656 6.29903L65.0687 16.4791L67.1472 12.8737L49.5865 2.69357Z" fill="white" stroke="white" stroke-width="0.5"/>
    <path fill-rule="evenodd" clip-rule="evenodd" d="M21.3791 41.5901C21.0822 41.5901 20.8277 41.4205 20.658 41.166L15.6528 32.4704C15.1013 31.4949 16.5435 30.6465 17.0949 31.6221L22.1426 40.3176C22.4395 40.869 22.0578 41.5901 21.3791 41.5901Z" fill="white" stroke="white" stroke-width="0.5"/>
    <path fill-rule="evenodd" clip-rule="evenodd" d="M16.501 44.22C15.1437 44.22 14.2105 42.6081 13.8712 42.0567L7.25407 30.5617C7.12682 30.3496 7.12682 30.0951 7.21166 29.883L10.096 21.3996L7.0844 16.1822C6.53298 15.2066 7.97516 14.3583 8.52659 15.3339L11.7503 20.8905C11.8775 21.1026 11.92 21.3571 11.8351 21.5692L8.90834 30.0527L15.3558 41.2084C16.7555 43.6686 17.0949 42.8626 18.4522 36.8818C18.7067 35.779 20.361 36.1607 20.1065 37.2636C19.4702 40.1479 18.7915 44.22 16.501 44.22Z" fill="white" stroke="white" stroke-width="0.5"/>
    <path fill-rule="evenodd" clip-rule="evenodd" d="M34.9525 23.5628C34.6556 23.5628 34.3587 23.3932 34.189 23.1387L31.5592 18.5576L23.5423 15.6308C22.5243 15.2491 23.0757 13.6796 24.1362 14.0614L32.4499 17.073C32.6196 17.1154 32.7893 17.2427 32.8741 17.4548L35.6736 22.2903C36.013 22.8417 35.5888 23.5628 34.9525 23.5628Z" fill="white" stroke="white" stroke-width="0.5"/>
    <path fill-rule="evenodd" clip-rule="evenodd" d="M23.8393 15.7156C23.5424 15.7156 23.2879 15.546 23.1182 15.2915L19.5128 9.01372C18.9189 8.03813 20.4035 7.18979 20.955 8.16538L24.6028 14.4431C24.8997 14.9945 24.4756 15.7156 23.8393 15.7156Z" fill="white" stroke="white" stroke-width="0.5"/>
    <path fill-rule="evenodd" clip-rule="evenodd" d="M4.79398 18.1758C4.20014 18.1758 3.6063 17.8789 3.30938 17.3275L1.23094 13.722C0.764349 12.9161 1.01885 11.8557 1.8672 11.3467L19.4279 1.25138C20.2338 0.742379 21.2943 1.0393 21.7608 1.84522L23.8393 5.45068C24.3483 6.29903 24.0514 7.35945 23.203 7.82604L5.68474 17.9637C5.43024 18.091 5.13332 18.1758 4.79398 18.1758ZM20.3187 2.69357L2.71554 12.8313L4.79398 16.4791L22.3547 6.34144L20.3187 2.69357Z" fill="white" stroke="white" stroke-width="0.5"/>
  </g>
</svg>