<svg width="30" height="41" viewBox="0 0 30 41" fill="none" xmlns="http://www.w3.org/2000/svg">
<g id="Layer_1" clip-path="url(#clip0_413_1366)">
<path id="Vector" d="M13.7388 0H16.2612C16.7109 0.0879709 17.1649 0.155898 17.6091 0.26948C20.0161 0.867326 22.1561 2.26734 23.687 4.24567C25.2179 6.224 26.0513 8.66638 26.054 11.1823C26.0649 12.9284 26.054 14.6755 26.054 16.4216C26.054 16.9227 26.0693 16.9316 26.5694 16.9372C27.0695 16.9427 27.5762 16.8949 28.0632 16.9762C29.2191 17.1688 29.9945 18.1855 29.9956 19.4471C30.0007 23.2599 30.0007 27.0731 29.9956 30.8867C29.9956 33.4334 30.0011 35.9801 29.9956 38.5257C29.9956 39.9733 28.9767 41.0022 27.5664 41.0022C19.1881 41.0022 10.8101 41.0022 2.43255 41.0022C2.23613 41.0083 2.03967 40.9919 1.8469 40.9532C0.737004 40.6915 0.0032902 39.7283 0.0032902 38.5268C-0.00109673 32.1543 -0.00109673 25.7814 0.0032902 19.4082C0.0032902 19.3547 0.0032902 19.2968 0.0032902 19.2478C0.0281391 18.6284 0.287383 18.0425 0.727037 17.6123C1.16669 17.1821 1.75286 16.9406 2.36345 16.9383C2.69247 16.9383 3.02149 16.9383 3.35051 16.9383C3.94494 16.9383 3.93726 16.9383 3.94823 16.3437C3.98223 14.3047 3.83856 12.2625 4.02062 10.228C4.36061 6.41965 6.19543 3.52997 9.37705 1.52C10.7129 0.675927 12.1924 0.23162 13.7388 0ZM14.9978 16.9338C17.1638 16.9338 19.3299 16.926 21.4959 16.9405C21.8677 16.9405 22.007 16.8292 22.0026 16.4416C21.9862 14.562 21.9906 12.6823 21.9939 10.8037C21.9883 10.4441 21.9471 10.086 21.871 9.7347C21.1384 6.07778 17.7089 3.64133 14.1391 4.08786C10.748 4.51213 8.04453 7.48309 8.00833 10.9596C7.99079 12.7725 8.00833 14.5853 8.00833 16.3971C8.00833 16.9171 8.02588 16.9327 8.54354 16.9327L14.9978 16.9338ZM14.9857 33.8265C15.6438 33.8265 16.3018 33.8075 16.9533 33.8343C17.3382 33.8499 17.392 33.6973 17.3229 33.3599C17.1035 32.3332 16.9149 31.2987 16.6648 30.2787C16.5552 29.8177 16.6089 29.5204 16.9884 29.1829C17.9886 28.2921 18.1948 26.8278 17.5543 25.6396C17.2522 25.074 16.7755 24.6248 16.1975 24.3611C15.6196 24.0973 14.9722 24.0336 14.3551 24.1797C13.2112 24.4659 12.4567 25.1964 12.1825 26.3601C11.9083 27.5238 12.2286 28.5293 13.1323 29.3054C13.39 29.5281 13.4613 29.7275 13.3823 30.056C13.1377 31.1194 12.9294 32.1895 12.71 33.2563C12.5927 33.8198 12.5938 33.8265 13.1378 33.8265H14.9857Z" fill="#C98B27"/>
</g>
<defs>
<clipPath id="clip0_413_1366">
<rect width="30" height="41" fill="white"/>
</clipPath>
</defs>
</svg>
