<svg width="45" height="44" viewBox="0 0 45 44" fill="none" xmlns="http://www.w3.org/2000/svg">
<g id=".Icon">
<path id="Vector" d="M33.0781 14.6018C33.0781 11.7661 31.9164 9.04661 29.8486 7.04149C27.7809 5.03638 24.9763 3.90991 22.0521 3.90991C19.1278 3.90991 16.3233 5.03638 14.2555 7.04149C12.1877 9.04661 11.0261 11.7661 11.0261 14.6018C11.0261 27.0757 5.51306 30.6396 5.51306 30.6396H38.5911C38.5911 30.6396 33.0781 27.0757 33.0781 14.6018Z" stroke="#004A3F" stroke-width="2" stroke-linecap="round" stroke-linejoin="round"/>
<path id="Vector_2" d="M25.2311 37.7675C24.908 38.3076 24.4443 38.7559 23.8864 39.0675C23.3284 39.3792 22.6958 39.5432 22.052 39.5432C21.4081 39.5432 20.7755 39.3792 20.2176 39.0675C19.6596 38.7559 19.1959 38.3076 18.8728 37.7675" stroke="#004A3F" stroke-width="2" stroke-linecap="round" stroke-linejoin="round"/>
</g>
</svg>
