<svg xmlns="http://www.w3.org/2000/svg" width="72" height="72" viewBox="0 0 72 72" fill="none">
  <g opacity="0.8">
    <path d="M8.30939 5.93521C8.30939 6.59075 7.77788 7.12225 7.12234 7.12225C6.46681 7.12225 5.9353 6.59075 5.9353 5.93521C5.9353 5.27967 6.46681 4.74817 7.12234 4.74817C7.77788 4.74817 8.30939 5.27967 8.30939 5.93521Z" fill="white"/>
    <path d="M13.0574 5.93521C13.0574 6.59075 12.5259 7.12225 11.8704 7.12225C11.2149 7.12225 10.6833 6.59075 10.6833 5.93521C10.6833 5.27967 11.2149 4.74817 11.8704 4.74817C12.5259 4.74817 13.0574 5.27967 13.0574 5.93521Z" fill="white"/>
    <path d="M17.8057 5.93521C17.8057 6.59075 17.2742 7.12225 16.6187 7.12225C15.9631 7.12225 15.4316 6.59075 15.4316 5.93521C15.4316 5.27967 15.9631 4.74817 16.6187 4.74817C17.2742 4.74817 17.8057 5.27967 17.8057 5.93521Z" fill="white"/>
    <path d="M24.9278 4.74817C24.2722 4.74817 23.7407 5.27967 23.7407 5.93521C23.7407 6.59075 24.2722 7.12225 24.9278 7.12225H54.6038C55.2593 7.12225 55.7909 6.59075 55.7909 5.93521C55.7909 5.27967 55.2593 4.74817 54.6038 4.74817H24.9278Z" fill="white"/>
    <path d="M17.1171 58.165H2.37408V11.8704H54.6039C55.2595 11.8704 55.791 11.3389 55.791 10.6834C55.791 10.0278 55.2595 9.49633 54.6039 9.49633H2.37408V2.37408H58.165V17.1171C58.165 17.7726 58.6965 18.3041 59.3521 18.3041C60.0076 18.3041 60.5391 17.7726 60.5391 17.1171V1.18704C60.5391 0.531502 60.0076 0 59.3521 0H1.18704C0.531502 0 0 0.531502 0 1.18704V59.3521C0 60.0076 0.531502 60.5391 1.18704 60.5391H17.1171C17.7726 60.5391 18.3041 60.0076 18.3041 59.3521C18.3041 58.6965 17.7726 58.165 17.1171 58.165Z" fill="white"/>
    <path d="M70.8782 65.8333L64.3495 59.3521L68.172 56.8001C68.5656 56.5427 68.7708 56.0773 68.6943 55.613C68.6148 55.1505 68.2706 54.7784 67.8156 54.6631L51.874 50.4255C51.4659 50.3195 51.033 50.4371 50.735 50.735C50.4371 51.033 50.3195 51.4659 50.4255 51.874L54.6039 67.8156C54.7193 68.2706 55.0914 68.6148 55.5533 68.6943C56.0176 68.7708 56.4836 68.5656 56.7404 68.172L59.3521 64.3495L65.8808 70.8782C66.1046 71.1002 66.4083 71.2243 66.7236 71.2225C67.0389 71.2243 67.3426 71.1002 67.5663 70.8782L70.9258 67.5188C71.1443 67.2899 71.2625 66.9827 71.2532 66.6662C71.2445 66.3497 71.1095 66.0501 70.8782 65.8333ZM66.6761 68.3616L59.9572 61.6433C59.7364 61.4236 59.4379 61.3002 59.1266 61.299H59.0078C58.6554 61.3349 58.3378 61.5262 58.1413 61.8212L56.2419 64.6584L53.2389 53.2389L64.6584 56.2419L61.8212 58.1651C61.5262 58.3615 61.3349 58.6792 61.299 59.0316C61.2666 59.3834 61.3929 59.7317 61.6433 59.981L68.3616 66.6998L66.6761 68.3616Z" fill="white"/>
    <path d="M49.3335 62.3313C46.8574 63.3595 44.2237 63.9577 41.5465 64.1003V53.4169C43.3015 53.458 45.0531 53.5966 46.7931 53.8325C47.4486 53.924 48.0549 53.4673 48.1465 52.8118C48.2381 52.1557 47.7813 51.55 47.1258 51.4584C45.2751 51.2161 43.4122 51.0776 41.5465 51.0428V41.5465H53.4169C53.3566 43.4082 53.1746 45.2641 52.8709 47.102C52.7625 47.7576 53.2065 48.3766 53.862 48.485C54.5176 48.5928 55.1366 48.1494 55.245 47.4933C55.5603 45.5255 55.7429 43.5386 55.791 41.5465H64.1003C63.9768 44.2202 63.3989 46.8534 62.391 49.3335C62.1452 49.9363 62.431 50.6255 63.032 50.8764C63.1746 50.9373 63.3276 50.9698 63.483 50.9715C63.9693 50.9721 64.4069 50.6759 64.5871 50.2238C65.8547 47.0904 66.4958 43.7391 66.4743 40.3594C66.4772 34.2318 64.3165 28.3001 60.3728 23.6104C55.4165 17.681 48.088 14.2515 40.3594 14.2445H39.5045C33.7403 14.4335 28.1986 16.5201 23.7408 20.1797C23.2325 20.5959 23.1583 21.3453 23.5745 21.8536C23.9912 22.3614 24.7401 22.4361 25.2484 22.0194C27.3107 20.3229 29.6413 18.9828 32.1452 18.0549C30.1652 20.2093 28.6107 22.7184 27.5634 25.4501C25.5394 24.8757 23.5565 24.1663 21.6282 23.3253C21.1575 23.1265 20.6121 23.2505 20.2748 23.6342C20.2748 23.6342 20.2151 23.6342 20.1913 23.7055C16.3508 28.3916 14.2532 34.2648 14.2561 40.3241C14.2567 46.3949 16.3815 52.2739 20.2626 56.9426L20.3461 57.0371C25.2826 63.0013 32.617 66.4599 40.3594 66.4743C43.7432 66.4767 47.0945 65.8153 50.2238 64.5274C50.6423 64.3872 50.9483 64.0261 51.0179 63.5902C51.088 63.1543 50.9101 62.7156 50.5565 62.4513C50.2029 62.187 49.7317 62.1412 49.3335 62.3313ZM39.1724 63.9936C35.3858 63.3879 32.0501 59.839 29.9015 54.6155C32.9427 53.9003 36.0494 53.498 39.1724 53.4169V63.9936ZM39.1724 51.0428C35.7689 51.1129 32.3823 51.5465 29.0709 52.3365C27.9772 48.8409 27.3814 45.2084 27.302 41.5465H39.1724V51.0428ZM16.6777 41.5465H24.9279C25.0021 45.4293 25.6257 49.2814 26.7797 52.9897C25.0206 53.5032 23.2928 54.1176 21.6044 54.8294C18.6391 51.0115 16.9194 46.3746 16.6777 41.5465ZM50.746 26.1149C47.7274 26.8209 44.6451 27.2185 41.5465 27.302V16.7374C45.2977 17.3663 48.5974 20.9274 50.746 26.1149ZM39.1724 39.1724H27.302C27.3762 35.4971 27.9761 31.8519 29.0825 28.3464C32.3886 29.148 35.7712 29.5937 39.1724 29.676V39.1724ZM41.5465 29.676C44.9221 29.6036 48.2804 29.1735 51.565 28.394C52.6674 31.8838 53.2668 35.5133 53.3456 39.1724H41.5465V29.676ZM64.1003 39.1724H55.791C55.7203 35.2942 55.1007 31.4456 53.9513 27.7413C55.7353 27.2289 57.4875 26.6105 59.1979 25.8895C62.1545 29.7102 63.8655 34.3471 64.1003 39.1724ZM57.5715 23.9901C56.1231 24.5726 54.6451 25.0797 53.1439 25.5098C52.1029 22.7584 50.5391 20.2348 48.5383 18.0786C51.94 19.3416 55.0091 21.3633 57.5124 23.9901H57.5715ZM39.1724 16.7252V27.302C36.0494 27.2243 32.9433 26.8267 29.9015 26.1149C32.0501 20.8799 35.3858 17.3309 39.1724 16.7252ZM24.9279 39.1724H16.6186C16.8638 34.3489 18.5742 29.7155 21.5209 25.8895C23.2134 26.6012 24.9459 27.2156 26.7085 27.7291C25.5765 31.4404 24.9772 35.2931 24.9279 39.1724ZM23.2064 56.7288C24.6323 56.1561 26.0865 55.6571 27.5634 55.2328C28.6073 57.9506 30.1537 60.4476 32.1214 62.5927C28.7417 61.3431 25.6924 59.337 23.2064 56.7288Z" fill="white"/>
    <path d="M67.7565 28.9399C67.9385 29.3833 68.3691 29.6737 68.8484 29.676C69.0044 29.6801 69.1585 29.6476 69.2994 29.581C69.9004 29.3294 70.1862 28.6409 69.9404 28.0381C68.7186 25.0844 67.0534 22.3347 65.0022 19.883C64.5669 19.4935 63.9125 19.479 63.4598 19.8482C63.0077 20.218 62.8912 20.8625 63.1862 21.3668C65.0833 23.6458 66.6245 26.1995 67.7565 28.9399Z" fill="white"/>
    <path d="M15.7046 19.883C10.9257 25.6368 8.30991 32.8801 8.30933 40.3594C8.30933 41.015 8.84083 41.5465 9.49637 41.5465C10.1519 41.5465 10.6834 41.015 10.6834 40.3594C10.6765 33.4227 13.0998 26.7027 17.5327 21.3668C17.9523 20.8619 17.8833 20.1125 17.3785 19.6928C16.8736 19.2732 16.1242 19.3428 15.7046 19.8476V19.883Z" fill="white"/>
  </g>
</svg>