
        <svg xmlns="http://www.w3.org/2000/svg" width="77" height="77" viewBox="0 0 77 77" fill="none">
            <g opacity="0.8">
              <mask id="mask0_1132_4734" style="mask-type:luminance" maskUnits="userSpaceOnUse" x="0" y="0" width="77" height="77">
                <path d="M77 0H0V77H77V0Z" fill="white"/>
              </mask>
              <g mask="url(#mask0_1132_4734)">
                <mask id="mask1_1132_4734" style="mask-type:luminance" maskUnits="userSpaceOnUse" x="0" y="0" width="77" height="77">
                  <path d="M0 7.62939e-06H77V77H0V7.62939e-06Z" fill="white"/>
                </mask>
                <g mask="url(#mask1_1132_4734)">
                  <path d="M44.7076 12.5599C44.4175 12.2482 43.945 12.1903 43.5881 12.4234C39.7651 14.9209 34.7088 16.4996 29.7405 16.1427C29.2365 16.1045 28.8019 16.5066 28.8019 17.0157V24.6926C28.8019 29.6266 32.6678 34.1332 38.5158 34.1332C43.7212 34.1332 47.9564 29.898 47.9564 24.6926V16.396C47.9564 15.9373 47.9761 16.0731 44.7076 12.5599Z" stroke="white" stroke-width="2.5" stroke-miterlimit="10" stroke-linecap="round" stroke-linejoin="round"/>
                  <path d="M63.3212 63.3484V63.5346H56.3164C55.3496 63.5346 54.5656 64.3185 54.5656 65.2853V75.8698H54.3794H61.5703C62.5372 75.8698 63.3212 75.0859 63.3212 74.1191V63.3484Z" stroke="white" stroke-width="2.5" stroke-miterlimit="10" stroke-linecap="round" stroke-linejoin="round"/>
                  <path d="M22.4347 75.8698V65.2853C22.4347 64.3184 21.6509 63.5346 20.684 63.5346H13.679V74.1191C13.679 75.0859 14.4629 75.8698 15.4297 75.8698H22.621H22.4347Z" stroke="white" stroke-width="2.5" stroke-miterlimit="10" stroke-linecap="round" stroke-linejoin="round"/>
                  <path d="M38.5158 34.1331C36.4396 34.1331 34.6152 33.5632 33.123 32.6098V36.9721C35.8889 40.3859 41.0965 40.3861 43.8621 36.9721V32.4676C42.3411 33.5168 40.4993 34.1331 38.5158 34.1331Z" stroke="white" stroke-width="2.5" stroke-miterlimit="10" stroke-linecap="round" stroke-linejoin="round"/>
                  <path d="M43.8622 36.9721C41.0965 40.3861 35.8889 40.3861 33.1231 36.9721L29.3975 38.4164C29.7504 39.7369 30.5467 40.9146 31.6942 41.708C35.7638 44.5218 41.2216 44.5218 45.2912 41.7079C46.439 40.9143 47.2354 39.7361 47.5881 38.4151L43.8622 36.9721Z" stroke="white" stroke-width="2.5" stroke-miterlimit="10" stroke-linecap="round" stroke-linejoin="round"/>
                  <path d="M28.8018 17.6262V17.0157C28.8018 16.5067 29.2365 16.1045 29.7404 16.1427C34.7087 16.4996 39.765 14.9209 43.5881 12.4234C43.945 12.1901 44.4175 12.2482 44.7076 12.5598C47.9762 16.0731 47.9563 15.9373 47.9563 16.3958V17.1159C47.9563 17.1242 47.9565 17.1321 47.9565 17.1407V17.6147C49.2129 17.5334 50.3997 17.9915 51.229 18.7603V13.9807C51.229 6.88347 45.4763 1.13027 38.3787 1.13027C31.2816 1.13027 25.5284 6.88347 25.5284 13.9807V18.8633C26.4021 18.0659 27.642 17.5881 28.8018 17.6262Z" stroke="white" stroke-width="2.5" stroke-miterlimit="10" stroke-linecap="round" stroke-linejoin="round"/>
                  <path d="M47.9562 17.6148V24.6926C47.9562 24.7821 47.952 24.8705 47.9495 24.9594C50.2953 25.1153 52.3926 23.3872 52.3926 21.287C52.3926 19.1835 50.295 17.4635 47.9562 17.6148Z" stroke="white" stroke-width="2.5" stroke-miterlimit="10" stroke-linecap="round" stroke-linejoin="round"/>
                  <path d="M28.8019 24.6927V17.6261C26.715 17.5575 24.3655 19.1586 24.3655 21.2871C24.3655 23.3846 26.4592 25.1156 28.8083 24.9592C28.8058 24.8704 28.8019 24.7819 28.8019 24.6927Z" stroke="white" stroke-width="2.5" stroke-miterlimit="10" stroke-linecap="round" stroke-linejoin="round"/>
                  <path d="M49.6776 51.7076C48.0323 51.7094 47.3599 53.0351 47.3095 53.0933C47.119 53.3116 46.8659 53.3563 46.609 53.0884C45.7253 51.5334 43.5998 51.2376 42.3283 52.5109C41.8154 53.0245 41.5333 53.7062 41.5341 54.4305C41.5371 57.4672 44.2149 59.8649 46.8456 61.1065C46.885 61.125 46.9274 61.1343 46.9698 61.1343C47.0123 61.1343 47.055 61.125 47.0945 61.1062C47.5127 60.9077 48.6035 60.347 49.6944 59.4303C51.4868 57.9243 52.3944 56.2384 52.3927 54.4194C52.3911 52.9241 51.173 51.7076 49.6776 51.7076Z" stroke="white" stroke-width="2.5" stroke-miterlimit="10" stroke-linecap="round" stroke-linejoin="round"/>
                  <path d="M41.1318 75.8698H54.5655V65.2853C54.5655 64.3184 55.3493 63.5346 56.3163 63.5346H63.3211V56.9712" stroke="white" stroke-width="2.5" stroke-miterlimit="10" stroke-linecap="round" stroke-linejoin="round"/>
                  <path d="M63.3212 51.7074V50.6225C63.3212 44.633 58.0672 42.4731 58.0672 42.4731L43.8622 36.972C41.0966 40.3859 35.8889 40.3859 33.1232 36.972H33.1231L18.933 42.4731C18.933 42.4731 13.6791 44.633 13.6791 50.6225V63.5344H20.6841C21.651 63.5344 22.4348 64.3183 22.4348 65.2851V75.8696H35.8683" stroke="white" stroke-width="2.5" stroke-miterlimit="10" stroke-linecap="round" stroke-linejoin="round"/>
                </g>
              </g>
            </g>
          </svg>