<svg xmlns="http://www.w3.org/2000/svg" width="29" height="29" viewBox="0 0 29 29" fill="none">
  <path d="M28.2212 12.6136C28.2203 12.6129 28.2196 12.6121 28.219 12.6114L16.3881 0.782127C15.8838 0.277672 15.2133 0 14.5002 0C13.787 0 13.1165 0.277672 12.612 0.782127L0.787326 12.6054C0.783343 12.6094 0.779138 12.6136 0.775377 12.6176C-0.260189 13.659 -0.258419 15.3487 0.780466 16.3875C1.2551 16.8623 1.88175 17.1371 2.55199 17.1661C2.57943 17.1687 2.60687 17.1701 2.63453 17.1701H3.10584V25.8755C3.10584 27.5984 4.50784 29 6.23091 29H10.8595C11.3289 29 11.7092 28.6194 11.7092 28.1504V21.3252C11.7092 20.5391 12.3489 19.8997 13.1351 19.8997H15.8652C16.6514 19.8997 17.2909 20.5391 17.2909 21.3252V28.1504C17.2909 28.6194 17.6713 29 18.1406 29H22.7692C24.4925 29 25.8943 27.5984 25.8943 25.8755V17.1701H26.3315C27.0445 17.1701 27.7149 16.8924 28.2196 16.3877C29.2596 15.3474 29.2601 13.6546 28.2212 12.6136ZM27.0179 15.1863C26.8345 15.3697 26.5906 15.4709 26.3315 15.4709H25.0446C24.5753 15.4709 24.1949 15.8512 24.1949 16.3205V25.8755C24.1949 26.6614 23.5554 27.3008 22.7692 27.3008H18.9903V21.3252C18.9903 19.6023 17.5885 18.2004 15.8652 18.2004H13.1351C11.4118 18.2004 10.0098 19.6023 10.0098 21.3252V27.3008H6.23091C5.44494 27.3008 4.80523 26.6614 4.80523 25.8755V16.3205C4.80523 15.8512 4.42486 15.4709 3.95554 15.4709H2.69073C2.67745 15.47 2.6644 15.4693 2.6509 15.4691C2.39776 15.4647 2.16034 15.3642 1.98243 15.1861C1.60405 14.8078 1.60405 14.192 1.98243 13.8135C1.98265 13.8135 1.98265 13.8132 1.98287 13.813L1.98354 13.8123L13.814 1.98353C13.9972 1.80011 14.2408 1.69922 14.5002 1.69922C14.7593 1.69922 15.0029 1.80011 15.1863 1.98353L27.0141 13.8099C27.0159 13.8117 27.0179 13.8135 27.0197 13.8152C27.3961 14.1942 27.3954 14.8086 27.0179 15.1863Z" fill="#8C8A8A"/>
</svg>