<svg xmlns="http://www.w3.org/2000/svg" width="28" height="28" viewBox="0 0 28 28" fill="none">
  <path d="M24.7449 18.5383C24.0027 20.2936 22.8418 21.8403 21.3638 23.0432C19.8857 24.2461 18.1355 25.0687 16.2661 25.4389C14.3967 25.8092 12.4651 25.7158 10.6401 25.1671C8.81508 24.6184 7.1523 23.6309 5.79709 22.2911C4.44188 20.9513 3.43552 19.2999 2.86597 17.4813C2.29643 15.6627 2.18106 13.7322 2.52993 11.8587C2.87881 9.98524 3.68131 8.22573 4.86729 6.73403C6.05326 5.24234 7.5866 4.06387 9.33323 3.30167" stroke="#8C8A8A" stroke-width="2" stroke-linecap="round" stroke-linejoin="round"/>
  <path d="M25.6667 14C25.6667 12.4679 25.3649 10.9508 24.7786 9.53537C24.1923 8.1199 23.3329 6.83378 22.2496 5.75043C21.1662 4.66708 19.8801 3.80772 18.4646 3.22142C17.0492 2.63511 15.5321 2.33334 14 2.33334V14H25.6667Z" stroke="#8C8A8A" stroke-width="2" stroke-linecap="round" stroke-linejoin="round"/>
</svg>