<svg xmlns="http://www.w3.org/2000/svg" width="28" height="28" viewBox="0 0 28 28" fill="none">
  <path d="M24.7451 18.5383C24.0029 20.2936 22.8421 21.8403 21.364 23.0432C19.8859 24.2461 18.1357 25.0687 16.2663 25.4389C14.3969 25.8092 12.4653 25.7158 10.6403 25.1671C8.81533 24.6184 7.15254 23.6309 5.79733 22.2911C4.44213 20.9513 3.43576 19.2999 2.86622 17.4813C2.29668 15.6627 2.1813 13.7322 2.53018 11.8587C2.87905 9.98524 3.68156 8.22573 4.86753 6.73403C6.05351 5.24234 7.58684 4.06387 9.33348 3.30167" stroke="#004567" stroke-width="2" stroke-linecap="round" stroke-linejoin="round"/>
  <path d="M25.6667 14C25.6667 12.4679 25.3649 10.9508 24.7786 9.53537C24.1923 8.1199 23.3329 6.83378 22.2496 5.75043C21.1662 4.66708 19.8801 3.80772 18.4646 3.22142C17.0492 2.63511 15.5321 2.33334 14 2.33334V14H25.6667Z" stroke="#004567" stroke-width="2" stroke-linecap="round" stroke-linejoin="round"/>
</svg>