<svg xmlns="http://www.w3.org/2000/svg" width="25" height="25" viewBox="0 0 25 25" fill="none">
  <path d="M23.958 21.875V19.7916C23.9573 18.8684 23.65 17.9716 23.0844 17.242C22.5188 16.5123 21.7269 15.9912 20.833 15.7604" stroke="#004567" stroke-width="2" stroke-linecap="round" stroke-linejoin="round"/>
  <path d="M17.7087 21.875V19.7917C17.7087 18.6866 17.2697 17.6268 16.4883 16.8454C15.7069 16.064 14.6471 15.625 13.542 15.625H5.20866C4.10359 15.625 3.04378 16.064 2.26238 16.8454C1.48098 17.6268 1.04199 18.6866 1.04199 19.7917V21.875" stroke="#004567" stroke-width="2" stroke-linecap="round" stroke-linejoin="round"/>
  <path d="M16.667 3.26038C17.5633 3.48986 18.3577 4.01111 18.925 4.74195C19.4922 5.47279 19.8002 6.37166 19.8002 7.29683C19.8002 8.22201 19.4922 9.12088 18.925 9.85172C18.3577 10.5826 17.5633 11.1038 16.667 11.3333" stroke="#004567" stroke-width="2" stroke-linecap="round" stroke-linejoin="round"/>
  <path d="M9.37467 11.4583C11.6759 11.4583 13.5413 9.59285 13.5413 7.29167C13.5413 4.99048 11.6759 3.125 9.37467 3.125C7.07349 3.125 5.20801 4.99048 5.20801 7.29167C5.20801 9.59285 7.07349 11.4583 9.37467 11.4583Z" stroke="#004567" stroke-width="2" stroke-linecap="round" stroke-linejoin="round"/>
</svg>