<svg xmlns="http://www.w3.org/2000/svg" width="25" height="25" viewBox="0 0 25 25" fill="none">
  <path d="M23.9583 21.875V19.7917C23.9576 18.8685 23.6503 17.9716 23.0847 17.242C22.5191 16.5123 21.7271 15.9912 20.8333 15.7604" stroke="#8C8A8A" stroke-width="2" stroke-linecap="round" stroke-linejoin="round"/>
  <path d="M17.7084 21.875V19.7917C17.7084 18.6866 17.2694 17.6268 16.488 16.8454C15.7066 16.064 14.6468 15.625 13.5417 15.625H5.20842C4.10335 15.625 3.04354 16.064 2.26214 16.8454C1.48073 17.6268 1.04175 18.6866 1.04175 19.7917V21.875" stroke="#8C8A8A" stroke-width="2" stroke-linecap="round" stroke-linejoin="round"/>
  <path d="M16.6667 3.26041C17.563 3.48989 18.3574 4.01114 18.9247 4.74198C19.492 5.47282 19.7999 6.37169 19.7999 7.29686C19.7999 8.22204 19.492 9.12091 18.9247 9.85175C18.3574 10.5826 17.563 11.1038 16.6667 11.3333" stroke="#8C8A8A" stroke-width="2" stroke-linecap="round" stroke-linejoin="round"/>
  <path d="M9.37492 11.4583C11.6761 11.4583 13.5416 9.59285 13.5416 7.29167C13.5416 4.99048 11.6761 3.125 9.37492 3.125C7.07373 3.125 5.20825 4.99048 5.20825 7.29167C5.20825 9.59285 7.07373 11.4583 9.37492 11.4583Z" stroke="#8C8A8A" stroke-width="2" stroke-linecap="round" stroke-linejoin="round"/>
</svg>