<svg xmlns="http://www.w3.org/2000/svg" width="23" height="23" viewBox="0 0 23 23" fill="none">
  <g clip-path="url(#clip0_1300_1317)">
    <path d="M11.5 14.375C13.0878 14.375 14.375 13.0878 14.375 11.5C14.375 9.91218 13.0878 8.625 11.5 8.625C9.91218 8.625 8.625 9.91218 8.625 11.5C8.625 13.0878 9.91218 14.375 11.5 14.375Z" stroke="#004567" stroke-width="2" stroke-linecap="round" stroke-linejoin="round"/>
    <path d="M18.5913 14.375C18.4638 14.6641 18.4257 14.9847 18.4821 15.2956C18.5385 15.6065 18.6867 15.8933 18.9076 16.1192L18.9651 16.1767C19.1433 16.3547 19.2847 16.5661 19.3811 16.7988C19.4776 17.0315 19.5272 17.2809 19.5272 17.5327C19.5272 17.7846 19.4776 18.034 19.3811 18.2667C19.2847 18.4994 19.1433 18.7108 18.9651 18.8888C18.7871 19.067 18.5757 19.2084 18.343 19.3048C18.1103 19.4013 17.8609 19.4509 17.609 19.4509C17.3572 19.4509 17.1078 19.4013 16.8751 19.3048C16.6424 19.2084 16.431 19.067 16.253 18.8888L16.1955 18.8313C15.9696 18.6104 15.6828 18.4622 15.3719 18.4058C15.061 18.3494 14.7404 18.3875 14.4513 18.515C14.1679 18.6365 13.9262 18.8382 13.7559 19.0953C13.5856 19.3525 13.4942 19.6537 13.493 19.9621V20.125C13.493 20.6334 13.2911 21.1209 12.9316 21.4803C12.5722 21.8398 12.0847 22.0417 11.5763 22.0417C11.068 22.0417 10.5805 21.8398 10.2211 21.4803C9.86161 21.1209 9.65967 20.6334 9.65967 20.125V20.0388C9.65225 19.7216 9.54958 19.414 9.365 19.1559C9.18041 18.8978 8.92246 18.7012 8.62467 18.5917C8.33563 18.4641 8.01499 18.4261 7.70411 18.4825C7.39323 18.5388 7.10637 18.687 6.88051 18.908L6.82301 18.9655C6.645 19.1437 6.43361 19.285 6.20093 19.3815C5.96825 19.4779 5.71885 19.5276 5.46697 19.5276C5.21509 19.5276 4.96568 19.4779 4.733 19.3815C4.50032 19.285 4.28893 19.1437 4.11092 18.9655C3.93272 18.7875 3.79135 18.5761 3.69489 18.3434C3.59844 18.1107 3.54879 17.8613 3.54879 17.6094C3.54879 17.3575 3.59844 17.1081 3.69489 16.8754C3.79135 16.6428 3.93272 16.4314 4.11092 16.2534L4.16842 16.1959C4.38936 15.97 4.53756 15.6831 4.59393 15.3723C4.6503 15.0614 4.61224 14.7408 4.48467 14.4517C4.36319 14.1683 4.16148 13.9265 3.90437 13.7563C3.64726 13.586 3.34597 13.4946 3.03759 13.4934H2.87467C2.36634 13.4934 1.87883 13.2914 1.51939 12.932C1.15994 12.5725 0.958008 12.085 0.958008 11.5767C0.958008 11.0684 1.15994 10.5809 1.51939 10.2214C1.87883 9.86197 2.36634 9.66004 2.87467 9.66004H2.96092C3.27813 9.65262 3.58576 9.54995 3.84384 9.36536C4.10191 9.18078 4.29849 8.92283 4.40801 8.62504C4.53558 8.33599 4.57363 8.01535 4.51726 7.70448C4.46089 7.3936 4.31269 7.10673 4.09176 6.88087L4.03426 6.82337C3.85605 6.64537 3.71468 6.43398 3.61823 6.2013C3.52177 5.96862 3.47212 5.71921 3.47212 5.46733C3.47212 5.21545 3.52177 4.96604 3.61823 4.73336C3.71468 4.50068 3.85605 4.2893 4.03426 4.11129C4.21226 3.93309 4.42365 3.79171 4.65633 3.69526C4.88901 3.5988 5.13842 3.54916 5.3903 3.54916C5.64218 3.54916 5.89159 3.5988 6.12427 3.69526C6.35695 3.79171 6.56833 3.93309 6.74634 4.11129L6.80384 4.16879C7.0297 4.38972 7.31656 4.53793 7.62744 4.59429C7.93832 4.65066 8.25896 4.61261 8.54801 4.48504H8.62467C8.90812 4.36356 9.14986 4.16185 9.32013 3.90474C9.4904 3.64762 9.58178 3.34634 9.58301 3.03796V2.87504C9.58301 2.36671 9.78494 1.8792 10.1444 1.51975C10.5038 1.16031 10.9913 0.958374 11.4997 0.958374C12.008 0.958374 12.4955 1.16031 12.855 1.51975C13.2144 1.8792 13.4163 2.36671 13.4163 2.87504V2.96129C13.4176 3.26967 13.5089 3.57096 13.6792 3.82807C13.8495 4.08518 14.0912 4.28689 14.3747 4.40837C14.6637 4.53594 14.9844 4.574 15.2952 4.51763C15.6061 4.46126 15.893 4.31305 16.1188 4.09212L16.1763 4.03462C16.3543 3.85642 16.5657 3.71505 16.7984 3.61859C17.0311 3.52214 17.2805 3.47249 17.5324 3.47249C17.7843 3.47249 18.0337 3.52214 18.2664 3.61859C18.499 3.71505 18.7104 3.85642 18.8884 4.03462C19.0666 4.21263 19.208 4.42402 19.3045 4.6567C19.4009 4.88938 19.4506 5.13879 19.4506 5.39067C19.4506 5.64254 19.4009 5.89195 19.3045 6.12463C19.208 6.35731 19.0666 6.5687 18.8884 6.74671L18.8309 6.80421C18.61 7.03007 18.4618 7.31693 18.4054 7.62781C18.3491 7.93869 18.3871 8.25932 18.5147 8.54837V8.62504C18.6362 8.90849 18.8379 9.15022 19.095 9.3205C19.3521 9.49077 19.6534 9.58214 19.9618 9.58337H20.1247C20.633 9.58337 21.1205 9.78531 21.48 10.1448C21.8394 10.5042 22.0413 10.9917 22.0413 11.5C22.0413 12.0084 21.8394 12.4959 21.48 12.8553C21.1205 13.2148 20.633 13.4167 20.1247 13.4167H20.0384C19.73 13.4179 19.4288 13.5093 19.1716 13.6796C18.9145 13.8499 18.7128 14.0916 18.5913 14.375V14.375Z" stroke="#004567" stroke-width="2" stroke-linecap="round" stroke-linejoin="round"/>
  </g>
  <defs>
    <clipPath id="clip0_1300_1317">
      <rect width="23" height="23" fill="white"/>
    </clipPath>
  </defs>
</svg>