<svg xmlns="http://www.w3.org/2000/svg" width="32" height="35" viewBox="0 0 32 35" fill="none">
  <mask id="path-1-outside-1_1300_756" maskUnits="userSpaceOnUse" x="0" y="0" width="32" height="35" fill="black">
    <rect fill="white" width="32" height="35"/>
    <path fill-rule="evenodd" clip-rule="evenodd" d="M15.2573 1C16.2931 1.14524 17.3263 1.30939 18.3074 1.68754C23.0815 3.52412 26.0283 6.96438 26.8309 12.0418C27.9307 18.9911 23.3394 25.4118 16.4605 26.7714C14.8659 27.0922 13.2236 27.0875 11.6309 26.7577C11.3252 26.6949 11.157 26.7422 10.9947 27.0327C10.6636 27.6245 10.323 28.2111 9.98244 28.7976C9.46144 29.6948 8.94049 30.592 8.45357 31.5077C7.78327 32.7702 6.88156 33.6863 5.45899 34H4.11412C4.09272 33.9929 4.07137 33.9856 4.05003 33.9783L4.04998 33.9783C3.98104 33.9547 3.91213 33.9311 3.84173 33.9141C1.36545 33.2265 0.255402 30.5056 1.53623 28.2591C2.07378 27.3146 2.61433 26.3725 3.15504 25.4301C3.52648 24.7827 3.898 24.1352 4.26867 23.4867C4.6072 22.8956 4.60433 22.892 4.18772 22.3782L4.17645 22.3643C1.62589 19.2206 0.590125 15.6248 1.36545 11.6474C2.37304 6.49084 5.48119 3.12191 10.4457 1.49159C11.1812 1.25252 11.9476 1.13981 12.7074 1.02807L12.8861 1.00172L15.2573 1ZM2.27826 13.9833C2.29875 20.4074 7.38023 25.8484 14.085 25.8433C20.6471 25.8355 25.8532 20.5664 25.849 13.9833C25.8438 7.21189 20.4148 2.13615 14.0798 2.12326C7.57748 2.10436 2.2757 7.44307 2.27655 13.9833H2.27826ZM4.76649 32.8853C5.67161 32.8914 6.53659 32.4616 7.00538 31.671C7.70193 30.4958 8.38107 29.3093 9.05984 28.1234C9.35546 27.607 9.651 27.0907 9.94787 26.5755C10.0452 26.4088 10.0145 26.3357 9.83601 26.2738C8.3087 25.7444 6.89522 24.9278 5.67075 23.8674C5.51108 23.7291 5.43764 23.7514 5.3403 23.931C5.17852 24.222 5.01265 24.5088 4.84678 24.7956L4.84676 24.7956L4.84646 24.7961C4.7498 24.9633 4.65314 25.1304 4.55728 25.2984C4.34207 25.6752 4.1232 26.0503 3.90431 26.4254C3.39889 27.2914 2.8934 28.1576 2.43281 29.0463C1.53111 30.7806 2.82646 32.8724 4.76478 32.8853H4.76649ZM30.4181 22.421C30.3596 22.4771 30.3108 22.5232 30.2682 22.5635L30.2681 22.5635C30.2038 22.6243 30.1535 22.6718 30.1047 22.7209L20.8691 32.0155C20.3482 32.5406 20.1484 32.5406 19.6276 32.0155C19.4272 31.8139 19.2265 31.6124 19.0257 31.411C18.4633 30.8466 17.9007 30.2821 17.3451 29.7114C17.1889 29.5507 17.0966 29.5524 16.9352 29.7054C16.2978 30.3126 15.6556 30.9099 15.0126 31.5078L15.0126 31.5079C14.7236 31.7766 14.4345 32.0455 14.1456 32.3155C13.6162 32.8088 13.4249 32.8036 12.9151 32.2905C12.7138 32.0876 12.5122 31.885 12.3107 31.6823L12.3104 31.6821C11.8402 31.2092 11.3699 30.7364 10.9025 30.2606C10.6387 29.9925 10.6182 29.6667 10.8325 29.4287C11.0742 29.158 11.4012 29.1623 11.7009 29.4588C12.2346 29.9847 12.7683 30.5115 13.2832 31.0556C13.4736 31.2567 13.5889 31.267 13.7955 31.0702C14.6371 30.2701 15.4889 29.4839 16.3412 28.6972L16.3413 28.6971L16.6381 28.4232C17.0531 28.0407 17.2964 28.045 17.7055 28.4515C18.4796 29.2216 19.2481 29.9968 20.011 30.7771C20.1869 30.9576 20.3013 30.9559 20.4789 30.7771C23.447 27.78 26.4185 24.7869 29.3935 21.7979C29.4379 21.7532 29.4788 21.7034 29.519 21.6544C29.4629 21.5621 29.387 21.5713 29.3164 21.5799C29.2956 21.5825 29.2752 21.5849 29.256 21.5848C28.829 21.5813 28.402 21.5825 27.9752 21.5836C27.7619 21.5842 27.5487 21.5848 27.3356 21.5848C26.9308 21.5848 26.6525 21.3484 26.6525 21.0184C26.6525 20.6884 26.9257 20.4495 27.3296 20.4486H30.8826C31.3309 20.4486 31.5521 20.6274 31.5589 21.0811C31.5783 22.2941 31.5783 23.507 31.5589 24.7199C31.5512 25.1496 31.2959 25.3946 30.9663 25.3748C30.6367 25.355 30.419 25.086 30.4164 24.6701C30.4159 24.2669 30.4165 23.8645 30.4171 23.4466L30.4171 23.4445C30.4176 23.1157 30.4181 22.7771 30.4181 22.421ZM8.12053 18.6146H13.9457C15.9091 18.6169 17.8722 18.6144 19.835 18.6069C20.3388 18.606 20.5335 18.411 20.5335 17.9039C20.538 15.8963 20.538 13.8881 20.5335 11.8794C20.5326 11.1342 20.0997 10.7045 19.3551 10.7045C19.2287 10.7041 19.1024 10.7037 18.976 10.7032C18.2809 10.7006 17.5859 10.6979 16.8908 10.7088C16.6321 10.7149 16.5134 10.6375 16.533 10.3651C16.5463 10.1613 16.5463 9.95691 16.533 9.75316C16.4835 8.94015 16.048 8.52419 15.2377 8.52419C14.9496 8.52419 14.6615 8.524 14.3734 8.52381C13.7971 8.52343 13.2208 8.52304 12.6453 8.52419C11.782 8.52591 11.3397 8.96679 11.3397 9.83137C11.3337 11.0019 11.3294 12.1724 11.3397 13.343C11.3414 13.5922 11.2654 13.6824 11.0092 13.6781C10.469 13.6724 9.92846 13.6743 9.38776 13.6762C9.11736 13.6772 8.84693 13.6781 8.5765 13.6781C7.7525 13.679 7.30336 14.1216 7.30336 14.9466V17.7827C7.30421 18.423 7.49207 18.6146 8.12053 18.6146ZM15.3683 12.6495C15.3687 12.9674 15.3692 13.2854 15.3692 13.6034C15.3692 13.873 15.3689 14.1428 15.3686 14.4126C15.3677 15.3124 15.3668 16.2128 15.376 17.1107C15.3794 17.3925 15.294 17.4845 15.0114 17.4785C14.2882 17.463 13.5615 17.4665 12.8365 17.4785C12.5838 17.4854 12.5027 17.3908 12.5027 17.1416C12.5095 14.7805 12.5095 12.4191 12.5027 10.0574C12.5018 9.79356 12.5923 9.69644 12.8562 9.70074C13.5814 9.71449 14.3067 9.71449 15.0319 9.70074C15.3009 9.69558 15.3734 9.80387 15.3734 10.0617C15.366 10.9239 15.3671 11.7867 15.3683 12.6495ZM19.4006 13.8354C19.4013 14.1147 19.4021 14.394 19.4021 14.6733C19.4021 14.9268 19.4013 15.1803 19.4006 15.4337C19.399 15.9965 19.3973 16.5589 19.4038 17.1201C19.4038 17.3779 19.3372 17.4836 19.0622 17.4776C18.3262 17.4639 17.5893 17.4682 16.8532 17.4776C16.6218 17.4802 16.5288 17.4029 16.5288 17.1631C16.5339 15.4981 16.5339 13.8331 16.5288 12.1681C16.5279 11.9369 16.6039 11.8441 16.8438 11.8441C17.5913 11.855 18.3384 11.855 19.0853 11.8441C19.3167 11.8416 19.4021 11.9198 19.4021 12.1595C19.3975 12.7182 19.399 13.2768 19.4006 13.8354ZM9.52852 14.8184C9.65661 14.8176 9.78472 14.8169 9.91284 14.8169C10.0328 14.8169 10.1527 14.8177 10.2726 14.8185C10.5259 14.8201 10.7793 14.8218 11.0331 14.816C11.2475 14.8091 11.3397 14.8762 11.3397 15.1073C11.3311 15.8052 11.3328 16.503 11.3397 17.2C11.3422 17.4115 11.2577 17.4802 11.0545 17.4802C10.2854 17.4722 9.51692 17.4722 8.74899 17.4802C8.53637 17.4819 8.47147 17.3882 8.47147 17.188C8.47717 16.4907 8.47717 15.7932 8.47147 15.0953C8.46977 14.8856 8.55857 14.8117 8.76094 14.8169C9.01651 14.8214 9.27245 14.8199 9.52852 14.8184Z"/>
  </mask>
  <path fill-rule="evenodd" clip-rule="evenodd" d="M15.2573 1C16.2931 1.14524 17.3263 1.30939 18.3074 1.68754C23.0815 3.52412 26.0283 6.96438 26.8309 12.0418C27.9307 18.9911 23.3394 25.4118 16.4605 26.7714C14.8659 27.0922 13.2236 27.0875 11.6309 26.7577C11.3252 26.6949 11.157 26.7422 10.9947 27.0327C10.6636 27.6245 10.323 28.2111 9.98244 28.7976C9.46144 29.6948 8.94049 30.592 8.45357 31.5077C7.78327 32.7702 6.88156 33.6863 5.45899 34H4.11412C4.09272 33.9929 4.07137 33.9856 4.05003 33.9783L4.04998 33.9783C3.98104 33.9547 3.91213 33.9311 3.84173 33.9141C1.36545 33.2265 0.255402 30.5056 1.53623 28.2591C2.07378 27.3146 2.61433 26.3725 3.15504 25.4301C3.52648 24.7827 3.898 24.1352 4.26867 23.4867C4.6072 22.8956 4.60433 22.892 4.18772 22.3782L4.17645 22.3643C1.62589 19.2206 0.590125 15.6248 1.36545 11.6474C2.37304 6.49084 5.48119 3.12191 10.4457 1.49159C11.1812 1.25252 11.9476 1.13981 12.7074 1.02807L12.8861 1.00172L15.2573 1ZM2.27826 13.9833C2.29875 20.4074 7.38023 25.8484 14.085 25.8433C20.6471 25.8355 25.8532 20.5664 25.849 13.9833C25.8438 7.21189 20.4148 2.13615 14.0798 2.12326C7.57748 2.10436 2.2757 7.44307 2.27655 13.9833H2.27826ZM4.76649 32.8853C5.67161 32.8914 6.53659 32.4616 7.00538 31.671C7.70193 30.4958 8.38107 29.3093 9.05984 28.1234C9.35546 27.607 9.651 27.0907 9.94787 26.5755C10.0452 26.4088 10.0145 26.3357 9.83601 26.2738C8.3087 25.7444 6.89522 24.9278 5.67075 23.8674C5.51108 23.7291 5.43764 23.7514 5.3403 23.931C5.17852 24.222 5.01265 24.5088 4.84678 24.7956L4.84676 24.7956L4.84646 24.7961C4.7498 24.9633 4.65314 25.1304 4.55728 25.2984C4.34207 25.6752 4.1232 26.0503 3.90431 26.4254C3.39889 27.2914 2.8934 28.1576 2.43281 29.0463C1.53111 30.7806 2.82646 32.8724 4.76478 32.8853H4.76649ZM30.4181 22.421C30.3596 22.4771 30.3108 22.5232 30.2682 22.5635L30.2681 22.5635C30.2038 22.6243 30.1535 22.6718 30.1047 22.7209L20.8691 32.0155C20.3482 32.5406 20.1484 32.5406 19.6276 32.0155C19.4272 31.8139 19.2265 31.6124 19.0257 31.411C18.4633 30.8466 17.9007 30.2821 17.3451 29.7114C17.1889 29.5507 17.0966 29.5524 16.9352 29.7054C16.2978 30.3126 15.6556 30.9099 15.0126 31.5078L15.0126 31.5079C14.7236 31.7766 14.4345 32.0455 14.1456 32.3155C13.6162 32.8088 13.4249 32.8036 12.9151 32.2905C12.7138 32.0876 12.5122 31.885 12.3107 31.6823L12.3104 31.6821C11.8402 31.2092 11.3699 30.7364 10.9025 30.2606C10.6387 29.9925 10.6182 29.6667 10.8325 29.4287C11.0742 29.158 11.4012 29.1623 11.7009 29.4588C12.2346 29.9847 12.7683 30.5115 13.2832 31.0556C13.4736 31.2567 13.5889 31.267 13.7955 31.0702C14.6371 30.2701 15.4889 29.4839 16.3412 28.6972L16.3413 28.6971L16.6381 28.4232C17.0531 28.0407 17.2964 28.045 17.7055 28.4515C18.4796 29.2216 19.2481 29.9968 20.011 30.7771C20.1869 30.9576 20.3013 30.9559 20.4789 30.7771C23.447 27.78 26.4185 24.7869 29.3935 21.7979C29.4379 21.7532 29.4788 21.7034 29.519 21.6544C29.4629 21.5621 29.387 21.5713 29.3164 21.5799C29.2956 21.5825 29.2752 21.5849 29.256 21.5848C28.829 21.5813 28.402 21.5825 27.9752 21.5836C27.7619 21.5842 27.5487 21.5848 27.3356 21.5848C26.9308 21.5848 26.6525 21.3484 26.6525 21.0184C26.6525 20.6884 26.9257 20.4495 27.3296 20.4486H30.8826C31.3309 20.4486 31.5521 20.6274 31.5589 21.0811C31.5783 22.2941 31.5783 23.507 31.5589 24.7199C31.5512 25.1496 31.2959 25.3946 30.9663 25.3748C30.6367 25.355 30.419 25.086 30.4164 24.6701C30.4159 24.2669 30.4165 23.8645 30.4171 23.4466L30.4171 23.4445C30.4176 23.1157 30.4181 22.7771 30.4181 22.421ZM8.12053 18.6146H13.9457C15.9091 18.6169 17.8722 18.6144 19.835 18.6069C20.3388 18.606 20.5335 18.411 20.5335 17.9039C20.538 15.8963 20.538 13.8881 20.5335 11.8794C20.5326 11.1342 20.0997 10.7045 19.3551 10.7045C19.2287 10.7041 19.1024 10.7037 18.976 10.7032C18.2809 10.7006 17.5859 10.6979 16.8908 10.7088C16.6321 10.7149 16.5134 10.6375 16.533 10.3651C16.5463 10.1613 16.5463 9.95691 16.533 9.75316C16.4835 8.94015 16.048 8.52419 15.2377 8.52419C14.9496 8.52419 14.6615 8.524 14.3734 8.52381C13.7971 8.52343 13.2208 8.52304 12.6453 8.52419C11.782 8.52591 11.3397 8.96679 11.3397 9.83137C11.3337 11.0019 11.3294 12.1724 11.3397 13.343C11.3414 13.5922 11.2654 13.6824 11.0092 13.6781C10.469 13.6724 9.92846 13.6743 9.38776 13.6762C9.11736 13.6772 8.84693 13.6781 8.5765 13.6781C7.7525 13.679 7.30336 14.1216 7.30336 14.9466V17.7827C7.30421 18.423 7.49207 18.6146 8.12053 18.6146ZM15.3683 12.6495C15.3687 12.9674 15.3692 13.2854 15.3692 13.6034C15.3692 13.873 15.3689 14.1428 15.3686 14.4126C15.3677 15.3124 15.3668 16.2128 15.376 17.1107C15.3794 17.3925 15.294 17.4845 15.0114 17.4785C14.2882 17.463 13.5615 17.4665 12.8365 17.4785C12.5838 17.4854 12.5027 17.3908 12.5027 17.1416C12.5095 14.7805 12.5095 12.4191 12.5027 10.0574C12.5018 9.79356 12.5923 9.69644 12.8562 9.70074C13.5814 9.71449 14.3067 9.71449 15.0319 9.70074C15.3009 9.69558 15.3734 9.80387 15.3734 10.0617C15.366 10.9239 15.3671 11.7867 15.3683 12.6495ZM19.4006 13.8354C19.4013 14.1147 19.4021 14.394 19.4021 14.6733C19.4021 14.9268 19.4013 15.1803 19.4006 15.4337C19.399 15.9965 19.3973 16.5589 19.4038 17.1201C19.4038 17.3779 19.3372 17.4836 19.0622 17.4776C18.3262 17.4639 17.5893 17.4682 16.8532 17.4776C16.6218 17.4802 16.5288 17.4029 16.5288 17.1631C16.5339 15.4981 16.5339 13.8331 16.5288 12.1681C16.5279 11.9369 16.6039 11.8441 16.8438 11.8441C17.5913 11.855 18.3384 11.855 19.0853 11.8441C19.3167 11.8416 19.4021 11.9198 19.4021 12.1595C19.3975 12.7182 19.399 13.2768 19.4006 13.8354ZM9.52852 14.8184C9.65661 14.8176 9.78472 14.8169 9.91284 14.8169C10.0328 14.8169 10.1527 14.8177 10.2726 14.8185C10.5259 14.8201 10.7793 14.8218 11.0331 14.816C11.2475 14.8091 11.3397 14.8762 11.3397 15.1073C11.3311 15.8052 11.3328 16.503 11.3397 17.2C11.3422 17.4115 11.2577 17.4802 11.0545 17.4802C10.2854 17.4722 9.51692 17.4722 8.74899 17.4802C8.53637 17.4819 8.47147 17.3882 8.47147 17.188C8.47717 16.4907 8.47717 15.7932 8.47147 15.0953C8.46977 14.8856 8.55857 14.8117 8.76094 14.8169C9.01651 14.8214 9.27245 14.8199 9.52852 14.8184Z" fill="#004567"/>
  <path d="M18.3074 1.68754L18.1995 1.96746L18.1997 1.96753L18.3074 1.68754ZM15.2573 1L15.299 0.702907L15.2782 0.699985L15.2571 0.7L15.2573 1ZM26.8309 12.0418L26.5346 12.0887L26.5346 12.0887L26.8309 12.0418ZM16.4605 26.7714L16.4023 26.4771L16.4013 26.4773L16.4605 26.7714ZM11.6309 26.7577L11.6917 26.4639L11.6912 26.4638L11.6309 26.7577ZM10.9947 27.0327L11.2565 27.1792L11.2567 27.179L10.9947 27.0327ZM9.98244 28.7976L9.72301 28.6469L9.98244 28.7976ZM8.45357 31.5077L8.18869 31.3668L8.1886 31.367L8.45357 31.5077ZM5.45899 34V34.3H5.49167L5.52359 34.293L5.45899 34ZM4.11412 34L4.01951 34.2847L4.06557 34.3H4.11412V34ZM4.05003 33.9783L4.14712 33.6944L4.13267 33.6895L4.11779 33.686L4.05003 33.9783ZM4.04998 33.9783L3.95287 34.2621L3.96733 34.2671L3.98221 34.2705L4.04998 33.9783ZM3.84173 33.9141L3.76142 34.2033L3.77108 34.2056L3.84173 33.9141ZM1.53623 28.2591L1.79685 28.4077L1.79696 28.4075L1.53623 28.2591ZM3.15504 25.4301L2.89483 25.2808L3.15504 25.4301ZM4.26867 23.4867L4.00834 23.3376L4.00821 23.3379L4.26867 23.4867ZM4.18772 22.3782L3.95468 22.5671L3.95469 22.5672L4.18772 22.3782ZM4.17645 22.3643L4.40948 22.1754L4.40942 22.1753L4.17645 22.3643ZM1.36545 11.6474L1.07102 11.5898L1.071 11.59L1.36545 11.6474ZM10.4457 1.49159L10.353 1.20628L10.3521 1.20656L10.4457 1.49159ZM12.7074 1.02807L12.751 1.32487L12.7511 1.32486L12.7074 1.02807ZM12.8861 1.00172L12.8859 0.701719L12.864 0.701735L12.8423 0.704927L12.8861 1.00172ZM14.085 25.8433L14.0852 26.1433H14.0853L14.085 25.8433ZM2.27826 13.9833L2.57826 13.9823L2.5773 13.6833H2.27826V13.9833ZM25.849 13.9833L26.149 13.9831V13.983L25.849 13.9833ZM14.0798 2.12326L14.079 2.42326L14.0792 2.42326L14.0798 2.12326ZM2.27655 13.9833L1.97655 13.9833L1.97659 14.2833H2.27655V13.9833ZM7.00538 31.671L7.26343 31.824L7.26345 31.8239L7.00538 31.671ZM4.76649 32.8853L4.76848 32.5853H4.76649V32.8853ZM9.05984 28.1234L8.79948 27.9744L9.05984 28.1234ZM9.94787 26.5755L9.68879 26.4242L9.68794 26.4257L9.94787 26.5755ZM9.83601 26.2738L9.93429 25.9904L9.93426 25.9904L9.83601 26.2738ZM5.67075 23.8674L5.47429 24.0942L5.47436 24.0942L5.67075 23.8674ZM5.3403 23.931L5.6025 24.0769L5.60406 24.074L5.3403 23.931ZM4.84678 24.7956L4.58698 24.6453L4.58299 24.6527L4.84678 24.7956ZM4.84676 24.7956L5.10695 24.9452L5.11055 24.9385L4.84676 24.7956ZM4.84646 24.7961L5.10616 24.9463L5.10656 24.9456L4.84646 24.7961ZM4.55728 25.2984L4.8178 25.4472L4.81784 25.4471L4.55728 25.2984ZM3.90431 26.4254L3.6452 26.2741H3.6452L3.90431 26.4254ZM2.43281 29.0463L2.69899 29.1847L2.69917 29.1843L2.43281 29.0463ZM4.76478 32.8853L4.76278 33.1853H4.76478V32.8853ZM30.2682 22.5635L30.4724 22.7833L30.4742 22.7815L30.2682 22.5635ZM30.4181 22.421H30.7181V21.7173L30.2104 22.2045L30.4181 22.421ZM30.2681 22.5635L30.064 22.3437L30.0621 22.3455L30.2681 22.5635ZM30.1047 22.7209L30.3176 22.9324L30.3176 22.9324L30.1047 22.7209ZM20.8691 32.0155L20.6563 31.8041L20.6561 31.8043L20.8691 32.0155ZM19.6276 32.0155L19.8405 31.8043L19.8404 31.8041L19.6276 32.0155ZM19.0257 31.411L19.2382 31.1992L19.0257 31.411ZM17.3451 29.7114L17.13 29.9206L17.1302 29.9207L17.3451 29.7114ZM16.9352 29.7054L16.7289 29.4877L16.7283 29.4882L16.9352 29.7054ZM15.0126 31.5078L15.208 31.7358L15.2169 31.7275L15.0126 31.5078ZM15.0126 31.5079L14.8172 31.2799L14.8083 31.2882L15.0126 31.5079ZM14.1456 32.3155L14.3501 32.535L14.3504 32.5347L14.1456 32.3155ZM12.9151 32.2905L12.7022 32.5019L12.7023 32.502L12.9151 32.2905ZM12.3107 31.6823L12.5234 31.4707L12.5228 31.4702L12.3107 31.6823ZM12.3104 31.6821L12.0977 31.8936L12.0983 31.8942L12.3104 31.6821ZM10.9025 30.2606L11.1166 30.0504L11.1164 30.0502L10.9025 30.2606ZM10.8325 29.4287L11.0555 29.6294L11.0563 29.6285L10.8325 29.4287ZM11.7009 29.4588L11.4899 29.672L11.4903 29.6724L11.7009 29.4588ZM13.2832 31.0556L13.0653 31.2618L13.0653 31.2618L13.2832 31.0556ZM13.7955 31.0702L13.5888 30.8527L13.5886 30.8529L13.7955 31.0702ZM16.3412 28.6972L16.1385 28.4761L16.1378 28.4767L16.3412 28.6972ZM16.3413 28.6971L16.544 28.9183L16.5448 28.9176L16.3413 28.6971ZM16.6381 28.4232L16.4348 28.2026L16.4346 28.2027L16.6381 28.4232ZM17.7055 28.4515L17.917 28.2388L17.9169 28.2387L17.7055 28.4515ZM20.011 30.7771L20.2258 30.5677L20.2255 30.5674L20.011 30.7771ZM20.4789 30.7771L20.6917 30.9886L20.692 30.9882L20.4789 30.7771ZM29.3935 21.7979L29.6061 22.0095L29.6063 22.0093L29.3935 21.7979ZM29.519 21.6544L29.751 21.8445L29.8857 21.6801L29.7754 21.4986L29.519 21.6544ZM29.3164 21.5799L29.2802 21.2821L29.2801 21.2821L29.3164 21.5799ZM29.256 21.5848L29.259 21.2848L29.2584 21.2848L29.256 21.5848ZM27.9752 21.5836L27.9744 21.2836H27.9744L27.9752 21.5836ZM27.3296 20.4486V20.1486L27.329 20.1486L27.3296 20.4486ZM31.5589 21.0811L31.2589 21.0856L31.259 21.0859L31.5589 21.0811ZM31.5589 24.7199L31.8589 24.7253L31.8589 24.7247L31.5589 24.7199ZM30.9663 25.3748L30.9843 25.0753L30.9663 25.3748ZM30.4164 24.6701L30.1164 24.6704L30.1164 24.6719L30.4164 24.6701ZM30.4171 23.4466L30.1171 23.4457V23.4461L30.4171 23.4466ZM30.4171 23.4445L30.7171 23.4454V23.445L30.4171 23.4445ZM13.9457 18.6146L13.9461 18.3146H13.9457V18.6146ZM19.835 18.6069L19.8345 18.3069L19.8339 18.3069L19.835 18.6069ZM20.5335 17.9039L20.2335 17.9032V17.9039H20.5335ZM20.5335 11.8794L20.2335 11.8797V11.88L20.5335 11.8794ZM19.3551 10.7045L19.3542 11.0045H19.3551V10.7045ZM18.976 10.7032L18.9748 11.0032L18.976 10.7032ZM16.8908 10.7088L16.8861 10.4089L16.8838 10.4089L16.8908 10.7088ZM16.533 10.3651L16.8323 10.3866L16.8324 10.3845L16.533 10.3651ZM16.533 9.75316L16.2336 9.7714L16.2337 9.7726L16.533 9.75316ZM14.3734 8.52381L14.3732 8.82381L14.3734 8.52381ZM12.6453 8.52419L12.6447 8.22419L12.6453 8.52419ZM11.3397 9.83137L11.6397 9.8329V9.83137H11.3397ZM11.3397 13.343L11.6397 13.3409L11.6397 13.3403L11.3397 13.343ZM11.0092 13.6781L11.0143 13.3782L11.0124 13.3781L11.0092 13.6781ZM9.38776 13.6762L9.38882 13.9762H9.38882L9.38776 13.6762ZM8.5765 13.6781V13.3781H8.57619L8.5765 13.6781ZM7.30336 17.7827H7.00336L7.00336 17.7831L7.30336 17.7827ZM15.3683 12.6495L15.0683 12.6499L15.3683 12.6495ZM15.3686 14.4126L15.0686 14.4123L15.3686 14.4126ZM15.376 17.1107L15.076 17.1137L15.076 17.1143L15.376 17.1107ZM15.0114 17.4785L15.005 17.7784L15.005 17.7784L15.0114 17.4785ZM12.8365 17.4785L12.8316 17.1785L12.8284 17.1786L12.8365 17.4785ZM12.5027 17.1416L12.2027 17.1407V17.1416H12.5027ZM12.5027 10.0574L12.8027 10.0565L12.8027 10.0564L12.5027 10.0574ZM12.8562 9.70074L12.8619 9.40079L12.8611 9.40078L12.8562 9.70074ZM15.0319 9.70074L15.0376 10.0007L15.0376 10.0007L15.0319 9.70074ZM15.3734 10.0617L15.6734 10.0643V10.0617H15.3734ZM19.4006 13.8354L19.1006 13.8362L19.4006 13.8354ZM19.4006 15.4337L19.7006 15.4345V15.4345L19.4006 15.4337ZM19.4038 17.1201H19.7038L19.7038 17.1166L19.4038 17.1201ZM19.0622 17.4776L19.0688 17.1777L19.0678 17.1777L19.0622 17.4776ZM16.8532 17.4776L16.8566 17.7776L16.8571 17.7776L16.8532 17.4776ZM16.5288 17.1631L16.2288 17.1622V17.1631H16.5288ZM16.5288 12.1681L16.8288 12.1672L16.8288 12.167L16.5288 12.1681ZM16.8438 11.8441L16.8482 11.5441H16.8438V11.8441ZM19.0853 11.8441L19.0819 11.5441L19.0809 11.5442L19.0853 11.8441ZM19.4021 12.1595L19.7021 12.162V12.1595H19.4021ZM9.52852 14.8184L9.52674 14.5184H9.52673L9.52852 14.8184ZM10.2726 14.8185L10.2746 14.5185H10.2746L10.2726 14.8185ZM11.0331 14.816L11.04 15.1159L11.0428 15.1159L11.0331 14.816ZM11.3397 15.1073L11.6397 15.111V15.1073H11.3397ZM11.3397 17.2L11.0397 17.203L11.0397 17.2037L11.3397 17.2ZM11.0545 17.4802L11.0514 17.7802H11.0545V17.4802ZM8.74899 17.4802L8.75142 17.7802L8.75212 17.7802L8.74899 17.4802ZM8.47147 17.188L8.17147 17.1856V17.188H8.47147ZM8.47147 15.0953L8.17148 15.0978V15.0978L8.47147 15.0953ZM8.76094 14.8169L8.7533 15.1168L8.75556 15.1168L8.76094 14.8169ZM18.4153 1.40761C17.3986 1.01574 16.3343 0.848085 15.299 0.702907L15.2157 1.29709C16.2519 1.4424 17.254 1.60304 18.1995 1.96746L18.4153 1.40761ZM27.1272 11.995C26.3069 6.80563 23.2833 3.28032 18.4151 1.40754L18.1997 1.96753C22.8797 3.76791 25.7496 7.12312 26.5346 12.0887L27.1272 11.995ZM16.5186 27.0657C23.5523 25.6756 28.2528 19.1069 27.1272 11.9949L26.5346 12.0887C27.6087 18.8753 23.1265 25.1481 16.4023 26.4771L16.5186 27.0657ZM11.5701 27.0514C13.2023 27.3894 14.8855 27.3942 16.5196 27.0655L16.4013 26.4773C14.8464 26.7901 13.2449 26.7855 11.6917 26.4639L11.5701 27.0514ZM11.2567 27.179C11.3214 27.0631 11.3602 27.0454 11.3706 27.0412C11.3878 27.0343 11.4346 27.0236 11.5706 27.0515L11.6912 26.4638C11.5214 26.429 11.3313 26.4106 11.1474 26.4842C10.9568 26.5606 10.8303 26.7118 10.7328 26.8864L11.2567 27.179ZM10.2419 28.9482C10.5823 28.362 10.9241 27.7734 11.2565 27.1792L10.7329 26.8862C10.4032 27.4756 10.0638 28.0601 9.72301 28.6469L10.2419 28.9482ZM8.71845 31.6485C9.2023 30.7386 9.72041 29.8463 10.2419 28.9482L9.72301 28.6469C9.20248 29.5434 8.67868 30.4454 8.18869 31.3668L8.71845 31.6485ZM5.52359 34.293C7.05944 33.9543 8.02227 32.9598 8.71854 31.6484L8.1886 31.367C7.54427 32.5806 6.70369 33.4183 5.39439 33.707L5.52359 34.293ZM4.11412 34.3H5.45899V33.7H4.11412V34.3ZM3.95293 34.2621C3.97409 34.2694 3.99667 34.2771 4.01951 34.2847L4.20873 33.7153C4.18878 33.7087 4.16866 33.7018 4.14712 33.6944L3.95293 34.2621ZM3.98221 34.2705L3.98226 34.2705L4.11779 33.686L4.11774 33.686L3.98221 34.2705ZM3.77108 34.2056C3.82582 34.2189 3.88169 34.2378 3.95287 34.2621L4.14708 33.6944C4.08039 33.6716 3.99844 33.6434 3.91238 33.6225L3.77108 34.2056ZM1.27561 28.1105C-0.100834 30.5247 1.09454 33.4627 3.76147 34.2031L3.92199 33.625C1.63637 32.9904 0.611637 30.4865 1.79685 28.4077L1.27561 28.1105ZM2.89483 25.2808C2.35417 26.2231 1.81335 27.1656 1.2755 28.1107L1.79696 28.4075C2.33421 27.4635 2.8745 26.5218 3.41525 25.5794L2.89483 25.2808ZM4.00821 23.3379C3.63769 23.9861 3.26629 24.6334 2.89483 25.2808L3.41525 25.5794C3.78667 24.9321 4.15831 24.2843 4.52913 23.6356L4.00821 23.3379ZM3.95469 22.5672C4.06281 22.7005 4.1295 22.7833 4.17273 22.8494C4.19295 22.8802 4.20291 22.9 4.2079 22.9122C4.21025 22.918 4.21128 22.9216 4.21173 22.9234C4.21215 22.9251 4.2122 22.9258 4.21222 22.926C4.21224 22.9262 4.21231 22.9272 4.21211 22.9293C4.21191 22.9316 4.21135 22.9358 4.20977 22.9424C4.20643 22.9565 4.19915 22.979 4.18346 23.0141C4.15016 23.0887 4.09576 23.185 4.00834 23.3376L4.52901 23.6358C4.61085 23.4929 4.68303 23.367 4.73139 23.2586C4.78107 23.1473 4.82116 23.022 4.81052 22.8809C4.79983 22.739 4.74094 22.6219 4.67473 22.5207C4.61083 22.4231 4.52092 22.3128 4.42074 22.1893L3.95469 22.5672ZM3.94342 22.5533L3.95468 22.5671L4.42075 22.1893L4.40948 22.1754L3.94342 22.5533ZM1.071 11.59C0.277179 15.6622 1.34206 19.3469 3.94348 22.5533L4.40942 22.1753C1.90972 19.0942 0.903072 15.5873 1.65991 11.7048L1.071 11.59ZM10.3521 1.20656C5.28895 2.86928 2.10034 6.32209 1.07102 11.5898L1.65989 11.7049C2.64574 6.65958 5.67343 3.37454 10.5393 1.77661L10.3521 1.20656ZM12.6637 0.731259C11.9082 0.842379 11.1166 0.958093 10.353 1.20628L10.5384 1.7769C11.2459 1.54695 11.987 1.43724 12.751 1.32487L12.6637 0.731259ZM12.8423 0.704927L12.6636 0.731275L12.7511 1.32486L12.9299 1.29851L12.8423 0.704927ZM15.2571 0.7L12.8859 0.701719L12.8863 1.30172L15.2576 1.3L15.2571 0.7ZM14.0847 25.5433C7.55329 25.5483 2.59825 20.2491 2.57826 13.9823L1.97826 13.9842C1.99926 20.5658 7.20718 26.1485 14.0852 26.1433L14.0847 25.5433ZM25.549 13.9835C25.5531 20.4031 20.479 25.5357 14.0846 25.5433L14.0853 26.1433C20.8152 26.1353 26.1533 20.7297 26.149 13.9831L25.549 13.9835ZM14.0792 2.42326C20.2536 2.43583 25.544 7.38216 25.549 13.9835L26.149 13.983C26.1437 7.04162 20.5761 1.83648 14.0804 1.82326L14.0792 2.42326ZM2.57655 13.9832C2.57572 7.60674 7.74498 2.40484 14.079 2.42326L14.0807 1.82326C7.40998 1.80387 1.97568 7.27941 1.97655 13.9833L2.57655 13.9832ZM2.27826 13.6833H2.27655V14.2833H2.27826V13.6833ZM6.74733 31.518C6.33922 32.2063 5.57988 32.5907 4.76848 32.5853L4.76449 33.1853C5.76334 33.192 6.73397 32.717 7.26343 31.824L6.74733 31.518ZM8.79948 27.9744C8.12052 29.1606 7.4425 30.3451 6.7473 31.518L7.26345 31.8239C7.96135 30.6464 8.64162 29.458 9.32021 28.2725L8.79948 27.9744ZM9.68794 26.4257C9.39081 26.9413 9.09506 27.458 8.79948 27.9744L9.32021 28.2725C9.61586 27.756 9.91118 27.24 10.2078 26.7253L9.68794 26.4257ZM9.73773 26.5573C9.77081 26.5687 9.77783 26.5745 9.77273 26.571C9.76512 26.5658 9.73388 26.5417 9.71499 26.492C9.69594 26.442 9.70332 26.4025 9.70597 26.3922C9.70775 26.3852 9.70658 26.3938 9.6888 26.4242L10.207 26.7267C10.2572 26.6407 10.3476 26.4675 10.2758 26.2786C10.2047 26.092 10.0245 26.0216 9.93429 25.9904L9.73773 26.5573ZM5.47436 24.0942C6.72758 25.1795 8.17436 26.0154 9.73777 26.5573L9.93426 25.9904C8.44305 25.4735 7.06286 24.6762 5.86715 23.6407L5.47436 24.0942ZM5.60406 24.074C5.62391 24.0373 5.63307 24.0271 5.6318 24.0285C5.62898 24.0315 5.60045 24.0615 5.54459 24.0734C5.48699 24.0857 5.446 24.0691 5.43746 24.0651C5.4324 24.0627 5.443 24.0671 5.47429 24.0942L5.86722 23.6407C5.81867 23.5987 5.76021 23.5539 5.69343 23.5224C5.62317 23.4893 5.5278 23.4636 5.41971 23.4866C5.31337 23.5092 5.23825 23.5698 5.18929 23.6233C5.14188 23.675 5.10536 23.7349 5.07654 23.7881L5.60406 24.074ZM5.10648 24.9458C5.27214 24.6593 5.43928 24.3703 5.60249 24.0768L5.07811 23.7852C4.91776 24.0736 4.75316 24.3582 4.58708 24.6454L5.10648 24.9458ZM5.11055 24.9385L5.11057 24.9385L4.58299 24.6527L4.58297 24.6527L5.11055 24.9385ZM5.10656 24.9456L5.10686 24.9451L4.58666 24.6461L4.58636 24.6467L5.10656 24.9456ZM4.81784 25.4471C4.91319 25.28 5.00942 25.1136 5.10616 24.9463L4.58676 24.646C4.49017 24.813 4.39308 24.9809 4.29673 25.1497L4.81784 25.4471ZM4.16341 26.5766C4.38218 26.2017 4.60177 25.8254 4.8178 25.4472L4.29677 25.1496C4.08238 25.525 3.86421 25.8989 3.6452 26.2741L4.16341 26.5766ZM2.69917 29.1843C3.15571 28.3034 3.65735 27.4437 4.16341 26.5766L3.6452 26.2741C3.14042 27.1391 2.63108 28.0117 2.16646 28.9083L2.69917 29.1843ZM4.76677 32.5853C3.04762 32.5739 1.90303 30.7156 2.69899 29.1847L2.16664 28.9079C1.15919 30.8456 2.60529 33.171 4.76278 33.1853L4.76677 32.5853ZM4.76649 32.5853H4.76478V33.1853H4.76649V32.5853ZM30.4742 22.7815C30.5169 22.7413 30.5664 22.6945 30.6258 22.6374L30.2104 22.2045C30.1528 22.2598 30.1048 22.3051 30.0622 22.3454L30.4742 22.7815ZM30.4723 22.7834L30.4723 22.7833L30.0641 22.3436L30.064 22.3437L30.4723 22.7834ZM30.3176 22.9324C30.3624 22.8873 30.4091 22.8431 30.4741 22.7816L30.0621 22.3455C29.9986 22.4055 29.9447 22.4564 29.8919 22.5095L30.3176 22.9324ZM21.0819 32.227L30.3176 22.9324L29.8919 22.5094L20.6563 31.8041L21.0819 32.227ZM19.4146 32.2268C19.5486 32.3619 19.6765 32.4785 19.8036 32.5618C19.9334 32.6469 20.0805 32.7094 20.2483 32.7094C20.4161 32.7094 20.5632 32.6469 20.6931 32.5618C20.8202 32.4785 20.9481 32.3619 21.0821 32.2268L20.6561 31.8043C20.5297 31.9317 20.4373 32.012 20.3641 32.06C20.2938 32.1061 20.2607 32.1094 20.2483 32.1094C20.236 32.1094 20.2029 32.1061 20.1325 32.06C20.0593 32.012 19.967 31.9317 19.8405 31.8043L19.4146 32.2268ZM18.8132 31.6227C19.014 31.8242 19.2145 32.0255 19.4147 32.227L19.8404 31.8041C19.6398 31.6022 19.4389 31.4006 19.2382 31.1992L18.8132 31.6227ZM17.1302 29.9207C17.6872 30.4928 18.251 31.0586 18.8132 31.6227L19.2382 31.1992C18.6756 30.6347 18.1143 30.0713 17.5601 29.5021L17.1302 29.9207ZM17.1416 29.9231C17.157 29.9086 17.169 29.8982 17.1783 29.8909C17.1876 29.8836 17.1925 29.8807 17.1934 29.8802C17.1942 29.8797 17.1895 29.8825 17.1798 29.8854C17.1696 29.8884 17.1558 29.8909 17.1395 29.8908C17.1233 29.8906 17.1091 29.8879 17.0982 29.8844C17.0931 29.8828 17.0891 29.8811 17.0865 29.8799C17.0839 29.8787 17.0826 29.8779 17.0826 29.8779C17.0826 29.8779 17.0837 29.8785 17.0859 29.8802C17.0882 29.8819 17.0914 29.8843 17.0956 29.8879C17.1042 29.8951 17.1155 29.9056 17.13 29.9206L17.5602 29.5023C17.4755 29.4152 17.3379 29.2925 17.1447 29.2908C16.9542 29.2892 16.8143 29.4067 16.7289 29.4877L17.1416 29.9231ZM15.2169 31.7275C15.8597 31.1298 16.5033 30.5312 17.1422 29.9226L16.7283 29.4882C16.0924 30.0939 15.4515 30.69 14.8083 31.2881L15.2169 31.7275ZM15.2078 31.7356L15.2079 31.7356L14.8174 31.28L14.8174 31.2801L15.2078 31.7356ZM14.3504 32.5347C14.639 32.265 14.9279 31.9963 15.2169 31.7275L14.8083 31.2882C14.5193 31.5569 14.23 31.826 13.9408 32.0963L14.3504 32.5347ZM12.7023 32.502C12.8333 32.6338 12.9582 32.748 13.0822 32.8303C13.2091 32.9145 13.3524 32.9769 13.5167 32.9803C13.681 32.9838 13.8269 32.9274 13.9573 32.8483C14.0847 32.7711 14.214 32.6618 14.3501 32.535L13.9411 32.096C13.8125 32.2158 13.7194 32.2909 13.6461 32.3353C13.5758 32.378 13.5427 32.3808 13.5294 32.3805C13.5159 32.3802 13.4827 32.3759 13.4138 32.3303C13.3421 32.2827 13.2519 32.2038 13.128 32.0791L12.7023 32.502ZM12.098 31.8938C12.2995 32.0965 12.501 32.2991 12.7022 32.5019L13.1281 32.0792C12.9266 31.8762 12.7249 31.6734 12.5234 31.4707L12.098 31.8938ZM12.0983 31.8942L12.0985 31.8944L12.5228 31.4702L12.5226 31.4699L12.0983 31.8942ZM10.6885 30.4708C11.1566 30.9474 11.6276 31.4209 12.0977 31.8936L12.5231 31.4705C12.0528 30.9976 11.5831 30.5254 11.1166 30.0504L10.6885 30.4708ZM10.6096 29.2279C10.451 29.4041 10.371 29.6249 10.3891 29.8567C10.407 30.0851 10.5174 30.2969 10.6887 30.471L11.1164 30.0502C11.0238 29.9561 10.9921 29.871 10.9873 29.81C10.9828 29.7524 10.9997 29.6913 11.0555 29.6294L10.6096 29.2279ZM11.9119 29.2455C11.7259 29.0615 11.5009 28.9382 11.2536 28.9311C10.9996 28.9238 10.7768 29.0405 10.6087 29.2289L11.0563 29.6285C11.1298 29.5461 11.1914 29.5296 11.2363 29.5309C11.2878 29.5324 11.3762 29.5595 11.4899 29.672L11.9119 29.2455ZM13.5011 30.8493C12.982 30.301 12.4447 29.7706 11.9115 29.2451L11.4903 29.6724C12.0245 30.1988 12.5545 30.7221 13.0653 31.2618L13.5011 30.8493ZM13.5886 30.8529C13.5459 30.8936 13.5213 30.9104 13.5105 30.9163C13.5028 30.9206 13.517 30.9112 13.5452 30.9123C13.5729 30.9134 13.5854 30.9235 13.5764 30.9178C13.5649 30.9104 13.5411 30.8917 13.501 30.8493L13.0653 31.2618C13.1642 31.3662 13.3137 31.5036 13.5213 31.5118C13.7321 31.5202 13.8924 31.3922 14.0024 31.2874L13.5886 30.8529ZM16.1378 28.4767C15.2857 29.2632 14.4322 30.0509 13.5888 30.8527L14.0022 31.2876C14.8419 30.4893 15.6921 29.7046 16.5447 28.9177L16.1378 28.4767ZM16.1386 28.476L16.1385 28.4761L16.5439 28.9183L16.544 28.9183L16.1386 28.476ZM16.4346 28.2027L16.1378 28.4767L16.5448 28.9176L16.8416 28.6436L16.4346 28.2027ZM17.9169 28.2387C17.7052 28.0282 17.4694 27.8487 17.1815 27.8416C16.892 27.8344 16.6506 28.0037 16.4348 28.2026L16.8414 28.6438C17.0406 28.4602 17.1284 28.4404 17.1665 28.4414C17.2064 28.4424 17.2967 28.4683 17.494 28.6643L17.9169 28.2387ZM20.2255 30.5674C19.4617 29.786 18.6922 29.0098 17.917 28.2388L17.4939 28.6642C18.2671 29.4333 19.0346 30.2075 19.7964 30.9868L20.2255 30.5674ZM20.2661 30.5657C20.2493 30.5826 20.2356 30.595 20.2247 30.6039C20.2137 30.6129 20.207 30.6173 20.2042 30.6189C20.2015 30.6205 20.204 30.6186 20.2113 30.6164C20.219 30.614 20.2301 30.6119 20.2434 30.6118C20.2567 30.6118 20.2681 30.6139 20.2763 30.6164C20.2841 30.6188 20.2872 30.6208 20.2851 30.6196C20.2828 30.6183 20.2765 30.6143 20.266 30.6055C20.2555 30.5968 20.2422 30.5846 20.2258 30.5677L19.7961 30.9865C19.8943 31.0872 20.0427 31.2124 20.2452 31.2118C20.4458 31.2112 20.5939 31.087 20.6917 30.9886L20.2661 30.5657ZM29.1808 21.5863C26.2057 24.5755 23.234 27.5687 20.2657 30.566L20.692 30.9882C23.66 27.9913 26.6313 24.9984 29.6061 22.0095L29.1808 21.5863ZM29.2869 21.4642C29.2455 21.5148 29.2133 21.5536 29.1806 21.5864L29.6063 22.0093C29.6624 21.9528 29.7122 21.8919 29.751 21.8445L29.2869 21.4642ZM29.3526 21.8777C29.3725 21.8753 29.3776 21.8749 29.3805 21.8748C29.382 21.8747 29.3715 21.8753 29.3548 21.8714C29.3361 21.8671 29.3146 21.8582 29.2946 21.8433C29.2752 21.829 29.2656 21.815 29.2626 21.8101L29.7754 21.4986C29.7082 21.3881 29.6097 21.3149 29.4915 21.2872C29.396 21.2649 29.3051 21.2791 29.2802 21.2821L29.3526 21.8777ZM29.253 21.8847C29.2955 21.8852 29.3362 21.8797 29.3526 21.8777L29.2801 21.2821C29.2747 21.2828 29.2707 21.2833 29.2669 21.2837C29.2632 21.2841 29.2606 21.2844 29.2586 21.2846C29.2544 21.285 29.2552 21.2847 29.259 21.2848L29.253 21.8847ZM27.976 21.8836C28.403 21.8825 28.8284 21.8813 29.2536 21.8847L29.2584 21.2848C28.8295 21.2813 28.4009 21.2825 27.9744 21.2836L27.976 21.8836ZM27.3356 21.8848C27.5492 21.8848 27.7628 21.8842 27.976 21.8836L27.9744 21.2836C27.7611 21.2842 27.5482 21.2848 27.3356 21.2848V21.8848ZM26.3525 21.0184C26.3525 21.2741 26.4629 21.4995 26.65 21.6556C26.8335 21.8088 27.0762 21.8848 27.3356 21.8848V21.2848C27.1902 21.2848 27.0914 21.2425 27.0345 21.195C26.9812 21.1505 26.9525 21.0927 26.9525 21.0184H26.3525ZM27.329 20.1486C27.0691 20.1492 26.8273 20.2266 26.6452 20.3816C26.4599 20.5392 26.3525 20.7648 26.3525 21.0184H26.9525C26.9525 20.942 26.9817 20.8831 27.034 20.8385C27.0895 20.7913 27.1862 20.7489 27.3303 20.7486L27.329 20.1486ZM30.8826 20.1486H27.3296V20.7486H30.8826V20.1486ZM31.8589 21.0766C31.8548 20.8062 31.7858 20.5514 31.5875 20.3722C31.3948 20.198 31.1378 20.1486 30.8826 20.1486V20.7486C31.0757 20.7486 31.1535 20.7886 31.1851 20.8172C31.2112 20.8408 31.2562 20.9023 31.259 21.0856L31.8589 21.0766ZM31.8589 24.7247C31.8783 23.5086 31.8783 22.2925 31.8589 21.0763L31.259 21.0859C31.2783 22.2957 31.2783 23.5054 31.259 24.7151L31.8589 24.7247ZM30.9484 25.6743C31.1963 25.6891 31.4309 25.6029 31.6017 25.4216C31.7696 25.2434 31.854 24.9974 31.8589 24.7253L31.259 24.7146C31.2561 24.8721 31.209 24.9634 31.165 25.0102C31.1238 25.0539 31.066 25.0802 30.9843 25.0753L30.9484 25.6743ZM30.1164 24.6719C30.118 24.9299 30.1865 25.1708 30.3331 25.3567C30.4834 25.5473 30.7003 25.6594 30.9484 25.6743L30.9843 25.0753C30.9028 25.0704 30.846 25.0381 30.8043 24.9853C30.759 24.9278 30.7174 24.8262 30.7164 24.6682L30.1164 24.6719ZM30.1171 23.4461C30.1165 23.864 30.1159 24.2668 30.1164 24.6704L30.7164 24.6697C30.7159 24.267 30.7165 23.865 30.7171 23.447L30.1171 23.4461ZM30.1171 23.4437L30.1171 23.4457L30.7171 23.4474L30.7171 23.4454L30.1171 23.4437ZM30.1181 22.421C30.1181 22.7769 30.1176 23.1152 30.1171 23.4441L30.7171 23.445C30.7176 23.1161 30.7181 22.7774 30.7181 22.421H30.1181ZM13.9457 18.3146H8.12053V18.9146H13.9457V18.3146ZM19.8339 18.3069C17.8716 18.3144 15.909 18.3169 13.9461 18.3146L13.9454 18.9146C15.9093 18.9169 17.8728 18.9144 19.8361 18.9069L19.8339 18.3069ZM20.2335 17.9039C20.2335 18.1307 20.1877 18.2063 20.1604 18.2337C20.1335 18.2608 20.0592 18.3065 19.8345 18.3069L19.8355 18.9069C20.1146 18.9064 20.3895 18.8542 20.5859 18.6568C20.7819 18.4596 20.8335 18.1841 20.8335 17.9039H20.2335ZM20.2335 11.88C20.238 13.8883 20.238 15.8961 20.2335 17.9032L20.8335 17.9046C20.838 15.8965 20.838 13.8879 20.8335 11.8787L20.2335 11.88ZM19.3551 11.0045C19.6702 11.0045 19.8803 11.0944 20.0115 11.2251C20.1426 11.3556 20.2331 11.5648 20.2335 11.8797L20.8335 11.879C20.833 11.4488 20.7066 11.0706 20.4349 10.8C20.1633 10.5295 19.7846 10.4045 19.3551 10.4045V11.0045ZM18.9748 11.0032C19.1012 11.0037 19.2277 11.0041 19.3542 11.0045L19.3561 10.4045C19.2298 10.4041 19.1035 10.4037 18.9771 10.4032L18.9748 11.0032ZM16.8955 11.0088C17.5872 10.9979 18.2793 11.0006 18.9748 11.0032L18.9771 10.4032C18.2825 10.4006 17.5846 10.3979 16.8861 10.4089L16.8955 11.0088ZM16.2338 10.3435C16.2216 10.5127 16.2437 10.7202 16.4089 10.8662C16.5594 10.9993 16.7567 11.012 16.8978 11.0088L16.8838 10.4089C16.859 10.4095 16.8388 10.409 16.8225 10.4078C16.8061 10.4066 16.7954 10.4048 16.7891 10.4033C16.7763 10.4005 16.7883 10.4008 16.8062 10.4166C16.815 10.4244 16.8221 10.4332 16.8272 10.4418C16.8321 10.4501 16.8336 10.4555 16.8337 10.4556C16.8337 10.4556 16.8336 10.4553 16.8334 10.4546C16.8333 10.4539 16.8331 10.4528 16.8329 10.4514C16.8324 10.4485 16.8319 10.4443 16.8315 10.4384C16.8307 10.4266 16.8306 10.4097 16.8322 10.3866L16.2338 10.3435ZM16.2337 9.7726C16.246 9.96341 16.246 10.1548 16.2337 10.3456L16.8324 10.3845C16.8465 10.1678 16.8465 9.95042 16.8324 9.73372L16.2337 9.7726ZM15.2377 8.82419C15.5932 8.82419 15.8205 8.91486 15.964 9.05126C16.108 9.18812 16.2117 9.41282 16.2336 9.7714L16.8325 9.73492C16.8048 9.28049 16.666 8.89071 16.3773 8.61634C16.0881 8.3415 15.6924 8.22419 15.2377 8.22419V8.82419ZM14.3732 8.82381C14.6613 8.824 14.9495 8.82419 15.2377 8.82419V8.22419C14.9497 8.22419 14.6617 8.224 14.3735 8.22381L14.3732 8.82381ZM12.6459 8.82419C13.2209 8.82304 13.7968 8.82343 14.3732 8.82381L14.3735 8.22381C13.7973 8.22343 13.2207 8.22304 12.6447 8.22419L12.6459 8.82419ZM11.6397 9.83137C11.6397 9.44712 11.7376 9.20964 11.8809 9.06633C12.0243 8.92292 12.262 8.82495 12.6459 8.82419L12.6447 8.22419C12.1653 8.22514 11.7502 8.34848 11.4566 8.64209C11.1629 8.93579 11.0397 9.35104 11.0397 9.83137H11.6397ZM11.6397 13.3403C11.6294 12.1721 11.6337 11.0034 11.6397 9.8329L11.0397 9.82984C11.0337 11.0004 11.0294 12.1728 11.0397 13.3456L11.6397 13.3403ZM11.0042 13.9781C11.1511 13.9806 11.3462 13.9613 11.4881 13.8129C11.6256 13.6689 11.6406 13.4772 11.6397 13.3409L11.0397 13.345C11.0399 13.3688 11.0391 13.3873 11.0377 13.4017C11.0364 13.4161 11.0347 13.4244 11.0338 13.4281C11.0329 13.4318 11.0331 13.4294 11.0362 13.4233C11.0395 13.4168 11.0453 13.4077 11.0542 13.3984C11.0632 13.389 11.0726 13.3822 11.0805 13.3778C11.0879 13.3736 11.092 13.3727 11.0903 13.3732C11.0884 13.3737 11.0817 13.3753 11.0685 13.3765C11.0554 13.3778 11.0376 13.3786 11.0143 13.3782L11.0042 13.9781ZM9.38882 13.9762C9.92987 13.9743 10.4683 13.9724 11.006 13.9781L11.0124 13.3781C10.4697 13.3724 9.92704 13.3743 9.3867 13.3762L9.38882 13.9762ZM8.5765 13.9781C8.84755 13.9781 9.11851 13.9772 9.38882 13.9762L9.3867 13.3762C9.11621 13.3772 8.84631 13.3781 8.5765 13.3781V13.9781ZM7.60336 14.9466C7.60336 14.5869 7.70048 14.3571 7.84237 14.2161C7.98464 14.0748 8.21642 13.9785 8.57682 13.9781L8.57619 13.3781C8.11259 13.3786 7.7078 13.5041 7.41949 13.7905C7.13081 14.0773 7.00336 14.4813 7.00336 14.9466H7.60336ZM7.60336 17.7827V14.9466H7.00336V17.7827H7.60336ZM8.12053 18.3146C7.81658 18.3146 7.72469 18.2633 7.69065 18.2286C7.6548 18.1921 7.60377 18.0941 7.60336 17.7823L7.00336 17.7831C7.0038 18.1116 7.04713 18.4296 7.26253 18.649C7.47974 18.8702 7.79601 18.9146 8.12053 18.9146V18.3146ZM15.6692 13.6034C15.6692 13.2852 15.6687 12.967 15.6683 12.6491L15.0683 12.6499C15.0687 12.9679 15.0692 13.2856 15.0692 13.6034H15.6692ZM15.6686 14.4129C15.6689 14.1431 15.6692 13.8732 15.6692 13.6034H15.0692C15.0692 13.8728 15.0689 14.1425 15.0686 14.4123L15.6686 14.4129ZM15.676 17.1076C15.6668 16.2117 15.6677 15.313 15.6686 14.4129L15.0686 14.4123C15.0677 15.3118 15.0668 16.2139 15.076 17.1137L15.676 17.1076ZM15.005 17.7784C15.16 17.7817 15.366 17.765 15.5154 17.6124C15.6622 17.4624 15.6778 17.258 15.676 17.107L15.076 17.1143C15.0767 17.1721 15.0723 17.2024 15.069 17.2157C15.0664 17.2262 15.0682 17.2115 15.0866 17.1927C15.1054 17.1735 15.1214 17.1706 15.1139 17.1725C15.1029 17.1753 15.0746 17.1798 15.0178 17.1786L15.005 17.7784ZM12.8415 17.7784C13.5642 17.7664 14.2868 17.7631 15.005 17.7784L15.0178 17.1786C14.2895 17.163 13.5587 17.1665 12.8316 17.1785L12.8415 17.7784ZM12.2027 17.1416C12.2027 17.2816 12.2215 17.4715 12.3586 17.6141C12.5008 17.7619 12.6945 17.7825 12.8447 17.7784L12.8284 17.1786C12.8061 17.1792 12.7893 17.1786 12.7769 17.1775C12.7646 17.1763 12.7584 17.1748 12.7568 17.1744C12.7554 17.174 12.7594 17.175 12.7665 17.179C12.774 17.1831 12.7827 17.1895 12.791 17.1981C12.8087 17.2164 12.8113 17.231 12.8094 17.2238C12.8083 17.2199 12.8065 17.2115 12.8051 17.1973C12.8036 17.1831 12.8027 17.1649 12.8027 17.1416H12.2027ZM12.2027 10.0583C12.2095 12.4194 12.2095 14.7802 12.2027 17.1407L12.8027 17.1425C12.8095 14.7808 12.8095 12.4188 12.8027 10.0565L12.2027 10.0583ZM12.8611 9.40078C12.7061 9.39825 12.5102 9.42108 12.3657 9.5687C12.224 9.71357 12.2022 9.90775 12.2027 10.0584L12.8027 10.0564C12.8025 10.0054 12.8071 9.97905 12.81 9.96813C12.8123 9.95973 12.8104 9.97219 12.7946 9.98833C12.7784 10.0049 12.7645 10.0081 12.7696 10.0067C12.7777 10.0044 12.8017 9.99989 12.8513 10.0007L12.8611 9.40078ZM15.0262 9.40079C14.3048 9.41447 13.5833 9.41447 12.8619 9.40079L12.8505 10.0007C13.5795 10.0145 14.3085 10.0145 15.0376 10.0007L15.0262 9.40079ZM15.6734 10.0617C15.6734 9.92367 15.6587 9.7316 15.5285 9.58408C15.3877 9.42462 15.1883 9.39768 15.0261 9.40079L15.0376 10.0007C15.087 9.99973 15.108 10.0047 15.1121 10.0059C15.1132 10.0063 15.1089 10.0051 15.1017 10.0007C15.0942 9.99606 15.086 9.98946 15.0786 9.98111C15.0634 9.96389 15.063 9.95241 15.066 9.96515C15.0695 9.97969 15.0734 10.0089 15.0734 10.0617H15.6734ZM15.6683 12.6491C15.6671 11.786 15.666 10.9248 15.6734 10.0643L15.0735 10.0591C15.0659 10.9231 15.0671 11.7873 15.0683 12.6499L15.6683 12.6491ZM19.7021 14.6733C19.7021 14.3936 19.7013 14.1138 19.7006 13.8346L19.1006 13.8362C19.1013 14.1156 19.1021 14.3945 19.1021 14.6733H19.7021ZM19.7006 15.4345C19.7013 15.1812 19.7021 14.9273 19.7021 14.6733H19.1021C19.1021 14.9263 19.1013 15.1793 19.1006 15.4328L19.7006 15.4345ZM19.7038 17.1166C19.6973 16.558 19.699 15.9977 19.7006 15.4345L19.1006 15.4328C19.099 15.9952 19.0973 16.5598 19.1038 17.1236L19.7038 17.1166ZM19.0557 17.7776C19.2166 17.7811 19.4193 17.7572 19.5612 17.5961C19.692 17.4477 19.7038 17.2535 19.7038 17.1201H19.1038C19.1038 17.1743 19.1 17.2039 19.0966 17.2187C19.0937 17.2316 19.0943 17.2184 19.111 17.1995C19.1192 17.1903 19.1282 17.1831 19.1364 17.1781C19.1442 17.1734 19.1489 17.1722 19.1476 17.1726C19.143 17.1739 19.1208 17.1788 19.0688 17.1777L19.0557 17.7776ZM16.8571 17.7776C17.592 17.7682 18.3252 17.7639 19.0566 17.7776L19.0678 17.1777C18.3271 17.1638 17.5866 17.1682 16.8494 17.1777L16.8571 17.7776ZM16.2288 17.1631C16.2288 17.3088 16.2545 17.4945 16.3989 17.63C16.5394 17.7618 16.7222 17.7791 16.8566 17.7776L16.8499 17.1776C16.8292 17.1779 16.8132 17.1772 16.8011 17.176C16.789 17.1749 16.7823 17.1734 16.7798 17.1728C16.7774 17.1722 16.7802 17.1726 16.7861 17.1757C16.7925 17.179 16.8009 17.1844 16.8095 17.1925C16.8182 17.2007 16.8247 17.2092 16.829 17.2166C16.8332 17.2237 16.8344 17.2279 16.8341 17.2271C16.8339 17.2262 16.8324 17.221 16.8311 17.2099C16.8298 17.1989 16.8288 17.1836 16.8288 17.1631H16.2288ZM16.2288 12.1691C16.2339 13.8334 16.2339 15.4978 16.2288 17.1622L16.8288 17.164C16.8339 15.4984 16.8339 13.8328 16.8288 12.1672L16.2288 12.1691ZM16.8438 11.5441C16.6981 11.5441 16.5127 11.5698 16.3772 11.7142C16.246 11.854 16.2283 12.0361 16.2288 12.1692L16.8288 12.167C16.8287 12.1461 16.8295 12.13 16.8307 12.1177C16.832 12.1053 16.8334 12.0985 16.8342 12.0957C16.8348 12.0931 16.8344 12.0957 16.8314 12.1016C16.8282 12.1077 16.8229 12.1161 16.8148 12.1247C16.8066 12.1334 16.798 12.1399 16.7906 12.1443C16.7834 12.1485 16.7791 12.1497 16.7798 12.1495C16.7807 12.1492 16.7859 12.1478 16.7969 12.1465C16.808 12.1451 16.8233 12.1441 16.8438 12.1441V11.5441ZM19.0809 11.5442C18.337 11.555 17.5927 11.555 16.8482 11.5442L16.8395 12.1441C17.5898 12.155 18.3399 12.155 19.0897 12.1441L19.0809 11.5442ZM19.7021 12.1595C19.7021 12.0194 19.6805 11.8337 19.5403 11.6965C19.4007 11.56 19.216 11.5427 19.0819 11.5441L19.0886 12.1441C19.1093 12.1439 19.1249 12.1446 19.1365 12.1457C19.1482 12.1468 19.1541 12.1482 19.1558 12.1486C19.1572 12.149 19.1534 12.1482 19.1463 12.1444C19.1389 12.1405 19.1297 12.1343 19.1206 12.1254C19.1115 12.1164 19.1051 12.1073 19.1009 12.0999C19.097 12.0929 19.0961 12.089 19.0965 12.0905C19.097 12.0922 19.0985 12.0982 19.0998 12.1102C19.1011 12.1221 19.1021 12.1382 19.1021 12.1595H19.7021ZM19.7006 13.8346C19.699 13.2757 19.6975 12.7187 19.7021 12.162L19.1021 12.1571C19.0975 12.7176 19.099 13.2779 19.1006 13.8362L19.7006 13.8346ZM9.91284 14.5169C9.78368 14.5169 9.65467 14.5176 9.52674 14.5184L9.53031 15.1184C9.65855 15.1176 9.78577 15.1169 9.91284 15.1169V14.5169ZM10.2746 14.5185C10.1548 14.5177 10.0339 14.5169 9.91284 14.5169V15.1169C10.0316 15.1169 10.1505 15.1177 10.2706 15.1185L10.2746 14.5185ZM11.0262 14.5161C10.7776 14.5218 10.5287 14.5202 10.2746 14.5185L10.2706 15.1185C10.5232 15.1201 10.781 15.1219 11.04 15.1159L11.0262 14.5161ZM11.6397 15.1073C11.6397 14.9654 11.6139 14.781 11.4673 14.6493C11.3265 14.5227 11.1466 14.5122 11.0235 14.5162L11.0428 15.1159C11.0616 15.1152 11.076 15.1156 11.0867 15.1163C11.0974 15.1171 11.1028 15.1182 11.1041 15.1185C11.1053 15.1187 11.1013 15.1179 11.094 15.1144C11.0863 15.1107 11.0764 15.1047 11.0662 15.0955C11.056 15.0864 11.0482 15.0765 11.0428 15.0675C11.0376 15.0589 11.0356 15.053 11.0354 15.0522C11.0352 15.0515 11.0364 15.0552 11.0375 15.0647C11.0387 15.0743 11.0397 15.0882 11.0397 15.1073H11.6397ZM11.6397 17.1971C11.6328 16.5015 11.6312 15.806 11.6397 15.111L11.0397 15.1037C11.0311 15.8044 11.0329 16.5046 11.0397 17.203L11.6397 17.1971ZM11.0545 17.7802C11.175 17.7802 11.3471 17.7631 11.4802 17.6376C11.6184 17.5071 11.6413 17.3306 11.6397 17.1964L11.0397 17.2037C11.0399 17.2202 11.0392 17.2319 11.0383 17.2396C11.0375 17.2472 11.0367 17.2494 11.0372 17.2476C11.0378 17.2456 11.04 17.2391 11.0452 17.23C11.0507 17.2207 11.0584 17.2106 11.0683 17.2012C11.0782 17.1919 11.088 17.1855 11.0958 17.1814C11.1034 17.1775 11.1079 17.1763 11.1077 17.1763C11.1073 17.1764 11.103 17.1775 11.0937 17.1785C11.0845 17.1795 11.0717 17.1802 11.0545 17.1802V17.7802ZM8.75212 17.7802C9.51796 17.7722 10.2844 17.7722 11.0514 17.7802L11.0576 17.1802C10.2865 17.1722 9.51587 17.1722 8.74586 17.1802L8.75212 17.7802ZM8.17147 17.188C8.17147 17.3059 8.18727 17.475 8.3061 17.609C8.4334 17.7524 8.60978 17.7813 8.75142 17.7802L8.74656 17.1802C8.73083 17.1803 8.72013 17.1795 8.71353 17.1787C8.70695 17.1779 8.70576 17.1772 8.70847 17.1781C8.7114 17.179 8.7184 17.1817 8.72751 17.1874C8.73687 17.1933 8.74638 17.2011 8.7549 17.2107C8.76331 17.2202 8.7688 17.2292 8.7721 17.2359C8.77526 17.2422 8.77599 17.2456 8.77565 17.2443C8.77529 17.2429 8.77415 17.2378 8.77317 17.228C8.77218 17.2183 8.77147 17.2052 8.77147 17.188H8.17147ZM8.17148 15.0978C8.17716 15.794 8.17716 16.4899 8.17148 17.1856L8.77146 17.1905C8.77717 16.4915 8.77717 15.7923 8.77146 15.0929L8.17148 15.0978ZM8.76858 14.517C8.6426 14.5137 8.46993 14.5305 8.3352 14.656C8.19658 14.7851 8.17037 14.9607 8.17148 15.0978L8.77146 15.0929C8.77134 15.0771 8.7721 15.066 8.77297 15.0588C8.77384 15.0516 8.77466 15.0496 8.77411 15.0513C8.77351 15.0533 8.77138 15.0594 8.76628 15.0679C8.76103 15.0767 8.75369 15.0862 8.74416 15.095C8.73468 15.1039 8.72525 15.11 8.71749 15.114C8.71001 15.1179 8.70527 15.1191 8.70502 15.1192C8.70491 15.1192 8.70847 15.1183 8.71689 15.1176C8.72529 15.1168 8.73719 15.1164 8.7533 15.1168L8.76858 14.517ZM9.52673 14.5184C9.27006 14.5199 9.0177 14.5214 8.76632 14.5169L8.75556 15.1168C9.01531 15.1215 9.27485 15.1199 9.53031 15.1184L9.52673 14.5184Z" fill="#8C8A8A" mask="url(#path-1-outside-1_1300_756)"/>
</svg>