<svg xmlns="http://www.w3.org/2000/svg" width="48" height="48" viewBox="0 0 48 48" fill="none">
  <path opacity="0.9" d="M34.9089 6.60003C35.0606 6.60003 35.2089 6.64502 35.335 6.7293C35.4611 6.81357 35.5594 6.93336 35.6175 7.07351C35.6755 7.21367 35.6907 7.36788 35.6611 7.51667C35.6315 7.66545 35.5585 7.80212 35.4512 7.90938C35.3439 8.01665 35.2073 8.0897 35.0585 8.11929C34.9097 8.14889 34.7555 8.1337 34.6153 8.07565C34.4752 8.0176 34.3554 7.91929 34.2711 7.79315C34.1868 7.66702 34.1419 7.51873 34.1419 7.36703C34.1409 7.26605 34.1601 7.16589 34.1983 7.07241C34.2366 6.97893 34.293 6.89401 34.3644 6.8226C34.4358 6.75119 34.5208 6.69473 34.6142 6.65651C34.7077 6.6183 34.8079 6.5991 34.9089 6.60003ZM37.9769 6.60003C38.1286 6.60003 38.2769 6.64502 38.403 6.7293C38.5291 6.81357 38.6274 6.93336 38.6855 7.07351C38.7435 7.21367 38.7587 7.36788 38.7291 7.51667C38.6995 7.66545 38.6265 7.80212 38.5192 7.90938C38.4119 8.01665 38.2753 8.0897 38.1265 8.11929C37.9777 8.14889 37.8235 8.1337 37.6833 8.07565C37.5432 8.0176 37.4234 7.91929 37.3391 7.79315C37.2548 7.66702 37.2099 7.51873 37.2099 7.36703C37.2089 7.26605 37.2281 7.16589 37.2663 7.07241C37.3046 6.97893 37.361 6.89401 37.4324 6.8226C37.5038 6.75119 37.5888 6.69473 37.6822 6.65651C37.7757 6.6183 37.8759 6.5991 37.9769 6.60003ZM41.0449 6.60003C41.1966 6.60003 41.3449 6.64502 41.471 6.7293C41.5971 6.81357 41.6954 6.93336 41.7535 7.07351C41.8115 7.21367 41.8267 7.36788 41.7971 7.51667C41.7675 7.66545 41.6945 7.80212 41.5872 7.90938C41.4799 8.01665 41.3433 8.0897 41.1945 8.11929C41.0457 8.14889 40.8915 8.1337 40.7513 8.07565C40.6112 8.0176 40.4914 7.91929 40.4071 7.79315C40.3228 7.66702 40.2779 7.51873 40.2779 7.36703C40.2769 7.26605 40.2961 7.16589 40.3343 7.07241C40.3726 6.97893 40.429 6.89401 40.5004 6.8226C40.5718 6.75119 40.6568 6.69473 40.7502 6.65651C40.8437 6.6183 40.9439 6.5991 41.0449 6.60003ZM13.4299 8.13703H7.29386C7.09044 8.13703 6.89535 8.05622 6.75151 7.91238C6.60767 7.76854 6.52686 7.57345 6.52686 7.37003C6.52686 7.16661 6.60767 6.97152 6.75151 6.82768C6.89535 6.68384 7.09044 6.60303 7.29386 6.60303H13.4309C13.6343 6.60303 13.8294 6.68384 13.9732 6.82768C14.1171 6.97152 14.1979 7.16661 14.1979 7.37003C14.1979 7.57345 14.1171 7.76854 13.9732 7.91238C13.8294 8.05622 13.6343 8.13703 13.4309 8.13703H13.4299ZM3.45786 11.205H44.8809V3.53403H3.45786V11.205ZM41.0449 17.342H7.29386C7.09044 17.342 6.89535 17.2612 6.75151 17.1174C6.60767 16.9735 6.52686 16.7785 6.52686 16.575C6.52686 16.3716 6.60767 16.1765 6.75151 16.0327C6.89535 15.8888 7.09044 15.808 7.29386 15.808H41.0449C41.2483 15.808 41.4434 15.8888 41.5872 16.0327C41.7311 16.1765 41.8119 16.3716 41.8119 16.575C41.8119 16.7785 41.7311 16.9735 41.5872 17.1174C41.4434 17.2612 41.2483 17.342 41.0449 17.342ZM2.69086 17.342C2.84256 17.342 2.99085 17.387 3.11698 17.4713C3.24312 17.5556 3.34142 17.6754 3.39948 17.8155C3.45753 17.9557 3.47272 18.1099 3.44312 18.2587C3.41353 18.4074 3.34048 18.5441 3.23321 18.6514C3.12594 18.7586 2.98928 18.8317 2.84049 18.8613C2.69171 18.8909 2.53749 18.8757 2.39734 18.8176C2.25719 18.7596 2.1374 18.6613 2.05312 18.5352C1.96884 18.409 1.92386 18.2607 1.92386 18.109C1.92293 18.008 1.94213 17.9079 1.98034 17.8144C2.01856 17.7209 2.07502 17.636 2.14643 17.5646C2.21784 17.4932 2.30276 17.4367 2.39624 17.3985C2.48972 17.3603 2.58988 17.3411 2.69086 17.342ZM36.4429 21.942H10.3619C10.1584 21.942 9.96335 21.8612 9.81951 21.7174C9.67567 21.5735 9.59486 21.3785 9.59486 21.175C9.59486 20.9716 9.67567 20.7765 9.81951 20.6327C9.96335 20.4888 10.1584 20.408 10.3619 20.408H36.4429C36.6463 20.408 36.8414 20.4888 36.9852 20.6327C37.1291 20.7765 37.2099 20.9716 37.2099 21.175C37.2099 21.3785 37.1291 21.5735 36.9852 21.7174C36.8414 21.8612 36.6463 21.942 36.4429 21.942ZM16.3299 29.262H17.4239V28.173L17.1019 27.851L16.0079 28.94L16.3299 29.262ZM46.4149 39.587C46.4158 39.688 46.3966 39.7882 46.3584 39.8817C46.3202 39.9751 46.2637 40.0601 46.1923 40.1315C46.1209 40.2029 46.036 40.2593 45.9425 40.2976C45.849 40.3358 45.7488 40.355 45.6479 40.354H34.9089C34.7054 40.354 34.5104 40.2732 34.3665 40.1294C34.2227 39.9855 34.1419 39.7905 34.1419 39.587C34.1419 39.3836 34.2227 39.1885 34.3665 39.0447C34.5104 38.9008 34.7054 38.82 34.9089 38.82H44.8809V12.739H3.45786V15.039C3.45786 15.2425 3.37705 15.4375 3.23321 15.5814C3.08937 15.7252 2.89428 15.806 2.69086 15.806C2.48744 15.806 2.29235 15.7252 2.14851 15.5814C2.00467 15.4375 1.92386 15.2425 1.92386 15.039V2.76703C1.92293 2.66605 1.94213 2.56589 1.98034 2.47241C2.01856 2.37893 2.07502 2.29401 2.14643 2.2226C2.21784 2.15119 2.30276 2.09473 2.39624 2.05651C2.48972 2.0183 2.58988 1.9991 2.69086 2.00003H45.6479C45.7488 1.9991 45.849 2.0183 45.9425 2.05651C46.036 2.09473 46.1209 2.15119 46.1923 2.2226C46.2637 2.29401 46.3202 2.37893 46.3584 2.47241C46.3966 2.56589 46.4158 2.66605 46.4149 2.76703V39.587ZM10.3619 40.354H2.69086C2.58988 40.355 2.48972 40.3358 2.39624 40.2976C2.30276 40.2593 2.21784 40.2029 2.14643 40.1315C2.07502 40.0601 2.01856 39.9751 1.98034 39.8817C1.94213 39.7882 1.92293 39.688 1.92386 39.587V21.177C1.92386 20.9736 2.00467 20.7785 2.14851 20.6347C2.29235 20.4908 2.48744 20.41 2.69086 20.41C2.89428 20.41 3.08937 20.4908 3.23321 20.6347C3.37705 20.7785 3.45786 20.9736 3.45786 21.177V38.82H10.3579C10.5613 38.82 10.7564 38.9008 10.9002 39.0447C11.0441 39.1885 11.1249 39.3836 11.1249 39.587C11.1249 39.7905 11.0441 39.9855 10.9002 40.1294C10.7564 40.2732 10.5613 40.354 10.3579 40.354H10.3619ZM27.9439 40.876L31.1959 44.128L32.2849 43.039L29.0329 39.787L27.9439 40.876ZM17.9869 44.313C18.5763 44.3991 19.1778 44.3454 19.7427 44.1563C20.3076 43.9671 20.8201 43.6478 21.2389 43.224C21.7161 42.7469 22.0597 42.1528 22.2352 41.5012C22.4107 40.8496 22.4119 40.1633 22.2389 39.511C22.2012 39.3818 22.2 39.2447 22.2353 39.1149C22.2706 38.985 22.341 38.8674 22.4389 38.775L26.9389 34.275C27.0339 34.1811 27.1516 34.1133 27.2806 34.0782C27.4095 34.0432 27.5453 34.0421 27.6749 34.075C28.2875 34.2368 28.9306 34.2447 29.547 34.0978C30.1633 33.9509 30.7338 33.6539 31.2076 33.2333C31.6815 32.8126 32.0439 32.2813 32.2627 31.6866C32.4816 31.092 32.55 30.4525 32.4619 29.825L30.2829 31.988C30.212 32.0608 30.1274 32.1186 30.0339 32.158C29.9403 32.1975 29.8399 32.2178 29.7384 32.2178C29.6369 32.2178 29.5364 32.1975 29.4429 32.158C29.3493 32.1186 29.2647 32.0608 29.1939 31.988L27.0239 29.83C26.8837 29.6834 26.8055 29.4884 26.8055 29.2855C26.8055 29.0827 26.8837 28.8877 27.0239 28.741L29.1869 26.578C28.5582 26.4902 27.9176 26.5592 27.3221 26.779C26.7267 26.9988 26.1948 27.3625 25.774 27.8378C25.3533 28.313 25.0566 28.885 24.9105 29.5027C24.7645 30.1204 24.7735 30.7647 24.9369 31.378C24.9745 31.5072 24.9757 31.6443 24.9405 31.7742C24.9052 31.904 24.8347 32.0217 24.7369 32.114L20.2369 36.614C20.1418 36.708 20.0241 36.7758 19.8952 36.8108C19.7662 36.8459 19.6304 36.847 19.5009 36.814C18.8875 36.6507 18.2432 36.6416 17.6255 36.7877C17.0078 36.9338 16.4358 37.2304 15.9606 37.6512C15.4854 38.072 15.1216 38.6038 14.9018 39.1993C14.682 39.7948 14.613 40.4354 14.7009 41.064L16.3269 39.438C16.4735 39.2979 16.6685 39.2197 16.8714 39.2197C17.0742 39.2197 17.2692 39.2979 17.4159 39.438L19.5819 41.6C19.6546 41.6708 19.7124 41.7555 19.7519 41.849C19.7913 41.9426 19.8117 42.043 19.8117 42.1445C19.8117 42.246 19.7913 42.3465 19.7519 42.44C19.7124 42.5336 19.6546 42.6182 19.5819 42.689L17.9559 44.315L17.9869 44.313ZM26.8549 39.787L25.2239 38.16L23.8129 39.571C23.9828 40.5432 23.8821 41.5433 23.5217 42.462C23.1613 43.3807 22.555 44.1825 21.7694 44.7797C20.9838 45.3769 20.049 45.7465 19.0673 45.848C18.0857 45.9494 17.0951 45.7789 16.2039 45.355C16.0921 45.3015 15.9947 45.222 15.9199 45.1232C15.8451 45.0244 15.795 44.9091 15.7739 44.787C15.7511 44.6655 15.7589 44.5403 15.7964 44.4225C15.8339 44.3047 15.9 44.198 15.9889 44.112L17.9679 42.133L16.8789 41.044L14.8999 43.023C14.8139 43.1119 14.7072 43.178 14.5894 43.2155C14.4716 43.253 14.3464 43.2608 14.2249 43.238C14.1028 43.2169 13.9875 43.1668 13.8887 43.092C13.7899 43.0172 13.7104 42.9198 13.6569 42.808C13.2308 41.9177 13.0587 40.9272 13.1594 39.9453C13.2602 38.9635 13.6299 38.0285 14.228 37.2433C14.826 36.4581 15.6291 35.8532 16.5489 35.4952C17.4686 35.1371 18.4694 35.0398 19.4409 35.214L20.8559 33.8L17.8179 30.778H15.9619C15.8612 30.7793 15.7615 30.7596 15.669 30.7199C15.5765 30.6803 15.4933 30.6218 15.4249 30.548L14.3359 29.459C14.1926 29.3165 14.1102 29.124 14.1059 28.922C14.1045 28.8214 14.1243 28.7217 14.164 28.6292C14.2036 28.5367 14.2621 28.4535 14.3359 28.385L16.4989 26.222C16.5697 26.1493 16.6543 26.0915 16.7479 26.052C16.8414 26.0126 16.9419 25.9922 17.0434 25.9922C17.1449 25.9922 17.2453 26.0126 17.3389 26.052C17.4324 26.0915 17.517 26.1493 17.5879 26.222L18.6769 27.311C18.8201 27.4535 18.9025 27.646 18.9069 27.848V29.704L21.9449 32.726L23.3559 31.315C23.1817 30.3435 23.279 29.3428 23.637 28.4231C23.9951 27.5033 24.6 26.7002 25.3852 26.1021C26.1703 25.5041 27.1053 25.1344 28.0871 25.0336C29.069 24.9328 30.0596 25.105 30.9499 25.531C31.0616 25.5846 31.159 25.664 31.2338 25.7628C31.3086 25.8617 31.3587 25.9769 31.3799 26.099C31.4026 26.2206 31.3949 26.3458 31.3573 26.4636C31.3198 26.5814 31.2537 26.688 31.1649 26.774L28.6339 29.308L29.7239 30.4L32.2549 27.869C32.3408 27.7802 32.4475 27.7141 32.5653 27.6766C32.6831 27.639 32.8083 27.6313 32.9299 27.654C33.052 27.6752 33.1672 27.7253 33.266 27.8001C33.3649 27.8749 33.4443 27.9723 33.4979 28.084C33.9239 28.9743 34.0961 29.9649 33.9953 30.9467C33.8945 31.9286 33.5248 32.8636 32.9267 33.6487C32.3287 34.4339 31.5256 35.0388 30.6058 35.3969C29.6861 35.7549 28.6854 35.8522 27.7139 35.678L26.3029 37.089L27.9239 38.713L29.5499 37.087C29.6214 37.0155 29.7063 36.9588 29.7997 36.9201C29.8931 36.8814 29.9932 36.8615 30.0944 36.8615C30.1955 36.8615 30.2956 36.8814 30.389 36.9201C30.4825 36.9588 30.5674 37.0155 30.6389 37.087C30.7104 37.1585 30.7671 37.2434 30.8058 37.3369C30.8445 37.4303 30.8644 37.5304 30.8644 37.6315C30.8644 37.7327 30.8445 37.8328 30.8058 37.9262C30.7671 38.0196 30.7104 38.1045 30.6389 38.176L30.1019 38.713L33.9019 42.513C34.042 42.6597 34.1202 42.8547 34.1202 43.0575C34.1202 43.2604 34.042 43.4554 33.9019 43.602L31.7479 45.77C31.606 45.9142 31.4131 45.9968 31.2109 46C31.1105 45.9999 31.0111 45.9795 30.9188 45.9399C30.8266 45.9004 30.7432 45.8426 30.6739 45.77L26.8739 41.981L26.3369 42.518C26.195 42.6622 26.0021 42.7448 25.7999 42.748C25.6995 42.7479 25.6001 42.7275 25.5078 42.6879C25.4156 42.6484 25.3322 42.5906 25.2629 42.518C25.1227 42.3714 25.0445 42.1764 25.0445 41.9735C25.0445 41.7707 25.1227 41.5757 25.2629 41.429L26.8849 39.8L26.8549 39.787Z" fill="white"/>
</svg>