<svg xmlns="http://www.w3.org/2000/svg" width="48" height="49" viewBox="0 0 48 49" fill="none">
  <g opacity="0.9">
    <path d="M42.873 26.0029V10.9899C43.8889 10.8425 44.841 10.4063 45.616 9.73318C46.391 9.06009 46.9563 8.17847 47.2445 7.19327C47.5328 6.20807 47.5318 5.16079 47.2418 4.17611C46.9518 3.19143 46.3849 2.31083 45.6087 1.63915C44.8324 0.967467 43.8795 0.532994 42.8634 0.387454C41.8473 0.241914 40.8107 0.391438 39.8771 0.818226C38.9436 1.24501 38.1523 1.93109 37.5975 2.79477C37.0428 3.65845 36.7479 4.66335 36.748 5.68985H0V36.3159H23.007C23.1325 38.3506 23.7641 40.3219 24.8445 42.0507C25.925 43.7794 27.4201 45.211 29.1941 46.2155C30.9682 47.2199 32.9649 47.7654 35.0033 47.8025C37.0416 47.8395 39.0569 47.367 40.8662 46.4277C42.6756 45.4884 44.2217 44.1121 45.3643 42.4238C46.5069 40.7354 47.2098 38.7884 47.4091 36.7595C47.6085 34.7307 47.298 32.6841 46.5058 30.8057C45.7137 28.9272 44.465 27.2763 42.873 26.0029ZM42.108 1.86385C42.8651 1.86385 43.6052 2.08836 44.2347 2.50899C44.8642 2.92961 45.3549 3.52747 45.6446 4.22694C45.9343 4.92642 46.0102 5.6961 45.8624 6.43866C45.7147 7.18122 45.3502 7.8633 44.8148 8.39866C44.2794 8.93401 43.5974 9.2986 42.8548 9.4463C42.1122 9.594 41.3426 9.5182 40.6431 9.22846C39.9436 8.93873 39.3458 8.44809 38.9251 7.81858C38.5045 7.18906 38.28 6.44896 38.28 5.69185C38.2811 4.67693 38.6847 3.70388 39.4024 2.98622C40.12 2.26856 41.0931 1.86491 42.108 1.86385ZM1.531 7.22285H36.974C37.156 7.82607 37.4431 8.39242 37.822 8.89585L33.14 13.5779C32.8341 13.4263 32.4974 13.3475 32.156 13.3475C31.8146 13.3475 31.4779 13.4263 31.172 13.5779L29.628 12.0329C29.7776 11.7259 29.8562 11.3893 29.858 11.0479C29.8279 10.459 29.5728 9.90411 29.1453 9.49794C28.7178 9.09177 28.1507 8.86529 27.561 8.86529C26.9713 8.86529 26.4042 9.09177 25.9767 9.49794C25.5492 9.90411 25.2941 10.459 25.264 11.0479C25.2654 11.389 25.344 11.7254 25.494 12.0319L21.655 15.8709C21.3481 15.7212 21.0114 15.6426 20.67 15.6409C20.2151 15.6409 19.7704 15.7757 19.3922 16.0285C19.014 16.2812 18.7192 16.6404 18.5451 17.0607C18.371 17.481 18.3254 17.9434 18.4142 18.3896C18.5029 18.8357 18.722 19.2455 19.0437 19.5672C19.3653 19.8889 19.7751 20.1079 20.2213 20.1967C20.6674 20.2854 21.1299 20.2399 21.5502 20.0658C21.9704 19.8917 22.3297 19.5969 22.5824 19.2187C22.8351 18.8404 22.97 18.3958 22.97 17.9409C22.9686 17.5997 22.89 17.2633 22.74 16.9569L26.579 13.1179C26.885 13.2691 27.2217 13.3478 27.563 13.3478C27.9043 13.3478 28.241 13.2691 28.547 13.1179L30.09 14.6609C29.9404 14.9678 29.8618 15.3044 29.86 15.6459C29.8901 16.2348 30.1452 16.7896 30.5727 17.1958C31.0002 17.6019 31.5673 17.8284 32.157 17.8284C32.7467 17.8284 33.3138 17.6019 33.7413 17.1958C34.1688 16.7896 34.4239 16.2348 34.454 15.6459C34.4526 15.3047 34.374 14.9683 34.224 14.6619L38.9 9.97885C39.6149 10.5154 40.4533 10.8634 41.338 10.9909V24.9589C38.8918 23.5329 36.0251 23.0041 33.2312 23.4635C30.4373 23.9229 27.8908 25.3417 26.03 27.4759V24.0659H21.437V33.2529H23.192C23.0983 33.7588 23.0365 34.2701 23.007 34.7839H1.531V7.22285ZM32.155 14.8789C32.3065 14.8789 32.4546 14.9238 32.5806 15.0079C32.7065 15.0921 32.8047 15.2117 32.8627 15.3517C32.9207 15.4917 32.9358 15.6457 32.9063 15.7943C32.8767 15.9429 32.8038 16.0794 32.6966 16.1865C32.5895 16.2936 32.453 16.3666 32.3044 16.3961C32.1558 16.4257 32.0018 16.4105 31.8619 16.3525C31.7219 16.2946 31.6023 16.1964 31.5181 16.0704C31.4339 15.9445 31.389 15.7964 31.389 15.6449C31.389 15.4417 31.4697 15.2469 31.6134 15.1032C31.757 14.9596 31.9518 14.8789 32.155 14.8789ZM26.8 11.0509C26.8 10.8994 26.8449 10.7513 26.9291 10.6253C27.0133 10.4993 27.1329 10.4011 27.2729 10.3432C27.4128 10.2852 27.5668 10.27 27.7154 10.2996C27.864 10.3291 28.0005 10.4021 28.1076 10.5092C28.2148 10.6163 28.2877 10.7528 28.3173 10.9014C28.3468 11.05 28.3317 11.204 28.2737 11.344C28.2157 11.484 28.1175 11.6036 27.9916 11.6878C27.8656 11.7719 27.7175 11.8169 27.566 11.8169C27.4654 11.8169 27.3658 11.797 27.2729 11.7585C27.1799 11.72 27.0955 11.6636 27.0244 11.5925C26.9532 11.5214 26.8968 11.4369 26.8583 11.344C26.8198 11.2511 26.8 11.1514 26.8 11.0509ZM21.441 17.9409C21.441 18.0924 21.3961 18.2405 21.3119 18.3664C21.2277 18.4924 21.1081 18.5906 20.9681 18.6485C20.8282 18.7065 20.6742 18.7217 20.5256 18.6921C20.377 18.6626 20.2405 18.5896 20.1334 18.4825C20.0262 18.3754 19.9533 18.2389 19.9237 18.0903C19.8942 17.9417 19.9093 17.7877 19.9673 17.6477C20.0253 17.5077 20.1235 17.3881 20.2494 17.3039C20.3754 17.2198 20.5235 17.1749 20.675 17.1749C20.8776 17.1759 21.0716 17.2572 21.2144 17.401C21.3572 17.5447 21.4373 17.7392 21.437 17.9419L21.441 17.9409ZM35.217 41.6749C34.0056 41.6749 32.8214 41.3156 31.8141 40.6426C30.8069 39.9696 30.0218 39.013 29.5582 37.8938C29.0947 36.7746 28.9734 35.5431 29.2097 34.3549C29.446 33.1668 30.0294 32.0754 30.886 31.2188C31.7426 30.3622 32.8339 29.7789 34.0221 29.5425C35.2102 29.3062 36.4417 29.4275 37.5609 29.8911C38.6801 30.3547 39.6367 31.1397 40.3097 32.147C40.9828 33.1542 41.342 34.3384 41.342 35.5499C41.3401 37.1737 40.6942 38.7306 39.546 39.8788C38.3977 41.0271 36.8409 41.673 35.217 41.6749ZM24.5 29.6329C24.1319 30.2992 23.8273 30.9986 23.59 31.7219H22.969V25.5979H24.5V29.6329ZM34.453 24.8709V27.9329C33.2446 28.052 32.0819 28.4575 31.0615 29.1157C30.041 29.7739 29.1922 30.6659 28.5853 31.7177C27.9784 32.7695 27.631 33.9508 27.5718 35.1636C27.5126 36.3765 27.7434 37.586 28.245 38.6919L25.589 40.2249C24.8184 38.6518 24.4465 36.9134 24.5061 35.1628C24.5657 33.4122 25.0548 31.7031 25.9306 30.1861C26.8063 28.6691 28.0417 27.3907 29.5279 26.4636C31.0141 25.5366 32.7054 24.9902 34.453 24.8709ZM35.219 46.2709C33.4677 46.2705 31.7432 45.8407 30.1965 45.0192C28.6498 44.1978 27.328 43.0096 26.347 41.5589L29.014 40.0189C29.7203 41.0054 30.6516 41.8094 31.7307 42.364C32.8098 42.9187 34.0057 43.208 35.219 43.208C36.4323 43.208 37.6282 42.9187 38.7073 42.364C39.7864 41.8094 40.7177 41.0054 41.424 40.0189L44.091 41.5589C43.1096 43.0095 41.7874 44.1974 40.2403 45.0186C38.6933 45.8397 36.9685 46.269 35.217 46.2689L35.219 46.2709ZM44.849 40.2279L42.193 38.6949C42.6952 37.5887 42.9265 36.3787 42.8675 35.1653C42.8085 33.9519 42.461 32.7701 41.8538 31.7179C41.2467 30.6657 40.3973 29.7734 39.3763 29.1151C38.3553 28.4569 37.192 28.0516 35.983 27.9329V24.8709C37.7306 24.9902 39.4219 25.5376 40.9081 26.4646C42.3943 27.3917 43.6297 28.6701 44.5054 30.1871C45.3811 31.7041 45.8703 33.4132 45.9299 35.1638C45.9895 36.9144 45.6176 38.6528 44.847 40.2259L44.849 40.2279Z" fill="white"/>
    <path d="M35.218 30.9568C34.3094 30.9568 33.4212 31.2263 32.6657 31.7311C31.9103 32.2359 31.3214 32.9534 30.9737 33.7928C30.626 34.6322 30.535 35.5559 30.7123 36.4471C30.8896 37.3382 31.3271 38.1568 31.9696 38.7993C32.6121 39.4418 33.4306 39.8793 34.3218 40.0566C35.2129 40.2338 36.1366 40.1429 36.9761 39.7952C37.8155 39.4474 38.533 38.8586 39.0378 38.1031C39.5426 37.3477 39.812 36.4595 39.812 35.5508C39.8104 34.3329 39.3259 33.1654 38.4647 32.3042C37.6035 31.443 36.4359 30.9584 35.218 30.9568ZM35.218 38.6128C34.6124 38.6128 34.0204 38.4333 33.5169 38.0968C33.0133 37.7604 32.6209 37.2821 32.3891 36.7226C32.1573 36.1631 32.0967 35.5474 32.2149 34.9535C32.333 34.3595 32.6246 33.8139 33.0529 33.3857C33.4811 32.9575 34.0267 32.6658 34.6207 32.5477C35.2146 32.4295 35.8303 32.4902 36.3898 32.7219C36.9493 32.9537 37.4275 33.3461 37.764 33.8497C38.1004 34.3532 38.28 34.9452 38.28 35.5508C38.2792 36.3627 37.9564 37.1411 37.3823 37.7151C36.8082 38.2892 36.0299 38.6121 35.218 38.6128Z" fill="white"/>
    <path d="M3.06201 8.75485H4.59301V10.2859H3.06201V8.75485Z" fill="white"/>
    <path d="M6.125 8.75485H16.843V10.2859H6.125V8.75485Z" fill="white"/>
    <path d="M3.06201 11.8168H4.59301V13.3478H3.06201V11.8168Z" fill="white"/>
    <path d="M6.125 11.8168H16.843V13.3478H6.125V11.8168Z" fill="white"/>
    <path d="M3.06201 14.8788H4.59301V16.4098H3.06201V14.8788Z" fill="white"/>
    <path d="M6.125 14.8788H16.843V16.4098H6.125V14.8788Z" fill="white"/>
    <path d="M3.06201 17.9418H4.59301V19.4728H3.06201V17.9418Z" fill="white"/>
    <path d="M6.125 17.9418H16.843V19.4728H6.125V17.9418Z" fill="white"/>
    <path d="M3.06201 33.2539H7.65601V25.5979H3.06201V33.2539ZM4.59301 27.1289H6.12401V31.7229H4.59301V27.1289Z" fill="white"/>
    <path d="M9.18701 33.2538H13.781V27.1288H9.18701V33.2538ZM10.718 28.6598H12.249V31.7218H10.718V28.6598Z" fill="white"/>
    <path d="M15.312 33.2528H19.906V21.0038H15.312V33.2528ZM16.843 22.5348H18.374V31.7218H16.843V22.5348Z" fill="white"/>
  </g>
</svg>