<svg xmlns="http://www.w3.org/2000/svg" width="48" height="49" viewBox="0 0 48 49" fill="none">
  <g opacity="0.9">
    <path d="M4.34683 14.3933H41.7218C42.3642 14.3925 42.98 14.137 43.4343 13.6828C43.8885 13.2286 44.144 12.6127 44.1448 11.9703V6.25634C44.144 5.61397 43.8885 4.99813 43.4343 4.5439C42.98 4.08967 42.3642 3.83414 41.7218 3.83334H4.34683C3.70445 3.83414 3.08861 4.08967 2.63438 4.5439C2.18016 4.99813 1.92462 5.61397 1.92383 6.25634V11.9723C1.92462 12.6147 2.18016 13.2306 2.63438 13.6848C3.08861 14.139 3.70445 14.3946 4.34683 14.3953V14.3933ZM3.59083 6.25634C3.59109 6.05619 3.67072 5.8643 3.81225 5.72277C3.95378 5.58124 4.14567 5.50161 4.34583 5.50134H41.7218C41.922 5.50161 42.1139 5.58124 42.2554 5.72277C42.3969 5.8643 42.4766 6.05619 42.4768 6.25634V11.9723C42.4766 12.1725 42.3969 12.3644 42.2554 12.5059C42.1139 12.6475 41.922 12.7271 41.7218 12.7273H4.34683C4.14667 12.7271 3.95478 12.6475 3.81325 12.5059C3.67172 12.3644 3.59209 12.1725 3.59183 11.9723L3.59083 6.25634Z" fill="#fff"/>
    <path d="M9.59474 9.94635H27.7127C27.9339 9.94635 28.1461 9.85848 28.3025 9.70207C28.4589 9.54567 28.5467 9.33354 28.5467 9.11235C28.5467 8.89116 28.4589 8.67903 28.3025 8.52262C28.1461 8.36622 27.9339 8.27835 27.7127 8.27835H9.59474C9.37355 8.27835 9.16142 8.36622 9.00501 8.52262C8.84861 8.67903 8.76074 8.89116 8.76074 9.11235C8.76074 9.33354 8.84861 9.54567 9.00501 9.70207C9.16142 9.85848 9.37355 9.94635 9.59474 9.94635Z" fill="#fff"/>
    <path d="M31.6058 9.43135C31.6268 9.4814 31.6525 9.52928 31.6828 9.57435C31.7118 9.61988 31.7453 9.66242 31.7828 9.70135C31.9389 9.85775 32.1507 9.94586 32.3718 9.94635C32.4262 9.94621 32.4805 9.94052 32.5338 9.92936C32.5875 9.91864 32.64 9.9029 32.6908 9.88235C32.7407 9.8611 32.7886 9.83533 32.8338 9.80535C32.8791 9.77599 32.9216 9.74252 32.9608 9.70536C32.9986 9.66673 33.0321 9.62415 33.0608 9.57836C33.0914 9.53351 33.1172 9.48558 33.1378 9.43535C33.1586 9.38497 33.1747 9.33274 33.1858 9.27935C33.1969 9.22573 33.2026 9.17112 33.2028 9.11635C33.2026 9.06191 33.197 9.00764 33.1858 8.95436C33.1749 8.9006 33.1588 8.84802 33.1378 8.79735C33.1172 8.74713 33.0914 8.6992 33.0608 8.65435C33.0321 8.60856 32.9986 8.56598 32.9608 8.52735C32.9219 8.48982 32.8794 8.45632 32.8338 8.42736C32.7891 8.39654 32.7411 8.37072 32.6908 8.35035C32.6402 8.32901 32.5876 8.31293 32.5338 8.30236C32.3994 8.27582 32.2605 8.28273 32.1293 8.32249C31.9982 8.36225 31.8788 8.43363 31.7818 8.53035C31.7443 8.56929 31.7109 8.61182 31.6818 8.65735C31.6516 8.70242 31.6258 8.75032 31.6048 8.80036C31.5837 8.85102 31.5677 8.9036 31.5568 8.95736C31.5465 9.01075 31.5411 9.06497 31.5408 9.11935C31.5412 9.17406 31.5465 9.22861 31.5568 9.28235C31.5686 9.33339 31.585 9.38326 31.6058 9.43135Z" fill="#fff"/>
    <path d="M36.4709 9.94634C36.5253 9.94624 36.5796 9.94055 36.6328 9.92934C36.7401 9.90901 36.8422 9.86717 36.9329 9.80634C36.9784 9.77728 37.0209 9.74379 37.0598 9.70634C37.2162 9.55017 37.3044 9.33836 37.3049 9.11734C37.3047 9.0629 37.299 9.00863 37.2878 8.95534C37.2661 8.8485 37.2244 8.74672 37.1649 8.65534C37.1033 8.56429 37.0249 8.48588 36.9339 8.42435C36.7738 8.31733 36.5817 8.26883 36.39 8.28705C36.1984 8.30527 36.0189 8.38909 35.8819 8.52434C35.8445 8.56331 35.811 8.60585 35.7819 8.65134C35.7516 8.69642 35.7259 8.7443 35.7049 8.79434C35.6842 8.84504 35.6684 8.89762 35.6579 8.95135C35.6467 9.00462 35.641 9.0589 35.6409 9.11334C35.6411 9.33445 35.7291 9.54643 35.8854 9.70278C36.0418 9.85913 36.2537 9.94708 36.4749 9.94734L36.4709 9.94634Z" fill="#fff"/>
    <path d="M4.34683 28.1944H26.9928C27.214 28.1944 27.4261 28.1065 27.5826 27.9501C27.739 27.7937 27.8268 27.5815 27.8268 27.3604C27.8268 27.1392 27.739 26.927 27.5826 26.7706C27.4261 26.6142 27.214 26.5264 26.9928 26.5264H4.34683C4.14667 26.5261 3.95478 26.4464 3.81325 26.3049C3.67172 26.1634 3.59209 25.9715 3.59183 25.7713V20.0553C3.59209 19.8552 3.67172 19.6633 3.81325 19.5218C3.95478 19.3802 4.14667 19.3006 4.34683 19.3004H41.7218C41.922 19.3006 42.1139 19.3802 42.2554 19.5218C42.3969 19.6633 42.4766 19.8552 42.4768 20.0553V25.7713C42.4768 25.9925 42.5647 26.2047 42.7211 26.3611C42.8775 26.5175 43.0896 26.6053 43.3108 26.6053C43.532 26.6053 43.7441 26.5175 43.9006 26.3611C44.057 26.2047 44.1448 25.9925 44.1448 25.7713V20.0553C44.144 19.413 43.8885 18.7971 43.4343 18.3429C42.98 17.8887 42.3642 17.6331 41.7218 17.6324H4.34683C3.70445 17.6331 3.08861 17.8887 2.63438 18.3429C2.18016 18.7971 1.92462 19.413 1.92383 20.0553V25.7713C1.92462 26.4137 2.18016 27.0296 2.63438 27.4838C3.08861 27.938 3.70445 28.1936 4.34683 28.1944Z" fill="#fff"/>
    <path d="M9.59474 22.0793C9.37355 22.0793 9.16142 22.1672 9.00501 22.3236C8.84861 22.48 8.76074 22.6922 8.76074 22.9133C8.76074 23.1345 8.84861 23.3467 9.00501 23.5031C9.16142 23.6595 9.37355 23.7473 9.59474 23.7473H27.7127C27.9339 23.7473 28.1461 23.6595 28.3025 23.5031C28.4589 23.3467 28.5467 23.1345 28.5467 22.9133C28.5467 22.6922 28.4589 22.48 28.3025 22.3236C28.1461 22.1672 27.9339 22.0793 27.7127 22.0793H9.59474Z" fill="#fff"/>
    <path d="M32.6957 22.1423C32.645 22.1215 32.5925 22.1054 32.5388 22.0944C32.3772 22.0618 32.2097 22.0786 32.0577 22.1423C32.0072 22.1635 31.9586 22.1893 31.9128 22.2194C31.8675 22.2484 31.8253 22.2819 31.7867 22.3193C31.6306 22.4761 31.5425 22.6881 31.5417 22.9093C31.5421 22.9637 31.5475 23.0179 31.5577 23.0713C31.5686 23.1248 31.5847 23.177 31.6057 23.2273C31.6267 23.278 31.6525 23.3266 31.6827 23.3724C31.7121 23.4177 31.7456 23.4602 31.7827 23.4994C31.8213 23.5368 31.8636 23.5703 31.9088 23.5993C31.9546 23.6294 32.0032 23.6552 32.0537 23.6764C32.1041 23.6974 32.1563 23.7135 32.2097 23.7243C32.2634 23.7355 32.318 23.7412 32.3727 23.7413C32.4272 23.7412 32.4815 23.7355 32.5348 23.7243C32.5885 23.7133 32.641 23.6972 32.6917 23.6764C32.7417 23.6551 32.7895 23.6293 32.8347 23.5993C32.9262 23.5391 33.0045 23.4608 33.0648 23.3693C33.0954 23.3238 33.1212 23.2752 33.1418 23.2243C33.1627 23.174 33.1788 23.1218 33.1898 23.0684C33.2009 23.0151 33.2066 22.9608 33.2068 22.9063C33.206 22.6851 33.1179 22.4731 32.9618 22.3164C32.9226 22.2792 32.8801 22.2457 32.8347 22.2163C32.7907 22.1876 32.7442 22.1629 32.6957 22.1423Z" fill="#fff"/>
    <path d="M36.7898 22.1423C36.7391 22.1213 36.6866 22.1052 36.6328 22.0943C36.5186 22.0716 36.4009 22.0731 36.2873 22.0986C36.1737 22.1242 36.0667 22.1732 35.9732 22.2426C35.8797 22.312 35.8018 22.4002 35.7444 22.5015C35.6871 22.6028 35.6516 22.7151 35.6402 22.8309C35.6288 22.9468 35.6419 23.0638 35.6785 23.1743C35.715 23.2849 35.7743 23.3865 35.8526 23.4728C35.9308 23.559 36.0263 23.6279 36.1327 23.675C36.2392 23.7221 36.3544 23.7464 36.4708 23.7463C36.5252 23.7462 36.5795 23.7405 36.6328 23.7293C36.74 23.7076 36.8419 23.6652 36.9328 23.6043C36.9784 23.5753 37.0209 23.5418 37.0598 23.5043C37.1374 23.4269 37.1991 23.335 37.2411 23.2337C37.2831 23.1325 37.3048 23.024 37.3048 22.9143C37.3048 22.8047 37.2831 22.6962 37.2411 22.5949C37.1991 22.4937 37.1374 22.4017 37.0598 22.3243C37.0209 22.2869 36.9784 22.2534 36.9328 22.2243C36.8879 22.1924 36.84 22.1649 36.7898 22.1423Z" fill="#fff"/>
    <path d="M20.5748 31.4324H4.34683C3.70445 31.4332 3.08861 31.6887 2.63438 32.1429C2.18016 32.5971 1.92462 33.213 1.92383 33.8554V39.5713C1.92462 40.2137 2.18016 40.8296 2.63438 41.2838C3.08861 41.738 3.70445 41.9935 4.34683 41.9943H20.5748C20.796 41.9943 21.0081 41.9065 21.1646 41.7501C21.321 41.5937 21.4088 41.3815 21.4088 41.1604C21.4088 40.9392 21.321 40.727 21.1646 40.5706C21.0081 40.4142 20.796 40.3263 20.5748 40.3263H4.34683C4.14667 40.3261 3.95478 40.2465 3.81325 40.1049C3.67172 39.9634 3.59209 39.7715 3.59183 39.5713V33.8554C3.59209 33.6552 3.67172 33.4633 3.81325 33.3218C3.95478 33.1802 4.14667 33.1006 4.34683 33.1004H20.5748C20.796 33.1004 21.0081 33.0125 21.1646 32.8561C21.321 32.6997 21.4088 32.4875 21.4088 32.2663C21.4088 32.0452 21.321 31.833 21.1646 31.6766C21.0081 31.5202 20.796 31.4324 20.5748 31.4324Z" fill="#fff"/>
    <path d="M20.5737 35.8784H9.59474C9.37355 35.8784 9.16142 35.9662 9.00501 36.1226C8.84861 36.279 8.76074 36.4912 8.76074 36.7123C8.76074 36.9335 8.84861 37.1457 9.00501 37.3021C9.16142 37.4585 9.37355 37.5464 9.59474 37.5464H20.5697C20.7909 37.5464 21.0031 37.4585 21.1595 37.3021C21.3159 37.1457 21.4037 36.9335 21.4037 36.7123C21.4037 36.4912 21.3159 36.279 21.1595 36.1226C21.0031 35.9662 20.7909 35.8784 20.5697 35.8784H20.5737Z" fill="#fff"/>
    <path d="M45.7578 39.2843L39.7908 28.9493C39.369 28.2088 38.7575 27.594 38.0194 27.168C37.2813 26.742 36.443 26.5201 35.5908 26.5253C35.4648 26.5253 35.3398 26.53 35.2158 26.5393C34.4295 26.5956 33.6692 26.845 33.0023 27.2654C32.3355 27.6858 31.7826 28.2642 31.3928 28.9493L25.4258 39.2843C25.0001 40.0214 24.7761 40.8575 24.7761 41.7086C24.7762 42.5597 25.0003 43.3958 25.426 44.1327C25.8517 44.8697 26.464 45.4816 27.2012 45.9069C27.9385 46.3322 28.7747 46.5558 29.6258 46.5553H41.5578C42.4101 46.5589 43.2481 46.3371 43.9872 45.9126C44.7262 45.4881 45.34 44.8758 45.7663 44.1378C46.1926 43.3998 46.4163 42.5622 46.4148 41.7099C46.4133 40.8576 46.1867 40.0209 45.7578 39.2843ZM44.3138 43.2973C44.0373 43.783 43.6364 44.1863 43.1524 44.4658C42.6684 44.7452 42.1187 44.8907 41.5598 44.8873H29.6248C29.0659 44.8894 28.5164 44.7438 28.0318 44.4652C27.5473 44.1867 27.1449 43.7851 26.8654 43.3011C26.5859 42.8171 26.4392 42.2679 26.4402 41.709C26.4411 41.1501 26.5897 40.6014 26.8708 40.1183L32.8378 29.7834C33.117 29.3001 33.5184 28.8989 34.0017 28.6199C34.485 28.341 35.0332 28.1942 35.5913 28.1942C36.1493 28.1942 36.6976 28.341 37.1809 28.6199C37.6642 28.8989 38.0656 29.3001 38.3448 29.7834L44.3118 40.1183C44.5942 40.6007 44.743 41.1495 44.743 41.7083C44.743 42.2672 44.5942 42.816 44.3118 43.2983L44.3138 43.2973Z" fill="#fff"/>
    <path d="M35.5928 32.3864C35.4833 32.3864 35.3748 32.4079 35.2736 32.4498C35.1724 32.4917 35.0805 32.5532 35.0031 32.6306C34.9256 32.7081 34.8642 32.8 34.8223 32.9012C34.7804 33.0024 34.7588 33.1108 34.7588 33.2203V37.9363C34.7588 38.1575 34.8466 38.3697 35.0031 38.5261C35.1595 38.6825 35.3716 38.7704 35.5928 38.7704C35.814 38.7704 36.0261 38.6825 36.1825 38.5261C36.3389 38.3697 36.4268 38.1575 36.4268 37.9363V33.2203C36.4268 33.1108 36.4052 33.0024 36.3633 32.9012C36.3214 32.8 36.2599 32.7081 36.1825 32.6306C36.1051 32.5532 36.0131 32.4917 35.9119 32.4498C35.8107 32.4079 35.7023 32.3864 35.5928 32.3864Z" fill="#fff"/>
    <path d="M36.3627 40.9263C36.3415 40.8758 36.3158 40.8272 36.2857 40.7814C36.2564 40.736 36.2229 40.6935 36.1857 40.6543C36.0883 40.5579 35.9687 40.4867 35.8375 40.447C35.7063 40.4073 35.5673 40.4002 35.4327 40.4263C35.379 40.4374 35.3264 40.4535 35.2757 40.4743C35.2257 40.4953 35.1778 40.5211 35.1327 40.5513C35.0413 40.6117 34.9631 40.6899 34.9027 40.7814C34.8724 40.827 34.8466 40.8756 34.8257 40.9263C34.8048 40.9767 34.7887 41.0289 34.7777 41.0823C34.7666 41.136 34.7609 41.1906 34.7607 41.2453C34.7607 41.4665 34.8486 41.6787 35.005 41.8351C35.1614 41.9915 35.3735 42.0794 35.5947 42.0794C35.8159 42.0794 36.028 41.9915 36.1844 41.8351C36.3409 41.6787 36.4287 41.4665 36.4287 41.2453C36.4284 41.1906 36.423 41.1361 36.4127 41.0823C36.4012 41.0288 36.3844 40.9766 36.3627 40.9263Z" fill="#fff"/>
  </g>
</svg>