<svg xmlns="http://www.w3.org/2000/svg" width="48" height="49" viewBox="0 0 48 49" fill="none">
  <g opacity="0.9">
    <path d="M43.3778 3.50003H4.95983C4.15479 3.50056 3.38288 3.82059 2.81364 4.38984C2.24439 4.95908 1.92436 5.731 1.92383 6.53603V35.036C1.92436 35.8411 2.24439 36.613 2.81364 37.1822C3.38288 37.7515 4.15479 38.0715 4.95983 38.072H17.5028L15.4788 42.092H12.5788C12.4161 42.0923 12.26 42.1571 12.145 42.2722C12.0299 42.3872 11.9651 42.5433 11.9648 42.706V45.498C11.9651 45.6608 12.0299 45.8168 12.145 45.9319C12.26 46.047 12.4161 46.1118 12.5788 46.112H35.7558C35.9186 46.1118 36.0746 46.047 36.1897 45.9319C36.3048 45.8168 36.3696 45.6608 36.3698 45.498V42.707C36.3696 42.5443 36.3048 42.3882 36.1897 42.2732C36.0746 42.1581 35.9186 42.0933 35.7558 42.093H32.8558L30.8318 38.073H43.3778C44.1829 38.0725 44.9548 37.7525 45.524 37.1832C46.0933 36.614 46.4133 35.8421 46.4138 35.037V6.54303C46.4146 5.73695 46.0952 4.96354 45.5259 4.3929C44.9566 3.82226 44.1839 3.50109 43.3778 3.50003ZM3.14583 6.54303C3.14662 6.06226 3.33803 5.60143 3.67807 5.26157C4.01812 4.92171 4.47906 4.73056 4.95983 4.73003H43.3778C43.8589 4.73003 44.3204 4.92095 44.6609 5.26086C45.0014 5.60078 45.193 6.06192 45.1938 6.54303V31.218H3.14583V6.54303ZM35.1458 44.898H13.1938V43.33H35.1418L35.1458 44.898ZM31.4938 42.1H16.8468L18.8708 38.079H29.4708L31.4938 42.1ZM45.2028 35.036C45.2026 35.5173 45.0113 35.9788 44.6709 36.3191C44.3306 36.6595 43.8691 36.8508 43.3878 36.851H4.95983C4.47854 36.8508 4.01704 36.6595 3.67672 36.3191C3.3364 35.9788 3.14509 35.5173 3.14483 35.036V32.436H45.1998L45.2028 35.036Z" fill="white"/>
    <path d="M24.1689 35.35C24.5544 35.35 24.8669 35.0375 24.8669 34.652C24.8669 34.2665 24.5544 33.954 24.1689 33.954C23.7835 33.954 23.4709 34.2665 23.4709 34.652C23.4709 35.0375 23.7835 35.35 24.1689 35.35Z" fill="white"/>
    <path d="M36.6707 11.674H33.3127C33.15 11.6743 32.9939 11.7391 32.8789 11.8542C32.7638 11.9692 32.699 12.1253 32.6987 12.288V28.349C32.699 28.5118 32.7638 28.6678 32.8789 28.7829C32.9939 28.898 33.15 28.9628 33.3127 28.963H36.6697C36.8325 28.9628 36.9885 28.898 37.1036 28.7829C37.2187 28.6678 37.2835 28.5118 37.2837 28.349V12.281C37.2835 12.2008 37.2674 12.1214 37.2363 12.0474C37.2053 11.9734 37.1599 11.9063 37.1029 11.8499C37.0458 11.7935 36.9782 11.7489 36.9039 11.7188C36.8295 11.6886 36.751 11.6734 36.6707 11.674ZM36.0637 27.728H33.9267V12.894H36.0627L36.0637 27.728Z" fill="white"/>
    <path d="M25.4469 18.661H22.0889C21.9261 18.6613 21.7701 18.7261 21.655 18.8412C21.5399 18.9562 21.4751 19.1123 21.4749 19.275V28.349C21.4751 28.5118 21.5399 28.6678 21.655 28.7829C21.7701 28.898 21.9261 28.9628 22.0889 28.963H25.4459C25.6086 28.9628 25.7646 28.898 25.8797 28.7829C25.9948 28.6678 26.0596 28.5118 26.0599 28.349V19.271C26.0573 19.1095 25.9917 18.9554 25.8773 18.8415C25.7628 18.7276 25.6084 18.6628 25.4469 18.661ZM24.8349 27.728H22.7029V19.883H24.8349V27.728Z" fill="white"/>
    <path d="M42.2899 18.661H38.9319C38.7691 18.6613 38.6131 18.7261 38.498 18.8412C38.3829 18.9562 38.3181 19.1123 38.3179 19.275V28.349C38.3181 28.5118 38.3829 28.6678 38.498 28.7829C38.6131 28.898 38.7691 28.9628 38.9319 28.963H42.2889C42.4516 28.9628 42.6077 28.898 42.7227 28.7829C42.8378 28.6678 42.9026 28.5118 42.9029 28.349V19.271C42.9003 19.1095 42.8348 18.9554 42.7203 18.8415C42.6058 18.7276 42.4514 18.6628 42.2899 18.661ZM41.6759 27.728H39.5399V19.883H41.6759V27.728Z" fill="white"/>
    <path d="M31.0589 22.849H27.7009C27.5382 22.8493 27.3821 22.9141 27.267 23.0292C27.152 23.1442 27.0872 23.3003 27.0869 23.463V28.342C27.0872 28.5048 27.152 28.6608 27.267 28.7759C27.3821 28.891 27.5382 28.9558 27.7009 28.956H31.0579C31.2207 28.9558 31.3767 28.891 31.4918 28.7759C31.6069 28.6608 31.6716 28.5048 31.6719 28.342V23.459C31.6706 23.2971 31.6055 23.1423 31.4907 23.0281C31.376 22.9139 31.2208 22.8496 31.0589 22.849ZM30.4519 27.728H28.3149V24.07H30.4509L30.4519 27.728Z" fill="white"/>
    <path d="M17.9499 25.292H6.02091C5.85886 25.292 5.70345 25.3564 5.58887 25.471C5.47428 25.5856 5.40991 25.741 5.40991 25.903C5.40991 26.0651 5.47428 26.2205 5.58887 26.3351C5.70345 26.4497 5.85886 26.514 6.02091 26.514H17.9499C18.112 26.514 18.2674 26.4497 18.382 26.3351C18.4965 26.2205 18.5609 26.0651 18.5609 25.903C18.5609 25.741 18.4965 25.5856 18.382 25.471C18.2674 25.3564 18.112 25.292 17.9499 25.292Z" fill="white"/>
    <path d="M13.2799 27.728H6.02091C5.85886 27.728 5.70345 27.7924 5.58887 27.907C5.47428 28.0216 5.40991 28.177 5.40991 28.339C5.40991 28.5011 5.47428 28.6565 5.58887 28.7711C5.70345 28.8857 5.85886 28.95 6.02091 28.95H13.2799C13.4427 28.9498 13.5987 28.885 13.7138 28.7699C13.8289 28.6548 13.8936 28.4988 13.8939 28.336C13.895 28.2554 13.8798 28.1753 13.8493 28.1007C13.8187 28.026 13.7735 27.9583 13.7161 27.9015C13.6588 27.8448 13.5907 27.8002 13.5157 27.7703C13.4407 27.7405 13.3606 27.7261 13.2799 27.728Z" fill="white"/>
    <path d="M13.2937 7.00403C13.2867 7.00403 13.2797 7.01103 13.2727 7.01103C13.2657 7.01103 13.2587 7.00403 13.2447 7.00403C13.2027 7.00403 13.1607 6.99703 13.1187 6.99703C11.0742 7.0002 9.11431 7.81387 7.66868 9.25968C6.22306 10.7055 5.40965 12.6655 5.40674 14.71C5.40833 16.7552 6.22145 18.7161 7.66758 20.1622C9.1137 21.6083 11.0746 22.4214 13.1197 22.423C15.1632 22.4443 17.1315 21.6534 18.5921 20.2242C20.0527 18.795 20.8862 16.8444 20.9094 14.8009C20.9326 12.7575 20.1436 10.7885 18.7158 9.32649C17.288 7.8645 15.3381 7.02916 13.2947 7.00403H13.2937ZM12.6727 8.23203V14.451L8.19874 18.926C7.18461 17.7534 6.62907 16.2534 6.63474 14.703C6.63791 13.0613 7.26223 11.4815 8.38228 10.2812C9.50233 9.08078 11.0351 8.34872 12.6727 8.23203ZM13.1267 21.201C11.654 21.2028 10.2251 20.7003 9.07774 19.777L13.5377 15.317H19.5867C19.4336 16.9252 18.6872 18.4187 17.493 19.5065C16.2987 20.5943 14.7421 21.1984 13.1267 21.201ZM13.8947 14.095V8.26703C15.3636 8.45136 16.7268 9.12785 17.7619 10.1862C18.797 11.2446 19.4431 12.6224 19.5947 14.095H13.8947Z" fill="white"/>
  </g>
</svg>