<svg xmlns="http://www.w3.org/2000/svg" width="202" height="72" viewBox="0 0 202 72" fill="none">
  <path d="M94.2601 46.241L95.6031 44.234C96.3552 44.713 97.1607 45.1026 98.0031 45.395C99.5624 45.9477 101.244 46.0567 102.862 45.71C103.818 45.573 104.691 45.0902 105.315 44.353C105.939 43.6159 106.271 42.6755 106.248 41.71C106.296 40.661 106.379 40.8479 105.448 40.8369C103.769 40.8159 102.086 40.8789 100.408 40.7969C99.0913 40.7508 97.789 40.5064 96.5451 40.072C95.7922 39.8317 95.0951 39.4429 94.4951 38.9284C93.8951 38.414 93.4045 37.7844 93.0521 37.077C92.6746 36.2772 92.4617 35.4096 92.4261 34.5259C92.3711 33.4879 92.3951 32.4499 92.3921 31.4119C92.3921 29.1453 92.3921 26.8786 92.3921 24.6119C92.3921 24.5119 92.3921 24.4039 92.3921 24.2999C92.4051 23.9339 92.4051 23.9239 92.7731 23.9229C94.0891 23.9229 95.4061 23.9229 96.7221 23.9229C96.7741 23.9229 96.8221 23.9229 96.8791 23.9229C97.0501 23.9169 97.1351 23.9919 97.1281 24.1689C97.1221 24.2899 97.1281 24.412 97.1281 24.533C97.1281 27.5443 97.1281 30.5556 97.1281 33.567C97.1254 34.0684 97.1551 34.5694 97.2171 35.067C97.2793 35.8607 97.6056 36.6107 98.144 37.1972C98.6823 37.7838 99.4016 38.173 100.187 38.3029C100.781 38.4268 101.386 38.4885 101.992 38.4869C103.258 38.4939 104.522 38.4869 105.786 38.4869C106.266 38.4869 106.269 38.4869 106.269 38.0029C106.269 33.5196 106.269 29.0369 106.269 24.5549C106.269 23.8689 106.159 23.9209 106.909 23.9189C108.139 23.9189 109.369 23.9189 110.598 23.9189C111.019 23.9189 111.025 23.9269 111.026 24.3549C111.026 29.9289 111.026 35.5026 111.026 41.0759C111.056 41.9177 110.919 42.757 110.623 43.5455C110.327 44.334 109.878 45.056 109.301 45.6699C108.479 46.5203 107.463 47.1591 106.34 47.5319C104.329 48.2014 102.199 48.4326 100.091 48.21C98.538 48.069 97.0199 47.6663 95.6011 47.0189C95.1266 46.8103 94.6768 46.5494 94.2601 46.241Z" fill="white"/>
  <path d="M163.849 46.2159C164.249 45.6239 164.649 45.025 165.049 44.416C165.204 44.176 165.333 44.3209 165.474 44.4089C166.359 44.9541 167.322 45.3608 168.33 45.6149C169.709 45.979 171.155 46.0037 172.545 45.687C173.443 45.5324 174.259 45.0709 174.854 44.3812C175.449 43.6916 175.786 42.8166 175.808 41.9059C175.829 41.6299 175.824 41.352 175.833 41.075C175.839 40.903 175.757 40.8219 175.583 40.8289C175.462 40.8289 175.341 40.8289 175.22 40.8289C173.487 40.8149 171.755 40.8729 170.02 40.7939C168.686 40.7522 167.366 40.5063 166.106 40.0649C165.353 39.8242 164.656 39.4346 164.056 38.9193C163.457 38.4039 162.967 37.7733 162.616 37.0649C162.211 36.2375 161.998 35.3299 161.99 34.4089C161.97 31.1729 161.974 27.9369 161.969 24.7009C161.969 24.5289 161.976 24.3549 161.969 24.1829C161.959 23.9829 162.05 23.9089 162.246 23.9089C163.631 23.9136 165.017 23.9136 166.404 23.9089C166.638 23.9089 166.704 24.009 166.694 24.226C166.686 24.347 166.694 24.4689 166.694 24.5889C166.694 27.5836 166.694 30.5776 166.694 33.5709C166.682 34.1597 166.731 34.7481 166.839 35.327C166.944 36.0805 167.292 36.7793 167.83 37.317C168.368 37.8547 169.067 38.2019 169.821 38.306C170.433 38.4252 171.055 38.4835 171.678 38.4799C172.873 38.4799 174.068 38.4799 175.264 38.4799C175.859 38.4799 175.83 38.5419 175.83 37.9279V28.168C175.83 26.8866 175.83 25.6059 175.83 24.3259C175.83 23.9259 175.838 23.9149 176.23 23.9139C177.547 23.9099 178.863 23.9099 180.179 23.9139C180.579 23.9139 180.587 23.9249 180.587 24.3669C180.587 26.7556 180.587 29.1443 180.587 31.533C180.587 34.683 180.587 37.8323 180.587 40.981C180.62 42.1098 180.375 43.2295 179.875 44.2419C179.075 45.7405 177.739 46.8829 176.135 47.442C174.721 47.9656 173.228 48.2459 171.72 48.2709C169.48 48.378 167.247 47.952 165.204 47.028C164.875 46.877 164.558 46.6959 164.242 46.5189C164.089 46.4502 163.954 46.3465 163.849 46.2159Z" fill="white"/>
  <path d="M56.493 29.687C56.493 25.931 56.493 22.1749 56.493 18.4189C56.493 17.7689 56.428 17.8469 57.085 17.8449C58.314 17.8449 59.544 17.8449 60.774 17.8449C61.294 17.8449 61.243 17.8349 61.243 18.3309C61.243 19.9749 61.243 21.6189 61.243 23.2629C61.243 23.3629 61.25 23.472 61.243 23.575C61.22 23.809 61.298 23.9389 61.558 23.9169C61.696 23.9039 61.835 23.9169 61.973 23.9169C63.74 23.9259 65.508 23.876 67.273 23.981C68.6438 24.032 69.9962 24.3143 71.273 24.8159C72.3822 25.2178 73.3423 25.949 74.0244 26.9116C74.7066 27.8742 75.0784 29.0222 75.09 30.2019C75.21 32.3619 75.121 34.5269 75.137 36.6899C75.147 38.1259 75.137 39.5639 75.137 41.0009C75.137 41.6099 75.137 41.5209 74.595 41.5219C73.365 41.5219 72.1347 41.5219 70.904 41.5219C70.363 41.5219 70.39 41.579 70.39 41.028V35.9389C70.39 34.2949 70.39 32.651 70.39 31.007C70.3985 30.3838 70.3313 29.7619 70.19 29.1549C70.0534 28.5334 69.7459 27.9624 69.3023 27.5062C68.8586 27.05 68.2964 26.7268 67.679 26.5729C67.011 26.3838 66.3191 26.2928 65.625 26.3029C64.327 26.2989 63.027 26.2989 61.725 26.3029C61.252 26.3029 61.248 26.3089 61.248 26.7949C61.248 31.4843 61.248 36.1746 61.248 40.8659C61.248 41.6229 61.348 41.52 60.586 41.523C59.374 41.5283 58.1616 41.5283 56.949 41.523C56.505 41.523 56.5 41.5169 56.5 41.0629C56.494 37.2689 56.4917 33.477 56.493 29.687Z" fill="white"/>
  <path d="M53.113 23.088C52.4787 22.4945 51.7896 21.9625 51.055 21.499C48.7296 20.0411 45.9669 19.4442 43.247 19.812C41.9977 19.9188 40.7959 20.3405 39.7538 21.0377C38.7117 21.735 37.8634 22.685 37.288 23.799C36.8564 24.5899 36.5447 25.4405 36.363 26.323C35.8055 28.8533 35.8949 31.4834 36.623 33.97C36.9259 35.0784 37.4813 36.1016 38.2457 36.9596C39.0101 37.8175 39.9627 38.4867 41.029 38.9149C42.6164 39.5423 44.3304 39.7823 46.029 39.615C48.6947 39.4205 51.2161 38.3297 53.183 36.52C53.453 36.277 53.464 36.283 53.7 36.561C54.1127 37.051 54.5217 37.5439 54.927 38.0399C55.149 38.3099 55.147 38.318 54.868 38.561C53.3476 39.8542 51.5836 40.8297 49.68 41.43C47.3053 42.1589 44.8035 42.379 42.338 42.076C40.5576 41.9266 38.8177 41.4632 37.199 40.707C35.652 40.0097 34.2942 38.9523 33.2391 37.6232C32.184 36.2941 31.4622 34.7319 31.134 33.067C30.5769 30.643 30.6243 28.1193 31.272 25.718C31.6826 23.987 32.5284 22.3896 33.7293 21.0771C34.9301 19.7645 36.4463 18.7804 38.134 18.218C40.2483 17.4241 42.4991 17.058 44.756 17.141C47.0128 17.2239 49.2307 17.7541 51.281 18.701C52.4659 19.2374 53.5637 19.9483 54.538 20.81C54.811 21.05 54.812 21.0559 54.583 21.3339C54.106 21.9069 53.627 22.471 53.113 23.088Z" fill="white"/>
  <path d="M149.268 37.633C149.696 38.273 150.108 38.887 150.518 39.503C150.652 39.703 150.473 39.783 150.36 39.873C149.642 40.445 148.841 40.9036 147.984 41.233C146.155 41.9409 144.198 42.2596 142.239 42.1689C140.592 42.1335 138.967 41.7776 137.456 41.121C136.091 40.5483 134.906 39.6177 134.026 38.4273C133.146 37.2369 132.603 35.831 132.456 34.358C132.219 32.7787 132.319 31.1671 132.748 29.629C133.095 28.2884 133.777 27.0582 134.731 26.0546C135.685 25.051 136.879 24.307 138.2 23.8929C140.901 22.9158 143.87 22.9829 146.524 24.081C148.02 24.6343 149.325 25.6071 150.283 26.883C151.241 28.1589 151.81 29.6837 151.924 31.275C152.036 32.275 151.961 33.281 151.989 34.282C151.996 34.512 151.9 34.593 151.682 34.576C151.562 34.568 151.44 34.576 151.319 34.576H137.629C137.595 34.634 137.563 34.662 137.565 34.688C137.659 35.8489 138.078 36.9599 138.774 37.894C139.221 38.4369 139.775 38.8826 140.401 39.2037C141.027 39.5247 141.712 39.7144 142.414 39.761C144.642 39.9942 146.877 39.3833 148.676 38.0489C148.861 37.9219 149.042 37.792 149.268 37.633ZM142.159 32.2079H143.926C144.81 32.2079 145.693 32.2009 146.577 32.2079C146.824 32.2079 146.924 32.128 146.9 31.876C146.862 31.476 146.853 31.0819 146.805 30.6869C146.688 29.582 146.333 28.5156 145.765 27.561C145.317 26.7803 144.631 26.1635 143.807 25.8013C142.983 25.439 142.065 25.3502 141.187 25.548C140.54 25.6871 139.937 25.9816 139.429 26.4062C138.922 26.8309 138.525 27.3727 138.274 27.985C137.732 29.1874 137.449 30.4902 137.443 31.809C137.433 32.196 137.443 32.203 137.843 32.209C139.283 32.209 140.721 32.2069 142.159 32.2079Z" fill="white"/>
  <path d="M200.022 25.8299C199.645 26.3979 199.248 26.964 198.885 27.55C198.731 27.799 198.604 27.769 198.392 27.642C197.43 27.0588 196.407 26.5823 195.342 26.2209C193.591 25.6511 191.735 25.4833 189.91 25.73C189.427 25.7878 188.964 25.9528 188.553 26.2129C188.335 26.3323 188.147 26.4992 188.002 26.7014C187.857 26.9036 187.76 27.1358 187.717 27.3807C187.675 27.6257 187.688 27.877 187.756 28.1161C187.824 28.3553 187.945 28.576 188.11 28.762C188.443 29.1639 188.868 29.4795 189.349 29.6819C189.935 29.9371 190.54 30.1477 191.158 30.3119C192.835 30.7959 194.514 31.2739 196.187 31.7729C197.393 32.1003 198.521 32.665 199.505 33.434C200.092 33.8989 200.543 34.5133 200.811 35.2127C201.079 35.9121 201.154 36.6707 201.028 37.4089C200.95 38.1718 200.673 38.9007 200.224 39.5222C199.775 40.1436 199.17 40.6358 198.47 40.949C197.235 41.5406 195.905 41.909 194.542 42.037C193.062 42.2143 191.568 42.2477 190.081 42.137C187.689 42.0038 185.354 41.359 183.233 40.246C183.021 40.13 182.812 40.006 182.61 39.873C182.282 39.661 182.282 39.654 182.501 39.321C182.776 38.901 183.053 38.483 183.339 38.069C183.672 37.585 183.572 37.596 184.082 37.883C185.237 38.5499 186.477 39.0566 187.769 39.389C189.804 39.9169 191.933 39.9723 193.992 39.551C194.573 39.4336 195.099 39.1303 195.492 38.6869C195.811 38.3608 195.988 37.9213 195.983 37.465C195.979 37.0087 195.794 36.5728 195.468 36.253C195.088 35.8716 194.63 35.5768 194.126 35.389C193.058 34.9892 191.97 34.6474 190.865 34.365C189.673 34.006 188.472 33.679 187.283 33.316C186.14 32.9645 185.069 32.4096 184.123 31.678C183.635 31.2568 183.247 30.7326 182.986 30.1431C182.726 29.5536 182.6 28.9136 182.617 28.2693C182.634 27.625 182.794 26.9926 183.085 26.4177C183.376 25.8427 183.792 25.3397 184.301 24.9449C185.478 24.1436 186.829 23.6338 188.242 23.4579C189.904 23.1995 191.594 23.1658 193.265 23.358C195.544 23.6001 197.739 24.3497 199.69 25.5519C199.778 25.6073 199.862 25.6678 199.943 25.733C199.973 25.7618 200 25.7944 200.022 25.8299Z" fill="white"/>
  <path d="M130.468 25.7969C130.061 26.4089 129.668 26.979 129.298 27.561C129.162 27.771 129.041 27.7799 128.837 27.6609C127.878 27.0727 126.856 26.5938 125.79 26.233C124.024 25.6518 122.149 25.4808 120.307 25.733C119.842 25.79 119.394 25.948 118.996 26.196C118.777 26.3126 118.586 26.4772 118.439 26.6775C118.292 26.8779 118.191 27.1088 118.145 27.3532C118.1 27.5976 118.109 27.8491 118.174 28.0892C118.239 28.3292 118.357 28.5517 118.519 28.74C118.799 29.0946 119.156 29.3806 119.563 29.576C120.09 29.8372 120.641 30.0461 121.209 30.1999C123.1 30.7539 124.994 31.2919 126.882 31.8609C128.016 32.1861 129.073 32.7371 129.989 33.4809C130.503 33.8972 130.907 34.4319 131.169 35.0391C131.43 35.6463 131.54 36.3079 131.489 36.967C131.482 37.8135 131.232 38.6401 130.768 39.3482C130.304 40.0562 129.646 40.6158 128.872 40.9599C127.651 41.5397 126.338 41.9021 124.992 42.0309C123.512 42.2126 122.018 42.2491 120.531 42.1399C118.016 42.011 115.564 41.3055 113.365 40.0779C113.131 39.959 112.916 39.8071 112.725 39.6269C113.125 39.0269 113.541 38.4139 113.947 37.7989C114.056 37.6349 114.165 37.6849 114.296 37.7619C114.852 38.0791 115.423 38.3678 116.008 38.6269C118.336 39.6443 120.891 40.0303 123.415 39.746C123.847 39.7108 124.273 39.619 124.681 39.4729C124.877 39.4067 125.067 39.3251 125.25 39.2289C125.583 39.0907 125.87 38.8597 126.075 38.5634C126.28 38.2671 126.396 37.9179 126.409 37.5575C126.422 37.1972 126.331 36.8407 126.146 36.5307C125.962 36.2207 125.693 35.9701 125.37 35.8089C124.764 35.44 124.106 35.162 123.419 34.9839C121.628 34.4579 119.833 33.9459 118.042 33.4219C116.79 33.0716 115.615 32.487 114.581 31.699C113.765 31.0039 113.231 30.0338 113.081 28.972C112.93 27.9102 113.174 26.8302 113.766 25.936C114.292 25.2209 114.996 24.6564 115.808 24.2989C116.946 23.7827 118.163 23.4631 119.408 23.3539C121.286 23.1356 123.186 23.203 125.044 23.5539C126.848 23.9075 128.573 24.5851 130.135 25.5539C130.233 25.6179 130.327 25.6899 130.468 25.7969Z" fill="white"/>
  <path d="M158.911 29.68C158.911 33.4346 158.911 37.188 158.911 40.94C158.911 41.605 158.966 41.519 158.328 41.521C157.081 41.5257 155.834 41.5257 154.588 41.521C154.194 41.521 154.188 41.515 154.188 41.121C154.188 39.2703 154.188 37.4196 154.188 35.569V18.294C154.188 17.826 154.153 17.843 154.64 17.843C155.907 17.843 157.17 17.843 158.431 17.843C158.931 17.843 158.915 17.799 158.915 18.315V29.678L158.911 29.68Z" fill="white"/>
  <path d="M77.8221 35.3569C77.8521 33.9969 77.7911 32.319 77.8571 30.641C77.8661 29.1456 78.3889 27.6988 79.3378 26.5431C80.2867 25.3874 81.604 24.5929 83.069 24.293C84.1296 24.0361 85.2178 23.9105 86.3091 23.9189C87.8501 23.9059 89.391 23.9129 90.932 23.9189C91.378 23.9189 91.3801 23.924 91.3831 24.378C91.3831 24.8627 91.3831 25.3473 91.3831 25.832C91.3831 26.254 91.483 26.302 90.89 26.301C89.852 26.301 88.812 26.301 87.773 26.301C87.0803 26.2785 86.3873 26.3392 85.709 26.4819C84.8924 26.6706 84.1569 27.1141 83.609 27.7483C83.0611 28.3825 82.7291 29.1746 82.661 30.0099C82.5976 30.5074 82.5665 31.0085 82.5681 31.5099C82.5721 34.6586 82.5721 37.8076 82.5681 40.957C82.5681 41.587 82.622 41.5219 82.023 41.5229C80.7944 41.5229 79.5651 41.5229 78.3351 41.5229C77.8241 41.5229 77.821 41.5229 77.821 41.0229C77.821 39.2379 77.8221 37.4569 77.8221 35.3569Z" fill="white"/>
  <path d="M5.20198 50.682C5.19802 50.156 5.35044 49.6409 5.63994 49.2018C5.92943 48.7626 6.34293 48.4195 6.82786 48.2158C7.3128 48.0122 7.84729 47.9574 8.36348 48.0583C8.87967 48.1591 9.35427 48.411 9.72694 48.7821C10.0996 49.1533 10.3535 49.6268 10.4565 50.1425C10.5595 50.6583 10.5069 51.1931 10.3053 51.6789C10.1037 52.1646 9.76228 52.5796 9.32439 52.8709C8.88649 53.1622 8.3719 53.3168 7.84596 53.315C7.14671 53.3148 6.47602 53.0376 5.98054 52.5442C5.48507 52.0508 5.20515 51.3812 5.20198 50.682Z" fill="white"/>
  <path d="M15.94 58.157C15.9441 58.6563 15.8002 59.1457 15.5265 59.5633C15.2528 59.981 14.8616 60.3082 14.4021 60.5038C13.9427 60.6993 13.4356 60.7545 12.9449 60.6622C12.4541 60.5699 12.0017 60.3344 11.6447 59.9853C11.2877 59.6362 11.042 59.1891 10.9387 58.7006C10.8354 58.2121 10.8791 57.7039 11.0643 57.2401C11.2495 56.7764 11.5679 56.3779 11.9793 56.0949C12.3907 55.8119 12.8767 55.6571 13.376 55.65C13.7092 55.6454 14.04 55.7066 14.3494 55.8303C14.6589 55.9539 14.9409 56.1375 15.1791 56.3705C15.4174 56.6034 15.6073 56.8812 15.7378 57.1878C15.8684 57.4944 15.9371 57.8237 15.94 58.157Z" fill="white"/>
  <path d="M5.72892 44.112C5.25814 44.4105 4.70107 44.5431 4.14628 44.4888C3.59148 44.4344 3.07079 44.1962 2.66691 43.812C2.3667 43.5288 2.14018 43.1766 2.00706 42.786C1.87393 42.3954 1.83822 41.9782 1.90302 41.5706C1.96782 41.1631 2.1312 40.7775 2.37891 40.4475C2.62663 40.1174 2.95118 39.8528 3.32441 39.6768C3.69763 39.5007 4.10823 39.4184 4.52048 39.4371C4.93273 39.4559 5.33418 39.575 5.68992 39.7841C6.04566 39.9933 6.34491 40.2862 6.56171 40.6373C6.77851 40.9885 6.90629 41.3872 6.93391 41.799C6.97926 42.108 6.94929 42.4233 6.84656 42.7183C6.74384 43.0132 6.57141 43.279 6.34391 43.493C6.32934 43.4971 6.31578 43.5042 6.30414 43.5139C6.2925 43.5235 6.28304 43.5356 6.27634 43.5491C6.26965 43.5627 6.26589 43.5776 6.2653 43.5927C6.2647 43.6079 6.26728 43.6229 6.27289 43.637C6.27506 43.6506 6.27206 43.6645 6.26447 43.676C6.25688 43.6875 6.24526 43.6957 6.23191 43.699C6.20848 43.7013 6.1866 43.7118 6.17014 43.7286C6.15368 43.7454 6.14368 43.7675 6.14191 43.791L6.1319 43.799C6.10757 43.8006 6.08448 43.8104 6.06635 43.8267C6.04822 43.843 6.03609 43.865 6.0319 43.889L6.01789 43.9C5.99669 43.8996 5.97607 43.9067 5.9596 43.9201C5.94314 43.9334 5.93189 43.9522 5.92789 43.973L5.89692 43.996C5.86016 43.9947 5.82397 44.0052 5.79371 44.0261C5.76344 44.047 5.74072 44.0771 5.72892 44.112Z" fill="white"/>
  <path d="M14.0801 48.168C13.6007 48.166 13.1326 48.0222 12.7348 47.7546C12.3371 47.487 12.0274 47.1076 11.8449 46.6643C11.6624 46.221 11.6152 45.7336 11.7093 45.2635C11.8034 44.7935 12.0345 44.3617 12.3736 44.0228C12.7127 43.6839 13.1445 43.453 13.6146 43.3591C14.0847 43.2652 14.5721 43.3126 15.0153 43.4952C15.4586 43.6779 15.8378 43.9877 16.1052 44.3856C16.3727 44.7834 16.5163 45.2516 16.5181 45.731C16.5192 46.0514 16.4568 46.3689 16.3347 46.6651C16.2125 46.9613 16.0329 47.2304 15.8063 47.4569C15.5797 47.6834 15.3105 47.8629 15.0143 47.9849C14.718 48.107 14.4005 48.1692 14.0801 48.168Z" fill="white"/>
  <path d="M20.745 66.429C20.2658 66.4276 19.7978 66.284 19.4004 66.0163C19.0029 65.7487 18.6938 65.3691 18.5123 64.9256C18.3308 64.4821 18.2851 63.9947 18.3809 63.5252C18.4767 63.0557 18.7097 62.6252 19.0504 62.2882C19.3912 61.9513 19.8242 61.7231 20.2948 61.6326C20.7653 61.5421 21.2522 61.5933 21.6936 61.7797C22.135 61.9661 22.5112 62.2794 22.7743 62.6799C23.0375 63.0803 23.1759 63.5498 23.172 64.029C23.161 64.6667 22.9009 65.2749 22.4474 65.7234C21.9938 66.1719 21.3828 66.4252 20.745 66.429Z" fill="white"/>
  <path d="M5.72799 32.676C5.72693 33.3052 5.48071 33.9093 5.04159 34.36C4.60247 34.8107 4.00501 35.0726 3.376 35.09C3.05402 35.0984 2.73359 35.0424 2.43347 34.9255C2.13335 34.8086 1.85956 34.633 1.62811 34.409C1.39665 34.185 1.21218 33.9171 1.08547 33.6209C0.958772 33.3248 0.892387 33.0064 0.890193 32.6843C0.887999 32.3622 0.950031 32.0429 1.07269 31.7451C1.19535 31.4473 1.37616 31.1769 1.60455 30.9498C1.83293 30.7227 2.1043 30.5433 2.4028 30.4223C2.7013 30.3013 3.02091 30.241 3.34298 30.245C3.65952 30.2469 3.97255 30.3115 4.26403 30.4349C4.55552 30.5583 4.8197 30.7382 5.04138 30.9642C5.26306 31.1902 5.43785 31.4577 5.55569 31.7515C5.67353 32.0453 5.73209 32.3595 5.72799 32.676Z" fill="white"/>
  <path d="M21.029 52.504C21.0268 52.9581 20.8902 53.4013 20.6365 53.7779C20.3828 54.1545 20.0233 54.4477 19.6034 54.6203C19.1834 54.7929 18.7217 54.8374 18.2764 54.748C17.8312 54.6587 17.4224 54.4396 17.1016 54.1183C16.7807 53.797 16.5621 53.3879 16.4733 52.9425C16.3846 52.4972 16.4296 52.0356 16.6028 51.6158C16.776 51.1961 17.0695 50.8369 17.4465 50.5837C17.8234 50.3305 18.2669 50.1946 18.7209 50.193C19.0246 50.1919 19.3254 50.251 19.6061 50.3668C19.8868 50.4826 20.1418 50.6529 20.3564 50.8677C20.5709 51.0826 20.7408 51.3377 20.8563 51.6186C20.9717 51.8994 21.0304 52.2004 21.029 52.504Z" fill="white"/>
  <path d="M11.4721 40.265C11.0137 40.2607 10.5668 40.1204 10.1882 39.8618C9.80968 39.6032 9.51646 39.2381 9.34578 38.8126C9.1751 38.3871 9.13466 37.9204 9.2296 37.4719C9.32453 37.0234 9.55057 36.6132 9.87901 36.2933C10.2075 35.9735 10.6235 35.7584 11.0744 35.6754C11.5253 35.5923 11.9906 35.6451 12.4115 35.827C12.8323 36.0088 13.1896 36.3116 13.4381 36.6969C13.6866 37.0822 13.815 37.5326 13.8071 37.991C13.7882 38.5986 13.5342 39.1753 13.0987 39.5994C12.6632 40.0236 12.0801 40.2621 11.4721 40.265Z" fill="white"/>
  <path d="M31.6281 67.7279C31.6281 68.1818 31.4932 68.6254 31.2406 69.0025C30.988 69.3795 30.629 69.673 30.2093 69.8457C29.7896 70.0183 29.328 70.0624 28.8832 69.9722C28.4384 69.8821 28.0304 69.6617 27.711 69.3393C27.3917 69.0168 27.1753 68.6067 27.0894 68.1611C27.0036 67.7154 27.0521 67.2543 27.2288 66.8363C27.4055 66.4182 27.7024 66.0621 28.0819 65.8132C28.4614 65.5642 28.9063 65.4336 29.3601 65.438C29.9645 65.4411 30.5428 65.6841 30.9681 66.1135C31.3934 66.5429 31.6308 67.1236 31.6281 67.7279Z" fill="white"/>
  <path d="M4.71209 25.727C4.09976 25.7188 3.51559 25.4684 3.08737 25.0306C2.65915 24.5929 2.42175 24.0034 2.42709 23.391C2.42709 22.7802 2.66972 22.1944 3.10162 21.7625C3.53352 21.3306 4.11931 21.088 4.7301 21.088C5.34089 21.088 5.92665 21.3306 6.35855 21.7625C6.79044 22.1944 7.03311 22.7802 7.03311 23.391C7.04072 23.6986 6.98598 24.0045 6.87222 24.2903C6.75846 24.5762 6.58804 24.8361 6.37118 25.0544C6.15433 25.2726 5.89554 25.4447 5.61041 25.5603C5.32528 25.6759 5.01971 25.7326 4.71209 25.727Z" fill="white"/>
  <path d="M9.03809 29.745C9.03367 29.4543 9.08747 29.1658 9.19633 28.8962C9.30518 28.6267 9.46692 28.3816 9.67194 28.1756C9.87697 27.9695 10.1212 27.8067 10.3901 27.6965C10.6591 27.5863 10.9474 27.531 11.2381 27.534C11.8242 27.534 12.3864 27.7668 12.8008 28.1813C13.2153 28.5957 13.4481 29.1578 13.4481 29.7439C13.4481 30.3301 13.2153 30.8922 12.8008 31.3067C12.3864 31.7211 11.8242 31.954 11.2381 31.954C10.9477 31.9567 10.6597 31.9013 10.3909 31.7911C10.1222 31.681 9.8782 31.5182 9.67326 31.3124C9.46831 31.1066 9.30656 30.8619 9.19749 30.5928C9.08841 30.3236 9.03422 30.0354 9.03809 29.745Z" fill="white"/>
  <path d="M25.0851 55.517C25.3709 55.5147 25.6543 55.5693 25.9189 55.6775C26.1835 55.7857 26.4239 55.9454 26.6263 56.1473C26.8286 56.3491 26.9889 56.5892 27.0977 56.8536C27.2065 57.1179 27.2617 57.4012 27.2601 57.687C27.2628 58.1199 27.1369 58.5439 26.8982 58.9051C26.6595 59.2663 26.3188 59.5484 25.9195 59.7156C25.5201 59.8827 25.0801 59.9275 24.6553 59.8441C24.2305 59.7607 23.84 59.5529 23.5336 59.2471C23.2271 58.9413 23.0184 58.5514 22.934 58.1267C22.8496 57.7021 22.8933 57.262 23.0596 56.8622C23.2258 56.4625 23.5072 56.1212 23.8678 55.8817C24.2284 55.6422 24.6521 55.5152 25.0851 55.517Z" fill="white"/>
  <path d="M21.489 46.313C21.2164 46.3147 20.9463 46.2615 20.6949 46.1564C20.4434 46.0514 20.2157 45.8966 20.0254 45.7015C19.8352 45.5063 19.6862 45.2749 19.5875 45.0208C19.4888 44.7668 19.4423 44.4954 19.451 44.223C19.4561 43.6816 19.673 43.1637 20.0552 42.7802C20.4374 42.3967 20.9546 42.1781 21.496 42.171C22.0542 42.1737 22.5886 42.3974 22.9822 42.7932C23.3758 43.1891 23.5965 43.7248 23.596 44.283C23.5914 44.5548 23.5333 44.823 23.4248 45.0723C23.3164 45.3215 23.1598 45.5469 22.964 45.7355C22.7682 45.9241 22.5372 46.0722 22.2841 46.1713C22.0309 46.2704 21.7607 46.3186 21.489 46.313Z" fill="white"/>
  <path d="M18.7279 35.178C19.0004 35.1749 19.2707 35.2262 19.5231 35.329C19.7755 35.4317 20.0049 35.5838 20.1978 35.7763C20.3906 35.9688 20.5431 36.1979 20.6464 36.4501C20.7496 36.7022 20.8014 36.9725 20.7989 37.245C20.8038 37.5213 20.7535 37.7959 20.6509 38.0525C20.5483 38.3092 20.3954 38.5427 20.2014 38.7395C20.0073 38.9363 19.7758 39.0924 19.5206 39.1986C19.2654 39.3048 18.9916 39.3589 18.7152 39.3578C18.4388 39.3568 18.1654 39.3005 17.9111 39.1924C17.6567 39.0842 17.4265 38.9264 17.2339 38.7281C17.0414 38.5298 16.8903 38.2951 16.7897 38.0376C16.6891 37.7802 16.6409 37.5053 16.6479 37.229C16.6469 36.9569 16.7003 36.6874 16.8048 36.4362C16.9094 36.185 17.063 35.9572 17.2567 35.7662C17.4505 35.5752 17.6804 35.4248 17.933 35.3238C18.1856 35.2228 18.4559 35.1732 18.7279 35.178Z" fill="white"/>
  <path d="M36.668 69.137C36.6676 68.7547 36.7803 68.3809 36.992 68.0626C37.2036 67.7443 37.5047 67.4957 37.8573 67.3482C38.21 67.2007 38.5984 67.1608 38.9736 67.2335C39.3489 67.3063 39.6942 67.4884 39.9662 67.757C40.2381 68.0256 40.4245 68.3687 40.5019 68.743C40.5793 69.1174 40.5442 69.5062 40.401 69.8607C40.2578 70.2151 40.0129 70.5192 39.6973 70.7347C39.3816 70.9503 39.0092 71.0676 38.627 71.072C38.3711 71.0742 38.1173 71.0259 37.8802 70.9298C37.6431 70.8336 37.4273 70.6915 37.2452 70.5117C37.0632 70.3319 36.9185 70.1179 36.8194 69.882C36.7204 69.646 36.6689 69.3928 36.668 69.137Z" fill="white"/>
  <path d="M8.41192 12.862C8.66964 12.8554 8.92613 12.8997 9.16674 12.9922C9.40736 13.0848 9.62739 13.2239 9.81427 13.4015C10.0011 13.5791 10.1512 13.7917 10.2559 14.0273C10.3606 14.2629 10.4178 14.5168 10.4244 14.7745C10.431 15.0323 10.3867 15.2887 10.2942 15.5294C10.2016 15.77 10.0626 15.99 9.88498 16.1769C9.70738 16.3638 9.49471 16.5138 9.25912 16.6185C9.02353 16.7232 8.76965 16.7804 8.51193 16.787C7.99144 16.8002 7.487 16.6062 7.10959 16.2476C6.73217 15.8889 6.51268 15.395 6.49942 14.8745C6.48616 14.354 6.68021 13.8496 7.03888 13.4722C7.39754 13.0947 7.89144 12.8753 8.41192 12.862Z" fill="white"/>
  <path d="M13.221 23.656C12.7321 23.6492 12.2647 23.4536 11.9168 23.1101C11.5688 22.7666 11.3671 22.3018 11.354 21.813C11.3529 21.5689 11.3999 21.3269 11.4923 21.101C11.5847 20.875 11.7207 20.6694 11.8925 20.496C12.0643 20.3226 12.2686 20.1847 12.4938 20.0903C12.7189 19.9958 12.9604 19.9466 13.2045 19.9455C13.4486 19.9444 13.6906 19.9914 13.9166 20.0838C14.1426 20.1762 14.3481 20.3121 14.5215 20.484C14.6949 20.6558 14.8328 20.8602 14.9273 21.0853C15.0217 21.3104 15.0709 21.5519 15.072 21.796C15.0634 22.2851 14.8659 22.7518 14.5208 23.0985C14.1758 23.4452 13.71 23.645 13.221 23.656Z" fill="white"/>
  <path d="M20.304 29.675C20.311 29.9173 20.2695 30.1587 20.1819 30.3848C20.0944 30.6109 19.9627 30.8172 19.7944 30.9918C19.6261 31.1663 19.4247 31.3054 19.2019 31.4011C18.9791 31.4968 18.7395 31.5471 18.497 31.549C18.01 31.5407 17.5456 31.342 17.2032 30.9955C16.8609 30.6491 16.6677 30.1823 16.6651 29.6953C16.6625 29.2082 16.8506 28.7394 17.1893 28.3893C17.5279 28.0392 17.9901 27.8356 18.477 27.822C18.7191 27.8223 18.9587 27.8705 19.1819 27.9641C19.4052 28.0576 19.6077 28.1945 19.7776 28.3669C19.9476 28.5392 20.0816 28.7436 20.172 28.9681C20.2623 29.1927 20.3072 29.433 20.304 29.675Z" fill="white"/>
  <path d="M28.3259 49.939C28.3254 50.1774 28.2774 50.4133 28.1847 50.6329C28.092 50.8526 27.9564 51.0515 27.786 51.2182C27.6155 51.3849 27.4135 51.5159 27.1919 51.6036C26.9702 51.6913 26.7332 51.7339 26.4949 51.729C26.2556 51.7251 26.0195 51.6741 25.7999 51.579C25.5803 51.4838 25.3816 51.3464 25.2152 51.1745C25.0487 51.0026 24.9178 50.7995 24.8298 50.577C24.7418 50.3544 24.6985 50.1168 24.7024 49.8775C24.7063 49.6382 24.7572 49.4021 24.8524 49.1825C24.9475 48.9629 25.085 48.7642 25.2569 48.5978C25.4288 48.4313 25.6319 48.3004 25.8544 48.2124C26.0769 48.1244 26.3146 48.0811 26.5539 48.085C26.7921 48.09 27.0269 48.1421 27.245 48.238C27.463 48.334 27.66 48.4721 27.8246 48.6443C27.9892 48.8165 28.1182 49.0195 28.2042 49.2417C28.2902 49.4639 28.3316 49.7008 28.3259 49.939Z" fill="white"/>
  <path d="M34.453 60.9C34.4563 61.1385 34.4122 61.3753 34.3233 61.5965C34.2343 61.8178 34.1022 62.0192 33.9347 62.189C33.7673 62.3588 33.5677 62.4936 33.3477 62.5856C33.1276 62.6776 32.8915 62.725 32.653 62.725C32.2922 62.7292 31.9382 62.626 31.6361 62.4286C31.334 62.2313 31.0973 61.9486 30.9561 61.6164C30.815 61.2843 30.7757 60.9178 30.8432 60.5633C30.9108 60.2088 31.0821 59.8823 31.3355 59.6254C31.5889 59.3685 31.913 59.1926 32.2665 59.1202C32.6201 59.0477 32.9872 59.082 33.3212 59.2185C33.6552 59.3551 33.9411 59.5879 34.1427 59.8872C34.3442 60.1866 34.4522 60.5391 34.453 60.9Z" fill="white"/>
  <path d="M47.9111 66.491C48.3303 66.4949 48.7309 66.6647 49.0253 66.9633C49.3197 67.2618 49.4839 67.6647 49.4821 68.084C49.4698 68.5024 49.2947 68.8995 48.9939 69.1907C48.6932 69.4819 48.2907 69.6442 47.8721 69.643C47.46 69.6288 47.0699 69.4538 46.7853 69.1555C46.5007 68.8571 46.3443 68.4592 46.3495 68.0469C46.3547 67.6347 46.5212 67.2408 46.8133 66.9498C47.1053 66.6588 47.4998 66.4937 47.9121 66.49L47.9111 66.491Z" fill="white"/>
  <path d="M15.824 7.50398C15.8415 7.71645 15.8128 7.93021 15.7401 8.13063C15.6675 8.33104 15.5524 8.51341 15.4028 8.66529C15.2532 8.81718 15.0726 8.93498 14.8733 9.01069C14.674 9.0864 14.4607 9.11825 14.248 9.10401C14.0386 9.10898 13.8304 9.07065 13.6365 8.9914C13.4426 8.91216 13.2672 8.79372 13.1212 8.6435C12.9752 8.49329 12.8618 8.31456 12.7881 8.11848C12.7144 7.9224 12.6821 7.71316 12.693 7.50398C12.6878 7.29648 12.724 7.09006 12.7996 6.89674C12.8751 6.70342 12.9885 6.52711 13.133 6.37812C13.2775 6.22914 13.4503 6.11047 13.6413 6.02906C13.8322 5.94765 14.0374 5.90513 14.245 5.904C14.4572 5.89231 14.6695 5.92589 14.8678 6.00245C15.0661 6.07901 15.2458 6.19681 15.3951 6.34809C15.5444 6.49938 15.6599 6.68068 15.7338 6.87995C15.8077 7.07923 15.8385 7.29192 15.824 7.50398Z" fill="white"/>
  <path d="M27.999 37.984C28.0025 38.1914 27.9639 38.3973 27.8858 38.5895C27.8077 38.7816 27.6915 38.956 27.5444 39.1022C27.3972 39.2483 27.222 39.3632 27.0293 39.44C26.8366 39.5168 26.6304 39.5539 26.423 39.549C26.2156 39.5484 26.0105 39.5065 25.8194 39.4258C25.6284 39.3451 25.4553 39.2271 25.3103 39.0788C25.1653 38.9306 25.0513 38.755 24.9748 38.5622C24.8984 38.3694 24.8611 38.1633 24.865 37.956C24.8682 37.5369 25.0373 37.1362 25.3353 36.8415C25.6333 36.5469 26.036 36.3824 26.455 36.384C26.663 36.3823 26.8692 36.4229 27.061 36.5035C27.2528 36.584 27.4262 36.7027 27.5706 36.8524C27.7151 37.0021 27.8275 37.1796 27.9012 37.3741C27.9748 37.5687 28.0081 37.7762 27.999 37.984Z" fill="white"/>
  <path d="M18.8359 14.698C18.8357 14.897 18.7957 15.094 18.7181 15.2773C18.6406 15.4606 18.5271 15.6266 18.3845 15.7654C18.2418 15.9041 18.0727 16.0129 17.8873 16.0854C17.7019 16.1578 17.5039 16.1923 17.3049 16.187C17.1138 16.189 16.9242 16.1533 16.7469 16.0819C16.5696 16.0105 16.4081 15.9049 16.2717 15.771C16.1352 15.6372 16.0265 15.4778 15.9518 15.3019C15.877 15.126 15.8376 14.9371 15.8359 14.746C15.8382 14.3336 16.002 13.9385 16.2921 13.6454C16.5822 13.3523 16.9756 13.1845 17.3879 13.178C17.5829 13.1824 17.7751 13.2253 17.9535 13.3041C18.1319 13.3829 18.2929 13.4962 18.4275 13.6374C18.562 13.7786 18.6673 13.945 18.7374 14.127C18.8075 14.309 18.841 14.503 18.8359 14.698Z" fill="white"/>
  <path d="M34.614 53.538C34.6027 53.923 34.4425 54.2886 34.1673 54.558C33.8921 54.8275 33.5232 54.9798 33.138 54.983C32.9455 54.9799 32.7555 54.9389 32.5788 54.8624C32.4021 54.7859 32.2422 54.6753 32.1083 54.537C31.9743 54.3986 31.8689 54.2354 31.7981 54.0563C31.7273 53.8773 31.6924 53.686 31.6955 53.4935C31.6986 53.301 31.7396 53.1109 31.8161 52.9342C31.8926 52.7576 32.0032 52.5977 32.1415 52.4637C32.2798 52.3298 32.4432 52.2244 32.6222 52.1536C32.8012 52.0828 32.9925 52.0479 33.185 52.051C33.5697 52.0648 33.9339 52.2276 34.2006 52.5052C34.4673 52.7827 34.6156 53.1531 34.614 53.538Z" fill="white"/>
  <path d="M40.7691 63.347C40.3851 63.3446 40.0177 63.1903 39.7471 62.9179C39.4765 62.6454 39.3248 62.2769 39.3251 61.893C39.3228 61.6989 39.3593 61.5063 39.4325 61.3266C39.5057 61.1469 39.6141 60.9836 39.7514 60.8463C39.8886 60.7091 40.0518 60.6006 40.2316 60.5274C40.4113 60.4542 40.6039 60.4177 40.798 60.4199C40.992 60.4222 41.1837 60.4632 41.3616 60.5406C41.5396 60.618 41.7003 60.7302 41.8343 60.8706C41.9683 61.011 42.0729 61.1768 42.1419 61.3582C42.2108 61.5396 42.2429 61.733 42.2361 61.9269C42.2348 62.1171 42.1956 62.305 42.1209 62.4798C42.0461 62.6546 41.9372 62.8127 41.8006 62.945C41.664 63.0772 41.5025 63.1808 41.3253 63.2498C41.1482 63.3189 40.9591 63.3519 40.7691 63.347Z" fill="white"/>
  <path d="M22.274 22.546C22.2781 22.7362 22.2436 22.9252 22.1726 23.1016C22.1016 23.2781 21.9955 23.4383 21.8608 23.5727C21.7261 23.707 21.5656 23.8126 21.389 23.8831C21.2123 23.9537 21.0232 23.9876 20.833 23.983C20.4418 23.9784 20.0677 23.822 19.7897 23.5468C19.5117 23.2716 19.3516 22.8991 19.343 22.508C19.3496 22.1236 19.5074 21.7573 19.7822 21.4885C20.057 21.2197 20.4266 21.0701 20.811 21.072C21.0063 21.0637 21.2012 21.0962 21.3831 21.1674C21.5651 21.2387 21.7303 21.3472 21.868 21.4859C22.0057 21.6246 22.1129 21.7906 22.1828 21.9731C22.2527 22.1556 22.2838 22.3508 22.274 22.546Z" fill="white"/>
  <path d="M26.9199 31.17C26.9163 31.4335 26.8344 31.69 26.6848 31.907C26.5351 32.1239 26.3244 32.2914 26.0793 32.3884C25.8343 32.4854 25.5659 32.5073 25.3084 32.4515C25.0508 32.3957 24.8156 32.2646 24.6327 32.0749C24.4497 31.8852 24.3273 31.6454 24.2808 31.386C24.2344 31.1266 24.2661 30.8593 24.3718 30.6179C24.4776 30.3765 24.6527 30.172 24.8749 30.0303C25.0971 29.8886 25.3564 29.8161 25.6199 29.822C25.9684 29.8361 26.2981 29.9842 26.5403 30.2353C26.7824 30.4864 26.9184 30.8212 26.9199 31.17Z" fill="white"/>
  <path d="M30.313 42.331C30.663 42.3282 30.9997 42.4645 31.2492 42.71C31.4986 42.9555 31.6403 43.29 31.643 43.64C31.6458 43.9899 31.5095 44.3267 31.264 44.5761C31.0185 44.8255 30.684 44.9672 30.3341 44.9699C30.1579 44.976 29.9823 44.9467 29.8176 44.8838C29.6529 44.8209 29.5026 44.7256 29.3753 44.6036C29.2481 44.4816 29.1466 44.3354 29.0767 44.1736C29.0069 44.0117 28.9702 43.8375 28.9688 43.6612C28.9674 43.485 29.0013 43.3102 29.0686 43.1473C29.1358 42.9843 29.235 42.8365 29.3603 42.7125C29.4856 42.5885 29.6344 42.4909 29.798 42.4253C29.9617 42.3598 30.1368 42.3277 30.313 42.331Z" fill="white"/>
  <path d="M20.6051 1.92096C20.6072 1.58317 20.7398 1.25931 20.9752 1.01703C21.2106 0.774751 21.5305 0.632835 21.8681 0.620972C22.1937 0.668594 22.4928 0.827185 22.7149 1.06989C22.937 1.31259 23.0685 1.62454 23.0871 1.953C23.0655 2.28207 22.9225 2.59139 22.6858 2.82104C22.4492 3.0507 22.1357 3.1843 21.8061 3.19598C21.6419 3.19644 21.4794 3.16321 21.3286 3.09833C21.1778 3.03345 21.0418 2.9383 20.9293 2.81879C20.8167 2.69927 20.7299 2.55793 20.6741 2.4035C20.6183 2.24908 20.5949 2.08482 20.6051 1.92096Z" fill="white"/>
  <path d="M57.8271 64.607C57.8295 64.7664 57.8002 64.9247 57.7411 65.0728C57.6819 65.2209 57.594 65.3557 57.4824 65.4696C57.3709 65.5835 57.2378 65.6742 57.091 65.7364C56.9442 65.7986 56.7865 65.831 56.6271 65.8319C56.3894 65.8329 56.1567 65.7635 55.9584 65.6326C55.76 65.5017 55.6048 65.315 55.5123 65.096C55.4198 64.8771 55.3941 64.6357 55.4384 64.4022C55.4827 64.1687 55.5951 63.9535 55.7614 63.7837C55.9278 63.6139 56.1406 63.4972 56.3731 63.448C56.6057 63.3989 56.8476 63.4196 57.0684 63.5076C57.2891 63.5956 57.479 63.7469 57.614 63.9425C57.749 64.1382 57.8231 64.3693 57.8271 64.607Z" fill="white"/>
  <path d="M25.476 17.643C25.3248 17.6437 25.175 17.614 25.0355 17.5555C24.896 17.497 24.7698 17.4111 24.6643 17.3027C24.5588 17.1943 24.4762 17.0658 24.4216 16.9248C24.3669 16.7838 24.3412 16.6332 24.346 16.482C24.3773 16.1934 24.5171 15.9275 24.7371 15.7381C24.9571 15.5487 25.2409 15.4501 25.531 15.4622C25.821 15.4743 26.0956 15.5961 26.2992 15.8031C26.5027 16.0101 26.6199 16.2868 26.627 16.577C26.6266 16.7242 26.5959 16.8697 26.5368 17.0045C26.4777 17.1393 26.3915 17.2604 26.2835 17.3604C26.1755 17.4604 26.0481 17.5371 25.9091 17.5857C25.7702 17.6343 25.6228 17.6538 25.476 17.643Z" fill="white"/>
  <path d="M48.8789 59.484C49.0255 59.4828 49.1709 59.5107 49.3066 59.5661C49.4423 59.6215 49.5657 59.7033 49.6696 59.8067C49.7735 59.9101 49.8559 60.0332 49.9119 60.1686C49.9679 60.3041 49.9964 60.4494 49.9959 60.596C49.9921 60.7388 49.9599 60.8794 49.9012 61.0096C49.8425 61.1399 49.7585 61.2572 49.6541 61.3547C49.5497 61.4522 49.427 61.528 49.2931 61.5776C49.1591 61.6273 49.0166 61.6499 48.8739 61.644C48.7314 61.6471 48.5898 61.6214 48.4574 61.5685C48.3251 61.5157 48.2048 61.4366 48.1037 61.3362C48.0026 61.2357 47.9228 61.1159 47.869 60.984C47.8153 60.852 47.7887 60.7105 47.7909 60.568C47.791 60.4253 47.8193 60.2841 47.8741 60.1523C47.9288 60.0206 48.0091 59.901 48.1101 59.8004C48.2112 59.6997 48.3311 59.6199 48.463 59.5656C48.5949 59.5113 48.7363 59.4836 48.8789 59.484Z" fill="white"/>
  <path d="M41.7171 54.697C41.7171 54.9888 41.6012 55.2685 41.3949 55.4748C41.1886 55.6811 40.9088 55.797 40.6171 55.797C40.3254 55.797 40.0456 55.6811 39.8393 55.4748C39.633 55.2685 39.5171 54.9888 39.5171 54.697C39.517 54.5498 39.5465 54.4039 39.6039 54.2683C39.6612 54.1326 39.7452 54.0099 39.8509 53.9073C39.9565 53.8047 40.0817 53.7244 40.219 53.6711C40.3563 53.6178 40.5029 53.5926 40.6501 53.597C40.7928 53.5977 40.9339 53.627 41.0652 53.6829C41.1965 53.7389 41.3153 53.8205 41.4146 53.9229C41.514 54.0254 41.5919 54.1466 41.6439 54.2795C41.6958 54.4124 41.7207 54.5544 41.7171 54.697Z" fill="white"/>
  <path d="M37.1781 46.944C37.1793 47.0521 37.1588 47.1594 37.1179 47.2595C37.077 47.3596 37.0164 47.4506 36.9398 47.5269C36.8632 47.6033 36.7721 47.6634 36.6718 47.704C36.5716 47.7445 36.4642 47.7646 36.3561 47.763C36.2475 47.7668 36.1393 47.749 36.0376 47.7108C35.936 47.6725 35.8429 47.6145 35.7637 47.5402C35.6845 47.4658 35.6208 47.3766 35.5763 47.2775C35.5317 47.1785 35.5072 47.0716 35.5041 46.963C35.5019 46.8504 35.5225 46.7384 35.5646 46.6339C35.6067 46.5293 35.6694 46.4344 35.749 46.3547C35.8287 46.275 35.9235 46.2121 36.028 46.1699C36.1325 46.1277 36.2444 46.107 36.3571 46.109C36.5766 46.1111 36.7863 46.2002 36.9402 46.3568C37.0941 46.5133 37.1797 46.7245 37.1781 46.944Z" fill="white"/>
  <path d="M27.9039 25.528C27.7916 25.5335 27.6794 25.5161 27.574 25.4769C27.4686 25.4378 27.3723 25.3777 27.2909 25.3001C27.2094 25.2226 27.1446 25.1294 27.1003 25.026C27.056 24.9227 27.0332 24.8114 27.0332 24.699C27.0332 24.5866 27.056 24.4753 27.1003 24.372C27.1446 24.2686 27.2094 24.1754 27.2909 24.0979C27.3723 24.0203 27.4686 23.9602 27.574 23.921C27.6794 23.8818 27.7916 23.8644 27.9039 23.87C28.0201 23.8551 28.1381 23.8662 28.2495 23.9023C28.3609 23.9384 28.4629 23.9988 28.5483 24.0789C28.6336 24.1591 28.7002 24.2572 28.7432 24.3661C28.7862 24.475 28.8045 24.5921 28.7969 24.709C28.7811 24.9338 28.6797 25.1441 28.5136 25.2964C28.3475 25.4488 28.1293 25.5316 27.9039 25.528Z" fill="white"/>
</svg>