<svg xmlns="http://www.w3.org/2000/svg" width="48" height="48" viewBox="0 0 48 48" fill="none">
  <g opacity="0.5">
    <path d="M38.863 20.16H36.436C36.131 19.003 35.6701 17.8928 35.066 16.86L36.783 15.133C37.0991 14.8136 37.2764 14.3824 37.2764 13.933C37.2764 13.4837 37.0991 13.0524 36.783 12.733L34.371 10.316C34.0476 10.0077 33.6179 9.83564 33.171 9.83564C32.7241 9.83564 32.2944 10.0077 31.971 10.316L30.244 12.033C29.2112 11.4289 28.101 10.968 26.944 10.663V8.23302C26.9427 7.78256 26.7632 7.35092 26.4446 7.0324C26.1261 6.71387 25.6945 6.53434 25.244 6.53302H21.83C21.3795 6.53434 20.9479 6.71387 20.6294 7.0324C20.3109 7.35092 20.1313 7.78256 20.13 8.23302V10.664C18.973 10.969 17.8628 11.4299 16.83 12.034L15.1 10.316C14.7766 10.0077 14.3469 9.83564 13.9 9.83564C13.4531 9.83564 13.0234 10.0077 12.7 10.316L10.283 12.733C9.96692 13.0524 9.78962 13.4837 9.78962 13.933C9.78962 14.3824 9.96692 14.8136 10.283 15.133L12 16.856C11.3959 17.8888 10.935 18.999 10.63 20.156H8.2C7.74833 20.1573 7.31563 20.3378 6.99691 20.6579C6.67818 20.9779 6.49947 21.4113 6.5 21.863V25.27C6.50132 25.7205 6.68085 26.1521 6.99938 26.4706C7.3179 26.7892 7.74954 26.9687 8.2 26.97H10.631C10.8172 27.6736 11.0604 28.3609 11.358 29.025C11.3962 29.1085 11.454 29.1815 11.5264 29.2379C11.5988 29.2943 11.6837 29.3324 11.774 29.3489C11.8643 29.3655 11.9572 29.3601 12.045 29.3331C12.1327 29.3062 12.2126 29.2584 12.278 29.194L14.7 26.778C14.7726 26.7057 14.8242 26.6151 14.8494 26.5158C14.8745 26.4165 14.8723 26.3122 14.843 26.214C14.5847 25.3551 14.4529 24.463 14.452 23.566C14.452 21.7694 14.9848 20.0131 15.9829 18.5192C16.9811 17.0254 18.3998 15.861 20.0597 15.1735C21.7196 14.486 23.5461 14.3061 25.3082 14.6566C27.0703 15.0071 28.6889 15.8722 29.9594 17.1427C31.2298 18.4131 32.0949 20.0317 32.4455 21.7938C32.796 23.5559 32.6161 25.3824 31.9285 27.0423C31.241 28.7022 30.0767 30.1209 28.5828 31.1191C27.0889 32.1173 25.3326 32.65 23.536 32.65C22.6374 32.6494 21.7436 32.5177 20.883 32.259C20.7847 32.2297 20.6803 32.2275 20.5808 32.2527C20.4813 32.2779 20.3905 32.3295 20.318 32.402L17.9 34.822C17.836 34.8876 17.7887 34.9675 17.7621 35.0551C17.7355 35.1428 17.7303 35.2355 17.7469 35.3256C17.7636 35.4156 17.8016 35.5004 17.8578 35.5727C17.9141 35.645 17.9868 35.7027 18.07 35.741C18.734 36.0392 19.4213 36.2827 20.125 36.469V38.897C20.1263 39.3475 20.3059 39.7791 20.6244 40.0976C20.9429 40.4162 21.3745 40.5957 21.825 40.597H25.232C25.6825 40.5957 26.1141 40.4162 26.4326 40.0976C26.7512 39.7791 26.9307 39.3475 26.932 38.897V36.469C28.089 36.164 29.1992 35.7031 30.232 35.099L31.955 36.817C32.2784 37.1254 32.7081 37.2974 33.155 37.2974C33.6019 37.2974 34.0316 37.1254 34.355 36.817L36.768 34.404C37.0841 34.0846 37.2614 33.6534 37.2614 33.204C37.2614 32.7547 37.0841 32.3234 36.768 32.004L35.049 30.28C35.6531 29.2472 36.114 28.137 36.419 26.98H38.847C39.2975 26.9787 39.7291 26.7992 40.0476 26.4806C40.3661 26.1621 40.5457 25.7305 40.547 25.28V21.863C40.5465 21.4148 40.3695 20.9848 40.0544 20.6661C39.7392 20.3473 39.3112 20.1655 38.863 20.16ZM39.431 25.27C39.4307 25.4206 39.3708 25.5649 39.2643 25.6714C39.1579 25.7778 39.0136 25.8378 38.863 25.838H35.99C35.8612 25.838 35.7363 25.8817 35.6356 25.962C35.535 26.0423 35.4646 26.1545 35.436 26.28C35.1321 27.6198 34.6021 28.8981 33.869 30.06C33.8012 30.1684 33.772 30.2965 33.7861 30.4236C33.8003 30.5507 33.857 30.6692 33.947 30.76L35.98 32.799C36.0326 32.8515 36.0744 32.9138 36.1028 32.9825C36.1313 33.0511 36.146 33.1247 36.146 33.199C36.146 33.2733 36.1313 33.3469 36.1028 33.4156C36.0744 33.4842 36.0326 33.5465 35.98 33.599L33.567 36.012C33.4597 36.1159 33.3163 36.174 33.167 36.174C33.0177 36.174 32.8743 36.1159 32.767 36.012L30.73 33.98C30.639 33.8903 30.5205 33.8338 30.3935 33.8197C30.2665 33.8055 30.1385 33.8345 30.03 33.902C28.8681 34.6352 27.5898 35.1651 26.25 35.469C26.1244 35.4976 26.0123 35.568 25.932 35.6686C25.8517 35.7693 25.808 35.8942 25.808 36.023V38.896C25.8077 39.0466 25.7478 39.1909 25.6413 39.2974C25.5349 39.4038 25.3906 39.4638 25.24 39.464H21.83C21.6794 39.4638 21.5351 39.4038 21.4287 39.2974C21.3222 39.1909 21.2623 39.0466 21.262 38.896V36.023C21.262 35.8942 21.2183 35.7693 21.138 35.6686C21.0577 35.568 20.9456 35.4976 20.82 35.469C20.307 35.3528 19.8022 35.2028 19.309 35.02L20.884 33.441C21.7487 33.6699 22.6395 33.7859 23.534 33.786C25.5553 33.786 27.5313 33.1866 29.2119 32.0636C30.8926 30.9407 32.2025 29.3445 32.9761 27.477C33.7496 25.6096 33.952 23.5547 33.5576 21.5722C33.1633 19.5897 32.1899 17.7687 30.7606 16.3394C29.3313 14.9101 27.5103 13.9367 25.5278 13.5424C23.5453 13.1481 21.4904 13.3504 19.623 14.124C17.7555 14.8975 16.1594 16.2074 15.0364 17.8881C13.9134 19.5688 13.314 21.5447 13.314 23.566C13.3145 24.4585 13.4304 25.3473 13.659 26.21L12.079 27.789C11.8964 27.2961 11.7464 26.7917 11.63 26.279C11.6014 26.1535 11.5311 26.0413 11.4304 25.961C11.3297 25.8807 11.2048 25.837 11.076 25.837H8.2C8.04944 25.8368 7.90512 25.7768 7.79866 25.6704C7.69219 25.5639 7.63227 25.4196 7.632 25.269V21.863C7.63227 21.7125 7.69219 21.5681 7.79866 21.4617C7.90512 21.3552 8.04944 21.2953 8.2 21.295H11.076C11.2048 21.2951 11.3297 21.2513 11.4304 21.171C11.5311 21.0907 11.6014 20.9786 11.63 20.853C11.9349 19.513 12.4658 18.2347 13.2 17.073C13.2677 16.9646 13.2968 16.8365 13.2826 16.7095C13.2684 16.5824 13.2119 16.4639 13.122 16.373L11.086 14.333C11.0334 14.2805 10.9917 14.2182 10.9632 14.1496C10.9347 14.0809 10.92 14.0073 10.92 13.933C10.92 13.8587 10.9347 13.7851 10.9632 13.7165C10.9917 13.6478 11.0334 13.5855 11.086 13.533L13.5 11.119C13.6074 11.0154 13.7508 10.9575 13.9 10.9575C14.0492 10.9575 14.1926 11.0154 14.3 11.119L16.339 13.152C16.4298 13.242 16.5484 13.2987 16.6754 13.3129C16.8025 13.3271 16.9306 13.2978 17.039 13.23C18.2012 12.4968 19.4798 11.9669 20.82 11.663C20.9456 11.6345 21.0577 11.5641 21.138 11.4634C21.2183 11.3628 21.262 11.2378 21.262 11.109V8.23302C21.2623 8.08246 21.3222 7.93814 21.4287 7.83168C21.5351 7.72521 21.6794 7.66528 21.83 7.66502H25.237C25.3867 7.6666 25.5297 7.72711 25.6351 7.83343C25.7405 7.93975 25.7997 8.08332 25.8 8.23302V11.109C25.8 11.2378 25.8437 11.3628 25.924 11.4634C26.0043 11.5641 26.1164 11.6345 26.242 11.663C27.5838 11.9674 28.8638 12.4983 30.027 13.233C30.1353 13.301 30.2635 13.3303 30.3906 13.3162C30.5177 13.302 30.6363 13.2452 30.727 13.155L32.77 11.119C32.8775 11.0156 33.0209 10.9579 33.17 10.9579C33.3192 10.9579 33.4625 11.0156 33.57 11.119L35.981 13.533C36.0336 13.5855 36.0754 13.6478 36.1038 13.7165C36.1323 13.7851 36.147 13.8587 36.147 13.933C36.147 14.0073 36.1323 14.0809 36.1038 14.1496C36.0754 14.2182 36.0336 14.2805 35.981 14.333L33.948 16.371C33.8581 16.4619 33.8016 16.5804 33.7874 16.7075C33.7732 16.8345 33.8024 16.9626 33.87 17.071C34.6035 18.2329 35.1337 19.5111 35.438 20.851C35.4666 20.9766 35.5369 21.0887 35.6376 21.169C35.7383 21.2493 35.8632 21.2931 35.992 21.293H38.865C39.0156 21.2933 39.1599 21.3532 39.2663 21.4597C39.3728 21.5661 39.4327 21.7105 39.433 21.861L39.431 25.27ZM30.001 20.67C29.9693 20.5791 29.9152 20.4976 29.8437 20.4331C29.7721 20.3687 29.6855 20.3233 29.5917 20.3013C29.498 20.2792 29.4002 20.2812 29.3074 20.307C29.2146 20.3329 29.1299 20.3817 29.061 20.449L26.478 23.033L24.671 22.433L24.071 20.626L26.655 18.042C26.7223 17.9731 26.7711 17.8884 26.797 17.7956C26.8228 17.7028 26.8248 17.6051 26.8027 17.5113C26.7807 17.4176 26.7354 17.3309 26.6709 17.2593C26.6064 17.1878 26.525 17.1337 26.434 17.102C25.4616 16.7738 24.4183 16.7156 23.4154 16.9338C22.4126 17.152 21.4877 17.6382 20.7395 18.3407C19.9913 19.0433 19.4478 19.9357 19.167 20.9229C18.8862 21.91 18.8786 22.9549 19.145 23.946L7.381 35.704C6.84871 36.237 6.54994 36.9595 6.55041 37.7128C6.55064 38.0858 6.62433 38.455 6.76727 38.7995C6.91022 39.144 7.11961 39.457 7.3835 39.7205C7.64739 39.9841 7.96061 40.1931 8.30528 40.3356C8.64994 40.4781 9.0193 40.5513 9.39227 40.5511C10.1455 40.5506 10.8677 40.251 11.4 39.718L23.157 27.957C24.1481 28.2232 25.1928 28.2154 26.1798 27.9345C27.1668 27.6536 28.0591 27.1101 28.7615 26.3619C29.4638 25.6137 29.95 24.689 30.1681 23.6862C30.3863 22.6835 30.3281 21.6403 30 20.668L30.001 20.67ZM27.835 25.69C27.2384 26.2897 26.4853 26.7097 25.6616 26.9022C24.8379 27.0948 23.9766 27.0521 23.176 26.779C23.0758 26.7456 22.9683 26.7407 22.8656 26.7649C22.7628 26.7891 22.6687 26.8414 22.594 26.916L10.594 38.916C10.4358 39.0742 10.248 39.1997 10.0414 39.2853C9.8347 39.3709 9.6132 39.4149 9.3895 39.4149C9.16581 39.4149 8.9443 39.3709 8.73763 39.2853C8.53096 39.1997 8.34318 39.0742 8.185 38.916C8.02682 38.7578 7.90135 38.5701 7.81575 38.3634C7.73014 38.1567 7.68608 37.9352 7.68608 37.7115C7.68608 37.4878 7.73014 37.2663 7.81575 37.0597C7.90135 36.853 8.02682 36.6652 8.185 36.507L20.185 24.507C20.2598 24.4324 20.3122 24.3384 20.3364 24.2355C20.3607 24.1327 20.3557 24.0252 20.322 23.925C20.0775 23.2023 20.0192 22.4295 20.1528 21.6783C20.2863 20.9271 20.6072 20.2218 21.0858 19.6276C21.5645 19.0334 22.1853 18.5696 22.8908 18.2792C23.5964 17.9887 24.3638 17.881 25.122 17.966L23.022 20.066C22.9475 20.1406 22.8952 20.2345 22.871 20.3371C22.8468 20.4397 22.8517 20.547 22.885 20.647L23.685 23.056C23.7129 23.1396 23.7599 23.2156 23.8222 23.2779C23.8845 23.3402 23.9604 23.3871 24.044 23.415L26.453 24.215C26.553 24.2485 26.6604 24.2534 26.763 24.2292C26.8656 24.205 26.9595 24.1526 27.034 24.078L29.134 21.978C29.2115 22.6543 29.1347 23.3393 28.9096 23.9817C28.6844 24.6241 28.3167 25.2071 27.834 25.687L27.835 25.69Z" fill="white" stroke="white" stroke-width="0.5"/>
  </g>
</svg>