<svg xmlns="http://www.w3.org/2000/svg" width="48" height="51" viewBox="0 0 48 51" fill="none">
  <g opacity="0.9">
    <path d="M20.7817 50.9327C20.6402 50.9331 20.5011 50.8963 20.3783 50.8261C20.2555 50.7559 20.1532 50.6548 20.0817 50.5327L18.8817 48.5077C18.1393 48.5752 17.3917 48.5564 16.6537 48.4517L15.3417 50.4327C15.2362 50.5915 15.078 50.708 14.895 50.7614C14.712 50.8148 14.516 50.8018 14.3417 50.7247L11.7617 49.5837C11.586 49.5061 11.4436 49.3685 11.3601 49.1956C11.2765 49.0226 11.2573 48.8256 11.3057 48.6397L11.8987 46.3657C11.3277 45.8933 10.8133 45.3563 10.3657 44.7657L8.05068 45.2377C7.86371 45.2754 7.66941 45.246 7.50203 45.1545C7.33465 45.0631 7.20491 44.9155 7.13568 44.7377L6.12668 42.1237C6.05755 41.945 6.05418 41.7475 6.1172 41.5665C6.18021 41.3856 6.30549 41.2329 6.47068 41.1357L8.50168 39.9357C8.4344 39.198 8.45319 38.4551 8.55768 37.7217L6.57168 36.4167C6.41269 36.3114 6.29606 36.1533 6.24244 35.9703C6.18882 35.7873 6.20166 35.5912 6.27868 35.4167L7.42268 32.8467C7.50055 32.672 7.6378 32.5305 7.81007 32.4474C7.98233 32.3643 8.17848 32.3449 8.36368 32.3927L10.6507 32.9847C11.1267 32.4126 11.6677 31.8978 12.2627 31.4507L11.7837 29.1307C11.7448 28.9433 11.7737 28.7481 11.8652 28.58C11.9568 28.4118 12.1051 28.2817 12.2837 28.2127L14.9027 27.2077C15.0811 27.1392 15.2779 27.1361 15.4584 27.1989C15.6389 27.2617 15.7913 27.3863 15.8887 27.5507L17.0987 29.5957C17.3877 29.5707 17.6857 29.5587 17.9987 29.5607C18.2132 29.5607 18.419 29.646 18.5707 29.7977C18.7224 29.9494 18.8077 30.1552 18.8077 30.3697C18.8077 30.5843 18.7224 30.7901 18.5707 30.9418C18.419 31.0935 18.2132 31.1787 17.9987 31.1787H17.9597C17.5676 31.1766 17.1759 31.2033 16.7877 31.2587C16.6288 31.2824 16.4664 31.2581 16.3214 31.189C16.1764 31.1199 16.0553 31.0091 15.9737 30.8707L14.8437 28.9617L13.5037 29.4767L13.9507 31.6427C13.9833 31.8007 13.9679 31.9649 13.9064 32.1141C13.8449 32.2633 13.7402 32.3906 13.6057 32.4797C12.8345 32.9931 12.1579 33.6359 11.6057 34.3797C11.5097 34.5086 11.3775 34.6059 11.2259 34.6594C11.0743 34.7128 10.9103 34.7199 10.7547 34.6797L8.62068 34.1277L8.03368 35.4467L9.88468 36.6687C10.0191 36.7573 10.124 36.884 10.186 37.0326C10.248 37.1812 10.2642 37.3449 10.2327 37.5027C10.0504 38.4078 10.0267 39.3376 10.1627 40.2507C10.1864 40.4099 10.162 40.5724 10.0927 40.7176C10.0234 40.8628 9.91229 40.984 9.77368 41.0657L7.88268 42.1807L8.39768 43.5127L10.5577 43.0727C10.7149 43.0405 10.8782 43.0559 11.0267 43.1168C11.1752 43.1777 11.3023 43.2814 11.3917 43.4147C11.9054 44.1833 12.5482 44.8572 13.2917 45.4067C13.4212 45.5031 13.519 45.636 13.5724 45.7883C13.6259 45.9407 13.6326 46.1055 13.5917 46.2617L13.0387 48.3827L14.3667 48.9697L15.5947 47.1227C15.6838 46.9894 15.8103 46.8855 15.9584 46.8239C16.1064 46.7624 16.2693 46.7459 16.4267 46.7767C17.3365 46.9586 18.2708 46.9823 19.1887 46.8467C19.3475 46.8231 19.5097 46.8473 19.6547 46.9162C19.7996 46.9851 19.9208 47.0956 20.0027 47.2337L21.1247 49.1237L22.4657 48.6087L22.0257 46.4617C21.9933 46.3039 22.0088 46.1399 22.0703 45.9909C22.1317 45.8419 22.2364 45.7148 22.3707 45.6257C23.1421 45.1127 23.8188 44.4698 24.3707 43.7257C24.4669 43.5968 24.5992 43.4994 24.751 43.4459C24.9027 43.3925 25.0669 43.3855 25.2227 43.4257L27.3567 43.9777L27.9437 42.6587L26.0927 41.4367C25.9586 41.3479 25.8539 41.2211 25.7921 41.0726C25.7303 40.9241 25.7142 40.7605 25.7457 40.6027C25.8469 40.0879 25.8972 39.5644 25.8957 39.0397C25.8959 38.8253 25.9813 38.6198 26.133 38.4683C26.2847 38.3168 26.4903 38.2317 26.7047 38.2317C26.8109 38.2319 26.9161 38.2529 27.0142 38.2937C27.1123 38.3345 27.2014 38.3942 27.2764 38.4694C27.3515 38.5446 27.4109 38.6339 27.4515 38.7321C27.492 38.8303 27.5128 38.9355 27.5127 39.0417C27.5128 39.4886 27.4824 39.935 27.4217 40.3777L29.4057 41.6867C29.5647 41.792 29.6813 41.9502 29.7349 42.1332C29.7885 42.3162 29.7757 42.5123 29.6987 42.6867L28.5547 45.2567C28.4765 45.4312 28.3392 45.5724 28.167 45.6554C27.9949 45.7385 27.7989 45.7581 27.6137 45.7107L25.3267 45.1187C24.851 45.6887 24.3107 46.2014 23.7167 46.6467L24.1887 48.9467C24.2271 49.134 24.198 49.3289 24.1065 49.4967C24.015 49.6646 23.8669 49.7946 23.6887 49.8637L21.0717 50.8787C20.9791 50.9143 20.8808 50.9326 20.7817 50.9327Z" fill="white"/>
    <path d="M17.9976 44.5637C16.8815 44.5647 15.7912 44.2284 14.8697 43.5988C13.9482 42.9692 13.2384 42.0758 12.8336 41.0357C12.5727 40.3599 12.4477 39.6391 12.4658 38.9149C12.484 38.1906 12.645 37.4771 12.9395 36.8151C13.234 36.1532 13.6562 35.5559 14.182 35.0575C14.7079 34.5591 15.3269 34.1694 16.0036 33.9107C16.6434 33.6714 17.3206 33.5479 18.0036 33.5457V35.1637H17.9926C17.2366 35.162 16.4963 35.3801 15.862 35.7915C15.2276 36.2029 14.7265 36.7898 14.4196 37.4807C14.2113 37.9466 14.0976 38.4493 14.0853 38.9595C14.0729 39.4697 14.1621 39.9773 14.3476 40.4527C14.6775 41.3025 15.2939 42.0103 16.0902 42.4538C16.8866 42.8973 17.8129 43.0486 18.709 42.8816C19.6051 42.7146 20.4147 42.2398 20.9978 41.5392C21.581 40.8386 21.901 39.9563 21.9026 39.0447H23.5206C23.5211 40.5086 22.9402 41.9126 21.9056 42.9482C20.871 43.9837 19.4674 44.5659 18.0036 44.5667L17.9976 44.5637Z" fill="white"/>
    <path d="M41.6576 39.8517H18.0016C17.7871 39.8517 17.5813 39.7665 17.4296 39.6148C17.2779 39.4631 17.1926 39.2573 17.1926 39.0427V24.1977C17.2033 23.701 17.3635 23.2191 17.6523 22.8148C17.9411 22.4106 18.3452 22.1028 18.8116 21.9317L25.2266 19.3827C25.4108 19.3092 25.6156 19.3059 25.8021 19.3736C25.9885 19.4413 26.1435 19.5751 26.2376 19.7497L29.6606 26.0907C29.6772 26.1212 29.7017 26.1466 29.7316 26.1644C29.7614 26.1821 29.7954 26.1914 29.8301 26.1914C29.8648 26.1914 29.8989 26.1821 29.9287 26.1644C29.9585 26.1466 29.983 26.1212 29.9996 26.0907L33.4226 19.7497C33.5194 19.571 33.6799 19.4352 33.8723 19.3694C34.0646 19.3037 34.2747 19.3127 34.4606 19.3947L40.9446 22.2577C41.3863 22.4417 41.7652 22.7498 42.0353 23.1447C42.3054 23.5396 42.4553 24.0044 42.4666 24.4827V39.0417C42.4666 39.2563 42.3814 39.4621 42.2297 39.6138C42.078 39.7655 41.8722 39.8517 41.6576 39.8517ZM18.8106 38.2337H40.8486V24.4827C40.8383 24.3176 40.7801 24.159 40.6809 24.0265C40.5818 23.894 40.4462 23.7933 40.2906 23.7367L34.4906 21.1757L31.4226 26.8597C31.2675 27.1469 31.0376 27.3868 30.7572 27.554C30.4769 27.7212 30.1565 27.8095 29.8301 27.8095C29.5037 27.8095 29.1834 27.7212 28.903 27.554C28.6227 27.3868 28.3928 27.1469 28.2376 26.8597L25.1566 21.1527L19.4106 23.4357C19.246 23.4887 19.1009 23.5896 18.994 23.7255C18.8871 23.8615 18.8233 24.0262 18.8106 24.1987V38.2337Z" fill="white"/>
    <path d="M29.8297 18.4527C27.7886 18.4538 25.8304 17.6452 24.3848 16.2042C22.9392 14.7633 22.1242 12.8078 22.1187 10.7667V8.47473C22.1187 6.42965 22.9311 4.46833 24.3772 3.02223C25.8232 1.57614 27.7846 0.763733 29.8297 0.763733C31.8747 0.763733 33.8361 1.57614 35.2822 3.02223C36.7282 4.46833 37.5406 6.42965 37.5406 8.47473V10.7677C37.5351 12.8088 36.7201 14.7643 35.2745 16.2052C33.8289 17.6462 31.8707 18.4548 29.8297 18.4537V18.4527ZM29.8297 2.40673C28.2176 2.4054 26.6708 3.04348 25.5286 4.18102C24.3864 5.31857 23.7419 6.8627 23.7366 8.47473V10.7667C23.7366 12.3828 24.3786 13.9327 25.5214 15.0755C26.6641 16.2182 28.2141 16.8602 29.8302 16.8602C31.4463 16.8602 32.9961 16.2182 34.1389 15.0755C35.2817 13.9327 35.9236 12.3828 35.9236 10.7667V8.47473C35.9184 6.8627 35.2739 5.31857 34.1317 4.18102C32.9895 3.04348 31.4417 2.4054 29.8297 2.40673Z" fill="white"/>
  </g>
</svg>