<svg width="48" height="49" viewBox="0 0 48 49" fill="none" xmlns="http://www.w3.org/2000/svg">
<rect width="48" height="49" fill="#1E1E1E"/>
<g id="Error Management" clip-path="url(#clip0_0_1)">
<g id="Clip path group">
<mask id="mask0_0_1" style="mask-type:luminance" maskUnits="userSpaceOnUse" x="-59" y="-807" width="1920" height="1166">
<g id="clip-Error_Management">
<path id="Vector" d="M1861 -807H-59V359H1861V-807Z" fill="white"/>
</g>
</mask>
<g mask="url(#mask0_0_1)">
<g id="Error Management_2">
<path id="Vector_2" d="M1861 -807H-59V359H1861V-807Z" fill="white"/>
<path id="Rectangle 64" d="M1861 -807H-59V457H1861V-807Z" fill="url(#paint0_linear_0_1)"/>
</g>
</g>
</g>
<g id="Frame 762473">
<g id="Frame 762464">
<g id="Frame 762471">
<path id="Vector_3" d="M11.1786 19.4452C11.5099 19.4452 11.7786 19.1765 11.7786 18.8452C11.7786 18.5138 11.5099 18.2452 11.1786 18.2452V19.4452ZM17.1857 12.4166C17.1857 12.748 17.4543 13.0166 17.7857 13.0166C18.1171 13.0166 18.3857 12.748 18.3857 12.4166H17.1857ZM7.60238 12.1785C7.60238 12.5099 7.87101 12.7785 8.20238 12.7785C8.53375 12.7785 8.80238 12.5099 8.80238 12.1785H7.60238ZM8.20238 9.26184V8.66184C7.87101 8.66184 7.60238 8.93047 7.60238 9.26184H8.20238ZM11.3571 9.86184C11.6885 9.86184 11.9571 9.59321 11.9571 9.26184C11.9571 8.93047 11.6885 8.66184 11.3571 8.66184V9.86184ZM13.9214 9.1428C13.9214 8.81143 13.6528 8.5428 13.3214 8.5428C12.9901 8.5428 12.7214 8.81143 12.7214 9.1428H13.9214ZM12.7214 9.20232C12.7214 9.53369 12.9901 9.80232 13.3214 9.80232C13.6528 9.80232 13.9214 9.53369 13.9214 9.20232H12.7214ZM11.1786 30.7547C11.5099 30.7547 11.7786 30.4861 11.7786 30.1547C11.7786 29.8233 11.5099 29.5547 11.1786 29.5547V30.7547ZM18.3857 36.5833C18.3857 36.2519 18.1171 35.9833 17.7857 35.9833C17.4543 35.9833 17.1857 36.2519 17.1857 36.5833H18.3857ZM8.80238 36.8214C8.80238 36.49 8.53375 36.2214 8.20238 36.2214C7.87101 36.2214 7.60238 36.49 7.60238 36.8214H8.80238ZM8.20238 39.738H7.60238C7.60238 40.0694 7.87101 40.338 8.20238 40.338V39.738ZM11.3571 40.338C11.6885 40.338 11.9571 40.0694 11.9571 39.738C11.9571 39.4067 11.6885 39.138 11.3571 39.138V40.338ZM12.7214 39.8571C12.7214 40.1885 12.9901 40.4571 13.3214 40.4571C13.6528 40.4571 13.9214 40.1885 13.9214 39.8571H12.7214ZM13.9214 39.7976C13.9214 39.4662 13.6528 39.1976 13.3214 39.1976C12.9901 39.1976 12.7214 39.4662 12.7214 39.7976H13.9214ZM35.881 18.2452C35.5496 18.2452 35.281 18.5138 35.281 18.8452C35.281 19.1765 35.5496 19.4452 35.881 19.4452V18.2452ZM28.6738 12.4166C28.6738 12.748 28.9424 13.0166 29.2738 13.0166C29.6052 13.0166 29.8738 12.748 29.8738 12.4166H28.6738ZM38.2571 12.1785C38.2571 12.5099 38.5258 12.7785 38.8571 12.7785C39.1885 12.7785 39.4571 12.5099 39.4571 12.1785H38.2571ZM38.8571 9.26184H39.4571C39.4571 8.93047 39.1885 8.66184 38.8571 8.66184V9.26184ZM35.7024 8.66184C35.371 8.66184 35.1024 8.93047 35.1024 9.26184C35.1024 9.59321 35.371 9.86184 35.7024 9.86184V8.66184ZM34.3381 9.1428C34.3381 8.81143 34.0695 8.5428 33.7381 8.5428C33.4067 8.5428 33.1381 8.81143 33.1381 9.1428H34.3381ZM33.1381 9.20232C33.1381 9.53369 33.4067 9.80232 33.7381 9.80232C34.0695 9.80232 34.3381 9.53369 34.3381 9.20232H33.1381ZM35.881 29.5547C35.5496 29.5547 35.281 29.8233 35.281 30.1547C35.281 30.4861 35.5496 30.7547 35.881 30.7547V29.5547ZM29.8738 36.5833C29.8738 36.2519 29.6052 35.9833 29.2738 35.9833C28.9424 35.9833 28.6738 36.2519 28.6738 36.5833H29.8738ZM39.4571 36.8214C39.4571 36.49 39.1885 36.2214 38.8571 36.2214C38.5258 36.2214 38.2571 36.49 38.2571 36.8214H39.4571ZM38.8571 39.738V40.338C39.1885 40.338 39.4571 40.0694 39.4571 39.738H38.8571ZM35.7024 39.138C35.371 39.138 35.1024 39.4067 35.1024 39.738C35.1024 40.0694 35.371 40.338 35.7024 40.338V39.138ZM33.1381 39.8571C33.1381 40.1885 33.4067 40.4571 33.7381 40.4571C34.0695 40.4571 34.3381 40.1885 34.3381 39.8571H33.1381ZM34.3381 39.7976C34.3381 39.4662 34.0695 39.1976 33.7381 39.1976C33.4067 39.1976 33.1381 39.4662 33.1381 39.7976H34.3381ZM14.9881 14.3261H32.131V13.1261H14.9881V14.3261ZM33.7929 15.988V33.1309H34.9929V15.988H33.7929ZM32.131 34.7928H14.9881V35.9928H32.131V34.7928ZM13.3262 33.1309V15.988H12.1262V33.1309H13.3262ZM14.9881 34.7928C14.0703 34.7928 13.3262 34.0487 13.3262 33.1309H12.1262C12.1262 34.7115 13.4075 35.9928 14.9881 35.9928V34.7928ZM33.7929 33.1309C33.7929 34.0487 33.0488 34.7928 32.131 34.7928V35.9928C33.7115 35.9928 34.9929 34.7115 34.9929 33.1309H33.7929ZM32.131 14.3261C33.0488 14.3261 33.7929 15.0702 33.7929 15.988H34.9929C34.9929 14.4074 33.7115 13.1261 32.131 13.1261V14.3261ZM14.9881 13.1261C13.4075 13.1261 12.1262 14.4074 12.1262 15.988H13.3262C13.3262 15.0702 14.0703 14.3261 14.9881 14.3261V13.1261ZM13.1505 24.5075L23.4481 14.2099L22.5995 13.3614L12.3019 23.659L13.1505 24.5075ZM13.1505 27.9004L26.9005 14.1504L26.0519 13.3019L12.3019 27.0519L13.1505 27.9004ZM13.1505 31.1147L30.0552 14.2099L29.2067 13.3614L12.3019 30.2662L13.1505 31.1147ZM13.1505 34.2694L33.0314 14.3885L32.1829 13.54L12.3019 33.4209L13.1505 34.2694ZM15.2338 35.7575L34.8171 16.1742L33.9686 15.3257L14.3853 34.909L15.2338 35.7575ZM17.9719 35.8766L34.8171 19.0313L33.9686 18.1828L17.1234 35.0281L17.9719 35.8766ZM21.4243 35.7575L34.8171 22.3647L33.9686 21.5162L20.5757 34.909L21.4243 35.7575ZM24.579 35.7575L34.8766 25.4599L34.0281 24.6114L23.7305 34.909L24.579 35.7575ZM31.4119 32.119C31.4119 32.1492 31.3874 32.1737 31.3571 32.1737V33.3737C32.0501 33.3737 32.6119 32.812 32.6119 32.119H31.4119ZM31.3571 32.1737C31.3269 32.1737 31.3024 32.1492 31.3024 32.119H30.1024C30.1024 32.812 30.6642 33.3737 31.3571 33.3737V32.1737ZM31.3024 32.119C31.3024 32.0887 31.3269 32.0642 31.3571 32.0642V30.8642C30.6642 30.8642 30.1024 31.426 30.1024 32.119H31.3024ZM31.3571 32.0642C31.3874 32.0642 31.4119 32.0887 31.4119 32.119H32.6119C32.6119 31.426 32.0501 30.8642 31.3571 30.8642V32.0642ZM15.9357 17.238C15.9357 17.2683 15.9112 17.2928 15.881 17.2928V18.4928C16.5739 18.4928 17.1357 17.931 17.1357 17.238H15.9357ZM15.881 17.2928C15.8507 17.2928 15.8262 17.2683 15.8262 17.238H14.6262C14.6262 17.931 15.188 18.4928 15.881 18.4928V17.2928ZM15.8262 17.238C15.8262 17.2078 15.8507 17.1833 15.881 17.1833V15.9833C15.188 15.9833 14.6262 16.545 14.6262 17.238H15.8262ZM15.881 17.1833C15.9112 17.1833 15.9357 17.2078 15.9357 17.238H17.1357C17.1357 16.545 16.5739 15.9833 15.881 15.9833V17.1833ZM11.1786 18.2452H6.35714V19.4452H11.1786V18.2452ZM6.6 18.488V7.35708H5.4V18.488H6.6ZM6.35714 7.59994H17.4286V6.39994H6.35714V7.59994ZM17.1857 7.35708V12.4166H18.3857V7.35708H17.1857ZM17.4286 7.59994C17.2944 7.59994 17.1857 7.49121 17.1857 7.35708H18.3857C18.3857 6.82847 17.9572 6.39994 17.4286 6.39994V7.59994ZM6.6 7.35708C6.6 7.49121 6.49127 7.59994 6.35714 7.59994V6.39994C5.82853 6.39994 5.4 6.82847 5.4 7.35708H6.6ZM6.35714 18.2452C6.49127 18.2452 6.6 18.3539 6.6 18.488H5.4C5.4 19.0166 5.82853 19.4452 6.35714 19.4452V18.2452ZM8.80238 12.1785V9.26184H7.60238V12.1785H8.80238ZM8.20238 9.86184H11.3571V8.66184H8.20238V9.86184ZM12.7214 9.1428V9.20232H13.9214V9.1428H12.7214ZM11.1786 29.5547H6.35714V30.7547H11.1786V29.5547ZM5.4 30.5118V41.6428H6.6V30.5118H5.4ZM6.35714 42.5999H17.4286V41.3999H6.35714V42.5999ZM18.3857 41.6428V36.5833H17.1857V41.6428H18.3857ZM17.4286 42.5999C17.9572 42.5999 18.3857 42.1714 18.3857 41.6428H17.1857C17.1857 41.5087 17.2944 41.3999 17.4286 41.3999V42.5999ZM5.4 41.6428C5.4 42.1714 5.82853 42.5999 6.35714 42.5999V41.3999C6.49127 41.3999 6.6 41.5087 6.6 41.6428H5.4ZM6.35714 29.5547C5.82853 29.5547 5.4 29.9832 5.4 30.5118H6.6C6.6 30.646 6.49127 30.7547 6.35714 30.7547V29.5547ZM7.60238 36.8214V39.738H8.80238V36.8214H7.60238ZM8.20238 40.338H11.3571V39.138H8.20238V40.338ZM13.9214 39.8571V39.7976H12.7214V39.8571H13.9214ZM35.881 19.4452H40.7024V18.2452H35.881V19.4452ZM41.6595 18.488V7.35708H40.4595V18.488H41.6595ZM40.7024 6.39994H29.631V7.59994H40.7024V6.39994ZM28.6738 7.35708V12.4166H29.8738V7.35708H28.6738ZM29.631 6.39994C29.1023 6.39994 28.6738 6.82847 28.6738 7.35708H29.8738C29.8738 7.49121 29.7651 7.59994 29.631 7.59994V6.39994ZM41.6595 7.35708C41.6595 6.82847 41.231 6.39994 40.7024 6.39994V7.59994C40.5683 7.59994 40.4595 7.49121 40.4595 7.35708H41.6595ZM40.7024 19.4452C41.231 19.4452 41.6595 19.0166 41.6595 18.488H40.4595C40.4595 18.3539 40.5683 18.2452 40.7024 18.2452V19.4452ZM39.4571 12.1785V9.26184H38.2571V12.1785H39.4571ZM38.8571 8.66184H35.7024V9.86184H38.8571V8.66184ZM33.1381 9.1428V9.20232H34.3381V9.1428H33.1381ZM35.881 30.7547H40.7024V29.5547H35.881V30.7547ZM40.4595 30.5118V41.6428H41.6595V30.5118H40.4595ZM40.7024 41.3999H29.631V42.5999H40.7024V41.3999ZM29.8738 41.6428V36.5833H28.6738V41.6428H29.8738ZM29.631 41.3999C29.7651 41.3999 29.8738 41.5087 29.8738 41.6428H28.6738C28.6738 42.1714 29.1023 42.5999 29.631 42.5999V41.3999ZM40.4595 41.6428C40.4595 41.5087 40.5683 41.3999 40.7024 41.3999V42.5999C41.231 42.5999 41.6595 42.1714 41.6595 41.6428H40.4595ZM40.7024 30.7547C40.5683 30.7547 40.4595 30.646 40.4595 30.5118H41.6595C41.6595 29.9832 41.231 29.5547 40.7024 29.5547V30.7547ZM38.2571 36.8214V39.738H39.4571V36.8214H38.2571ZM38.8571 39.138H35.7024V40.338H38.8571V39.138ZM34.3381 39.8571V39.7976H33.1381V39.8571H34.3381Z" fill="white"/>
</g>
</g>
</g>
</g>
<defs>
<linearGradient id="paint0_linear_0_1" x1="38.92" y1="271.192" x2="1149.69" y2="-1132.95" gradientUnits="userSpaceOnUse">
<stop stop-color="#034566"/>
<stop offset="1" stop-color="#0C364B"/>
</linearGradient>
<clipPath id="clip0_0_1">
<rect width="1920" height="1166" fill="white" transform="translate(-59 -807)"/>
</clipPath>
</defs>
</svg>
